<?xml version="1.0" encoding="iso-8859-1"?>
<!-- Generator: Adobe Illustrator 25.0.0, SVG Export Plug-In . SVG Version: 6.00 Build 0)  -->
<svg version="1.1" id="Object" xmlns="http://www.w3.org/2000/svg" xmlns:xlink="http://www.w3.org/1999/xlink" x="0px" y="0px"
	 width="500px" height="500px" viewBox="0 0 500 500" enable-background="new 0 0 500 500" xml:space="preserve">
<g>
	<defs>
		<circle id="SVGID_7_" cx="250" cy="250" r="186.175"/>
	</defs>
	<clipPath id="SVGID_2_">
		<use xlink:href="#SVGID_7_"  overflow="visible"/>
	</clipPath>
	<circle clip-path="url(#SVGID_2_)" fill="#FFE1CA" cx="250" cy="262.1" r="187.36"/>
	<g clip-path="url(#SVGID_2_)">
		<path fill="#35356D" d="M358.478,331.35c0,0,12.737,21.835,17.931,53.78s4.675,57.138,4.675,57.138H108.64
			c0,0,10.129-104.147,35.581-131.937S347.559,300.945,358.478,331.35z"/>
		<path fill="#FF9A41" d="M188.373,274.75c0,0-17.921-23.115-19.739-51.944c-1.818-28.829,18.7-87.785,64.93-100.511
			s78.954,7.012,90.642,46.749c11.687,39.737,0,90.122,0,90.122s18.44,11.687,20.777,22.855s1.039,17.661,1.039,17.661
			s11.168,13.505,12.466,21.557c1.299,8.051,1.299,10.129,1.299,10.129s-24.673-0.519-28.829,2.857
			c-4.155,3.376-26.751,45.97-77.656,33.763s-72.981-38.958-88.824-46.23c-15.843-7.272-28.829-0.26-28.829-0.26
			S152.792,265.4,188.373,274.75z"/>
		<g>
			<path fill="#C14F2D" d="M187.817,276.214c10.329,7.332,22.592,11.491,34.761,14.614c12.865,3.301,26.294,5.139,39.561,3.646
				c7.19-0.809,14.213-2.562,20.859-5.437c1.257-0.544,0.172-2.383-1.077-1.843c-11.674,5.05-24.642,6.368-37.235,5.348
				c-6.597-0.534-13.127-1.71-19.553-3.275c-6.061-1.476-12.079-3.237-17.923-5.426c-6.456-2.419-12.684-5.472-18.316-9.47
				C187.772,273.575,186.705,275.425,187.817,276.214L187.817,276.214z"/>
			<path fill="#C14F2D" d="M322.139,259.299c-10.262,10.611-21.855,19.889-34.435,27.611c-12.575,7.72-26.093,13.885-40.179,18.281
				c-7.966,2.486-16.104,4.402-24.342,5.731c-1.352,0.218-0.778,2.275,0.567,2.058c14.756-2.382,29.161-6.674,42.857-12.653
				c13.65-5.96,26.532-13.617,38.306-22.737c6.636-5.14,12.9-10.749,18.735-16.783C324.603,259.82,323.096,258.309,322.139,259.299
				L322.139,259.299z"/>
			<path fill="#C14F2D" d="M162.719,294.549c9.309,6.614,18.761,13.024,28.349,19.227c1.156,0.748,2.227-1.098,1.077-1.843
				c-9.588-6.203-19.04-12.614-28.349-19.227C162.674,291.909,161.607,293.759,162.719,294.549L162.719,294.549z"/>
			<path fill="#C14F2D" d="M197.76,316.983c5.488,2.928,11.246,5.334,17.187,7.179c1.315,0.408,1.877-1.651,0.567-2.058
				c-5.77-1.792-11.347-4.12-16.677-6.964C197.626,314.493,196.547,316.335,197.76,316.983L197.76,316.983z"/>
			<path fill="#C14F2D" d="M208.484,344.397c9.476,7.219,19.2,14.313,31.012,17.051c11.698,2.711,23.974,1.612,35.552-1.156
				c5.283-1.263,11.841-2.654,14.736-7.797c0.675-1.198-1.168-2.275-1.843-1.077c-2.391,4.247-7.863,5.421-12.22,6.512
				c-5.651,1.416-11.412,2.426-17.23,2.791c-5.693,0.357-11.446,0.115-17.043-1.03c-5.666-1.159-11.01-3.274-16.028-6.134
				c-5.6-3.192-10.742-7.105-15.86-11.003C208.468,341.723,207.404,343.575,208.484,344.397L208.484,344.397z"/>
			<path fill="#C14F2D" d="M345.72,299.897c-6.141,11.414-16.477,19.822-27.66,26.024c-13.099,7.264-27.491,11.685-41.309,17.317
				c-3.816,1.555-7.673,3.147-11.097,5.473c-3.366,2.286-6.161,5.247-8.916,8.213c-0.934,1.005,0.572,2.518,1.509,1.509
				c2.478-2.667,4.977-5.391,7.956-7.512c2.99-2.129,6.354-3.655,9.731-5.056c7.048-2.924,14.234-5.495,21.347-8.251
				c13.007-5.04,25.918-10.818,36.597-19.981c5.484-4.705,10.254-10.28,13.685-16.658
				C348.213,299.764,346.371,298.686,345.72,299.897L345.72,299.897z"/>
			<path fill="#C14F2D" d="M203.505,160.512c-2.379,5.762-4.758,11.523-7.137,17.285c-0.222,0.537,0.24,1.168,0.745,1.313
				c0.611,0.175,1.094-0.215,1.313-0.745c2.379-5.762,4.758-11.523,7.137-17.285c0.222-0.537-0.24-1.168-0.745-1.313
				C204.206,159.591,203.723,159.982,203.505,160.512L203.505,160.512z"/>
			<path fill="#C14F2D" d="M192.102,187.947c-2.994,10.392-4.24,21.259-3.663,32.058c0.073,1.366,2.207,1.375,2.134,0
				c-0.567-10.624,0.642-21.267,3.587-31.491C194.541,187.193,192.482,186.628,192.102,187.947L192.102,187.947z"/>
		</g>
		<path fill="#FFC9C0" d="M311.673,263.839c-9.933,24.932-46.553,29.22-65.84,22.796c-19.279-6.432-34.278-37.986-29.998-77.727
			c0.992-9.201,3.456-17.471,6.988-24.711c11.68-24.047,35.003-36.788,54.763-34.698c6.966,0.74,12.855,3.174,17.746,6.332
			c8.43,5.44,14.587,13.572,17.814,22.88c1.281,3.677,2.098,7.538,2.411,11.49C317.09,209.252,318.837,245.872,311.673,263.839z"/>
		<path fill="#FFFFFF" d="M313.146,178.712c-35.43-6.424-69.8-0.076-90.322,5.485c11.68-24.047,35.003-36.788,54.763-34.698
			c6.966,0.74,12.855,3.174,17.746,6.332C303.762,161.272,309.918,169.404,313.146,178.712z"/>
		<ellipse fill="#35356D" cx="252.199" cy="214.82" rx="5.389" ry="7.856"/>
		<ellipse fill="#35356D" cx="296.64" cy="214.234" rx="4.964" ry="7.271"/>
		<path fill="#35356D" d="M241.94,199.821c0,0,2.143-3.441,6.883-4.48c4.74-1.039,7.012-0.454,7.532,0.649
			c0.519,1.104,0.39,3.246-1.299,3.506c-1.688,0.26-4.74-0.584-7.337,0.325C245.122,200.73,240.901,203.068,241.94,199.821z"/>
		<path fill="#35356D" d="M291.157,196.445c0,0-1.039,1.883,0.519,2.857c1.558,0.974,2.532-0.584,6.168,1.364
			c3.636,1.948,5.844,1.299,5-0.974S291.806,192.939,291.157,196.445z"/>
		<path fill="#E27169" d="M279.249,217.38c-1.117,1.508-1.203,3.578-0.562,5.302c0.718,1.929,2.162,3.412,3.605,4.828
			c0.8,0.784,1.601,1.567,2.401,2.351c0.663,0.649,1.682,1.359,2.064,2.231c0.904,2.062-1.305,4.009-2.635,5.228
			c-1.014,0.93,0.498,2.436,1.509,1.509c1.522-1.396,3.057-2.944,3.368-5.08c0.143-0.98,0.018-1.983-0.467-2.857
			c-0.5-0.901-1.363-1.595-2.089-2.305c-1.552-1.52-3.271-2.978-4.621-4.685c-1.225-1.548-2.023-3.698-0.729-5.444
			C281.91,217.353,280.059,216.287,279.249,217.38L279.249,217.38z"/>
		<g>
			<path fill="#BC4A55" d="M257.529,248.939c-0.238,3.431,0.675,6.719,2.443,9.445c2.315,3.596,6.112,6.216,10.67,6.907
				c4.453,0.676,8.748-0.62,12.004-3.233c2.613-2.091,4.556-5.036,5.375-8.493c0.162-0.672-0.302-1.338-0.983-1.441l-28.143-4.27
				c-0.135-0.021-0.268-0.017-0.398,0.012C257.984,247.956,257.565,248.385,257.529,248.939z"/>
			<path fill="#FFFFFF" d="M258.497,247.866c3.019,2.838,7.858,5.086,13.526,5.946c5.721,0.868,11.061,0.134,14.786-1.723
				l-27.914-4.235C258.76,247.834,258.627,247.838,258.497,247.866z"/>
			<path fill="#E27169" d="M259.972,258.384c2.315,3.596,6.112,6.216,10.67,6.907c4.453,0.676,8.748-0.62,12.004-3.233
				c-2.94-1.972-6.846-3.478-11.245-4.146C267.23,257.279,263.262,257.495,259.972,258.384z"/>
		</g>
		<g>
			<ellipse fill="#FFAA9F" cx="245.966" cy="235.38" rx="12.531" ry="8.938"/>
			<ellipse fill="#FFAA9F" cx="303.677" cy="234.752" rx="9.469" ry="8.31"/>
		</g>
		<g>
			<path fill="#6D6DA5" d="M177.612,336.942c6.198,11.298,7.756,24.416,7.371,37.124c-0.431,14.196-3.256,28.174-4.452,42.303
				c-0.677,8.002-0.17,16.212-1.865,24.096c-0.288,1.339,1.769,1.911,2.058,0.567c1.534-7.139,1.229-14.483,1.718-21.729
				c0.493-7.319,1.49-14.591,2.442-21.861c1.777-13.568,3.335-27.292,1.298-40.925c-1.076-7.205-3.215-14.251-6.726-20.653
				C178.794,334.661,176.951,335.736,177.612,336.942L177.612,336.942z"/>
			<path fill="#6D6DA5" d="M344.345,340.113c-0.998,6.527,0.708,12.904,2.582,19.113c1.901,6.299,3.579,12.633,4.842,19.094
				c2.531,12.944,3.693,26.114,4.248,39.279c0.314,7.438,0.431,14.882,0.483,22.325c0.01,1.373,2.144,1.376,2.134,0
				c-0.092-13.078-0.385-26.17-1.588-39.199c-1.201-13.008-3.302-25.972-6.995-38.518c-2.042-6.939-4.773-14.174-3.649-21.526
				C346.608,339.336,344.552,338.757,344.345,340.113L344.345,340.113z"/>
			<path fill="#6D6DA5" d="M194.117,415.813c17.631,4.464,35.576,7.659,53.663,9.574c18.102,1.917,36.342,2.539,54.533,1.856
				c10.201-0.383,20.384-1.182,30.521-2.384c1.347-0.16,1.363-2.296,0-2.134c-18.022,2.138-36.192,2.986-54.335,2.534
				c-18.046-0.45-36.061-2.174-53.86-5.184c-10.065-1.702-20.059-3.813-29.955-6.319
				C193.353,413.418,192.785,415.475,194.117,415.813L194.117,415.813z"/>
		</g>
	</g>
</g>
</svg>
