<?xml version="1.0" encoding="iso-8859-1"?>
<!-- Generator: Adobe Illustrator 25.0.0, SVG Export Plug-In . SVG Version: 6.00 Build 0)  -->
<svg version="1.1" id="Object" xmlns="http://www.w3.org/2000/svg" xmlns:xlink="http://www.w3.org/1999/xlink" x="0px" y="0px"
	 width="500px" height="500px" viewBox="0 0 500 500" enable-background="new 0 0 500 500" xml:space="preserve">
<g>
	<defs>
		<circle id="SVGID_13_" cx="257.767" cy="227.422" r="186.175"/>
	</defs>
	<clipPath id="SVGID_2_">
		<use xlink:href="#SVGID_13_"  overflow="visible"/>
	</clipPath>
	<circle clip-path="url(#SVGID_2_)" fill="#CCDCFF" cx="257.767" cy="239.522" r="187.36"/>
	<g clip-path="url(#SVGID_2_)">
		<g>
			<path fill="#336AE5" d="M280.291,129.905c0,0,4.809-38.167,47.36-32.494c42.551,5.673,44.098,37.909,31.978,60.603
				s-8.51,31.204,6.189,43.067c14.699,11.863,14.184,62.924-17.278,68.34s-68.082,4.642-78.913-49.772
				C258.796,165.235,280.291,129.905,280.291,129.905z"/>
			<path fill="#3888FC" d="M177.562,212.829c0,0-20.695-26.383-16.247-53.268c4.449-26.885,33.784-29.786,33.784-29.786
				s13.409-29.528,55.187-27.981s89.744,45.388,78.397,98.254s-38.941,59.572-48.225,82.523S177.562,212.829,177.562,212.829z"/>
			<path fill="#FFC9C0" d="M177.175,180.837c0,0-9.284,62.473,4.255,80.073s42.745,14.506,42.745,14.506v22.473l-26.062,12.524
				c0,0,3.046,45.076,52.947,37.726s67.308-38.296,67.308-38.296l-33.654-16.827v-48.354c0,0,24.37-1.741,23.79-22.049
				s-18.955-15.86-23.21-12.959c-4.255,2.901-19.341,7.737-41.391-8.704s-34.815-42.938-34.815-42.938
				S188.2,167.685,177.175,180.837z"/>
			<g>
				<path fill="#E27169" d="M297.482,213.893c-5.08,0.472-9.168,3.956-11.065,8.605c-1.738,4.258-2.391,11.208,2.793,13.307
					c1.272,0.515,1.826-1.548,0.567-2.058c-1.916-0.776-2.485-3.065-2.483-4.925c0.002-2.059,0.454-4.172,1.311-6.047
					c1.624-3.549,4.896-6.378,8.877-6.748C298.838,215.901,298.851,213.766,297.482,213.893L297.482,213.893z"/>
				<path fill="#E27169" d="M287.917,227.868c0.849-1.317,2.079-2.636,3.732-2.799c0.856-0.085,1.598,0.234,2.323,0.657
					c0.885,0.516,1.736,1.098,2.57,1.693c0.469,0.335,1.188,0.083,1.46-0.383c0.313-0.536,0.088-1.124-0.383-1.46
					c-1.863-1.329-3.939-2.925-6.36-2.596c-2.284,0.311-3.984,1.948-5.185,3.811C285.328,227.948,287.174,229.019,287.917,227.868
					L287.917,227.868z"/>
			</g>
			<path fill="#E27169" d="M224.175,275.417c0,0,13.346,0.027,26.111-8.188c12.765-8.215,19.922-16.569,19.922-16.569
				s-3.481,23.592-18.761,37.073c-15.28,13.481-27.271,14.956-27.271,14.956V275.417z"/>
			<g>
				<g>
					<ellipse fill="#FFAA9F" cx="184.723" cy="232.82" rx="9.715" ry="7.162"/>
					<ellipse fill="#FFAA9F" cx="230.483" cy="230.122" rx="14.189" ry="9.305"/>
				</g>
			</g>
			<g>
				<ellipse fill="#35356D" cx="188.128" cy="208.961" rx="3.667" ry="5.999"/>
				<ellipse fill="#35356D" cx="228.623" cy="208.809" rx="4.449" ry="6.151"/>
				<g>
					<path fill="#BC4A55" d="M223.149,240.829c0.207,2.981-0.587,5.838-2.123,8.206c-2.011,3.125-5.311,5.401-9.271,6.002
						c-3.869,0.587-7.601-0.539-10.431-2.809c-2.27-1.817-3.958-4.375-4.67-7.379c-0.141-0.584,0.262-1.162,0.854-1.252l24.453-3.71
						c0.117-0.018,0.233-0.014,0.346,0.01C222.754,239.975,223.118,240.348,223.149,240.829z"/>
					<path fill="#FFFFFF" d="M222.308,239.896c-2.623,2.466-6.827,4.419-11.753,5.167c-4.971,0.754-9.611,0.116-12.847-1.497
						l24.254-3.68C222.08,239.869,222.195,239.872,222.308,239.896z"/>
					<path fill="#E27169" d="M221.027,249.035c-2.011,3.125-5.311,5.401-9.271,6.002c-3.869,0.587-7.601-0.539-10.431-2.809
						c2.554-1.714,5.948-3.022,9.771-3.602C214.72,248.076,218.168,248.263,221.027,249.035z"/>
				</g>
				<path fill="#E27169" d="M202.74,208.973c0.645,2.352,0.852,5.008-0.386,7.212c-1.103,1.964-3.031,3.297-4.603,4.855
					c-1.547,1.533-3.459,3.787-1.951,5.978c1.363,1.981,3.802,3.321,6.004,4.134c1.29,0.476,1.847-1.586,0.567-2.058
					c-1.116-0.412-2.178-0.98-3.134-1.691c-0.653-0.486-1.988-1.378-1.861-2.317c0.13-0.962,1.328-1.992,1.978-2.629
					c0.728-0.714,1.505-1.376,2.248-2.075c1.524-1.433,2.843-3.059,3.414-5.108c0.626-2.248,0.392-4.644-0.218-6.867
					C204.435,207.083,202.376,207.644,202.74,208.973L202.74,208.973z"/>
			</g>
			<path fill="#336AE5" d="M177.132,197.776c-0.39,0.117-0.716-0.337-0.516-0.72c0.832-1.585,3.042-4.421,8.209-4.421
				c7.17,0,11.179,4.445,10.1,6.207c-1.079,1.761-3.893-2.558-9.714-2.307C181.239,196.707,178.483,197.371,177.132,197.776z"/>
			<path fill="#336AE5" d="M217.186,193.895c-0.39,0.117-0.716-0.337-0.516-0.72c0.832-1.585,3.042-4.421,8.209-4.421
				c7.17,0,11.179,4.446,10.1,6.207c-1.079,1.761-3.893-2.558-9.714-2.307C221.293,192.826,218.537,193.49,217.186,193.895z"/>
			<g>
				<path fill="#FFFFFF" d="M185.121,231.189c-7.529,0-13.655-8.236-13.655-18.36c0-10.123,6.125-18.36,13.655-18.36
					c7.529,0,13.654,8.236,13.654,18.36C198.775,222.952,192.65,231.189,185.121,231.189z M185.121,196.604
					c-6.353,0-11.521,7.279-11.521,16.225c0,8.947,5.168,16.225,11.521,16.225c6.352,0,11.52-7.279,11.52-16.225
					C196.641,203.882,191.473,196.604,185.121,196.604z"/>
				<path fill="#FFFFFF" d="M225.881,234.656c-10.206,0-18.509-9.792-18.509-21.827c0-12.035,8.303-21.827,18.509-21.827
					c10.206,0,18.509,9.791,18.509,21.827C244.39,224.864,236.087,234.656,225.881,234.656z M225.881,193.136
					c-9.029,0-16.374,8.834-16.374,19.693s7.346,19.693,16.374,19.693c9.029,0,16.375-8.834,16.375-19.693
					S234.91,193.136,225.881,193.136z"/>
				<path fill="#FFFFFF" d="M285.294,210.723c-0.071,0-0.143-0.007-0.215-0.022l-45.466-9.294c-0.577-0.118-0.95-0.682-0.832-1.259
					c0.118-0.578,0.683-0.949,1.259-0.832l45.466,9.294c0.577,0.118,0.95,0.682,0.832,1.259
					C286.235,210.375,285.791,210.723,285.294,210.723z"/>
				<path fill="#FFFFFF" d="M196.628,207.433c-0.303,0-0.604-0.128-0.814-0.377c-0.38-0.448-0.327-1.119,0.121-1.501
					c0.066-0.056,6.717-5.589,14.058-0.286c0.478,0.345,0.585,1.012,0.24,1.49c-0.345,0.477-1.012,0.585-1.49,0.24
					c-5.964-4.308-11.206-0.003-11.427,0.182C197.116,207.351,196.871,207.433,196.628,207.433z"/>
			</g>
		</g>
		<g>
			<path fill="#F9E8E5" d="M311.152,304.407c-9.678,29.525-18.024,82.418-23.201,120.76H180.045
				c0.928-45.601,15.18-87.887,24.381-112.918c0.848-2.307,1.651-4.461,2.4-6.463c3.818-1.75,6.152-2.751,6.152-2.751
				s0.61,39.151,29.081,39.92c28.485,0.769,55.093-43.923,55.093-43.923s4.203,1.465,10.626,4.017
				C308.845,303.473,309.972,303.924,311.152,304.407z"/>
			<path fill="#35356D" d="M206.828,305.787c-8.865,23.741-25.766,69.582-26.782,119.381h-51.884c0,0,6.121-67.314,16.503-85.041
				C152.951,325.97,191.639,312.76,206.828,305.787z"/>
			<path fill="#35356D" d="M387.372,425.167H287.95c5.175-38.343,13.524-91.236,23.202-120.758
				c18.973,7.765,51.462,22.836,59.983,38.034C383.377,364.275,387.372,425.167,387.372,425.167z"/>
			<path fill="#35356D" d="M206.828,305.787c-8.865,23.741-25.766,69.582-26.782,119.381h-51.884c0,0,6.121-67.314,16.503-85.041
				C152.951,325.97,191.639,312.76,206.828,305.787z"/>
			<path fill="#35356D" d="M387.372,425.167H287.95c5.175-38.343,13.524-91.236,23.202-120.758
				c18.973,7.765,51.462,22.836,59.983,38.034C383.377,364.275,387.372,425.167,387.372,425.167z"/>
			<path fill="#FFFFFF" d="M307.778,303.048c-10.454,17.759-36.307,54.357-70.738,52.051c-28.379-1.909-33.078-25.475-32.614-42.849
				c0.848-2.307,1.651-4.461,2.4-6.463c3.818-1.75,6.152-2.751,6.152-2.751s0.61,39.151,29.081,39.92
				c28.485,0.769,55.093-43.923,55.093-43.923S301.355,300.496,307.778,303.048z"/>
		</g>
		<g>
			<path fill="#E2BAB5" d="M184.627,399.112c12.482,2.926,25.172,4.953,37.944,6.067c12.789,1.116,25.66,1.308,38.477,0.572
				c7.242-0.416,14.462-1.139,21.647-2.137c1.354-0.188,0.778-2.245-0.567-2.058c-12.565,1.744-25.258,2.569-37.943,2.494
				c-12.684-0.075-25.368-1.047-37.912-2.937c-7.078-1.067-14.11-2.425-21.079-4.058
				C183.859,396.741,183.289,398.798,184.627,399.112L184.627,399.112z"/>
			<path fill="#E2BAB5" d="M194.789,411.597c12.072,1.925,24.144,3.851,36.216,5.776c1.344,0.214,1.922-1.842,0.567-2.058
				c-12.072-1.925-24.144-3.851-36.216-5.776C194.012,409.325,193.434,411.381,194.789,411.597L194.789,411.597z"/>
		</g>
	</g>
</g>
</svg>
