<?xml version="1.0" encoding="UTF-8"?>
<!-- Generator: Adobe Illustrator 25.2.3, SVG Export Plug-In . SVG Version: 6.00 Build 0)  -->
<svg xmlns="http://www.w3.org/2000/svg" xmlns:xlink="http://www.w3.org/1999/xlink" version="1.1" id="Capa_1" x="0px" y="0px" viewBox="0 0 512 512" style="enable-background:new 0 0 512 512;" xml:space="preserve" width="512" height="512">
<g>
	<g>
		<path style="fill:#FFFFFF;" d="M255.99,512c-41.313,0-81.659-11.39-116.678-32.936c-2.409-1.485-4.757-2.991-6.978-4.478    c-62.194-41.5-99.332-110.876-99.332-185.575c0-74.04,35.934-142.032,96.599-183.736c-3.071-10.372-4.082-20.195-3.007-29.303    c1.831-15.518,9.232-29.744,20.302-39.027c8.949-7.504,20.636-11.808,32.064-11.808c0.883,0,1.761,0.025,2.636,0.076    C191.23,10.001,209.233,0,228.439,0c1.985,0,3.977,0.113,5.921,0.337c18.065,2.074,34.047,14.067,42.022,30.115    c5.998-2.302,12.61-3.509,19.524-3.509c12.79,0,25.256,4.037,35.1,11.368c14.435,10.75,23.538,28.637,24.859,47.69    c14.375,0.299,28.9,6.502,39.054,16.722c6.728,6.774,11.876,15.344,15.015,24.948c43.934,41.936,69.065,100.546,69.065,161.343    c0,67.846-30.335,131.176-83.23,173.75l-1.515,1.214C354.522,495.408,306.728,512,255.99,512z"/>
	</g>
	<g>
		<g>
			<path style="fill:#FF8476;" d="M466.615,289.012c0,66.489-30.732,125.787-78.786,164.465l-1.49,1.192     c-35.956,28.447-81.388,45.412-130.813,45.412c-40.486,0-78.309-11.403-110.431-31.169c-2.225-1.371-4.43-2.781-6.595-4.231     c-56.715-37.843-94.042-102.386-94.042-175.669c0-75.389,39.512-141.54,98.969-178.867c32.48-20.422,70.919-32.222,112.1-32.222     c31.328,0,61.066,6.814,87.805,19.071c1.152,0.516,2.304,1.053,3.437,1.609c19.19,9.217,36.771,21.236,52.206,35.559     C440.571,172.701,466.615,227.807,466.615,289.012z"/>
		</g>
		<g>
			<g>
				<path style="fill:#331510;" d="M133.822,190.093c-14.167-7.941-21.753-25.532-19.109-41.556      c2.643-16.024,14.688-29.811,29.74-35.911c-4.749-11.04-7.897-23.319-6.487-35.254c1.41-11.935,6.915-23.57,16.124-31.293      c9.209-7.723,22.224-11.113,33.744-7.686c6.378-17.357,26.33-28.322,44.702-26.214c18.372,2.108,34.278,17.865,36.559,36.216      c14.206-13.155,38.798-12.09,54.326-0.525c15.528,11.565,22.57,32.558,19.573,51.686c14.776-4.585,32.099,0.59,43.002,11.567      c10.903,10.976,15.938,27.052,14.922,42.489c-0.861,13.069-6.658,26.744-18.219,32.899c7.398,6.867,11.978,18.858,10.595,28.856      c-1.383,9.998-7.883,19.151-16.868,23.751c-2.223,1.138-4.696,2.027-7.177,1.731c-2.654-0.316-4.956-1.934-7.029-3.62      c-6.25-5.083-11.553-11.225-16.53-17.559c-16.052-20.427-29.191-43.325-47.891-61.359c-18.7-18.034-45.145-30.918-70.415-24.887      c-10.287,2.455-19.612,7.842-28.54,13.511c-19.564,12.424-38.044,26.553-55.163,42.175      C141.24,191.337,137.099,189.674,133.822,190.093z"/>
			</g>
			<g>
				<g>
					<g>
						<path style="fill:#FF8476;" d="M349.036,289.437c2.856-2.53,4.27-6.272,5.506-9.882c2.553-7.453,4.82-15.264,3.981-23.097        c-0.839-7.833-5.479-15.738-12.953-18.226c-1.191-0.396-2.476-0.65-3.698-0.363c-1.858,0.437-3.202,2.018-4.305,3.575        c-7.306,10.318-9.684,23.472-7.99,35.87c0.61,4.466,1.348,12.139,5.605,14.823        C339.174,294.654,345.858,292.252,349.036,289.437z"/>
					</g>
					<g style="opacity:0.72;">
						<path style="fill:#D3542B;" d="M349.036,289.437c2.856-2.53,4.27-6.272,5.506-9.882c2.553-7.453,4.82-15.264,3.981-23.097        c-0.839-7.833-5.479-15.738-12.953-18.226c-1.191-0.396-2.476-0.65-3.698-0.363c-1.858,0.437-3.202,2.018-4.305,3.575        c-7.306,10.318-9.684,23.472-7.99,35.87c0.61,4.466,1.348,12.139,5.605,14.823        C339.174,294.654,345.858,292.252,349.036,289.437z"/>
					</g>
				</g>
				<g>
					<g>
						<path style="fill:#FF8476;" d="M158.498,291.804c-2.856-2.53-4.27-6.272-5.506-9.882c-2.553-7.453-4.82-15.264-3.981-23.097        c0.839-7.833,5.479-15.738,12.953-18.227c1.19-0.396,2.476-0.65,3.698-0.363c1.858,0.437,3.202,2.017,4.305,3.575        c7.306,10.318,9.684,23.472,7.99,35.87c-0.61,4.466-1.348,12.139-5.605,14.823        C168.36,297.021,161.676,294.619,158.498,291.804z"/>
					</g>
					<g>
						<g style="opacity:0.72;">
							<path style="fill:#D3542B;" d="M158.498,291.804c-2.856-2.53-4.27-6.272-5.506-9.882c-2.553-7.453-4.82-15.264-3.981-23.097         c0.839-7.833,5.479-15.738,12.953-18.227c1.19-0.396,2.476-0.65,3.698-0.363c1.858,0.437,3.202,2.017,4.305,3.575         c7.306,10.318,9.684,23.472,7.99,35.87c-0.61,4.466-1.348,12.139-5.605,14.823         C168.36,297.021,161.676,294.619,158.498,291.804z"/>
						</g>
					</g>
				</g>
				<g>
					<g>
						<path style="fill:#FF8476;" d="M197.082,423.679c12.515-6.873,22.964-12.078,27.255-14.72        c7.529-4.609,8.94-22.11,8.761-36.294c0-0.854-0.02-1.708-0.04-2.543c0-0.497-0.02-0.993-0.04-1.49        c-0.02-0.715-0.06-1.43-0.079-2.106c-0.04-0.635-0.06-1.271-0.099-1.867c-0.02-0.536-0.06-1.073-0.08-1.589        c-0.02-0.199-0.02-0.377-0.04-0.556c-0.04-0.735-0.08-1.43-0.139-2.086v-0.06c-0.04-0.497-0.06-0.993-0.099-1.45        c-0.119-1.41-0.219-2.622-0.318-3.556c-0.02-0.318-0.06-0.596-0.079-0.834c-0.08-0.874-0.139-1.351-0.139-1.351l56.815-1.53        c0,0-0.06,3.298,0.099,8.244v0.278c0.02,0.417,0.04,0.834,0.04,1.251c0.06,1.629,0.139,3.417,0.238,5.284        c0.04,0.715,0.08,1.43,0.139,2.165c0.079,1.053,0.159,2.145,0.238,3.238c0.397,4.927,1.033,10.151,1.967,14.939        c0.199,1.033,0.417,2.046,0.656,3.019c0.735,3.099,1.629,5.92,2.702,8.244c3.516,7.589,14.144,10.966,27.056,14.8"/>
					</g>
					<g>
						<g style="opacity:0.72;">
							<path style="fill:#D3542B;" d="M321.896,413.11c-6.751-2.004-13.869-3.888-19.953-7.547         c-2.292-1.379-4.669-3.169-6.115-5.445c-1.944-3.06-2.882-6.743-3.75-10.23c-3.052-12.271-3.504-25.647-3.318-38.241         c0,0-56.487,1.521-56.813,1.53c0.823-0.02,1.136,18.795,1.161,20.711c0.083,6.577-0.215,13.254-1.358,19.74         c-0.885,5.019-2.285,11.29-6.477,14.669c-0.298,0.24-0.609,0.462-0.935,0.662c-4.291,2.642-14.74,7.847-27.255,14.72         l-11.422,37.242l30.029,11.131l46.73,25.887l11.257-2.071l31.064-46.338l45.946,2.589         C350.687,452.119,321.896,413.11,321.896,413.11z"/>
						</g>
						<g>
							<path style="fill:#331510;" d="M289.138,366.705c-7.171,6.258-16.627,10.112-26.182,10.389         c-7.668,0.219-20.64-2.702-29.937-8.463c-0.298-8.78-1.073-15.455-1.073-15.455l56.815-1.53         C288.76,351.647,288.661,358.203,289.138,366.705z"/>
						</g>
					</g>
				</g>
				<g>
					<g>
						<path style="fill:#FF8476;" d="M354.674,211.279c0.099,1.609,0.139,3.238,0.139,4.867c0,7.867-0.973,15.475-2.761,22.785        l-0.656,2.781l-12.257,51.471l-0.159,0.656c-0.219,1.112-0.457,2.304-0.735,3.516c-2.225,10.072-5.979,23.004-8.403,31.466        c-0.02,0.04-0.02,0.079-0.04,0.119c-4.708,16.19-20.898,25.964-40.942,30.95c-17.442,4.331-37.804,5.046-56.1,3.178        c-22.507-2.285-41.876-8.463-48.889-16.568c-4.291-4.966-7.668-13.687-10.33-24.275c-1.51-5.96-2.781-12.515-3.874-19.309        v-0.02l-0.417-2.662c-0.139,0.02-0.258,0.06-0.397,0.08l-0.397-4.748l-4.251-50.776c-0.08-1.629-0.139-3.179-0.199-4.649        c-0.357-8.78-0.417-14.362-0.417-14.362l0.318-0.02c-0.318-3.158-0.477-6.357-0.477-9.615        c0-52.842,42.829-95.691,95.691-95.691c12.734,0,24.891,2.483,35.996,7.012c0.477,0.199,0.954,0.397,1.43,0.616        c32.341,13.747,55.524,44.776,58.007,81.507l0.258-0.04C354.813,209.551,354.773,210.147,354.674,211.279z"/>
					</g>
					<g style="opacity:0.72;">
						<path style="fill:#D3542B;" d="M354.674,211.279c0.099,1.609,0.139,3.238,0.139,4.867c0,7.867-0.973,15.475-2.761,22.785        l-0.656,2.781l-12.257,51.471l-0.159,0.656c-0.219,1.112-0.457,2.304-0.735,3.516c-2.225,10.072-5.979,23.004-8.403,31.466        c-0.02,0.04-0.02,0.079-0.04,0.119c-4.708,16.19-20.898,25.964-40.942,30.95c-17.442,4.331-37.804,5.046-56.1,3.178        c-22.507-2.285-41.876-8.463-48.889-16.568c-4.291-4.966-7.668-13.687-10.33-24.275c-1.51-5.96-2.781-12.515-3.874-19.309        v-0.02l-0.417-2.662c-0.139,0.02,0.139-0.02,0,0l-0.795-4.668l-4.251-50.776c-0.08-1.629-0.139-3.179-0.199-4.649        c-0.357-8.78-0.417-14.362-0.417-14.362l0.318-0.02c-0.318-3.158-0.477-6.357-0.477-9.615        c0-52.842,42.829-95.691,95.691-95.691c12.734,0,24.891,2.483,35.996,7.012c0.477,0.199,0.954,0.397,1.43,0.616        c32.341,13.747,55.524,44.776,58.007,81.507l0.258-0.04C354.813,209.551,354.773,210.147,354.674,211.279z"/>
					</g>
				</g>
			</g>
			<g>
				<path style="fill:#331510;" d="M155.191,257.804c4.736,2.608,11.01,0.38,14.482-3.765c3.472-4.145,4.715-9.693,5.39-15.058      c0.918-7.299,1.69-15.906,8.005-19.679c2.392-1.429,5.239-1.882,7.768-3.052c4.955-2.293,8.412-7.517,8.587-12.974      c0.147-4.594-1.824-8.955-2.864-13.433c-1.04-4.478-0.877-9.833,2.587-12.855c4.078-3.559,10.26-2.089,15.649-1.583      c8.215,0.771,17.658-2.108,21.123-9.597c2.984-6.45,0.326-14.624-5.187-19.108c-5.513-4.484-13.234-5.603-20.202-4.201      c-6.967,1.402-13.283,5.068-18.983,9.311c-22.058,16.423-36.337,42.184-41.103,69.268c-1.736,9.867-2.235,20.304,1.382,29.646      L155.191,257.804z"/>
			</g>
			<g>
				<path style="fill:#331510;" d="M164.044,254.265c0.605,8.69,1.688,17.346,3.242,25.917c0.134-10.684,1.277-21.404,2.928-31.96      C168.208,248.004,165.103,252.546,164.044,254.265z"/>
			</g>
			<g>
				<path style="fill:#331510;" d="M343.522,248.483c-0.937,10.628-2.617,21.216-5.027,31.699      c-0.208-13.067-1.98-26.18-4.539-39.091C337.067,240.825,341.882,246.381,343.522,248.483z"/>
			</g>
			<g>
				<path style="fill:#331510;" d="M248.272,158.839c2.518,7.409,9.09,13.295,16.73,14.983c4.656,1.029,9.891,0.71,13.681,3.603      c6.043,4.611,4.604,13.797,5.326,21.364c0.967,10.144,8.278,20.236,18.392,21.483c7.033,0.867,15.747-1.93,20.208,3.575      c2.42,2.986,2.307,7.195,2.762,11.012c0.583,4.888,2.378,9.758,5.792,13.304c3.414,3.547,8.596,5.571,13.397,4.479      c8.6-1.957,12.339-12.188,12.846-20.993c1.171-20.336-7.227-40.524-20.473-55.999c-13.245-15.475-31.019-26.563-49.796-34.459      c-8.11-3.411-23.672-10.974-32.532-6.656C246.871,138.305,245.905,151.874,248.272,158.839z"/>
			</g>
			<g>
				<path style="fill:#FADED3;" d="M386.339,454.669c-35.956,28.447-81.388,45.412-130.813,45.412      c-40.486,0-78.309-11.403-110.431-31.169c-2.225-1.371-4.43-2.781-6.595-4.231c14.323-15.475,38.996-30.275,58.583-41.002      c3.973,3.675,7.747,7.589,11.502,11.482c18.554,19.21,37.108,38.42,55.643,57.629c17.283-28.149,36.81-54.113,57.669-79.68      c11.264,3.337,24.256,7.013,35.837,14.105C370.03,434.744,379.704,445.61,386.339,454.669z"/>
			</g>
			<g>
				<g>
					<g>
						<g>
							<g>
								<path style="fill:#331510;" d="M215.216,258.672c0,5.416-4.39,9.806-9.806,9.806c-5.416,0-9.806-4.39-9.806-9.806          c0-5.416,4.39-9.806,9.806-9.806C210.826,248.867,215.216,253.257,215.216,258.672z"/>
							</g>
							<g>
								<path style="fill:#331510;" d="M303.807,256.643c0,5.416-4.39,9.806-9.806,9.806c-5.416,0-9.806-4.39-9.806-9.806          c0-5.416,4.39-9.806,9.806-9.806C299.416,246.838,303.807,251.228,303.807,256.643z"/>
							</g>
						</g>
					</g>
					<g>
						<path style="fill:#331510;" d="M253.142,289.73c-0.956,0-1.912-0.118-2.845-0.359c-1.324-0.341-2.563-0.912-3.764-1.464        c-1.745-0.802-3.394-1.559-5.129-1.559c-0.012,0-0.025,0-0.039,0c-0.75,0.005-1.544,0.146-2.383,0.296        c-1.793,0.317-3.817,0.676-5.556-0.464c-1.474-0.97-2.306-2.867-2.173-4.95c0.113-1.734,0.816-3.325,1.437-4.729        c0.224-0.504,0.816-0.727,1.309-0.507c0.502,0.222,0.73,0.809,0.508,1.31c-0.582,1.314-1.182,2.672-1.272,4.054        c-0.086,1.351,0.417,2.592,1.283,3.162c1.075,0.706,2.485,0.455,4.118,0.168c0.884-0.157,1.799-0.321,2.718-0.326        c0.016,0,0.035-0.001,0.053-0.001c2.169,0,4.093,0.885,5.955,1.741c1.174,0.54,2.28,1.048,3.431,1.344        c2.405,0.618,5.102,0.228,7.232-1.038c0.705-0.42,1.363-0.933,2.06-1.477c1.141-0.89,2.321-1.81,3.768-2.339        c1.229-0.449,2.516-0.566,3.76-0.68c1.571-0.144,3.053-0.28,4.179-1.069c0.794-0.556,1.33-1.501,1.468-2.591        c0.14-1.093-0.142-2.142-0.773-2.881c-0.356-0.417-0.306-1.043,0.111-1.4c0.417-0.354,1.044-0.306,1.402,0.111        c0.993,1.162,1.441,2.774,1.231,4.421c-0.21,1.646-1.048,3.092-2.3,3.968c-1.558,1.092-3.377,1.258-5.137,1.419        c-1.168,0.107-2.274,0.208-3.258,0.568c-1.155,0.421-2.163,1.207-3.229,2.039c-0.713,0.557-1.453,1.133-2.265,1.617        C257.255,289.179,255.202,289.729,253.142,289.73z"/>
					</g>
					<g>
						<path style="fill:#331510;" d="M187.351,224.139c-1.203,1.088-2.372,2.323-2.835,3.878c-0.464,1.554-0.005,3.492,1.421,4.265        c1.021,0.554,2.264,0.409,3.412,0.229c4.685-0.735,9.317-1.808,13.848-3.206c1.831-0.565,3.699-1.213,5.136-2.48        c1.438-1.267,2.357-3.305,1.782-5.133c-0.525-1.669-2.169-2.789-3.873-3.183C199.943,217.054,191.975,219.959,187.351,224.139        z"/>
					</g>
					<g>
						<path style="fill:#331510;" d="M307.451,226.422c1.203,1.088,2.372,2.323,2.835,3.878c0.464,1.554,0.005,3.492-1.421,4.265        c-1.021,0.554-2.264,0.409-3.412,0.229c-4.685-0.735-9.317-1.808-13.848-3.206c-1.831-0.565-3.699-1.213-5.136-2.48        c-1.438-1.267-2.357-3.305-1.782-5.133c0.524-1.669,2.169-2.789,3.873-3.183C294.859,219.336,302.827,222.241,307.451,226.422        z"/>
					</g>
					<g>
						<g>
							<g>
								<path style="fill:#A65236;" d="M223.585,311.075c0,0,9.13,0.254,14.455-4.311c5.326-4.565,6.847-9.637,17.752-9.89          c10.905-0.253,15.216,10.651,20.542,11.412c5.325,0.761,8.876,0,8.876,0S265.936,321.219,223.585,311.075z"/>
							</g>
							<g>
								<path style="fill:#A65236;" d="M224.915,311.117c8.97,3.82,14.273,14.13,23.653,16.789c4.234,1.2,8.771,0.643,13.051-0.38          c1.738-0.415,3.469-0.911,5.065-1.714c7.02-3.536,9.983-12.12,16.295-16.804c-11.024,1.769-22.165,1.768-33.33,1.845          C241.78,310.907,232.785,311.062,224.915,311.117z"/>
							</g>
						</g>
						<g>
							<path style="fill:#331510;" d="M252.057,314.749c-0.927,0-1.846-0.021-2.761-0.062c-4.309-0.195-8.642-0.734-12.834-1.256         c-4.062-0.506-8.262-1.028-12.408-1.231c-0.411-0.021-0.728-0.37-0.707-0.78c0.023-0.41,0.405-0.725,0.781-0.708         c4.202,0.206,8.428,0.732,12.519,1.242c4.163,0.518,8.465,1.054,12.714,1.246c11.686,0.525,24.578-2.549,35.647-5.63         c0.399-0.105,0.806,0.121,0.917,0.518c0.111,0.396-0.121,0.807-0.518,0.917C275.086,311.877,263.184,314.749,252.057,314.749         z"/>
						</g>
					</g>
				</g>
				<g>
					<g style="opacity:0.28;">
						<path style="fill:#D3542B;" d="M222.649,307.685c0,14.76-11.959,26.719-26.699,26.719c-9.396,0-17.66-4.847-22.408-12.177        c-1.51-5.96-2.781-12.515-3.874-19.309v-0.02c0.576-3.198,1.728-6.198,3.337-8.88c0.735-1.251,1.589-2.443,2.523-3.556        c4.907-5.801,12.237-9.476,20.422-9.476C210.69,280.986,222.649,292.945,222.649,307.685z"/>
					</g>
					<g style="opacity:0.28;">
						<path style="fill:#D3542B;" d="M338.245,297.356c-2.225,10.072-5.979,23.004-8.403,31.466c-0.02,0.04-0.02,0.079-0.04,0.119        c-4.49,3.417-10.111,5.463-16.19,5.463c-14.76,0-26.719-11.959-26.719-26.719c0-14.74,11.959-26.699,26.719-26.699        c7.211,0,13.767,2.841,18.554,7.509c1.192,1.132,2.285,2.404,3.238,3.754C336.537,293.819,337.49,295.548,338.245,297.356z"/>
					</g>
				</g>
			</g>
			<g>
				<g>
					<path style="fill:#FFC17D;" d="M349.036,289.437c0,0,7.688-10.823-1.441-27.56c-9.13-16.738-91.803-107.019-95.353-116.656       c0,0-49.705,25.867-65.429,49.198c-15.723,23.331-28.91,77.601-24.345,100.933c0,0-13.726-10.272-28.91-41.59       c-16.23-33.475-7.608-53.256,3.55-68.472c11.158-15.216,49.705-63.4,96.875-68.979c0,0,9.13-16.738,44.633-9.13       c35.504,7.608,86.224,39.561,87.745,85.717c0,0,9.637,32.461,3.551,45.141c-6.086,12.68-4.565,18.767-4.565,18.767       s-6.594,32.968-15.723,34.489L349.036,289.437z"/>
				</g>
				<g>
					<g>
						<path style="fill:#A65236;" d="M259.858,156.69c-0.15,0-0.298-0.068-0.397-0.197c-0.613-0.811-1.233-1.62-1.854-2.43        c-2.454-3.2-4.993-6.509-7.143-10.109c-1.486-2.487-2.718-5.104-3.908-7.634c-1.157-2.461-2.354-5.006-3.778-7.411        c-2.822-4.766-6.297-9.115-10.328-12.926c-0.199-0.188-0.208-0.503-0.021-0.702c0.193-0.198,0.506-0.206,0.703-0.02        c4.097,3.875,7.631,8.296,10.5,13.142c1.447,2.445,2.656,5.012,3.824,7.494c1.178,2.508,2.399,5.101,3.858,7.546        c2.121,3.55,4.642,6.836,7.08,10.014c0.625,0.812,1.246,1.623,1.86,2.436c0.164,0.219,0.121,0.53-0.097,0.696        C260.068,156.658,259.963,156.69,259.858,156.69z"/>
					</g>
					<g>
						<path style="fill:#A65236;" d="M365.893,249.994c-0.226,0-0.43-0.153-0.483-0.381c-1.842-7.763-6.792-15.131-15.574-23.185        c-2.329-2.135-4.79-4.219-7.168-6.235c-4.81-4.075-9.783-8.289-13.96-13.167c-5.935-6.935-10.227-15.162-14.377-23.118        c-3.028-5.806-6.159-11.809-9.904-17.26c-7.448-10.84-18.256-20.787-32.122-29.566c-12.427-7.866-26.033-14.099-39.191-20.126        c-0.249-0.114-0.358-0.409-0.245-0.658c0.117-0.251,0.409-0.36,0.66-0.245c13.187,6.041,26.824,12.288,39.306,20.19        c13.981,8.851,24.886,18.891,32.41,29.841c3.78,5.502,6.926,11.532,9.968,17.364c4.124,7.907,8.389,16.084,14.252,22.932        c4.122,4.816,9.066,9.005,13.845,13.055c2.387,2.022,4.855,4.111,7.197,6.261c8.936,8.195,13.979,15.722,15.87,23.686        c0.064,0.267-0.101,0.534-0.368,0.598C365.97,249.99,365.93,249.994,365.893,249.994z"/>
					</g>
					<g>
						<path style="fill:#A65236;" d="M349.781,291.613c-0.115,0-0.23-0.039-0.325-0.12c-0.208-0.179-0.23-0.492-0.051-0.701        c3.357-3.892,5.08-9.596,4.726-15.647c-0.284-4.859-1.778-9.998-4.703-16.173c-7.102-14.985-18.112-27.555-28.759-39.712        c-3.291-3.759-6.57-7.536-9.849-11.314c-18.485-21.296-37.598-43.317-59.242-62.01c-0.208-0.18-0.23-0.493-0.051-0.701        c0.181-0.207,0.491-0.231,0.701-0.051c21.698,18.741,40.834,40.789,59.343,62.112c3.279,3.777,6.556,7.553,9.847,11.311        c10.692,12.208,21.747,24.83,28.907,39.941c2.983,6.294,4.506,11.551,4.798,16.541c0.368,6.307-1.441,12.267-4.964,16.354        C350.059,291.555,349.921,291.613,349.781,291.613z"/>
					</g>
					<g>
						<path style="fill:#A65236;" d="M358.676,277.751c-0.01,0-0.021,0-0.033-0.001c-0.273-0.017-0.481-0.254-0.463-0.527        c1.143-17.53-7.347-33.051-14.669-42.985c-7.873-10.68-17.823-19.894-27.441-28.804c-1.661-1.538-3.318-3.073-4.967-4.616        c-10.067-9.424-20.382-19.706-31.534-31.433c-1.289-1.355-2.563-2.734-3.842-4.116c-7.059-7.635-14.361-15.53-24.086-19.245        c-0.257-0.098-0.384-0.384-0.288-0.64c0.099-0.257,0.395-0.385,0.641-0.287c9.943,3.798,17.325,11.779,24.462,19.498        c1.275,1.378,2.547,2.755,3.832,4.106c11.14,11.713,21.441,21.981,31.493,31.392c1.647,1.542,3.303,3.077,4.962,4.613        c9.653,8.941,19.636,18.188,27.564,28.943c7.423,10.068,16.026,25.811,14.862,43.639        C359.155,277.549,358.935,277.751,358.676,277.751z"/>
					</g>
					<g>
						<path style="fill:#A65236;" d="M372.558,221.912c-0.113,0-0.228-0.038-0.321-0.117c-3.04-2.57-6.403-4.853-9.655-7.062        c-3.026-2.055-6.155-4.179-9.037-6.541c-6.021-4.936-11.107-11.009-16.024-16.882l-1.369-1.633        c-11.516-13.708-27.135-31.288-45.872-45.67c-18.824-14.449-38.293-23.792-57.869-27.771        c-0.269-0.054-0.442-0.317-0.389-0.585c0.056-0.269,0.317-0.445,0.586-0.387c19.724,4.008,39.331,13.414,58.276,27.956        c18.813,14.44,34.48,32.072,46.028,45.818l1.371,1.635c4.886,5.838,9.941,11.875,15.89,16.751        c2.849,2.334,5.959,4.446,8.967,6.489c3.273,2.223,6.658,4.521,9.738,7.125c0.21,0.177,0.236,0.49,0.06,0.7        C372.84,221.852,372.7,221.912,372.558,221.912z"/>
					</g>
					<g>
						<path style="fill:#A65236;" d="M367.086,193.927c-0.232,0-0.44-0.162-0.487-0.398c-1.369-6.77-7.565-11.02-13.557-15.131        c-1.071-0.735-2.132-1.463-3.155-2.199c-8.494-6.101-15.418-14.177-22.113-21.986c-4.751-5.542-9.662-11.272-15.097-16.253        c-20.559-18.836-50.37-27.473-77.817-22.533c-0.284,0.043-0.53-0.133-0.578-0.401c-0.047-0.27,0.132-0.528,0.401-0.578        c27.727-4.989,57.879,3.735,78.664,22.78c5.48,5.021,10.412,10.774,15.181,16.338c6.656,7.765,13.541,15.795,21.938,21.827        c1.018,0.731,2.074,1.455,3.137,2.185c6.157,4.222,12.521,8.588,13.97,15.753c0.053,0.269-0.119,0.531-0.389,0.586        C367.152,193.924,367.119,193.927,367.086,193.927z"/>
					</g>
					<g>
						<path style="fill:#A65236;" d="M162.132,295.724c-0.146,0-0.29-0.064-0.389-0.186c-9.292-11.609-12.803-28.235-9.633-45.613        c3.092-16.923,11.83-32.155,19.099-43.534c10.646-16.661,21.439-29.92,32.998-40.538c13.913-12.78,28.958-21.763,44.719-26.7        c0.259-0.081,0.539,0.063,0.623,0.326c0.08,0.261-0.064,0.54-0.327,0.622c-15.619,4.894-30.539,13.804-44.345,26.484        c-11.493,10.558-22.232,23.753-32.829,40.34c-7.222,11.302-15.901,26.425-18.959,43.178        c-3.12,17.095,0.319,33.428,9.431,44.814c0.171,0.214,0.136,0.526-0.078,0.698        C162.35,295.689,162.241,295.724,162.132,295.724z"/>
					</g>
					<g>
						<path style="fill:#A65236;" d="M141.342,268.193c-0.185,0-0.364-0.104-0.448-0.283c-4.494-9.406-5.826-21.025-3.75-32.718        c1.764-9.928,5.801-19.993,12.344-30.771c9.769-16.089,23.675-31.321,41.333-45.274        c15.808-12.488,31.078-22.601,49.513-32.789c0.238-0.132,0.543-0.047,0.674,0.194c0.134,0.241,0.047,0.543-0.193,0.675        c-18.386,10.161-33.614,20.245-49.377,32.699c-17.568,13.88-31.394,29.024-41.099,45.011        c-6.482,10.671-10.476,20.625-12.217,30.428c-2.041,11.491-0.738,22.897,3.667,32.118c0.119,0.248,0.014,0.544-0.234,0.662        C141.488,268.178,141.414,268.193,141.342,268.193z"/>
					</g>
					<g>
						<path style="fill:#A65236;" d="M134.368,258.158c-0.193,0-0.376-0.112-0.456-0.3c-3.984-9.277-4.218-20.578-0.711-34.549        c3.476-13.856,9.133-25.69,16.811-35.173c6.56-8.101,14.932-14.815,22.945-20.998c20.902-16.126,42.91-31.492,64.194-46.352        c0.222-0.155,0.576-0.134,0.734,0.094c0.158,0.224,0.146,0.504-0.08,0.661l-0.086,0.061        c-21.272,14.853-43.27,30.212-64.153,46.325c-8.299,6.4-16.285,12.811-22.781,20.835c-7.587,9.37-13.181,21.075-16.622,34.79        c-3.449,13.75-3.234,24.844,0.662,33.913c0.109,0.252-0.008,0.545-0.261,0.653        C134.499,258.146,134.433,258.158,134.368,258.158z"/>
					</g>
				</g>
			</g>
			<g>
				<g>
					<path style="fill:#FADED3;" d="M350.131,370.407c-15.08,0-29.18-8.096-36.799-21.128c-0.138-0.237-0.058-0.541,0.179-0.679       c0.234-0.136,0.541-0.061,0.68,0.178c7.439,12.73,21.21,20.637,35.939,20.637c22.939,0,41.601-18.662,41.601-41.602       c0-22.938-18.661-41.601-41.601-41.601c-1.768,0-3.546,0.112-5.285,0.332c-0.275,0.044-0.52-0.157-0.555-0.43       c-0.033-0.272,0.158-0.521,0.432-0.555c1.78-0.226,3.599-0.34,5.408-0.34c23.486,0,42.596,19.107,42.596,42.593       C392.726,351.3,373.617,370.407,350.131,370.407z"/>
				</g>
				<g>
					<path style="fill:#FADED3;" d="M159.681,373.485c-1.846,0-3.702-0.12-5.556-0.367c-23.28-3.095-39.705-24.554-36.609-47.835       c1.499-11.277,7.3-21.297,16.334-28.212s20.207-9.901,31.499-8.398c1.793,0.238,3.583,0.591,5.318,1.05       c0.265,0.07,0.423,0.342,0.354,0.607c-0.072,0.262-0.339,0.421-0.608,0.353c-1.694-0.448-3.441-0.793-5.195-1.026       c-11.008-1.464-21.94,1.449-30.765,8.202c-8.823,6.754-14.488,16.54-15.954,27.555c-3.022,22.738,13.021,43.696,35.758,46.719       c14.599,1.937,29.289-4.085,38.344-15.722c0.173-0.215,0.483-0.255,0.697-0.086c0.218,0.168,0.257,0.48,0.088,0.697       C185.266,367.458,172.716,373.485,159.681,373.485z"/>
				</g>
			</g>
		</g>
		<g>
			<g>
				<path style="fill:#FADED3;" d="M100.08,401.963c0,0,12.64,0.649,14.925-2.289c2.285-2.939,4.757-15.669,4.757-15.669      s1.155,11.889,3.037,15.253c2.201,3.933,13.85,6.324,13.85,6.324s-10.873-0.338-13.743,2.877      c-1.957,2.192-5.495,11.574-5.851,15.429c0,0-0.257-14.478-3.387-16.641C110.538,405.082,100.08,401.963,100.08,401.963z"/>
			</g>
			<g>
				<path style="fill:#FADED3;" d="M64.683,282.462c0,0,12.64,0.649,14.925-2.289c2.285-2.939,4.757-15.669,4.757-15.669      s1.155,11.889,3.037,15.253c2.201,3.933,13.85,6.324,13.85,6.324s-10.873-0.337-13.743,2.877      c-1.957,2.192-5.495,11.574-5.851,15.429c0,0-0.257-14.478-3.387-16.641C75.141,285.581,64.683,282.462,64.683,282.462z"/>
			</g>
			<g>
				<path style="fill:#FADED3;" d="M314.118,373.559c0,0,12.639,0.649,14.925-2.289c2.285-2.939,4.757-15.669,4.757-15.669      s1.155,11.889,3.037,15.253c2.201,3.933,13.85,6.324,13.85,6.324s-10.872-0.337-13.743,2.877      c-1.957,2.192-5.495,11.574-5.851,15.429c0,0-0.257-14.478-3.387-16.641C324.576,376.679,314.118,373.559,314.118,373.559z"/>
			</g>
			<g>
				<g>
					<path style="fill:#FADED3;" d="M402.48,282.462c0,0,12.639,0.649,14.925-2.289c2.285-2.939,4.757-15.669,4.757-15.669       s1.155,11.889,3.037,15.253c2.201,3.933,13.85,6.324,13.85,6.324s-10.873-0.337-13.743,2.877       c-1.957,2.192-5.495,11.574-5.851,15.429c0,0-0.257-14.478-3.387-16.641C412.937,285.581,402.48,282.462,402.48,282.462z"/>
				</g>
				<g>
					<circle style="fill:#FADED3;" cx="412.685" cy="197.463" r="6.424"/>
				</g>
			</g>
			<g>
				<circle style="fill:#FADED3;" cx="88.416" cy="197.463" r="6.424"/>
			</g>
			<g>
				<circle style="fill:#FADED3;" cx="146.237" cy="327.306" r="6.424"/>
			</g>
			<g>
				<path style="fill:#FADED3;" d="M414.376,382.083c0,3.548-2.876,6.424-6.424,6.424c-3.548,0-6.425-2.876-6.425-6.424      s2.876-6.424,6.425-6.424C411.5,375.659,414.376,378.535,414.376,382.083z"/>
			</g>
		</g>
	</g>
</g>















</svg>
