<?xml version="1.0" encoding="UTF-8"?>
<!-- Generator: Adobe Illustrator 25.2.3, SVG Export Plug-In . SVG Version: 6.00 Build 0)  -->
<svg xmlns="http://www.w3.org/2000/svg" xmlns:xlink="http://www.w3.org/1999/xlink" version="1.1" id="Capa_1" x="0px" y="0px" viewBox="0 0 511.004 511.004" style="enable-background:new 0 0 511.004 511.004;" xml:space="preserve" width="512" height="512">
<g>
	<g>
		<path style="fill:#FFFFFF;" d="M279.283,508.041c-26.15,2.358-52.669,0.701-78.785-5.014    c-58.939-12.899-112.6-47.173-149.074-95.227c-25.397-33.46-42.492-73.201-48.718-114.778c-8.875-59.268,4.316-120.419,36-171.211    C71.051,69.962,122.52,30.826,180.933,12.974c12.303-3.76,24.893-6.575,37.625-8.417c62.375-9.026,126.904,5.359,179.42,40.243    c7.673,5.097,15.07,10.608,22.148,16.502c49.064,40.864,79.604,96.893,88.393,160.031c5.798,41.65,1.472,84.305-13.159,123.766    c-1.867,5.034-3.918,9.999-6.158,14.879c-12.543,27.327-29.995,52.335-51.212,73.634c-23.674,23.766-52.117,42.908-83.11,55.765    C330.533,499.479,305.088,505.714,279.283,508.041z"/>
	</g>
	<g>
		<g>
			<g>
				<g>
					<path style="fill:#FFB9C2;" d="M498.821,255.428c0,0.274,0,0.548-0.001,0.821c-0.092,38.109-9.504,75.975-27.279,109.684       c-22.236,42.138-57.313,77.57-99.391,99.997c-45.716,24.366-99.297,33.575-150.547,26.16       c-51.071-7.389-99.028-31.478-135.637-67.805c-35.093-34.823-59.082-80.596-67.235-129.394       c-8.604-51.496,0.177-105.574,24.852-151.604c23.619-44.061,61.246-80.154,106.07-102.225       C198.684,16.92,255.968,10.157,309.32,21.765c9.791,2.13,19.451,4.866,28.901,8.2c45.206,15.948,85.398,45.605,113.954,84.111       C482.264,154.651,498.765,204.93,498.821,255.428z"/>
				</g>
				<g>
					<g>
						<path style="fill:#FADED3;" d="M87.384,103.81c-5.097-0.367-10.171-1.33-15.176-2.431c0.255-0.321,0.533-0.665,0.857-0.986        c4.773,1.032,9.592,1.927,14.411,2.294c25.648,1.927,50.253-10.78,66.541-20.505c19.74-11.789,38.275-25.643,55.095-41.193        c3.823-3.532,7.622-7.202,11.306-10.78c4.495-4.335,9.036-8.739,13.762-12.982c0.649-0.069,1.274-0.138,1.923-0.16        c-5.12,4.518-10.032,9.266-14.874,13.968c-3.684,3.578-7.507,7.248-11.33,10.78c-16.89,15.619-35.494,29.518-55.281,41.353        C138.193,92.961,113.356,105.783,87.384,103.81z"/>
					</g>
					<g>
						<path style="fill:#FADED3;" d="M338.325,30.003c-4.078,13.716-16.774,24.954-25.347,31.262        c-38.437,28.234-85.284,43.28-130.602,57.821c-48.261,15.482-98.189,31.491-137.576,63.509        c-8.758,7.11-16.844,15-24.211,23.509c0.162-0.78,0.324-1.537,0.51-2.316c7.02-7.982,14.689-15.367,22.96-22.087        c39.573-32.133,89.594-48.188,137.97-63.716c45.225-14.495,91.98-29.519,130.255-57.638        c8.457-6.216,20.991-17.317,24.953-30.734C337.607,29.727,337.977,29.842,338.325,30.003z"/>
					</g>
					<g>
						<path style="fill:#FADED3;" d="M418.236,77.055c-0.718,2.385-1.46,4.77-2.155,7.11c-4.402,14.61-8.92,29.725-19.091,41.307        c-10.982,12.546-28.196,19.587-44.901,18.417c-11.237-0.802-21.917-5.046-32.228-9.128c-3.499-1.399-7.113-2.821-10.704-4.106        c-17.84-6.376-32.344-6.629-43.14-0.757c-10.588,5.757-18.164,18.142-20.759,33.945c-1.367,8.188-1.483,16.651-1.576,24.84        c-0.07,5.459-0.162,11.124-0.602,16.651c-1.066,13.509-5.723,38.395-24.791,53.418c-22.891,18.027-55.976,13.532-79.284,3.28        c-1.066-0.459-2.155-0.94-3.22-1.445c-7.461-3.348-15.152-6.835-23.122-5.986c-11.005,1.17-18.906,10.206-22.613,18.28        c-4.31,9.357-5.19,19.793-6.024,29.885L77.4,383.042c-0.486,6.055-1.065,11.858-2.062,17.293        c-0.626,3.463-1.413,6.766-2.456,9.931c-0.301-0.344-0.602-0.688-0.903-1.032c0.857-2.706,1.552-5.527,2.085-8.44        c1.066-5.596,1.668-11.582,2.178-17.844l6.626-80.275c0.857-10.184,1.715-20.711,6.117-30.275        c3.846-8.349,12.071-17.729,23.563-18.945c8.271-0.872,16.126,2.683,23.702,6.101c1.089,0.482,2.155,0.963,3.22,1.445        c23.007,10.092,55.605,14.564,78.102-3.142c18.721-14.748,23.308-39.289,24.351-52.615c0.44-5.504,0.533-11.124,0.602-16.559        c0.116-8.234,0.208-16.743,1.576-25.023c2.687-16.147,10.472-28.83,21.362-34.771c11.098-6.032,25.926-5.803,44.09,0.688        c3.591,1.284,7.229,2.729,10.75,4.106c10.217,4.082,20.806,8.28,31.88,9.059c16.334,1.147,33.177-5.757,43.928-18.005        c10.009-11.422,14.504-26.399,18.86-40.895c0.765-2.523,1.529-5.069,2.317-7.615        C417.611,76.482,417.935,76.757,418.236,77.055z"/>
					</g>
					<g>
						<path style="fill:#FADED3;" d="M498.653,264.43c0,0.413-0.023,0.849-0.046,1.262c-2.757,0.986-5.723,1.445-8.874,1.17        c-9.129-0.78-15.917-7.363-22.497-13.739c-5.978-5.78-12.14-11.743-19.995-13.395c-12.164-2.546-24.049,6.468-29.494,16.697        c-5.19,9.748-6.487,21.078-7.738,32.042l-0.394,3.463c-5.051,42.89-17.052,79.197-35.61,107.936        c-4.356,6.743-9.87,14.128-17.747,17.844c-10.125,4.77-23.771,2.66-33.919-5.276c-8.225-6.422-14.596-16.353-18.998-29.541        c-14.434-43.303-0.602-89.702,13.067-125.299c6.997-18.188,15.986-39.128,29.679-56.766        c14.527-18.647,33.108-31.445,52.385-36.032c12.025-2.867,24.605-2.706,36.792-2.569c5.584,0.068,11.353,0.138,17.006-0.069        c7.785-0.321,16.936-1.422,25.602-4.357c0.185,0.367,0.348,0.711,0.487,1.078c-7.53,2.546-16.241,4.037-26.042,4.426        c-5.676,0.206-11.468,0.138-17.052,0.069c-12.117-0.138-24.652-0.298-36.537,2.546c-18.998,4.518-37.371,17.179-51.713,35.619        c-13.623,17.5-22.567,38.372-29.517,56.468c-13.6,35.413-27.386,81.56-13.067,124.519        c4.332,12.982,10.588,22.729,18.605,28.991c9.823,7.684,22.983,9.748,32.714,5.161c7.622-3.601,13.021-10.826,17.284-17.408        c18.466-28.601,30.397-64.771,35.425-107.478l0.394-3.44c1.274-11.078,2.572-22.523,7.877-32.477        c5.653-10.596,18.025-19.931,30.745-17.271c8.202,1.72,14.48,7.821,20.574,13.693c6.719,6.514,13.067,12.684,21.779,13.417        C492.953,265.967,495.919,265.462,498.653,264.43z"/>
					</g>
				</g>
			</g>
		</g>
		<g>
			<g>
				<g>
					<g>
						<path style="fill:#D3542B;" d="M325.833,384.305c-0.209-0.115-0.417-0.711-0.602-1.743        c-0.602-3.188-1.135-10.344-1.552-18.968c-0.324-6.629-0.602-14.105-0.811-21.285c-0.185-5.94-0.347-11.674-0.463-16.537        c0-0.023,0-0.046,0-0.046c-0.185-8.234-0.301-13.968-0.301-13.968s0.487-0.757,0.487-0.757        c-15.619,8.148-33.345,11.224-50.784,12.099c-14.202,0.712-30.056,0.613-43.228-5.427c-0.872-0.4-6.3-2.72-6.285-3.759        c-0.046,3.119-0.185,9.404-0.394,16.972c-0.139,4.908-0.301,10.367-0.487,15.872c-0.185,5.757-0.394,11.559-0.649,16.812        c-0.556,11.399-1.251,20.298-2.132,20.734l22.375,43.949h69.771L325.833,384.305z"/>
					</g>
					<g style="opacity:0.43;">
						<path style="fill:#331510;" d="M322.859,342.321c-8.198,7.923-17.514,14.207-28.631,17.001        c-7.979,2.023-16.347,2.047-24.569,1.71c-13.306-0.554-26.904-2.119-38.775-8.067c-3.357-1.686-6.568-3.781-9.463-6.213        c0.487-13.967,0.803-27.693,0.876-32.846c13.914,10.957,42.983,10.018,58.186,8.573c12.625-1.18,25.104-4.19,36.804-9.03        c1.776-0.722,3.576-1.541,5.303-2.456l-0.487,0.77C322.105,311.762,322.372,326.259,322.859,342.321z"/>
					</g>
				</g>
				<g>
					<path style="fill:#7EA8C5;" d="M445.917,404.764c-0.579,0.757-1.228,1.537-1.853,2.294c-1.251,1.537-2.549,3.073-3.892,4.587       c-8.341,9.587-17.446,18.509-27.2,26.674c-1.437,1.193-2.896,2.385-4.356,3.555c-2.525,2.018-5.074,3.968-7.692,5.872       c-25.694,18.876-55.304,32.821-87.416,40.39c-12.187,2.89-24.744,4.862-37.58,5.826c-6.186,0.482-12.465,0.734-18.79,0.734       c-17.979,0-35.495-1.95-52.362-5.642c-26.621-5.826-51.574-15.986-74.094-29.702c-5.954-3.624-11.723-7.5-17.33-11.605       c-2.016-1.491-4.008-3.005-5.978-4.541c-8.596-6.697-16.705-13.991-24.281-21.789c-0.765-0.78-1.552-1.583-2.294-2.386       c-1.576-1.628-3.081-3.28-4.587-4.954c47.102-24.817,140.24-28.716,142.418-29.771c0.88-0.436,0.073-9.335,0.629-20.734       c7.53,4.22,17.582,6.858,26.108,8.807c4.634,1.055,9.893,2.317,12.303,6.399c1.298,2.202,1.506,4.817,1.691,7.34       c0.209,2.684,0.394,5.344,0.602,8.005c3.522,1.468,7.738,2.34,11.886,2.477c1.228,0.046,2.456,0.023,3.66-0.092       c1.367-0.092,2.711-0.275,3.985-0.574c-0.834-3.945-0.209-8.165,0.348-12.156c0.407-2.923,1.723-5.861,3.934-7.858       c2.709-2.447,6.286-2.579,9.745-2.86c10.672-0.869,21.302-4.226,30.617-9.497c0.057-0.032,0.529-0.254,0.527-0.302       c0.417,8.624-0.038,16.113,0.564,19.301c0.185,1.032,0.394,1.629,0.602,1.743c1.042,0.504,22.034,1.628,48.909,5.229       c0.417,0.046,0.857,0.115,1.274,0.184c0.834,0.114,1.668,0.229,2.525,0.344c0.394,0.069,0.811,0.115,1.228,0.183       C400.992,393.227,425.204,397.791,445.917,404.764z"/>
				</g>
			</g>
			<g>
				<g>
					<g>
						<g>
							<g>
								<path style="fill:#D3542B;" d="M177.588,272.39c0.292,1.686-32.183-4.696-35.029-5.804          c-9.779-3.829-18.049-11.992-23.279-21.046c-4.573-7.923-6.495-17.676-3.454-26.296c0.657-1.879,1.459-3.54,2.433-5.009          c0.341-0.578,0.705-1.108,1.095-1.613c10.144-13.1,31.72-8.453,43.688,1.709          C168.563,232.392,174.499,253.848,177.588,272.39z"/>
							</g>
						</g>
						<g>
							<g>
								<path style="fill:#D3542B;" d="M414.809,236.317c-4.379,9.512-11.846,18.374-21.236,23.093          c-2.724,1.349-34.493,10.668-34.347,8.934c1.362-18.735,5.303-40.648,9.122-59.118          c10.776-11.005,31.282-17.579,42.715-6.309c0.462,0.482,0.924,0.963,1.362,1.517c1.289,1.517,2.432,3.323,3.381,5.394          C419.625,218.136,418.604,228.033,414.809,236.317z"/>
							</g>
						</g>
					</g>
					<g>
						<g>
							<g>
								<path style="fill:#331510;" d="M171.239,269.789c-0.097,0.024-0.194,0.048-0.292,0.048c-0.365,0-0.73-0.241-0.851-0.602          c-7.93-22.154-24.423-41.274-45.294-52.472c-2.019-1.108-4.281-2.143-6.544-2.529c0.341-0.578,0.705-1.108,1.095-1.613          c2.214,0.505,4.378,1.517,6.325,2.552c21.26,11.414,38.069,30.896,46.121,53.459          C171.969,269.091,171.726,269.621,171.239,269.789z"/>
							</g>
						</g>
						<g>
							<g>
								<path style="fill:#331510;" d="M412.425,204.434c-10.363,2.384-20.531,9.247-28.461,19.409          c-8.392,10.716-13.622,23.527-18.657,35.905c-0.146,0.337-0.487,0.554-0.851,0.554c-0.122,0-0.243-0.024-0.341-0.048          c-0.462-0.193-0.705-0.722-0.511-1.18c5.108-12.498,10.363-25.429,18.925-36.338c7.954-10.162,18.074-17.145,28.534-19.818          C411.525,203.399,411.987,203.88,412.425,204.434z"/>
							</g>
						</g>
					</g>
				</g>
				<g>
					<g>
						<path style="fill:#D3542B;" d="M383.38,171.082c-0.365,3.203-0.803,6.43-1.338,9.656        c-4.184,25.261-6.811,51.051-12.819,76.071c-1.046,4.407-2.189,8.766-3.479,13.1c-9.876,33.352-25.688,53.58-59.354,60.852        c-20.676,4.455-53.078,4.431-74.07,1.902c-17.149-2.047-34.299-8.091-46.802-19.891        c-10.046-9.512-16.687-22.154-21.382-35.928c-6.616-19.433-9.365-41.106-12.503-59.311        c-6.252-36.338-8.976-76.168,4.816-111.229c16.395-41.636,57.481-72.411,102.823-74.771        c47.094-2.432,91.098,24.418,112.213,65.765C383.478,120.826,386.251,145.629,383.38,171.082z"/>
					</g>
				</g>
				<g>
					<g>
						<path style="fill:#331510;" d="M144.129,197.686c3.823,7.73,10.117,14.455,15.683,21.067        c7.056-8.656,9.811-10.226,13.888-16.444c13.009-19.84,13.435-44.758,16.09-68.264c1.081-9.57,2.163-19.212,1.381-28.81        c-0.579-7.105-2.262-14.307-6.318-20.196c-4.056-5.89-10.8-10.281-18-10.189c-7.952,0.101-14.906,5.447-19.915,11.561        c-12.073,14.735-16.163,34.636-15.132,53.582C132.838,158.937,134.399,178.011,144.129,197.686z"/>
					</g>
					<g>
						<path style="fill:#331510;" d="M384.761,162.345c7.453-31.049-1.357-55.708-15.438-77.801        c-4.436-6.961-9.28-13.704-14.993-19.682c-19.275-20.171-47.21-30.28-74.975-34.21c-22.601-3.198-46.096-2.665-67.685,4.684        c-21.59,7.349-41.143,22.004-51.48,42.155c12.038,0.252,23.798,7.335,30.056,17.518c19.853,10.539,40.167,20.892,61.824,27.03        c21.657,6.139,44.474,8.952,66.831,6.216c-6.74-8.898-14.404-17.302-21.145-26.199        C331.15,113.92,360.885,136.366,384.761,162.345z"/>
					</g>
					<g>
						<path style="fill:#331510;" d="M359.649,127.061c3.639,26.654,4.704,57.815,8.343,84.47        c2.995-3.466,9.639-8.705,13.466-11.244c1.536-10.56,2.031-20.965,3.11-31.58c1.591-15.645,1.83-32.697-7.286-45.574        c-2.216-3.13-5.05-5.989-8.65-7.37c-3.6-1.381-8.062-1.005-10.836,1.652L359.649,127.061z"/>
					</g>
				</g>
				<g>
					<g>
						<g>
							<path style="fill:#331510;" d="M375.445,195.238c-3.803,39.213-1.875,85.625-31.591,116.071         c-10.093,10.341-23.406,16.416-37.463,19.453c-20.676,4.455-53.078,4.431-74.07,1.902         c-17.149-2.047-34.299-8.091-46.802-19.891c-10.046-9.512-16.687-22.154-21.382-35.928         c-1.265-5.346-2.116-10.788-2.651-16.183c-0.73-7.128-0.56-14.087-0.243-20.998c0-0.12,0-0.241,0.024-0.337         c0-0.313,0.024-0.602,0.049-0.891c0.462-10.403,1.168-20.709-0.462-31.353c1.727,3.395,3.211,6.935,4.597,10.547         c5.838,15.003,9.949,31.064,21.747,41.588c7.419,6.574,17.368,10.186,27.269,9.849c12.308-0.457,23.595-6.646,34.639-12.161         c11.044-5.49,23.182-10.595,35.345-8.621c11.773,1.902,21.722,10.162,33.423,12.522c13.452,2.697,27.853-3.203,36.901-13.581         c9.025-10.379,12.941-24.683,12.187-38.457c-0.219-4.214,1.143-8.404,1.484-12.618c0.754,0.169,1.338-0.891,2.092-0.987         C371.291,195.043,375.518,194.491,375.445,195.238z"/>
						</g>
						<g>
							<path style="fill:#331510;" d="M161.331,239.044c0,0-0.621-12.911-3.105-22.134c-2.393-8.883-5.434-14.449-5.434-14.449         l5.9-2.459c0,0,3.571,8.3,5.434,13.526c1.863,5.226,4.969,17.061,4.969,17.061l0.776,9.53l-8.695-0.461L161.331,239.044z"/>
						</g>
					</g>
					<g>
						<path style="fill:#331510;" d="M272.837,249.7c-3.771,0-7.627-1.208-10.816-3.466c-0.326-0.23-0.652-0.475-0.979-0.719        c-1.436-1.077-2.794-2.094-4.338-2.132c-0.783,0.026-1.614,0.235-2.478,0.503c-0.804,0.249-1.637,0.508-2.535,0.574        c-2.153,0.144-4.253-0.914-5.292-2.655c-1.108-1.861-0.843-4.4,0.617-5.905c0.349-0.363,0.923-0.369,1.284-0.02        c0.36,0.349,0.368,0.924,0.02,1.284c-0.894,0.921-1.052,2.551-0.361,3.712c0.684,1.148,2.153,1.878,3.599,1.773        c0.693-0.05,1.39-0.267,2.129-0.497c0.966-0.299,1.964-0.609,3.061-0.582c2.124,0.051,3.856,1.349,5.384,2.493        c0.313,0.235,0.626,0.469,0.939,0.691c3.824,2.709,8.697,3.747,13.032,2.778c4.495-1.002,8.412-4.273,9.98-8.333        c1.293-3.345,1.127-7.099,0.823-10.972c-1.28-16.328-3.997-32.653-8.075-48.524c-0.125-0.485,0.168-0.98,0.653-1.105        c0.482-0.125,0.981,0.166,1.105,0.653c4.104,15.973,6.837,32.402,8.126,48.834c0.321,4.089,0.491,8.067-0.939,11.768        c-1.808,4.68-6.129,8.303-11.277,9.451C275.305,249.569,274.076,249.7,272.837,249.7z"/>
					</g>
					<g>
						<g>
							<path style="fill:#D3542B;" d="M312.731,265.29c-8.375,0.961-16.423-3.021-24.685-4.684         c-7.361-1.481-15.097-1.095-22.27,1.111c-4.032,1.24-7.868,3.037-11.869,4.372c-7.244,2.418-14.92,3.288-22.553,3.712         c1.727,6.881,4.23,14.174,8.602,19.79c4.372,5.616,11.054,9.83,18.216,9.813c5.363-0.013,10.456-2.328,15.79-2.876         c8.778-0.902,18.056,2.962,26.25-0.284c5.7-2.258,9.658-7.668,11.54-13.453C313.635,277.006,312.805,271.368,312.731,265.29z         "/>
						</g>
						<g>
							<path style="fill:#331510;" d="M273.418,273.114c-4.606,0-9.205-2.107-12.113-5.656c-0.348-0.425-0.285-1.052,0.14-1.401         c0.424-0.347,1.051-0.286,1.401,0.14c2.886,3.523,7.686,5.41,12.235,4.819c4.543-0.597,8.68-3.661,10.539-7.806         c0.224-0.502,0.812-0.728,1.315-0.501c0.502,0.225,0.726,0.814,0.501,1.315c-2.135,4.761-6.883,8.28-12.096,8.965         C274.703,273.073,274.06,273.114,273.418,273.114z"/>
						</g>
					</g>
					<g>
						<g>
							<g>
								<g>
									<path style="fill:#331510;" d="M231.18,202.165c0.156,6.194-4.789,11.339-11.046,11.494           c-6.256,0.155-11.455-4.741-11.611-10.934c-0.156-6.193,4.789-11.339,11.045-11.494           C225.826,191.076,231.024,195.971,231.18,202.165z"/>
								</g>
								<g>
									<path style="fill:#331510;" d="M333.465,197.315c0.156,6.194-4.789,11.34-11.045,11.494           c-6.256,0.154-11.455-4.741-11.611-10.934c-0.156-6.193,4.789-11.339,11.045-11.494           C328.11,186.226,333.309,191.121,333.465,197.315z"/>
								</g>
							</g>
						</g>
						<g>
							<path style="fill:#331510;" d="M200.492,163.906c-4.323,3.334-7.385,8.467-7.473,13.891c-0.037,2.278,0.532,4.721,2.25,6.236         c1.372,1.209,3.265,1.646,5.09,1.852c7.296,0.821,14.557-1.371,21.557-3.566c3.835-1.203,8.065-2.739,9.835-6.316         c0.766-1.548,0.964-3.325,0.83-5.044c-0.307-3.918-2.362-7.671-5.511-10.065C219.74,155.323,207.186,158.745,200.492,163.906         z"/>
						</g>
						<g>
							<path style="fill:#331510;" d="M334.043,156.953c4.852,2.522,8.784,7.037,9.843,12.36c0.444,2.235,0.323,4.74-1.098,6.532         c-1.134,1.431-2.918,2.193-4.678,2.716c-7.033,2.088-14.572,1.206-21.854,0.274c-3.99-0.51-8.427-1.28-10.81-4.49         c-1.031-1.389-1.545-3.103-1.72-4.818c-0.4-3.91,0.95-7.964,3.621-10.872C313.563,151.884,326.531,153.048,334.043,156.953z"/>
						</g>
					</g>
				</g>
			</g>
			<g>
				<g>
					<path style="fill:#FADED3;" d="M271.081,397.58c-18.292,0-36.84-4.242-53.457-12.76c-0.446-0.229-0.622-0.775-0.393-1.222       c0.227-0.446,0.773-0.626,1.222-0.393c33.738,17.295,75.557,16.694,106.537-1.533c0.428-0.255,0.988-0.111,1.242,0.322       c0.254,0.432,0.111,0.988-0.322,1.242C309.678,392.785,290.523,397.58,271.081,397.58z"/>
				</g>
				<g>
					<path style="fill:#FADED3;" d="M270.745,396.784c0.013-0.501,0.421-0.946,0.931-0.882c0.501,0.013,0.896,0.43,0.882,0.931"/>
				</g>
			</g>
		</g>
	</g>
</g>















</svg>
