<?xml version="1.0" encoding="UTF-8"?>
<!-- Generator: Adobe Illustrator 25.2.3, SVG Export Plug-In . SVG Version: 6.00 Build 0)  -->
<svg xmlns="http://www.w3.org/2000/svg" xmlns:xlink="http://www.w3.org/1999/xlink" version="1.1" id="Capa_1" x="0px" y="0px" viewBox="0 0 511.819 511.819" style="enable-background:new 0 0 511.819 511.819;" xml:space="preserve" width="512" height="512">
<g>
	<g>
		<path style="fill:#FFFFFF;" d="M252.483,511.819c-19.384-0.019-38.817-2.489-57.818-7.554    c-38.441-10.247-73.563-30.555-101.675-58.651c-13.739-13.731-25.798-29.298-35.601-46.046    c-21.64-36.971-32.121-80.197-30.634-122.959c1.312-37.734,12.181-74.777,31.143-107.405c4.824-8.3,9.968-16.34,15.798-23.971    c-2.48-15.369,3.608-31.643,15.602-41.591c2.435-2.018,4.961-3.675,7.189-5.138c2.942-1.93,5.72-3.755,6.685-5.37    c0.979-1.639,1.278-5.152,1.567-8.551c0.154-1.804,0.313-3.671,0.582-5.634c3.123-22.895,20.122-42.639,42.299-49.131    c4.053-1.187,7.982-1.881,11.781-2.554c5.844-1.033,10.891-1.925,14.219-4.228c1.621-1.122,3.391-2.999,5.266-4.988    c1.514-1.605,3.23-3.424,5.168-5.169C193.141,4.693,205.676,0,218.443,0c8.718,0,17.194,2.153,24.507,6.227    c5.03,2.801,9.331,6.33,13.127,9.443c4.526,3.712,8.435,6.917,12.407,8.184c2.573,0.819,5.672,0.988,9.532,0.988    c0.923,0,4.782-0.038,5.787-0.038c6.205,0,12.886,0.371,19.698,3.054c9.83,3.872,14.751,10.917,18.343,16.062    c1.58,2.263,2.944,4.218,4.516,5.728c0.564,0.543,1.614,1.553,6.159,1.553c2.34,0,5.033-0.258,7.883-0.528    c3.406-0.325,6.928-0.66,10.655-0.66c8.354,0,15.266,1.84,21.132,5.624c3.072,1.984,5.578,4.218,7.788,6.189    c1.64,1.463,3.188,2.845,4.564,3.742c3.424,2.227,8.66,3.489,14.203,4.825c10.713,2.581,24.046,5.794,31.436,18.656    c4.684,8.151,4.67,16.77,4.66,23.697c-0.005,3.922-0.011,7.631,0.828,10.143c1.004,3.005,3.912,6.378,6.992,9.948    c4.968,5.76,11.151,12.93,12.902,22.966c0.665,3.811,0.637,7.761-0.093,11.962c8.13,14.244,14.691,29.367,19.53,45.029    c8.782,28.423,11.941,58.648,9.298,88.278c-5.193,58.187-32.768,112.565-76.297,151.425    c-14.205,12.682-29.944,23.653-46.795,32.527c-8.632,4.545-17.55,8.547-26.687,11.966c-12.118,4.536-24.612,8.064-37.314,10.528    C282.481,510.378,267.483,511.833,252.483,511.819z"/>
	</g>
	<g>
		<g>
			<g>
				<g>
					<path style="fill:#FFC17D;" d="M451.515,376.893c7.112-14.328,12.549-29.452,16.328-44.992       c0.021-0.088,0.043-0.176,0.064-0.264c2.514-10.427,4.256-21.031,5.209-31.706c0.793-8.872,1.041-17.794,0.736-26.705       c-0.654-19.136-3.855-38.335-9.507-56.628c-0.816-2.646-1.686-5.276-2.606-7.888c-8.491-24.11-21.375-46.539-37.811-66.109       c-15.78-18.788-34.811-34.836-55.985-47.229C345.386,82.17,320.35,73.23,294.548,69.075       c-27.136-4.369-55.037-3.556-81.878,2.333c-21.826,4.789-42.894,13.046-62.215,24.262       c-21.57,12.521-41.832,29.584-57.904,48.649c-5.958,7.068-10.838,14.751-16.359,22.115c-0.257,0.343-0.515,0.708-0.729,1.094       c-7.059,10.985-13.002,22.464-17.873,34.286c-0.172,0.365-0.322,0.772-0.472,1.137c-4.656,11.436-8.282,23.193-10.899,35.101       c-0.086,0.408-0.172,0.772-0.236,1.18c-2.424,11.264-3.926,22.679-4.527,34.136c-0.043,0.408-0.064,0.751-0.086,1.137       c-0.497,10.872-0.146,21.738,0.88,32.57c0.064,0.343,0.086,0.708,0.129,1.094c1.164,10.523,3.016,21,5.729,31.239       c0.107,0.365,0.193,0.708,0.279,1.051c2.789,10.492,6.372,20.833,10.749,30.853c0.172,0.343,0.322,0.687,0.472,1.03       c2.146,4.806,4.463,9.569,6.973,14.247l125.426,6.436l40.058,86.425l137.523-80.116L451.515,376.893z"/>
				</g>
			</g>
			<g style="opacity:0.44;">
				<g>
					<g>
						<g>
							<path style="fill:#FADED3;" d="M124.665,113.275c0.683,0.349,1.35,0.713,2.033,1.062         c16.704,8.693,33.953,17.69,65.373,13.973c31.45-3.717,46.121-16.476,60.321-28.825         c13.184-11.454,26.777-23.258,53.98-27.733c-0.91-0.243-1.836-0.44-2.776-0.622c-0.015,0.015-0.015,0.015-0.03,0         c-25.746,4.84-39.005,16.37-51.871,27.566c-14.079,12.228-28.644,24.881-59.745,28.552         c-31.101,3.672-48.215-5.249-64.751-13.867c-0.531-0.288-1.077-0.561-1.608-0.819         C125.271,112.79,124.968,113.033,124.665,113.275z"/>
						</g>
					</g>
				</g>
				<g>
					<g>
						<g>
							<path style="fill:#FADED3;" d="M99.313,136.624c10.468,2.822,18.995,7.282,27.4,11.652         c16.673,8.693,33.923,17.69,65.373,13.973c31.435-3.702,46.106-16.461,60.306-28.811         c14.079-12.228,28.628-24.896,59.73-28.568c31.132-3.671,48.214,5.249,64.751,13.867         c10.969,5.72,22.165,11.576,37.488,13.851c-0.409-0.44-0.819-0.88-1.259-1.32c-14.443-2.397-25.2-7.995-35.729-13.487         c-16.673-8.693-33.923-17.69-65.373-13.973c-31.42,3.717-46.121,16.476-60.306,28.81         c-14.079,12.259-28.628,24.896-59.745,28.583c-31.101,3.671-48.215-5.249-64.751-13.867         c-8.299-4.354-16.764-8.754-27.035-11.621C99.89,136.017,99.586,136.321,99.313,136.624z"/>
						</g>
					</g>
				</g>
				<g>
					<g>
						<g>
							<path style="fill:#FADED3;" d="M75.327,167.528c22.954-0.106,37.367,7.388,51.385,14.701         c16.673,8.693,33.923,17.69,65.373,13.973c31.435-3.702,46.121-16.476,60.306-28.811         c14.094-12.243,28.628-24.896,59.73-28.568c31.116-3.687,48.214,5.249,64.751,13.867         c16.491,8.572,33.514,17.462,64.16,14.094c-0.197-0.349-0.41-0.683-0.637-1.001c-30.009,3.156-46.789-5.583-63.022-14.049         c-16.673-8.693-33.923-17.69-65.373-13.973c-31.435,3.702-46.106,16.461-60.306,28.811         c-14.064,12.243-28.628,24.896-59.73,28.568c-31.116,3.687-48.23-5.234-64.751-13.867         c-14.003-7.297-28.386-14.792-51.188-14.837C75.782,166.8,75.555,167.149,75.327,167.528z"/>
						</g>
					</g>
				</g>
				<g>
					<g>
						<g>
							<path style="fill:#FADED3;" d="M56.924,202.984c1.623-0.258,3.307-0.486,5.022-0.683         c31.116-3.656,48.214,5.249,64.766,13.882c16.673,8.693,33.938,17.675,65.373,13.973         c31.42-3.717,46.121-16.476,60.321-28.826c14.064-12.243,28.613-24.881,59.73-28.568         c31.101-3.671,48.215,5.249,64.751,13.867c16.673,8.693,33.923,17.69,65.358,13.988c5.446-0.652,10.392-1.563,14.913-2.716         c-0.121-0.334-0.273-0.667-0.425-1.001c-4.43,1.123-9.27,2.018-14.61,2.655c-31.101,3.672-48.215-5.249-64.751-13.867         c-16.689-8.708-33.938-17.705-65.358-13.988c-31.45,3.717-46.121,16.476-60.321,28.826         c-14.079,12.228-28.628,24.896-59.73,28.567c-31.116,3.657-48.215-5.249-64.766-13.882         c-16.673-8.693-33.938-17.675-65.373-13.973c-1.517,0.182-2.989,0.379-4.43,0.607         C57.228,202.225,57.076,202.589,56.924,202.984z"/>
						</g>
					</g>
				</g>
				<g>
					<g>
						<g>
							<path style="fill:#FADED3;" d="M45.682,239.319c4.885-1.305,10.271-2.351,16.264-3.065         c31.116-3.687,48.214,5.249,64.751,13.867c16.704,8.693,33.953,17.69,65.389,13.988         c31.435-3.732,46.106-16.491,60.306-28.841c14.079-12.228,28.644-24.881,59.745-28.553         c31.101-3.671,48.199,5.234,64.751,13.867c16.673,8.693,33.923,17.69,65.373,13.973c9.831-1.153,18.008-3.201,25.063-5.856         c-0.076-0.349-0.167-0.713-0.258-1.047c-7.009,2.64-15.156,4.688-24.942,5.826c-31.116,3.687-48.215-5.219-64.736-13.851         c-16.704-8.693-33.953-17.69-65.373-13.973c-31.435,3.702-46.121,16.476-60.321,28.826         c-14.079,12.228-28.644,24.881-59.745,28.552c-31.101,3.672-48.2-5.234-64.751-13.867         c-16.673-8.693-33.923-17.69-65.373-13.973c-5.841,0.683-11.09,1.684-15.869,2.943         C45.864,238.53,45.773,238.925,45.682,239.319z"/>
						</g>
					</g>
				</g>
				<g>
					<g>
						<g>
							<path style="fill:#FADED3;" d="M41.1,274.608c6.038-1.942,12.911-3.474,20.846-4.4c31.116-3.687,48.23,5.234,64.766,13.851         c16.689,8.708,33.938,17.705,65.358,13.988c31.45-3.717,46.121-16.476,60.321-28.825         c14.079-12.228,28.628-24.896,59.745-28.553c31.101-3.671,48.199,5.234,64.736,13.851         c16.688,8.709,33.938,17.705,65.373,13.973c12.456-1.472,22.271-4.369,30.479-8.086c-0.03-0.394-0.045-0.774-0.106-1.138         c-8.193,3.763-18.008,6.691-30.494,8.162c-31.101,3.671-48.199-5.234-64.751-13.867         c-16.673-8.693-33.923-17.69-65.373-13.973c-31.42,3.717-46.121,16.476-60.306,28.81         c-14.079,12.259-28.628,24.896-59.745,28.583c-31.101,3.672-48.215-5.249-64.751-13.866         c-16.689-8.708-33.923-17.69-65.373-13.973c-7.844,0.925-14.655,2.427-20.679,4.324         C41.131,273.849,41.1,274.213,41.1,274.608z"/>
						</g>
					</g>
				</g>
				<g>
					<g>
						<g>
							<path style="fill:#FADED3;" d="M42.072,308.258c5.811-1.805,12.365-3.232,19.89-4.112         c31.101-3.671,48.215,5.249,64.751,13.867c16.673,8.693,33.923,17.69,65.373,13.973         c31.435-3.702,46.121-16.476,60.306-28.811c14.094-12.243,28.628-24.896,59.73-28.568         c31.116-3.687,48.214,5.249,64.751,13.867c16.703,8.693,33.953,17.69,65.373,13.973c12.714-1.487,22.696-4.491,30.995-8.329         c0.03-0.395,0.061-0.789,0.076-1.199c-8.329,3.899-18.357,6.949-31.192,8.466c-31.101,3.671-48.215-5.249-64.751-13.867         c-16.673-8.693-33.923-17.69-65.373-13.973c-31.435,3.702-46.106,16.461-60.306,28.811         c-14.064,12.243-28.628,24.896-59.73,28.568c-31.116,3.687-48.23-5.234-64.766-13.851         c-16.689-8.709-33.938-17.705-65.373-14.003c-7.51,0.895-14.079,2.306-19.89,4.112         C41.965,307.545,42.011,307.924,42.072,308.258z"/>
						</g>
					</g>
				</g>
				<g>
					<g>
						<g>
							<path style="fill:#FADED3;" d="M48.003,340.558c4.248-1.032,8.875-1.866,13.943-2.473         c31.116-3.656,48.214,5.249,64.766,13.882c16.673,8.693,33.923,17.69,65.373,13.973         c31.435-3.702,46.121-16.476,60.321-28.826c14.064-12.243,28.613-24.881,59.73-28.568         c31.101-3.671,48.215,5.249,64.751,13.867c16.673,8.693,33.923,17.69,65.358,13.988c10.15-1.199,18.539-3.338,25.731-6.099         c0.121-0.425,0.212-0.85,0.303-1.274c-7.267,2.867-15.809,5.098-26.155,6.311c-31.101,3.672-48.215-5.249-64.751-13.867         c-16.689-8.709-33.938-17.705-65.358-13.988c-31.45,3.717-46.121,16.476-60.321,28.826         c-14.079,12.228-28.628,24.896-59.73,28.567c-31.116,3.657-48.215-5.249-64.751-13.866         c-16.688-8.708-33.953-17.69-65.389-13.988c-5.128,0.607-9.801,1.457-14.109,2.488         C47.806,339.875,47.897,340.209,48.003,340.558z"/>
						</g>
					</g>
				</g>
				<g>
					<g>
						<g>
							<path style="fill:#FADED3;" d="M59.185,372.402c0.895-0.137,1.836-0.258,2.761-0.364         c31.101-3.671,48.214,5.249,64.751,13.867c16.704,8.693,33.953,17.69,65.389,13.988c31.42-3.717,46.106-16.491,60.321-28.825         c14.064-12.243,28.628-24.896,59.73-28.568c31.101-3.671,48.199,5.234,64.751,13.867         c16.673,8.693,33.923,17.69,65.373,13.973c4.764-0.577,9.133-1.335,13.184-2.291c0.197-0.41,0.364-0.819,0.546-1.214         c-4.218,1.032-8.83,1.851-13.867,2.458c-31.116,3.656-48.215-5.249-64.736-13.882c-16.704-8.693-33.953-17.69-65.373-13.973         c-31.435,3.702-46.121,16.476-60.321,28.826c-14.079,12.228-28.644,24.881-59.745,28.552         c-31.101,3.672-48.2-5.234-64.751-13.867c-16.673-8.693-33.923-17.69-65.373-13.973c-1.047,0.137-2.078,0.258-3.08,0.409         C58.881,371.735,59.033,372.068,59.185,372.402z"/>
						</g>
					</g>
				</g>
				<g>
					<g>
						<g>
							<path style="fill:#FADED3;" d="M435.68,403.798c-0.257,0.386-0.536,0.751-0.794,1.137         c-26.841,1.631-42.675-6.63-58.016-14.633c-16.542-8.625-33.642-17.529-64.731-13.839         c-31.111,3.648-45.679,16.306-59.754,28.536c-14.203,12.358-28.857,25.124-60.311,28.836         c-31.432,3.712-48.683-5.278-65.375-13.967c-13.474-7.038-27.335-14.289-48.876-14.697c-0.172-0.021-0.343-0.021-0.515-0.021         c-0.257-0.343-0.472-0.686-0.708-1.073h0.494c22.206,0.258,36.345,7.638,50.099,14.826         c16.542,8.625,33.664,17.529,64.753,13.86c31.111-3.69,45.679-16.328,59.754-28.579         c14.204-12.315,28.879-25.081,60.312-28.815c31.432-3.69,48.683,5.278,65.354,13.989         C392.748,397.383,408.582,405.622,435.68,403.798z"/>
						</g>
					</g>
				</g>
				<g>
					<g>
						<g>
							<path style="fill:#FADED3;" d="M408.839,435.938c-0.086,0.129-0.215,0.215-0.322,0.322c-0.193,0.236-0.408,0.408-0.622,0.622         c-12.101-2.789-21.649-7.746-31.025-12.638c-3.089-1.609-6.201-3.218-9.419-4.763c-13.989-6.737-30.016-12.079-55.334-9.097         c-3.261,0.386-6.372,0.88-9.269,1.459c-3.261,0.622-6.308,1.373-9.183,2.231c-0.172,0.043-0.343,0.107-0.515,0.15         c-11.607,3.476-20.297,8.496-27.806,14.053l-0.021,0.021c-0.472,0.343-0.923,0.687-1.373,1.051         c-4.098,3.111-7.831,6.372-11.543,9.591c-14.203,12.337-28.879,25.124-60.311,28.815         c-31.454,3.733-48.704-5.278-65.375-13.968c-3.004-1.566-6.029-3.133-9.14-4.634c-0.021,0-0.021,0-0.021,0         c-0.515-0.236-1.009-0.493-1.502-0.729c-0.966-0.794-1.909-1.609-2.832-2.446c0.429,0.172,0.88,0.386,1.287,0.579         c4.399,1.952,8.561,4.162,12.702,6.286c16.521,8.625,33.642,17.551,64.753,13.86c31.111-3.669,45.679-16.328,59.732-28.579         c3.819-3.326,7.703-6.694,11.951-9.912c0.772-0.579,1.523-1.159,2.317-1.695c7.188-5.192,15.491-9.848,26.348-13.152         c0.193-0.086,0.386-0.15,0.601-0.193c2.317-0.687,4.72-1.309,7.295-1.888c3.647-0.794,7.574-1.459,11.8-1.952         c24.932-2.961,40.937,2.081,54.819,8.625c3.626,1.716,7.102,3.54,10.556,5.342         C386.826,428.236,396.503,433.256,408.839,435.938z"/>
						</g>
					</g>
				</g>
				<g>
					<g>
						<g>
							<path style="fill:#FADED3;" d="M381.226,459.239c-0.343,0.236-0.665,0.472-1.008,0.687c-0.043,0-0.064-0.021-0.107-0.043         c-1.051-0.579-2.146-1.116-3.218-1.695c-12.122-6.329-24.567-12.787-42.589-14.354c-0.579-0.064-1.18-0.107-1.781-0.129         c-6.093-0.429-12.83-0.257-20.383,0.622c-15.491,1.845-26.884,5.879-36.153,11.028c-0.322,0.172-0.665,0.365-0.987,0.558         c-8.132,4.613-14.59,10.041-20.876,15.469l-0.021,0.021c-0.558,0.493-1.137,0.987-1.695,1.48         c-9.698,8.475-19.653,17.1-35.058,22.893c-0.215,0.107-0.408,0.171-0.644,0.257c-0.686-0.129-1.373-0.257-2.06-0.408         c0.215-0.064,0.429-0.15,0.622-0.215c16.199-5.75,26.455-14.654,36.431-23.322c0.88-0.772,1.738-1.502,2.618-2.274h0.021         c6.05-5.214,12.316-10.406,20.125-14.869c0.322-0.193,0.665-0.365,1.008-0.558c9.354-5.171,20.876-9.29,36.56-11.135         c6.887-0.815,13.088-1.008,18.752-0.729c0.622,0,1.244,0.043,1.845,0.107c19.181,1.287,32.119,8.024,44.756,14.611         c1.223,0.665,2.489,1.309,3.733,1.952C381.162,459.196,381.183,459.218,381.226,459.239z"/>
						</g>
					</g>
				</g>
			</g>
		</g>
		<g>
			<g>
				<path style="fill:#331510;" d="M266.217,36.119c-10.707-3.412-18.07-13.177-27.887-18.645      c-13.767-7.668-32.309-5.575-44.019,4.97c-4.018,3.618-7.277,8.099-11.724,11.176c-8.533,5.905-19.749,5.635-29.707,8.55      c-17.193,5.033-30.74,20.769-33.161,38.519c-0.883,6.473-0.501,13.435-3.851,19.044c-3.735,6.253-11.102,9.169-16.709,13.819      c-8.593,7.126-12.967,19.003-11.049,30.001c1.506,8.63,6.555,16.663,6.164,25.415c-0.652,14.576-16.171,27.754-10.761,41.304      c2.503,6.27,8.94,10.189,11.942,16.235c3.69,7.432,1.488,16.258-0.009,24.419c-1.496,8.161-1.709,17.834,4.5,23.337      c8.687,7.7,22.553,1.579,33.771,4.563c13.926,3.703,21.592,20.839,35.815,23.156c10.056,1.638,19.787-4.857,29.976-4.79      c10.733,0.07,20.367,7.368,31.095,7.719c12.262,0.401,23.678-8.333,35.871-6.97c10.104,1.129,18.687,9.053,28.851,9.289      c11.249,0.261,21.033-8.971,32.285-8.887c10.555,0.08,20.219,8.397,30.636,6.696c7.876-1.286,13.817-8.001,21.451-10.328      c4.453-1.357,9.238-1.143,13.779-2.171c9.777-2.214,17.838-10.665,19.587-20.536c1.051-5.93,0.068-12.391,2.901-17.707      c2.041-3.83,5.747-6.423,9.114-9.162c9.016-7.333,16.814-18.019,15.548-29.571c-0.725-6.616-4.359-12.69-4.792-19.331      c-0.86-13.196,10.966-25.187,8.693-38.214c-2.121-12.155-15.515-19.347-19.423-31.05c-3.391-10.156,0.896-22.221-4.439-31.505      c-7.77-13.522-28.433-10.601-41.503-19.109c-4.417-2.875-7.878-7.042-12.306-9.9c-14.757-9.521-35.356,4.415-47.774-7.526      c-6.87-6.606-8.921-15.259-18.653-19.093C289.496,35.531,277.316,39.657,266.217,36.119z"/>
			</g>
			<g>
				<g>
					<path style="fill:#D3542B;" d="M439.8,366.208c1.223,0.987,2.381,1.974,3.497,2.939c0.365,0.301,0.708,0.601,1.051,0.923       c2.703,2.382,5.085,4.677,7.166,6.823c-11.715,32.539-51.107,66.984-51.107,66.984l-53.68-15.051l-78.138,53.416l-91.602-42.38       l-55.717,12.34c-33.475-24.278-54.69-65.611-54.69-65.611c2.725-3.047,5.664-5.922,8.797-8.689l93.797,3.981l45.965-60.903       c3.562-1.073,6.029-2.038,7.188-2.939c4.399-3.454,6.244-10.706,6.887-17.83c0.57-6.177,0.459-12.531-0.322-18.688       c0,0,84.728,0,84.728,0s0,0.88,0.021,2.36c0.064,3.154,0.236,9.054,0.772,14.675c0.3,3.09,0.729,6.093,1.287,8.539       c0.086,0.365,0.193,0.708,0.279,1.051c0.365,1.373,0.794,2.532,1.287,3.326c1.609,2.532,6.63,4.935,15.856,8.26l27.159,52.037       L439.8,366.208z"/>
				</g>
				<g style="opacity:0.55;">
					<path style="fill:#331510;" d="M314.414,298.558c-3.669,4.377-8.389,7.982-13.517,10.578       c-9.398,4.742-20.083,6.351-30.617,6.415c-9.891,0.064-20.018-1.244-28.879-5.686c-4.634-2.339-8.904-5.621-12.187-9.655       c0.515-5.643,0.301-11.2,0.043-14.761c4.613-1.588,9.312-2.897,14.096-3.926c19.653-4.291,40.465-4.012,60.312,0       c3.368,0.687,6.694,1.459,9.977,2.36C313.706,287.037,313.877,292.937,314.414,298.558z"/>
				</g>
			</g>
			<g>
				<path style="fill:#FADED3;" d="M426.691,401.309c1.352,7.209-4.72,13.581-10.749,17.744c-6.029,4.184-13.045,8.26-15.212,15.255      c-0.966,3.111-0.815,6.329-0.322,9.569c-17.211,15.601-36.946,27.134-57.823,37.032c-30.889,14.645-65.799,19.84-99.751,17.955      c-28.467-1.58-57.817-9.305-83.294-22.245c-13.546-6.799-26.471-14.889-38.269-24.418c0.558-6.308,2.918-12.959,0.043-18.559      c-4.055-7.896-16.435-9.226-19.289-17.637c-2.639-7.767,4.828-16.714,1.201-24.094c-2.596-5.299-9.397-6.608-15.212-7.66      c-4.742-0.837-10.127-2.617-12.637-6.351c2.51-2.232,5.149-4.356,7.896-6.415c0.429-0.322,0.88-0.665,1.33-0.987      c11.307-8.282,24.202-15.169,37.461-20.941c0.408-0.193,0.837-0.386,1.266-0.558c16.092-6.93,32.677-12.23,47.588-16.413      c1.073-0.301,2.146-0.601,3.197-0.901c17.508-4.806,32.398-8.089,41.023-10.706c3.218,12.959,7.552,25.79,16.929,35.016      c7.917,7.789,18.838,12.165,29.909,13.195c11.05,1.03,22.249-1.116,32.655-5.021c7.445-2.789,14.633-6.544,20.469-11.951      c9.247-8.539,14.289-20.297,18.023-32.484c12.036,4.334,31.261,10.277,59.389,20.211c20.554,7.273,36.131,17.164,47.288,26.262      c-6.78,7.102-19.31,12.466-18.216,22.164C422.099,393.006,425.854,396.718,426.691,401.309z"/>
			</g>
			<g>
				<g>
					<g>
						<g>
							<path style="fill:#D3542B;" d="M407.547,195.488c4.459,7.641,4.483,17.336,1.479,25.658         c-4.939,13.686-18.072,24.042-32.533,25.652c-3.141,0.35-6.533,0.258-9.164-1.493c-2.292-1.527-3.665-4.09-4.689-6.646         c-4.47-11.159-3.898-26.616,1.377-37.603c3.952-8.232,15.985-16.575,25.025-16.607         C396.564,184.421,403.806,189.076,407.547,195.488z"/>
						</g>
						<g>
							<path style="fill:#331510;" d="M367.395,240.619c-0.096,0-0.195-0.017-0.29-0.054c-0.414-0.161-0.621-0.627-0.46-1.043         c3.695-9.558,7.82-19.63,13.988-28.46c4.767-6.824,12.908-15.794,24.613-19.773c0.42-0.137,0.877,0.083,1.021,0.503         c0.142,0.422-0.082,0.878-0.503,1.021c-11.293,3.838-19.182,12.544-23.813,19.17c-6.066,8.683-10.146,18.654-13.806,28.122         C368.022,240.425,367.717,240.619,367.395,240.619z"/>
						</g>
					</g>
					<g>
						<g>
							<path style="fill:#D3542B;" d="M135.685,195.488c-4.459,7.641-4.483,17.336-1.479,25.658         c4.939,13.686,18.072,24.042,32.533,25.652c3.141,0.35,6.533,0.258,9.164-1.493c2.292-1.527,3.665-4.09,4.689-6.646         c4.47-11.159,3.898-26.616-1.377-37.603c-3.952-8.232-15.985-16.575-25.025-16.607         C146.668,184.421,139.426,189.076,135.685,195.488z"/>
						</g>
						<g>
							<path style="fill:#331510;" d="M175.837,240.619c-0.322,0-0.627-0.195-0.75-0.514c-3.661-9.47-7.742-19.441-13.805-28.122         c-4.63-6.625-12.52-15.329-23.814-19.17c-0.421-0.143-0.645-0.599-0.503-1.021c0.145-0.42,0.605-0.636,1.021-0.503         c11.706,3.979,19.847,12.949,24.614,19.773c6.166,8.826,10.291,18.9,13.987,28.46c0.161,0.415-0.046,0.882-0.46,1.043         C176.032,240.602,175.933,240.619,175.837,240.619z"/>
						</g>
					</g>
				</g>
				<g>
					<g>
						<path style="fill:#D3542B;" d="M378.952,156.458c0,4.055-0.322,8.024-0.88,11.929c-0.15,6.029-0.322,12.83-0.622,19.997v0.021        c-0.386,10.191-0.944,21.048-1.781,31.261c-1.137,14.44-2.768,27.549-5.085,35.638c-2.296,8.024-7.102,14.526-13.388,19.761        h-0.021c-13.152,11.05-32.763,16.607-49.348,19.074h-0.021c-2.296,0.322-4.527,0.601-6.694,0.837        c-12.251,1.266-34.093,2.639-55.892,1.33h-0.021c-22.807-1.416-45.593-5.815-57.243-16.478        c-1.974-1.824-3.776-4.119-5.407-6.866c-6.887-11.607-10.749-30.596-12.916-49.133c-1.116-9.655-1.759-19.16-2.146-27.442        c-0.129-2.682-0.236-5.257-0.3-7.638c-0.343-11.05-0.193-18.473-0.193-18.473l0.579-0.064        c-0.772-4.484-1.18-9.076-1.18-13.753c0-51.129,47.588-92.602,106.269-92.602h1.008c2.682,0.021,5.321,0.15,7.938,0.343        c12.487,0.901,24.331,3.69,35.209,8.024c1.373,0.536,2.746,1.116,4.098,1.717c30.66,13.624,52.695,39.821,57.179,70.803        l0.279-0.021c0,0,0,0.665,0,1.888C378.759,149.85,378.952,153.133,378.952,156.458z"/>
					</g>
				</g>
				<g>
					<g>
						<g>
							<g>
								<g>
									<path style="fill:#331510;" d="M231.505,179.565c0,5.974-4.891,10.816-10.926,10.816c-6.034,0-10.926-4.842-10.926-10.816           c0-5.973,4.892-10.816,10.926-10.816C226.614,168.75,231.505,173.592,231.505,179.565z"/>
								</g>
								<g>
									<path style="fill:#331510;" d="M330.214,177.327c0,5.974-4.892,10.816-10.926,10.816c-6.034,0-10.926-4.842-10.926-10.816           c0-5.973,4.892-10.816,10.926-10.816C325.322,166.512,330.214,171.354,330.214,177.327z"/>
								</g>
							</g>
						</g>
						<g>
							<path style="fill:#331510;" d="M276.415,213.084c-1.204,0-2.41-0.126-3.587-0.387c-1.677-0.372-3.26-0.998-4.791-1.601         c-2.278-0.901-4.483-1.805-6.728-1.738c-0.985,0.004-2.012,0.163-3.102,0.328c-2.36,0.364-4.803,0.732-6.96-0.488         c-1.912-1.081-2.989-3.222-2.812-5.589c0.149-1.954,1.061-3.729,1.865-5.294c0.299-0.582,1.01-0.805,1.591-0.512         c0.581,0.298,0.809,1.01,0.512,1.59c-0.736,1.434-1.498,2.916-1.61,4.393c-0.086,1.13,0.295,2.607,1.617,3.357         c1.449,0.82,3.388,0.52,5.442,0.208c1.125-0.171,2.288-0.349,3.445-0.355c2.757-0.013,5.224,0.959,7.61,1.903         c1.51,0.597,2.938,1.162,4.432,1.492c3.146,0.694,6.674,0.261,9.45-1.162c0.912-0.467,1.759-1.036,2.655-1.638         c1.455-0.974,2.959-1.984,4.791-2.56c1.547-0.484,3.179-0.612,4.759-0.739c2.043-0.161,3.974-0.313,5.46-1.207         c1.039-0.625,1.721-1.67,1.87-2.866c0.138-1.105-0.215-2.175-0.969-2.933c-0.459-0.465-0.456-1.212,0.008-1.672         c0.463-0.458,1.212-0.452,1.671,0.006c1.267,1.278,1.863,3.061,1.635,4.889c-0.24,1.922-1.332,3.598-2.997,4.6         c-1.963,1.182-4.265,1.364-6.493,1.539c-1.515,0.118-2.944,0.231-4.235,0.638c-1.507,0.473-2.807,1.344-4.183,2.267         c-0.914,0.612-1.859,1.248-2.894,1.777C281.611,212.487,279.018,213.084,276.415,213.084z"/>
						</g>
						<g>
							<g>
								<g>
									<path style="fill:#FF8476;" d="M229.874,230.546c0,0,15.102,1.284,23.034-3.437c7.932-4.721,13.186-8.315,25.473-9.587           c15.886-1.643,22.124,9.352,30.057,10.139c7.932,0.787,13.22,0,13.22,0S292.951,241.038,229.874,230.546z"/>
								</g>
								<g>
									<path style="fill:#FF8476;" d="M231.856,230.589c13.36,3.951,21.257,14.614,35.228,17.364           c6.306,1.241,13.063,0.665,19.438-0.393c2.588-0.429,5.168-0.942,7.544-1.773c10.456-3.657,14.869-12.535,24.27-17.38           c-16.419,1.83-33.013,1.828-49.641,1.909C256.973,230.372,243.577,230.533,231.856,230.589z"/>
								</g>
							</g>
							<g>
								<path style="fill:#331510;" d="M272.281,234.499c-1.374,0-2.739-0.019-4.094-0.062c-6.395-0.201-12.839-0.758-19.069-1.297          c-6.06-0.524-12.326-1.066-18.52-1.276c-0.511-0.017-0.911-0.445-0.893-0.957c0.017-0.509,0.453-0.878,0.955-0.893          c6.243,0.214,12.534,0.758,18.617,1.282c6.206,0.537,12.623,1.092,18.967,1.291c17.476,0.561,36.722-2.642,53.236-5.835          c0.496-0.092,0.987,0.231,1.083,0.732c0.097,0.501-0.231,0.987-0.732,1.083          C306.493,231.535,288.808,234.499,272.281,234.499z"/>
							</g>
						</g>
					</g>
					<g>
						<g>
							<path style="fill:#331510;" d="M311.217,151.287c1.727,1.86,4.46,2.286,6.97,2.663c11.305,1.701,22.429,4.596,33.128,8.624         c-2.922-7.007-8.531-12.711-15.113-16.495c-5.75-3.306-13.403-6.242-20.138-6.302         C310.458,139.726,307.234,146.998,311.217,151.287z"/>
						</g>
						<g>
							<path style="fill:#331510;" d="M239.437,151.835c-1.727,1.86-4.46,2.286-6.97,2.663c-11.305,1.701-22.429,4.596-33.128,8.624         c2.922-7.007,8.531-12.711,15.113-16.495c5.75-3.306,13.403-6.242,20.138-6.302         C240.195,140.274,243.419,147.546,239.437,151.835z"/>
						</g>
					</g>
				</g>
				<g>
					<g>
						<path style="fill:#331510;" d="M379.517,156.934c0,4.129-0.327,8.17-0.896,12.146c-0.153,6.139-0.455,15.814-0.761,23.111        c-4.107-1.813-5.793-9.545-6.47-14.067c-0.699-4.697-0.83-9.787-3.714-13.566c-4.194-5.505-12.736-6.204-16.821-11.797        c-3.998-5.505-2.01-13.151,0.328-19.53c2.359-6.379,4.915-13.675,1.726-19.661c-3.517-6.575-11.971-8.17-18.634-11.491        c-10.093-5.024-17.061-15.663-17.979-26.826c-0.109-1.354-0.131-2.731-0.044-4.085c1.398,0.546,2.796,1.136,4.173,1.747        c31.217,13.872,53.653,40.545,58.218,72.09l0.284-0.022c0,0,0,0.677,0,1.922C379.321,150.205,379.517,153.548,379.517,156.934        z"/>
					</g>
					<g>
						<path style="fill:#331510;" d="M320.926,71.596c-1.063,1.226-2.474,1.97-4.102,2.342c-5.86,1.401-14.498-1.685-19.229-2.605        c-19.555-3.853-40.107-2.758-59.119,3.152c-6.858,2.123-13.651,4.969-19.012,9.632c-5.903,5.144-9.766,12.455-10.634,20.117        c-0.651,5.779,0.347,11.755-1.194,17.381c-1.649,5.954-6.207,11.098-12.067,13.55c-7.054,2.977-16.581,2.846-20.292,9.369        c-3.277,5.779,0.412,12.718,1.714,19.176c1.953,9.851-1.487,23.823-9.908,29.69c-0.217-0.482-1.689-5.663-1.689-5.663        c-0.347-11.273-0.166-17.853-0.166-17.853l0.586-0.066c-0.781-4.575-1.194-9.26-1.194-14.032        c0-52.164,48.138-94.477,107.496-94.477h1.02c2.713,0.022,5.382,0.153,8.03,0.35c12.631,0.919,24.612,3.765,35.615,8.187        C318.17,70.392,319.559,70.983,320.926,71.596z"/>
					</g>
				</g>
				<g>
					<g>
						<path style="fill:#FFFFFF;" d="M371.28,307.489c-5.393,0-10.487-1.152-14.951-3.406c-6.515-3.29-11.363-8.877-13.3-15.327        c-0.14-0.465,0.124-0.955,0.59-1.096c0.468-0.128,0.956,0.126,1.095,0.591c1.799,5.99,6.322,11.187,12.409,14.261        c5.475,2.764,12.258,3.785,19.111,2.888c11.639-1.537,22.482-8.635,28.299-18.525c6.006-10.209,6.664-23.063,1.719-33.553        c-5.023-10.654-15.7-18.236-27.199-19.313c-0.484-0.045-0.839-0.473-0.793-0.957c0.045-0.484,0.477-0.833,0.958-0.794        c12.107,1.132,23.343,9.106,28.627,20.315c5.189,11.007,4.502,24.491-1.794,35.192c-6.086,10.348-17.424,17.772-29.587,19.377        C374.713,307.374,372.982,307.489,371.28,307.489z"/>
					</g>
					<g>
						<path style="fill:#FFFFFF;" d="M171.54,311.283c-1.702,0-3.433-0.116-5.183-0.347c-12.164-1.605-23.501-9.029-29.587-19.377        c-6.296-10.701-6.983-24.187-1.794-35.192c5.284-11.208,16.521-19.182,28.626-20.315c0.471-0.021,0.913,0.31,0.958,0.794        c0.046,0.484-0.309,0.912-0.793,0.957c-11.5,1.077-22.175,8.659-27.198,19.313c-4.946,10.487-4.287,23.344,1.718,33.553        c5.818,9.89,16.662,16.988,28.301,18.525c6.843,0.895,13.636-0.122,19.111-2.888c6.087-3.074,10.61-8.272,12.409-14.261        c0.14-0.465,0.635-0.719,1.095-0.591c0.466,0.141,0.73,0.632,0.59,1.096c-1.937,6.45-6.785,12.037-13.3,15.327        C182.029,310.131,176.934,311.283,171.54,311.283z"/>
					</g>
				</g>
			</g>
			<g>
				<g>
					<path style="fill:#FFC17D;" d="M276.174,435.723c-0.198,0-0.381-0.111-0.474-0.287       c-20.026-37.922-39.095-76.991-56.676-116.126c-0.122-0.272-0.001-0.589,0.27-0.711c0.264-0.12,0.588,0,0.709,0.27       c17.41,38.754,36.281,77.447,56.094,115.02c7.51-19.617,15.323-39.615,22.883-58.969c7.691-19.69,15.645-40.05,23.273-59.99       c0.105-0.276,0.414-0.411,0.693-0.308c0.277,0.105,0.415,0.415,0.309,0.694c-7.629,19.942-15.584,40.304-23.275,59.994       c-7.701,19.715-15.664,40.101-23.303,60.069c-0.075,0.195-0.258,0.33-0.469,0.342       C276.195,435.721,276.185,435.723,276.174,435.723z"/>
				</g>
				<g>
					<path style="fill:#FFC17D;" d="M276.007,459.718c-7.438,0-13.489-6.052-13.489-13.488c0-7.439,6.052-13.49,13.489-13.49       s13.489,6.052,13.489,13.49C289.496,453.666,283.445,459.718,276.007,459.718z M276.007,434.884       c-6.255,0-11.344,5.09-11.344,11.345s5.089,11.343,11.344,11.343s11.344-5.088,11.344-11.343S282.262,434.884,276.007,434.884z       "/>
				</g>
			</g>
		</g>
	</g>
</g>















</svg>
