<?xml version="1.0" encoding="iso-8859-1"?>
<!-- Generator: Adobe Illustrator 25.0.0, SVG Export Plug-In . SVG Version: 6.00 Build 0)  -->
<svg version="1.1" id="Object" xmlns="http://www.w3.org/2000/svg" xmlns:xlink="http://www.w3.org/1999/xlink" x="0px" y="0px"
	 width="500px" height="500px" viewBox="0 0 500 500" enable-background="new 0 0 500 500" xml:space="preserve">
<g>
	<defs>
		<circle id="SVGID_3_" cx="269.98" cy="258.147" r="186.175"/>
	</defs>
	<clipPath id="SVGID_2_">
		<use xlink:href="#SVGID_3_"  overflow="visible"/>
	</clipPath>
	<circle clip-path="url(#SVGID_2_)" fill="#E5E18F" cx="269.98" cy="270.247" r="187.36"/>
	<g clip-path="url(#SVGID_2_)">
		<g>
			<path fill="#1E1E47" d="M193.763,204.881c0,0-21.476,2.807-24.771-10.372s15.009-19.524,15.009-19.524
				s-24.099-10.311-17.51-28.431s28.37-8.969,28.37-8.969s4.393-30.384,28.004-27.638s30.2,17.937,30.2,17.937
				s17.388-21.598,40.633-15.009c23.245,6.589,23.977,32.763,23.977,32.763s25.686-0.061,33.251,18.974s-7.077,37.095-7.077,37.095
				s19.524,15.863,9.518,33.678c-10.006,17.815-41.332,34.166-49.097,59.547C296.506,320.314,193.763,204.881,193.763,204.881z"/>
			<path fill="#C67F7D" d="M275.734,359.989c-47.416-9.656-46.52-32.337-46.52-32.337l15.186-2.942v-24.53
				c0,0-21.9,4.331-37.826-9.031c-15.926-13.362-12.811-86.269-12.811-86.269c22.944,0.247,36.486-15.129,36.486-15.129
				s3.049,4.511,10.732,7.93c7.692,3.419,29.041,0,29.041,0s1.833,4.273,5.251,7.807c3.419,3.542,12.935,4.15,12.935,4.15
				s0.855,24.653,1.463,28.187c0.608,3.542,4.635,2.317,6.344,2.079c1.709-0.247,1.586-5.128,1.224-10.009
				c-0.37-4.881,2.564-9.393,10.494-11.71c7.93-2.326,17.939,2.556,18.177,15.86c0.247,13.296-17.085,21.596-17.085,21.596
				s-4.142,36.059-1.767,48.69c0.362,1.906,0.879,3.657,1.504,5.243c3.312,1.759,13.839,7.149,24.242,10.338
				C345.362,323.757,323.15,369.636,275.734,359.989z"/>
			<path fill="#9B4B4B" d="M244.402,300.18c0,0,14.887,0.824,28.614-12.065c9.835-9.234,14.409-16.456,16.212-19.809
				c0.214-0.397,0.819-0.206,0.766,0.242c-0.758,6.436-3.779,24.947-14.233,36.147c-12.812,13.727-31.36,20.012-31.36,20.012V300.18
				z"/>
			<path fill="#7F3434" d="M222.639,231.229c0.647,2.182,1.471,4.831,0.49,7.039c-0.99,2.226-3.638,3.13-5.358,4.676
				c-1.64,1.475-2.782,3.929-1.691,6.067c0.503,0.986,1.403,1.601,2.399,2.019c0.921,0.387,2.016,0.582,2.815,1.211
				c1.067,0.84,2.588-0.66,1.509-1.509c-0.833-0.656-1.744-1.025-2.739-1.375c-0.834-0.293-1.851-0.609-2.171-1.529
				c-0.808-2.325,2.161-3.987,3.694-5.027c1.881-1.276,3.508-2.81,3.946-5.138c0.444-2.356-0.167-4.75-0.836-7.002
				C224.307,229.349,222.247,229.908,222.639,231.229L222.639,231.229z"/>
			<ellipse fill="#1E1E47" cx="209.184" cy="226.632" rx="3.798" ry="5.583"/>
			<ellipse fill="#1E1E47" cx="248.2" cy="227.285" rx="3.798" ry="5.583"/>
			<path fill="#1E1E47" d="M201.908,215.283c0,0,1.876-3.523,5.811-4.484c3.935-0.961,6.132-1.235,6.772,0.046
				c0.641,1.281,0.869,2.562-1.51,2.654c-2.379,0.092-4.896-0.366-7.001,1.052C203.876,215.97,201.313,217.297,201.908,215.283z"/>
			<path fill="#1E1E47" d="M256.306,215.283c0,0-1.876-3.523-5.811-4.484s-6.132-1.235-6.772,0.046
				c-0.641,1.281-0.869,2.562,1.51,2.654c2.379,0.092,4.896-0.366,7.001,1.052C254.338,215.97,256.901,217.297,256.306,215.283z"/>
			<g>
				<path fill="#7F3434" d="M219.451,269.072c8.387,3.491,18.38,1.901,25.403-3.795c1.067-0.865-0.451-2.367-1.509-1.509
					c-6.464,5.243-15.682,6.429-23.327,3.246C218.752,266.487,218.199,268.551,219.451,269.072L219.451,269.072z"/>
				<path fill="#7F3434" d="M231.104,279.158c1.098-0.067,2.196-0.135,3.293-0.202c0.284-0.017,0.549-0.107,0.755-0.313
					c0.185-0.185,0.324-0.489,0.313-0.755c-0.025-0.549-0.47-1.104-1.067-1.067c-1.098,0.067-2.196,0.135-3.293,0.202
					c-0.284,0.017-0.549,0.107-0.755,0.313c-0.185,0.185-0.324,0.489-0.313,0.755C230.061,278.64,230.507,279.195,231.104,279.158
					L231.104,279.158z"/>
			</g>
			<g>
				<path fill="#7F3434" d="M310.723,225.266c-4.526,0.577-7.134,4.997-7.483,9.234c-0.371,4.513,2.009,8.845,5.844,11.17
					c1.178,0.714,2.251-1.131,1.077-1.843c-3.039-1.842-4.914-5.151-4.82-8.72c0.081-3.092,1.892-7.262,5.381-7.707
					C312.067,227.228,312.084,225.092,310.723,225.266L310.723,225.266z"/>
				<path fill="#7F3434" d="M305.879,239.691c0.652-1.187,1.265-2.317,2.547-2.734c0.682-0.222,1.401-0.363,2.119-0.329
					c0.234,0.011,0.65,0.109,0.752,0.152c0.13,0.055,0.334,0.171,0.4,0.219c0.001,0,0.259,0.246,0.223,0.199
					c0.349,0.457,0.919,0.699,1.46,0.383c0.45-0.263,0.735-0.999,0.383-1.46c-1.367-1.791-3.623-1.865-5.648-1.299
					c-0.948,0.265-1.817,0.736-2.497,1.455c-0.651,0.688-1.128,1.512-1.581,2.337c-0.277,0.505-0.124,1.164,0.383,1.46
					C304.908,240.36,305.601,240.198,305.879,239.691L305.879,239.691z"/>
			</g>
		</g>
		<g>
			<path fill="#AEC655" d="M424.823,446.691H142.416c0,0,13.847-77.353,23.913-90.361c7.593-9.804,39.453-21.119,54.688-26.099
				c4.988-1.627,8.193-2.58,8.193-2.58s12.244,23.445,45.386,18.186c33.142-5.259,52.659-28.745,52.659-28.745
				s3.131,1.068,8.185,2.925c18.654,6.845,63.465,24.398,73.154,38.27C420.903,375.912,424.823,446.691,424.823,446.691z"/>
			<path fill="#E5E18F" d="M335.44,320.016c-8.292,26.707-31.687,45.961-59.249,45.961c-23.905,0-44.679-14.479-55.173-35.747
				c4.988-1.627,8.193-2.58,8.193-2.58s12.244,23.445,45.386,18.186c33.142-5.259,52.659-28.745,52.659-28.745
				S330.386,318.159,335.44,320.016z"/>
			<g>
				<g>
					<path fill="#699124" d="M183.031,380.684c-2.071,16.841-4.048,33.693-5.926,50.556c-0.53,4.759-1.053,9.519-1.568,14.28
						c-0.148,1.364,1.988,1.353,2.134,0c1.825-16.869,3.745-33.728,5.763-50.575c0.569-4.755,1.147-9.509,1.731-14.261
						C185.333,379.324,183.197,379.336,183.031,380.684L183.031,380.684z"/>
					<path fill="#699124" d="M360.995,365.202c-8.451,4.514-10.428,15.145-10.956,23.844c-0.359,5.91-0.17,11.848-0.111,17.764
						c0.061,6.029,0.121,12.058,0.182,18.087c0.068,6.797,0.137,13.595,0.205,20.392c0.014,1.372,2.148,1.376,2.134,0
						c-0.118-11.703-0.236-23.406-0.354-35.109c-0.058-5.758-0.215-11.526-0.08-17.283c0.116-4.969,0.448-10.02,1.919-14.797
						c1.384-4.495,3.876-8.779,8.137-11.055C363.284,366.398,362.207,364.555,360.995,365.202L360.995,365.202z"/>
					<path fill="#699124" d="M190.367,414.497c14.682,4.25,29.586,7.722,44.636,10.388c14.974,2.652,30.09,4.518,45.261,5.579
						c8.591,0.601,17.198,0.94,25.81,1.025c1.374,0.014,1.375-2.12,0-2.134c-15.17-0.15-30.329-1.096-45.398-2.847
						c-15.087-1.753-30.079-4.318-44.894-7.666c-8.344-1.886-16.63-4.024-24.847-6.402
						C189.613,412.056,189.048,414.115,190.367,414.497L190.367,414.497z"/>
					<path fill="#699124" d="M236.503,435.107c6.153,2.203,12.674,3.279,19.208,3.19c1.372-0.019,1.376-2.153,0-2.134
						c-6.361,0.088-12.652-0.969-18.641-3.113C235.775,432.585,235.217,434.647,236.503,435.107L236.503,435.107z"/>
				</g>
			</g>
		</g>
	</g>
</g>
</svg>
