<?xml version="1.0" encoding="UTF-8"?>
<!-- Generator: Adobe Illustrator 25.2.3, SVG Export Plug-In . SVG Version: 6.00 Build 0)  -->
<svg xmlns="http://www.w3.org/2000/svg" xmlns:xlink="http://www.w3.org/1999/xlink" version="1.1" id="Capa_1" x="0px" y="0px" viewBox="0 0 512 512" style="enable-background:new 0 0 512 512;" xml:space="preserve" width="512" height="512">
<g>
	<g>
		<path style="fill:#FFFFFF;" d="M255.988,512c-47.425,0-93.738-13.073-133.937-37.808C45.638,427.187,0.016,345.63,0.016,256.028    c0-67.527,26.057-131.238,73.371-179.394C120.582,28.598,183.602,1.423,250.857,0.098C252.117,0.035,253.378,0,254.641,0    c0.819,0,1.639,0.014,2.46,0.044C397.661,0.65,511.984,115.431,511.984,256.028c0,77.882-34.825,150.58-95.543,199.451    C371.207,491.927,314.221,512,255.988,512z"/>
	</g>
	<g>
		<g>
			<path style="fill:#7EA8C5;" d="M500.049,256.028c0,76.324-35.277,144.394-90.44,188.793     c-41.549,33.476-94.362,53.497-151.874,53.497c-46.474,0-89.893-13.089-126.766-35.779     C61.645,419.897,15.445,343.367,15.445,256.028c0-133.836,108.478-242.313,242.29-242.313     C391.571,13.715,500.049,122.193,500.049,256.028z"/>
		</g>
		<g>
			<g>
				<path style="fill:#FFC17D;" d="M281.091,19.153c-16.434-7.629-36.713-7.588-52.141,1.913      c-10.743,6.616-18.998,17.425-30.95,21.466c-10.627,3.593-22.273,1.169-33.434,2.297c-29.978,3.029-52.449,33.1-53.498,63.213      c-0.454,13.015,2.081,27.103-4.62,38.269c-4.424,7.372-12.111,12.019-18.888,17.308c-16.428,12.821-28.754,31.173-33.042,51.566      c-4.288,20.393-0.163,42.686,12.261,59.417c7.598,10.233,18.404,18.999,20.982,31.481c1.77,8.57-0.737,17.409-0.635,26.16      c0.127,10.922,4.611,21.869,12.696,29.212s19.774,10.76,30.4,8.232c13.78-3.279,26.726-15.801,39.997-10.851      c6.669,2.487,10.981,8.81,16.388,13.438c13.459,11.522,35.416,11.415,48.762-0.237c7.743-6.76,13.156-16.993,22.975-20.029      c7.543-2.331,16.326,0.186,23.201-3.696c3.758-2.122,6.304-5.847,8.508-9.558c14.423-24.288,19.71-52.851,22.876-80.921      c4.173-36.997,5.09-74.289,4.318-111.49c-0.383-18.475-1.187-36.939-2.214-55.389c-0.648-11.65,2.411-27.502-0.887-38.615      C309.931,38.139,293.951,25.124,281.091,19.153z"/>
			</g>
			<g>
				<path style="fill:#FFC17D;" d="M298.506,65.955c11.961-15.089,37.359-16.727,51.159-3.299      c7.18,6.987,11.29,17.039,19.647,22.564c10.912,7.215,25.452,4.545,38.055,8.049c17.055,4.741,29.625,22.232,28.683,39.908      c-0.932,17.472-13.297,35.159-6.23,51.165c4.909,11.119,17.378,16.481,26.037,25.012c15.217,14.991,16.994,41.586,3.906,58.468      c-4.325,5.579-9.95,10.072-14.082,15.795c-7.246,10.035-9.234,22.783-13.116,34.536c-3.883,11.752-11.167,23.925-23.163,26.973      c-13.106,3.33-27.302-5.442-40.143-1.204c-8.73,2.882-14.442,10.997-21.374,17.034c-7.832,6.821-18.438,11.288-28.619,9.238      c-8.261-1.663-15.155-7.29-23.11-10.071c-7.791-2.724-16.552-2.567-24.242,0.432c-4.289,1.673-8.525,4.245-13.111,3.84      c-7.621-0.673-11.971-8.913-14.229-16.223c-12.356-39.99-4.367-83.022,2.195-124.36c6.179-38.926,11.032-78.187,21.32-116.234      c3.038-11.233,6.823-22.815,15.056-31.038c5.153-5.146,9.245-3.63,12.738-9.646c1.77-3.048,0.388,0.388,3.881-1.941"/>
			</g>
		</g>
		<g>
			<g>
				<path style="fill:#FF8476;" d="M409.609,444.821c-41.549,33.476-94.362,53.497-151.874,53.497      c-46.474,0-89.893-13.089-126.766-35.779c1.254-6.727,3.124-15.187,5.975-25.745c9.897-36.669,87.909-57.055,93.153-62.3      c2.144-2.121,2.919-10.9,3.101-20.637c0.068-4.014,0.045-8.187-0.023-12.109c-0.137-6.066-0.365-11.539-0.547-14.914      c-0.114-2.235-0.205-3.557-0.205-3.557l36.486-1.437l21.709-0.867c0.388,0,0.798-0.023,1.186-0.046c0,0,1.46,8.255,3.329,17.696      c0.525,2.714,1.095,5.519,1.665,8.255c1.574,7.685,3.215,14.823,4.333,17.719c2.896,7.571,59.951,23.876,79.745,39.017      C393.897,413.557,404.136,432.781,409.609,444.821z"/>
			</g>
			<g style="opacity:0.55;">
				<path style="fill:#331510;" d="M295.134,338.624c-1.551,2.394-3.398,4.561-5.678,6.385c-3.238,2.6-7.115,4.264-11.083,5.405      c-15.301,4.447-32.45,0.775-45.197-8.666c-0.137-6.066-0.365-11.539-0.547-14.914l36.281-4.994l6.59-0.912      c4.766,0,9.965,0.16,15.119,0.046c0.388,0,0.798-0.023,1.186-0.046C291.804,320.928,293.264,329.183,295.134,338.624z"/>
			</g>
		</g>
		<g>
			<path style="fill:#FF8476;" d="M402.243,229.029c-3.786,10.786-12.2,19.885-22.667,24.514c-8.301,3.671-17.764,4.47-26.612,2.44     c-2.326,11.949-5.04,23.784-8.164,34.684c-15.735,54.729-153.128,50.055-175.27,24.446c-8.05-9.327-13.34-30.261-16.784-53.11     c-8.597,1.801-17.764,0.912-25.814-2.645c-10.467-4.629-18.859-13.728-22.667-24.514c-1.938-5.496-2.714-11.493-1.368-17.171     c2.485-10.535,12.496-18.517,23.26-19.634c7.411-0.775,14.914,1.505,21.048,5.77c-0.091-1.893-0.182-3.717-0.251-5.45     c-0.616-13.112-0.707-21.823-0.707-21.823l0.365-0.023c-0.365-3.626-0.547-7.297-0.547-11.037     c0-60.658,49.165-109.846,109.846-109.846c14.617,0,28.573,2.851,41.32,8.05c0.547,0.228,1.095,0.456,1.642,0.707     c37.125,15.78,63.737,51.4,66.587,93.564l0.296-0.046c0,0-0.046,0.684-0.16,1.984c0.114,1.847,0.16,3.717,0.16,5.587     c0,9.03-1.118,17.764-3.17,26.156c-0.114,1.003-0.228,2.03-0.342,3.079c-0.068,0.524-0.114,1.049-0.182,1.573     c1.095-0.616,2.212-1.186,3.375-1.642c0.456-0.228,0.935-0.41,1.414-0.57c4.31-1.642,8.916-2.326,13.523-1.847     c10.763,1.094,20.774,9.099,23.26,19.634C404.957,217.513,404.181,223.533,402.243,229.029z"/>
		</g>
		<g>
			<path style="fill:#FFC17D;" d="M367.02,180.157c0.673-4.802,1.058-9.692,1.058-14.682c0-1.87-0.047-3.74-0.165-5.587     c0.118-1.3,0.165-1.984,0.165-1.984l-0.306,0.046c-2.954-42.242-28.738-80.411-68.949-93.756     c0.338-0.148,0.672-0.308,0.941-0.538c-0.554-0.254-1.107-0.484-1.661-0.715c-12.896-5.26-27.014-8.143-41.802-8.143     c-61.388,0-111.126,49.761-111.126,111.126c0,0.483,0.029,0.955,0.035,1.436c-0.244-0.116-0.499-0.217-0.775-0.28     c-1.977-0.455-3.987,0.831-5.193,2.462c-1.904,2.573-2.389,5.905-2.653,9.095c-0.508,6.147-0.256,11.589,2.714,16.996     c4.389,7.99,8.383,16.197,11.963,24.582c2.247-14.106,1.759-28.632-1.399-42.56c-0.324-4.853,0.25-10.141,3.684-13.552     c3.184-3.161,7.982-3.876,12.135-5.537c7.198-2.861,12.942-9.089,15.226-16.495c1.961-6.321,1.43-13.104,2.515-19.632     c1.061-6.506,4.452-13.45,10.773-15.411c5.814-1.799,11.881,1.2,17.81,2.561c14.257,3.322,30.29-3.783,37.373-16.587     c3.045-5.514,4.499-11.743,6.829-17.602c2.33-5.86,5.859-11.673,11.488-14.465c7.567-3.76,16.68-1.153,24.385,2.261     c1.588,0.698,3.307,1.432,4.969,1.401c-1.514,5.696-2.13,11.615-1.079,17.372c1.296,7.115,5.3,13.979,11.637,17.787     c5.936,3.557,13.828,4.584,17.927,10.056c2.992,4.036,3.039,9.532,1.79,14.367c-1.249,4.834-3.651,9.304-5.206,14.047     c-4.382,13.34-1.555,28.687,7.303,39.747c4.224,5.269,9.206,9.915,14.867,13.221c1.054,8.476,3.139,16.824,6.222,24.789     c6.491-9.737,11.89-18.862,17.508-29.128c0.626-1.144,1.272-2.391,1.089-3.682C368.932,181.928,368.016,180.945,367.02,180.157z"/>
		</g>
		<g>
			<g style="opacity:0.46;">
				<g>
					<path style="fill:#FF5E5E;" d="M159.041,292.355c6.294,7.845,15.963,12.861,26.795,12.861c18.973,0,34.365-15.37,34.365-34.343       c0-18.973-15.393-34.365-34.365-34.365c-15.917,0-29.303,10.832-33.203,25.517L159.041,292.355z"/>
				</g>
				<g>
					<circle style="fill:#FF5E5E;" cx="314.513" cy="263.879" r="34.351"/>
				</g>
			</g>
			<g>
				<g>
					<path style="fill:#331510;" d="M167.649,180.8c1.203-2.624,3.24-4.784,5.588-6.461c2.359-1.679,5.078-2.852,7.911-3.479       c2.831-0.634,5.785-0.737,8.634-0.26c2.837,0.509,5.604,1.535,7.847,3.33c0.517,0.414,0.601,1.169,0.187,1.686       c-0.238,0.297-0.588,0.451-0.942,0.45l-0.043,0c-2.624-0.024-5.008-0.032-7.357,0.197c-2.338,0.195-4.608,0.558-6.84,1.083       c-2.23,0.533-4.415,1.217-6.603,2.05c-2.198,0.833-4.348,1.847-6.734,2.98l-0.035,0.017c-0.602,0.286-1.321,0.03-1.607-0.572       C167.497,181.487,167.508,181.112,167.649,180.8z"/>
				</g>
				<g>
					<path style="fill:#331510;" d="M309.648,182.376c-2.386-1.133-4.535-2.147-6.734-2.98c-2.188-0.833-4.374-1.516-6.603-2.05       c-2.231-0.526-4.502-0.888-6.84-1.083c-2.348-0.229-4.732-0.221-7.357-0.197l-0.037,0c-0.663,0.006-1.205-0.526-1.211-1.189       c-0.004-0.381,0.176-0.726,0.45-0.948c2.242-1.795,5.01-2.821,7.847-3.33c2.849-0.477,5.803-0.374,8.634,0.26       c2.833,0.627,5.552,1.8,7.911,3.479c2.348,1.678,4.385,3.838,5.588,6.461c0.278,0.605,0.012,1.321-0.594,1.599       c-0.335,0.154-0.705,0.141-1.015-0.005L309.648,182.376z"/>
				</g>
				<g>
					<g>
						<g>
							<path style="fill:#331510;" d="M203.891,209.732c0,6.217-5.04,11.256-11.256,11.256c-6.217,0-11.256-5.04-11.256-11.256         c0-6.217,5.04-11.256,11.256-11.256C198.851,198.476,203.891,203.516,203.891,209.732z"/>
						</g>
						<g>
							<path style="fill:#331510;" d="M305.586,207.403c0,6.217-5.04,11.256-11.256,11.256c-6.217,0-11.256-5.04-11.256-11.256         c0-6.217,5.04-11.256,11.256-11.256C300.546,196.147,305.586,201.187,305.586,207.403z"/>
						</g>
					</g>
					<g>
						<path style="fill:#331510;" d="M232.076,250.136c-0.538,0-0.765-0.171-0.923-0.289c-0.609-0.457-2.036-1.527,0.71-60.74        c0.031-0.627,0.623-1.13,1.192-1.085c0.63,0.028,1.116,0.563,1.088,1.192c-0.953,20.517-2.128,53.395-1.444,58.609        c2.228-0.578,9.309-4.6,15.213-8.387c0.531-0.335,1.237-0.188,1.576,0.346c0.34,0.53,0.184,1.235-0.345,1.575        C237.51,248.812,233.579,250.135,232.076,250.136z"/>
					</g>
					<g>
						<path style="fill:#331510;" d="M245.384,262.678c-4.474,0-8.915-1.554-12.391-4.428c-0.486-0.401-0.552-1.121-0.151-1.606        c0.399-0.486,1.123-0.553,1.605-0.152c3.868,3.2,9.33,4.577,14.251,3.576c4.922-0.996,9.422-4.38,11.747-8.831        c0.293-0.559,0.984-0.768,1.539-0.484c0.557,0.291,0.774,0.98,0.481,1.539c-2.671,5.123-7.65,8.866-13.314,10.011        C247.907,262.555,246.645,262.678,245.384,262.678z"/>
					</g>
				</g>
			</g>
		</g>
		<g>
			<g>
				<g>
					<path style="fill:#331510;" d="M355.419,241.088c-0.094,0-0.189-0.012-0.286-0.037c-0.609-0.158-0.977-0.78-0.819-1.389       c5.335-20.682,22.915-37.754,43.745-42.481c0.618-0.144,1.225,0.247,1.364,0.859c0.139,0.615-0.245,1.225-0.859,1.364       c-20.018,4.545-36.914,20.952-42.041,40.827C356.392,240.746,355.927,241.088,355.419,241.088z"/>
				</g>
				<g>
					<path style="fill:#331510;" d="M149.968,246.33c-0.46,0-0.894-0.282-1.067-0.737c-6.914-18.286-20.69-34.2-37.798-43.66       c-0.55-0.306-0.75-0.999-0.446-1.55c0.304-0.555,1.003-0.748,1.55-0.446c17.573,9.72,31.724,26.066,38.827,44.849       c0.222,0.589-0.073,1.247-0.663,1.47C150.239,246.305,150.103,246.33,149.968,246.33z"/>
				</g>
			</g>
			<g>
				<g>
					<circle style="fill:#FADED3;" cx="141.01" cy="260.968" r="5.822"/>
				</g>
				<g>
					<path style="fill:#FADED3;" d="M369.242,253.981c0,3.215-2.607,5.822-5.822,5.822c-3.216,0-5.822-2.607-5.822-5.822       c0-3.216,2.607-5.822,5.822-5.822C366.636,248.159,369.242,250.766,369.242,253.981z"/>
				</g>
			</g>
		</g>
		<g>
			<g>
				<path style="fill:#331510;" d="M409.609,444.821c-41.549,33.476-94.362,53.497-151.874,53.497      c-46.474,0-89.893-13.089-126.766-35.779c1.254-6.727,3.124-15.187,5.975-25.745c9.897-36.669,87.909-57.055,93.153-62.3      c2.144-2.121,2.919-10.9,3.101-20.637l22.302-2.463h0.046l28.642-3.124l12.61-1.391c1.574,7.685,3.215,14.823,4.333,17.719      c2.896,7.571,59.951,23.876,79.745,39.017C393.897,413.557,404.136,432.781,409.609,444.821z"/>
			</g>
			<g>
				<g>
					<path style="fill:#FADED3;" d="M271.429,453.283c-0.215,0-0.415-0.122-0.51-0.317l-40.371-81.51       c-0.139-0.282-0.024-0.624,0.26-0.763c0.276-0.138,0.623-0.025,0.762,0.258l39.757,80.274l29.837-88.743       c0.101-0.299,0.422-0.452,0.722-0.359c0.297,0.1,0.46,0.424,0.359,0.722l-30.276,90.05c-0.073,0.218-0.271,0.372-0.503,0.387       C271.455,453.283,271.441,453.283,271.429,453.283z"/>
				</g>
				<g>
					<path style="fill:#FADED3;" d="M271.816,469.586c-4.809,0-8.722-3.911-8.722-8.72s3.912-8.722,8.722-8.722       c4.809,0,8.724,3.912,8.724,8.722S276.625,469.586,271.816,469.586z M271.816,453.283c-4.179,0-7.58,3.402-7.58,7.582       s3.4,7.581,7.58,7.581c4.181,0,7.582-3.4,7.582-7.581S275.997,453.283,271.816,453.283z"/>
				</g>
			</g>
		</g>
		<g>
			<g>
				<path style="fill:#FADED3;" d="M398.38,373.386c0,0,14.509,0.745,17.132-2.628s5.461-17.987,5.461-17.987      s1.325,13.648,3.486,17.509c2.527,4.515,15.899,7.259,15.899,7.259s-12.481-0.387-15.776,3.303      c-2.246,2.516-6.308,13.286-6.716,17.711c0,0-0.296-16.619-3.888-19.102C410.384,376.967,398.38,373.386,398.38,373.386z"/>
			</g>
			<g>
				<path style="fill:#FADED3;" d="M422.445,171.548c0,0,14.509,0.745,17.132-2.628c2.623-3.374,5.46-17.987,5.46-17.987      s1.325,13.648,3.486,17.509c2.527,4.515,15.899,7.259,15.899,7.259s-12.481-0.387-15.776,3.303      c-2.246,2.516-6.308,13.286-6.716,17.711c0,0-0.296-16.619-3.888-19.102C434.449,175.129,422.445,171.548,422.445,171.548z"/>
			</g>
			<g>
				<path style="fill:#FADED3;" d="M58.749,358.248c0,0,14.509,0.745,17.132-2.628c2.623-3.374,5.461-17.987,5.461-17.987      s1.325,13.648,3.486,17.509c2.526,4.515,15.899,7.259,15.899,7.259s-12.481-0.387-15.776,3.303      c-2.246,2.516-6.308,13.286-6.716,17.711c0,0-0.296-16.62-3.888-19.103C70.753,361.829,58.749,358.248,58.749,358.248z"/>
			</g>
			<g>
				<path style="fill:#FADED3;" d="M76.215,138.943c0,0,14.509,0.745,17.132-2.628c2.623-3.374,5.46-17.987,5.46-17.987      s1.325,13.648,3.486,17.509c2.527,4.515,15.899,7.259,15.899,7.259s-12.481-0.387-15.776,3.303      c-2.246,2.516-6.308,13.286-6.716,17.711c0,0-0.296-16.619-3.888-19.102C88.22,142.524,76.215,138.943,76.215,138.943z"/>
			</g>
			<g>
				<path style="fill:#FADED3;" d="M48.243,252.429c0,4.073-3.302,7.375-7.375,7.375c-4.073,0-7.375-3.302-7.375-7.375      c0-4.073,3.302-7.375,7.375-7.375C44.941,245.054,48.243,248.356,48.243,252.429z"/>
			</g>
			<g>
				<path style="fill:#FADED3;" d="M463.175,297.454c0,4.073-3.302,7.375-7.375,7.375c-4.073,0-7.375-3.302-7.375-7.375      c0-4.073,3.302-7.375,7.375-7.375C459.873,290.079,463.175,293.381,463.175,297.454z"/>
			</g>
			<g>
				<path style="fill:#FADED3;" d="M352.94,45.933c0,4.073-3.302,7.375-7.375,7.375c-4.073,0-7.375-3.302-7.375-7.375      s3.302-7.375,7.375-7.375C349.638,38.558,352.94,41.86,352.94,45.933z"/>
			</g>
			<g>
				<path style="fill:#FADED3;" d="M170.51,384.788c0,4.073-3.302,7.375-7.375,7.375c-4.073,0-7.375-3.302-7.375-7.375      c0-4.073,3.302-7.375,7.375-7.375C167.208,377.413,170.51,380.715,170.51,384.788z"/>
			</g>
		</g>
	</g>
</g>















</svg>
