<?xml version="1.0" encoding="UTF-8"?>
<!-- Generator: Adobe Illustrator 25.2.3, SVG Export Plug-In . SVG Version: 6.00 Build 0)  -->
<svg xmlns="http://www.w3.org/2000/svg" xmlns:xlink="http://www.w3.org/1999/xlink" version="1.1" id="Capa_1" x="0px" y="0px" viewBox="0 0 511.944 511.944" style="enable-background:new 0 0 511.944 511.944;" xml:space="preserve" width="512" height="512">
<g>
	<g>
		<path style="fill:#FFFFFF;" d="M161.626,39.757c0,0,8.964-19.726,28.544-27.71c5.6-2.284,11.646-3.24,17.81-3.24    c7.916,0,15.763,1.849,22.693,5.346c1.462,0.737,2.928,1.563,4.399,2.398c1.536,0.872,3.739,2.123,4.997,2.579    c0.284-0.178,0.689-0.444,1.266-0.846c1.703-1.19,3.376-2.448,5.052-3.706c7.09-5.316,15.126-11.342,25.718-13.65    C274.931,0.312,277.855,0,280.792,0c13.209,0,26.731,6.369,36.177,17.039c1.128,1.275,2.221,2.624,3.315,3.982    c1.453,1.804,3.885,4.824,4.926,5.268c0.441,0.106,1.973,0.131,3.092,0.15c1.734,0.028,3.7,0.061,5.901,0.338    c9.892,1.247,17.9,7.122,21.22,15.165c11.972,5.183,23.582,11.356,34.55,18.373c8.178,5.231,16.042,10.937,23.55,17.093    c7.514,6.16,14.669,12.759,21.417,19.75c6.747,6.99,13.087,14.372,18.973,22.1c11.574,15.197,21.429,31.741,29.099,49.242    c8.642,19.716,14.609,40.593,17.817,61.876c1.988,13.193,2.917,26.547,2.759,39.889c-0.152,12.841-1.323,25.67-3.515,38.325    c-2.476,14.296-6.228,28.373-11.241,41.989c-3.721,10.108-8.125,19.963-13.154,29.487c-19.075,36.128-47.167,66.729-80.942,89.632    c-16.958,11.499-35.326,20.915-54.64,27.774c-27.858,9.894-57.448,14.671-86.995,14.468c-20.416-0.14-40.805-2.691-60.48-8.088    c-38.109-10.466-74.055-29.03-103.231-55.863c-26.838-24.683-48.789-54.786-62.707-88.581c-0.225-0.511-0.435-1.04-0.637-1.574    c-4.759-11.742-8.648-24.085-11.479-36.483c-0.164-0.624-0.302-1.248-0.417-1.87c-3.571-16.042-5.978-32.451-5.8-48.918    c0.558-51.639,15.023-103.733,45.621-145.766c11.867-16.303,25.597-31.255,40.927-44.36c7.861-6.72,16.139-12.953,24.779-18.639    C119.676,61.795,147.729,43.997,161.626,39.757z"/>
	</g>
	<g>
		<g>
			<g>
				<g>
					<path style="fill:#FF8476;" d="M88.573,428.741c0,0-2.773-2.838-3.63-3.742c-1.335-1.408-2.649-2.834-3.948-4.275       c-6.226-6.901-12.037-14.171-17.375-21.78c-0.161-0.254-0.346-0.484-0.507-0.738c-0.438-0.623-0.876-1.245-1.291-1.868       c-10.6-15.899-19.643-32.992-26.196-50.96c-6.893-18.887-10.957-38.22-12.891-58.197c-0.009-0.092-0.018-0.183-0.027-0.275       c-0.138-1.43-0.254-2.86-0.346-4.289c-1.282-19.842-0.229-39.81,3.575-59.339c0.069-0.461,0.161-0.923,0.277-1.384       c1.568-6.264,2.776-12.575,4.571-18.791c1.819-6.301,3.964-12.479,6.268-18.616c0.139-0.369,0.277-0.761,0.415-1.13       c4.29-10.955,9.409-21.54,15.267-31.618c0.208-0.346,0.392-0.669,0.6-1.015c5.72-9.846,12.241-19.257,19.395-28.113       c0.254-0.323,0.507-0.623,0.738-0.923c7.438-9.019,15.438-17.535,24.077-25.415c0.3-0.277,0.6-0.553,0.922-0.807       c9.156-8.256,18.981-15.798,29.382-22.509c0.369-0.254,0.715-0.484,1.084-0.715c11.047-7.057,22.739-13.238,34.962-18.404       c0.392-0.161,0.807-0.346,1.222-0.507c12.684-5.281,25.922-9.479,39.644-12.477c0.461-0.115,0.923-0.208,1.384-0.277       c6.573-1.43,13.238-2.56,19.995-3.39c0.415-0.069,0.83-0.115,1.245-0.161c1.983-0.254,4.013-0.461,6.019-0.646       c0.623-0.046,1.245-0.115,1.868-0.138c3.69-0.323,7.403-0.577,11.139-0.715c0.438-0.023,0.899-0.046,1.338-0.046       c2.606-0.092,5.235-0.138,7.864-0.138c2.491,0,4.981,0.046,7.449,0.115c0.438,0.023,0.899,0.023,1.338,0.046       c13.791,0.507,27.283,2.191,40.359,4.958c0.461,0.092,0.9,0.184,1.361,0.3c9.202,2.006,18.219,4.566,26.983,7.611       c0.369,0.115,0.715,0.231,1.061,0.369c18.017,6.322,35.252,14.918,51.172,25.453c3.972,2.629,7.864,5.379,11.668,8.245       c14.997,11.301,28.667,24.525,40.577,39.041c12.219,14.893,22.546,31.376,30.65,48.851c3.771,8.132,7.065,16.489,9.86,25.006       c6.234,18.994,9.929,38.957,11.012,58.911c0.227,4.186,0.34,8.378,0.34,12.57c0,19.303-2.43,38.651-7.238,57.345       c-4.429,17.223-10.929,33.821-19.168,49.572c-3.644,6.965-7.657,13.699-11.993,20.202c-6.04,9.06-12.708,17.697-19.949,25.83       l-149.27,16.143l-80.452,31.266C201.374,467.179,88.573,428.741,88.573,428.741z"/>
				</g>
			</g>
			<g style="opacity:0.44;">
				<g>
					<g>
						<g>
							<path style="fill:#FADED3;" d="M283.395,37.027c0.254,0.784,0.484,1.568,0.738,2.352         c6.088,19.303,12.361,39.252,39.068,60.308c26.729,21.079,47.577,22.532,67.757,23.939         c18.727,1.315,38.03,2.675,62.107,19.949c-0.507-0.877-1.061-1.73-1.637-2.583c-0.023,0-0.023,0-0.023-0.023         c-23.247-15.89-42.089-17.204-60.377-18.473c-19.995-1.407-40.682-2.86-67.111-23.708         c-26.429-20.848-32.656-40.636-38.676-59.754c-0.184-0.623-0.392-1.245-0.6-1.845         C284.225,37.119,283.809,37.073,283.395,37.027z"/>
						</g>
					</g>
				</g>
				<g>
					<g>
						<g>
							<path style="fill:#FADED3;" d="M246.379,35.505c5.812,10.101,8.902,19.972,11.969,29.681         c6.065,19.28,12.338,39.229,39.068,60.308c26.706,21.079,47.555,22.532,67.734,23.939         c19.995,1.407,40.682,2.837,67.111,23.685c26.453,20.871,32.656,40.636,38.676,59.754         c3.99,12.684,8.049,25.646,17.965,39.022c0.023-0.646,0.046-1.292,0.046-1.96c-9.156-12.8-13.076-25.23-16.905-37.407         c-6.065-19.28-12.338-39.229-39.068-60.308c-26.706-21.056-47.578-22.532-67.734-23.939         c-20.018-1.384-40.682-2.837-67.134-23.685c-26.43-20.848-32.656-40.636-38.676-59.754         c-2.998-9.617-6.088-19.395-11.716-29.382C247.279,35.482,246.817,35.482,246.379,35.505z"/>
						</g>
					</g>
				</g>
				<g>
					<g>
						<g>
							<path style="fill:#FADED3;" d="M204.66,40.763c17.527,17.366,22.786,34.017,27.882,50.23         c6.066,19.28,12.338,39.229,39.068,60.308c26.706,21.079,47.577,22.532,67.734,23.939         c20.018,1.407,40.682,2.837,67.111,23.685c26.453,20.848,32.656,40.636,38.676,59.754c6.019,19.05,12.2,38.745,38.053,59.478         c0.115-0.415,0.208-0.83,0.277-1.245c-25.207-20.41-31.319-39.806-37.223-58.578c-6.066-19.28-12.338-39.229-39.068-60.308         c-26.706-21.079-47.555-22.532-67.734-23.939c-19.995-1.384-40.682-2.837-67.111-23.685         c-26.453-20.849-32.679-40.636-38.676-59.754c-5.097-16.19-10.332-32.818-27.629-50.184         C205.559,40.556,205.121,40.648,204.66,40.763z"/>
						</g>
					</g>
				</g>
				<g>
					<g>
						<g>
							<path style="fill:#FADED3;" d="M163.724,53.724c1.43,1.038,2.883,2.145,4.336,3.298         c26.429,20.871,32.656,40.636,38.676,59.778c6.065,19.28,12.361,39.229,39.067,60.308         c26.706,21.056,47.578,22.532,67.757,23.939c19.995,1.384,40.659,2.837,67.111,23.685         c26.429,20.848,32.656,40.636,38.676,59.755c6.065,19.28,12.338,39.229,39.045,60.308c4.635,3.644,9.086,6.711,13.399,9.271         c0.161-0.346,0.3-0.715,0.438-1.084c-4.22-2.514-8.579-5.512-13.122-9.087c-26.429-20.848-32.656-40.636-38.676-59.754         c-6.065-19.303-12.338-39.252-39.044-60.308c-26.729-21.079-47.578-22.532-67.757-23.939         c-19.995-1.407-40.682-2.837-67.111-23.685c-26.429-20.871-32.656-40.636-38.676-59.778         c-6.066-19.28-12.362-39.229-39.068-60.308c-1.291-1.015-2.56-1.983-3.828-2.906         C164.531,53.378,164.139,53.54,163.724,53.724z"/>
						</g>
					</g>
				</g>
				<g>
					<g>
						<g>
							<path style="fill:#FADED3;" d="M127.562,72.797c4.705,2.721,9.594,6.019,14.691,10.032         c26.452,20.848,32.656,40.636,38.676,59.755c6.088,19.303,12.362,39.252,39.068,60.331         c26.729,21.056,47.578,22.509,67.757,23.916c19.995,1.407,40.682,2.86,67.112,23.708         c26.429,20.848,32.656,40.613,38.676,59.754c6.065,19.28,12.338,39.229,39.068,60.308c8.349,6.596,16.121,11.255,23.5,14.599         c0.208-0.323,0.415-0.669,0.6-0.992c-7.334-3.321-15.083-7.957-23.385-14.529c-26.453-20.848-32.679-40.613-38.676-59.732         c-6.088-19.303-12.361-39.252-39.068-60.308c-26.706-21.079-47.578-22.532-67.757-23.939         c-19.995-1.407-40.682-2.86-67.111-23.708c-26.43-20.848-32.656-40.613-38.676-59.754         c-6.065-19.28-12.338-39.229-39.068-60.308c-4.958-3.92-9.709-7.149-14.299-9.825         C128.3,72.336,127.931,72.566,127.562,72.797z"/>
						</g>
					</g>
				</g>
				<g>
					<g>
						<g>
							<path style="fill:#FADED3;" d="M97.258,96.136c6.066,3.113,12.454,7.172,19.188,12.5         c26.453,20.848,32.679,40.636,38.699,59.754c6.066,19.303,12.338,39.252,39.045,60.308         c26.729,21.079,47.577,22.532,67.757,23.939c19.995,1.407,40.682,2.837,67.111,23.708         c26.43,20.848,32.656,40.613,38.676,59.731c6.065,19.303,12.338,39.252,39.068,60.308         c10.585,8.348,20.249,13.607,29.312,17.02c0.277-0.323,0.553-0.623,0.784-0.946c-9.087-3.367-18.773-8.602-29.382-16.974         c-26.429-20.848-32.656-40.613-38.675-59.754c-6.066-19.28-12.338-39.229-39.068-60.308         c-26.706-21.056-47.577-22.532-67.734-23.939c-20.018-1.384-40.682-2.837-67.135-23.685         c-26.429-20.848-32.656-40.636-38.676-59.754c-6.066-19.303-12.338-39.229-39.068-60.308         c-6.665-5.258-12.984-9.294-19.003-12.431C97.858,95.582,97.558,95.836,97.258,96.136z"/>
						</g>
					</g>
				</g>
				<g>
					<g>
						<g>
							<path style="fill:#FADED3;" d="M72.42,122.45c5.789,3.044,11.854,6.942,18.242,11.993         c26.429,20.848,32.656,40.636,38.676,59.754c6.065,19.28,12.338,39.229,39.068,60.308         c26.706,21.079,47.578,22.532,67.734,23.939c20.018,1.407,40.682,2.837,67.111,23.685         c26.453,20.848,32.656,40.636,38.675,59.754c6.088,19.303,12.362,39.252,39.068,60.308         c10.793,8.533,20.664,13.837,29.889,17.228c0.323-0.277,0.646-0.553,0.969-0.853c-9.294-3.367-19.234-8.671-30.142-17.273         c-26.43-20.848-32.656-40.636-38.676-59.755c-6.065-19.28-12.338-39.229-39.068-60.308         c-26.706-21.079-47.555-22.532-67.734-23.939c-19.995-1.384-40.682-2.837-67.111-23.685         c-26.453-20.848-32.679-40.636-38.699-59.754c-6.065-19.303-12.338-39.252-39.044-60.331         c-6.388-5.028-12.454-8.948-18.242-11.992C72.881,121.827,72.628,122.15,72.42,122.45z"/>
						</g>
					</g>
				</g>
				<g>
					<g>
						<g>
							<path style="fill:#FADED3;" d="M52.379,151.509c4.013,2.445,8.164,5.327,12.477,8.717         c26.429,20.871,32.656,40.636,38.676,59.778c6.065,19.28,12.338,39.229,39.068,60.308         c26.706,21.079,47.577,22.532,67.757,23.939c19.995,1.384,40.659,2.837,67.111,23.685         c26.429,20.848,32.656,40.636,38.675,59.755c6.066,19.28,12.338,39.229,39.045,60.308         c8.625,6.803,16.628,11.554,24.192,14.921c0.415-0.23,0.807-0.484,1.199-0.738c-7.703-3.344-15.89-8.141-24.677-15.083         c-26.429-20.848-32.656-40.636-38.676-59.755c-6.066-19.303-12.338-39.252-39.044-60.308         c-26.729-21.079-47.578-22.532-67.757-23.939c-19.995-1.407-40.682-2.837-67.111-23.685         c-26.429-20.871-32.656-40.636-38.675-59.754c-6.065-19.303-12.361-39.252-39.068-60.331         c-4.359-3.436-8.556-6.342-12.615-8.833C52.748,150.84,52.563,151.163,52.379,151.509z"/>
						</g>
					</g>
				</g>
				<g>
					<g>
						<g>
							<path style="fill:#FADED3;" d="M36.673,184.211c0.784,0.577,1.591,1.199,2.376,1.822         c26.429,20.848,32.656,40.636,38.676,59.754c6.088,19.303,12.361,39.252,39.068,60.331         c26.706,21.056,47.577,22.509,67.757,23.939c19.995,1.384,40.682,2.837,67.111,23.685         c26.429,20.848,32.656,40.613,38.676,59.754c6.065,19.28,12.338,39.229,39.068,60.308c4.059,3.183,7.957,5.927,11.762,8.279         c0.461-0.161,0.899-0.346,1.338-0.507c-3.99-2.422-8.118-5.305-12.407-8.672c-26.429-20.871-32.656-40.636-38.653-59.754         c-6.088-19.303-12.361-39.252-39.068-60.308c-26.706-21.079-47.578-22.532-67.757-23.939         c-19.995-1.407-40.682-2.86-67.111-23.708c-26.429-20.848-32.656-40.613-38.676-59.754         c-6.066-19.28-12.338-39.229-39.068-60.308c-0.899-0.692-1.776-1.384-2.652-2.029         C36.95,183.473,36.812,183.842,36.673,184.211z"/>
						</g>
					</g>
				</g>
				<g>
					<g>
						<g>
							<path style="fill:#FADED3;" d="M25.557,222.886c16.351,16.836,21.425,33.002,26.36,48.708         c6.088,19.303,12.362,39.252,39.068,60.308c26.729,21.079,47.578,22.532,67.757,23.939         c19.995,1.407,40.682,2.837,67.112,23.708c26.429,20.848,32.656,40.613,38.676,59.731         c5.581,17.735,11.324,36.046,32.979,55.211c0.484-0.092,0.969-0.162,1.453-0.254c-21.978-19.211-27.744-37.522-33.325-55.303         c-6.065-19.28-12.361-39.229-39.068-60.308c-26.706-21.056-47.578-22.509-67.734-23.939         c-20.018-1.384-40.682-2.837-67.134-23.685c-26.43-20.848-32.656-40.636-38.676-59.755         c-5.051-16.028-10.216-32.518-27.19-49.722C25.719,221.987,25.626,222.425,25.557,222.886z"/>
						</g>
					</g>
				</g>
				<g>
					<g>
						<g>
							<path style="fill:#FADED3;" d="M254.137,498.274c-0.161,0.023-0.323,0-0.484,0c-0.323,0.023-0.623,0-0.946,0         c-7.08-11.324-10.563-22.347-13.976-33.187c-1.13-3.575-2.26-7.172-3.529-10.793c-5.512-15.752-13.653-31.987-35.147-48.961         c-2.791-2.191-5.512-4.174-8.164-5.95c-2.952-2.007-5.835-3.736-8.672-5.281c-0.161-0.092-0.346-0.185-0.507-0.277         c-11.462-6.181-21.886-8.971-31.826-10.447h-0.023c-0.623-0.092-1.222-0.184-1.845-0.254         c-5.466-0.738-10.793-1.107-16.074-1.476c-20.157-1.407-41.028-2.86-67.734-23.939         c-26.729-21.079-33.002-41.028-39.068-60.308c-1.084-3.482-2.191-6.965-3.436-10.47c0-0.023,0-0.023,0-0.023         c-0.208-0.553-0.392-1.13-0.6-1.684c-0.115-1.338-0.208-2.675-0.277-4.013c0.185,0.461,0.369,0.946,0.53,1.407         c1.868,4.843,3.344,9.663,4.866,14.437c6.019,19.119,12.246,38.906,38.698,59.754c26.43,20.848,47.116,22.301,67.112,23.685         c5.443,0.369,10.954,0.761,16.628,1.545c1.015,0.138,2.03,0.277,3.044,0.461c9.409,1.522,19.257,4.289,30.027,10.032         c0.208,0.092,0.392,0.185,0.6,0.323c2.283,1.222,4.589,2.583,6.965,4.105c3.39,2.168,6.873,4.636,10.47,7.472         c21.194,16.697,29.52,32.702,35.101,48.223c1.453,4.059,2.721,8.095,3.967,12.085         C243.275,475.673,246.804,486.835,254.137,498.274z"/>
						</g>
					</g>
				</g>
				<g>
					<g>
						<g>
							<path style="fill:#FADED3;" d="M215.439,494.976c-0.438-0.069-0.853-0.138-1.292-0.231c-0.023-0.046-0.023-0.069-0.046-0.115         c-0.369-1.245-0.784-2.491-1.153-3.736c-4.405-14.022-8.948-28.39-21.471-43.288c-0.392-0.484-0.807-0.969-1.245-1.453         c-4.313-4.958-9.548-9.94-15.959-15.014c-13.192-10.378-24.907-15.959-35.862-19.096c-0.392-0.115-0.784-0.231-1.176-0.323         c-9.686-2.675-18.727-3.459-27.629-4.105h-0.023c-0.807-0.046-1.614-0.115-2.422-0.161         c-13.814-0.946-27.928-1.96-44.049-9.248c-0.231-0.092-0.438-0.184-0.669-0.3c-0.438-0.623-0.853-1.245-1.268-1.868         c0.208,0.115,0.438,0.208,0.646,0.3c16.674,7.956,31.226,8.971,45.41,9.963c1.245,0.092,2.468,0.184,3.713,0.277h0.023         c8.556,0.623,17.274,1.453,26.591,4.013c0.392,0.092,0.784,0.208,1.199,0.323c11.047,3.182,22.924,8.81,36.231,19.326         c5.858,4.612,10.724,9.179,14.829,13.699c0.461,0.484,0.899,0.992,1.315,1.476c13.607,15.567,18.311,30.535,22.901,45.133         c0.438,1.43,0.899,2.883,1.361,4.313C215.416,494.907,215.416,494.93,215.439,494.976z"/>
						</g>
					</g>
				</g>
			</g>
		</g>
		<g>
			<g>
				<polygon style="fill:#FFB9C2;" points="198.742,362.621 199.088,305.98 216.338,304.689 223.303,304.181 223.395,304.181       298.51,298.554 298.533,298.554 300.285,298.416 301.531,298.324 301.715,299.5 301.969,301.137 304.806,319.587       307.758,338.798 310.917,359.324 297.48,408.242 228.988,416.316     "/>
			</g>
			<g>
				<path style="fill:#331510;" d="M304.806,319.595c-5.397,6.688-11.785,12.431-19.441,16.444      c-7.795,4.105-16.536,6.204-25.3,7.218c-15.798,1.845-32.287,0.138-46.632-6.78c-5.166-2.514-10.032-5.743-14.345-9.571v-20.918      l102.443-7.656L304.806,319.595z"/>
			</g>
			<g>
				<g>
					<g>
						<path style="fill:#FADED3;" d="M195.882,490.641c5.242,1.357,10.532,2.526,15.855,3.518        c35.671,6.648,72.527,4.965,107.529-4.556l40.009-79.217l-48.311-50.832c0,0-0.138-0.161-0.184-0.115        c-1.038,0.853-2.099,1.707-3.137,2.56c-0.3,0.231-0.6,0.484-0.899,0.738c-8.879,7.242-17.758,14.483-26.66,21.702        c-0.3,0.254-0.599,0.507-0.922,0.761c-7.91,6.434-15.821,12.892-23.731,19.326c-3.275-2.421-6.527-4.82-9.802-7.242        c-1.338-0.991-2.675-1.983-4.013-2.975c-13.445-9.917-26.891-19.857-40.313-29.796c0-0.023-0.023-0.023-0.023-0.023        c-0.853-0.623-1.683-1.245-2.537-1.868c-0.161,0.069-0.392,0.161-0.692,0.277l-55.396,54.379L195.882,490.641z"/>
					</g>
					<g>
						<g>
							<g>
								<path style="fill:#331510;" d="M232.452,461.614c-0.193,0-0.375-0.097-0.481-0.26l-49.853-75.762          c-0.175-0.267-0.101-0.624,0.163-0.798c0.269-0.175,0.624-0.101,0.798,0.163l49.25,74.846l22.566-55.486          c0.083-0.207,0.281-0.347,0.504-0.359c0.239,0.018,0.433,0.108,0.538,0.304l28.369,52.881l46.972-74.533          c0.173-0.269,0.525-0.347,0.796-0.179c0.269,0.17,0.35,0.527,0.18,0.796l-47.499,75.371          c-0.108,0.173-0.292,0.301-0.509,0.267c-0.205-0.007-0.391-0.122-0.488-0.304L255.5,405.887l-22.515,55.366          c-0.081,0.2-0.265,0.336-0.479,0.357C232.488,461.612,232.47,461.614,232.452,461.614z"/>
							</g>
							<g>
								<g>
									<circle style="fill:#331510;" cx="256.495" cy="427.571" r="3.827"/>
								</g>
								<g>
									<circle style="fill:#331510;" cx="256.495" cy="439.74" r="3.827"/>
								</g>
								<g>
									<path style="fill:#331510;" d="M260.323,452.695c0,2.114-1.714,3.827-3.827,3.827s-3.827-1.713-3.827-3.827           c0-2.114,1.714-3.827,3.827-3.827S260.323,450.581,260.323,452.695z"/>
								</g>
							</g>
						</g>
						<g>
							<g>
								<path style="fill:#7EA8C5;" d="M194.285,465.724c0.918,8.322,1.505,16.646,1.597,24.917          c-25.339-6.562-49.535-17.511-71.267-32.092c-6.516-4.372-12.812-9.072-18.856-14.076          c-1.446-1.198-17.187-15.731-17.187-15.731c6.768-8.175,14.036-15.845,22.541-22.234          c8.503-6.387,17.763-11.685,27.15-16.647c17.855-9.44,36.3-17.289,54.92-25.047c0.3-0.138,0.623-0.254,0.9-0.369          c1.038-0.415,1.914-0.761,2.652-1.038c-0.692,1.407-1.707,2.814-2.767,4.428c-3.114,4.705-6.066,9.709-8.095,15.037          c-3.941,9.851-2.532,19.219-0.558,29.263C188.743,429.619,192.293,447.668,194.285,465.724z"/>
							</g>
							<g>
								<path style="fill:#7EA8C5;" d="M198.742,362.16v0.461c0,0-0.161,0.23-0.461,0.623c-1.776,2.445-8.372,11.646-12.407,19.626          c-0.784,1.522-1.453,2.975-2.007,4.336c-0.369,0.992-0.669,1.914-0.876,2.768c-0.139,0.623-0.231,1.476-0.254,2.56          c-0.023,0.392-0.023,0.83-0.023,1.292c0.138,9.94,3.967,32.818,7.103,50.114c0.162,0.761,0.277,1.499,0.415,2.214          c1.914,10.309,3.482,18.219,3.736,19.442c0.023,0.115,0.023,0.161,0.023,0.161s-0.646,0.323-1.822,0.876          c-4.612,2.191-17.274,8.118-29.266,12.73c-6.39-2.728-12.632-5.797-18.748-9.091c-1.769-0.953-3.528-1.922-5.282-2.902          c-2.531-1.414-5.019-2.907-7.472-4.451c-0.115-0.069-0.231-0.115-0.323-0.207c-0.922-13.699,0.669-32.08,6.158-50.991          c0.092-0.369,0.208-0.761,0.323-1.13c1.684-5.696,3.736-11.416,6.181-17.066c1.292-2.975,2.652-5.766,4.105-8.349          c0.069-0.139,0.138-0.277,0.208-0.392c0.323-0.577,0.646-1.13,0.969-1.66c0.208-0.369,0.415-0.715,0.646-1.084          c7.426-12.154,16.374-19.88,24.585-24.792c0.553-0.346,1.084-0.646,1.66-0.945c12.454-6.988,22.916-7.541,22.916-7.541          L198.742,362.16z"/>
							</g>
							<g>
								<path style="fill:#FADED3;" d="M151.717,474.774c-0.179,0-0.357-0.085-0.469-0.244c-0.184-0.258-0.124-0.619,0.136-0.803          c2.211-1.576,4.227-3.808,6.003-5.775c0.571-0.63,1.116-1.236,1.638-1.786c10.474-11.019,22.775-6.201,33.433-0.032          l0.43,0.255c0.476,0.278,0.939,0.552,1.404,0.835c0.272,0.168,0.357,0.522,0.191,0.794          c-0.168,0.272-0.522,0.357-0.794,0.191c-0.458-0.283-0.916-0.552-1.385-0.826l-0.428-0.253          c-10.262-5.941-22.092-10.61-32.013-0.168c-0.518,0.543-1.056,1.139-1.62,1.763c-1.818,2.011-3.877,4.291-6.192,5.941          C151.95,474.737,151.835,474.774,151.717,474.774z"/>
							</g>
							<g>
								<path style="fill:#FADED3;" d="M134.237,465.25c-0.23,0-0.449-0.14-0.536-0.368c-5.937-15.193-1.737-32.701,3.072-49.333          c0.345-1.222,0.716-2.446,1.086-3.672l0.347-1.134c2.6-8.601,5.665-17.276,9.103-25.782l0.113-0.283          c0.007-0.037,0.018-0.071,0.032-0.101c0.081-0.186,0.156-0.37,0.232-0.555c0.074-0.184,0.15-0.368,0.228-0.55          c0.131-0.297,0.476-0.423,0.759-0.299c0.292,0.129,0.426,0.469,0.299,0.759c-0.078,0.175-0.147,0.35-0.219,0.525          c-0.071,0.17-0.14,0.343-0.216,0.515c-0.005,0.028-0.014,0.051-0.021,0.074l-0.138,0.345          c-3.426,8.474-6.477,17.119-9.07,25.693l-0.347,1.132c-0.368,1.215-0.734,2.434-1.079,3.652          c-4.756,16.445-8.914,33.739-3.109,48.596c0.117,0.297-0.03,0.63-0.327,0.746          C134.377,465.236,134.306,465.25,134.237,465.25z"/>
							</g>
						</g>
						<g>
							<g>
								<path style="fill:#7EA8C5;" d="M431.095,419.77c-6.78-7.426-13.976-14.252-21.287-20.18          c-11.439-9.271-30.557-18.334-49.353-25.876c-5.258-2.099-10.424-4.059-15.405-5.881c-0.461-0.162-0.923-0.346-1.384-0.508          c-13.353-4.843-25.161-8.602-32.08-10.747c0.534,0.166,0.353,3.289,0.529,3.855c0.586,1.889,2.119,3.707,3.183,5.358          c2.49,3.863,5.118,7.677,6.828,11.971c4.646,11.668,1.663,25.926,0.6,38.095c-2.143,24.542-5.322,49.069-3.46,73.745          C319.266,489.603,386.009,475.235,431.095,419.77z"/>
							</g>
							<g>
								<path style="fill:#7EA8C5;" d="M307.758,338.798c6.158,0.715,18.219,3.759,30.719,12.431          c0.531,0.369,1.084,0.761,1.614,1.153c7.011,5.12,14.091,12.039,20.318,21.333l0.069,0.069          c0.023,0.046,0.046,0.092,0.069,0.161c1.084,1.569,2.099,3.206,3.113,4.936v0.023c0.669,1.153,1.338,2.329,1.983,3.552          c6.527,12.338,11.185,25.184,14.23,37.338v0.023c0.184,0.623,0.323,1.245,0.484,1.845v0.023          c3.506,14.645,4.728,28.113,4.197,38.261c-2.145,1.384-4.313,2.768-6.504,4.082c-3.021,1.845-6.065,3.621-9.179,5.328          c-3.759,2.076-7.587,4.036-11.485,5.881c-14.068-3.874-30.604-10.032-36.277-12.223c-1.291-0.484-2.029-0.761-2.029-0.761          s0,0,0-0.023c0-0.046,0.023-0.115,0.023-0.254c0.369-3.044,3.528-30.189,5.051-52.213v-0.023          c0.069-0.83,0.115-1.638,0.161-2.445v-0.023c0.346-4.936,0.553-9.571,0.622-13.515v-0.023          c0.138-5.581-0.046-9.802-0.692-11.693c-0.715-2.099-1.983-4.566-3.575-7.149c0-0.023-0.023-0.046-0.046-0.069          c-2.237-3.667-5.074-7.587-7.68-10.955l-1.983-3.528l-0.184-0.9L307.758,338.798z"/>
							</g>
							<g>
								<path style="fill:#FADED3;" d="M368.874,469.96c-0.021,0-0.044,0-0.067-0.002c-4.579-0.502-8.684-4.374-11.981-7.485          c-0.676-0.637-1.323-1.249-1.94-1.799c-11.238-10.058-23.208-4.213-33.433,2.837c-0.407,0.297-0.854,0.601-1.275,0.881          c-0.184,0.145-0.38,0.295-0.603,0.442c-0.278,0.182-0.651,0.11-0.84-0.173c-0.184-0.278-0.106-0.656,0.173-0.84          c0.196-0.129,0.368-0.26,0.561-0.412c0.444-0.297,0.877-0.591,1.284-0.888c10.63-7.326,23.076-13.371,34.94-2.75          c0.624,0.557,1.279,1.176,1.963,1.82c3.166,2.987,7.108,6.705,11.284,7.161c0.331,0.037,0.571,0.336,0.536,0.67          C369.442,469.73,369.18,469.96,368.874,469.96z"/>
							</g>
							<g>
								<path style="fill:#FADED3;" d="M378.052,464.631c-0.117,0-0.237-0.035-0.343-0.106c-0.276-0.189-0.345-0.566-0.156-0.842          c0.292-0.428,0.55-0.861,0.764-1.289c0.136-0.219,0.239-0.407,0.322-0.575l0.193-0.43          c5.071-10.527,5.154-23.258,0.274-40.09l-0.179-0.598c-0.138-0.456-0.272-0.909-0.43-1.351          c-0.014-0.037-0.023-0.074-0.028-0.113c-1.549-5.071-3.313-9.846-4.834-13.852c-3.389-9.031-7.214-17.977-11.371-26.588          c-0.736-1.542-1.473-3.058-2.255-4.577c-0.016-0.03-0.039-0.083-0.06-0.145c-0.023-0.028-0.044-0.06-0.06-0.092l-0.55-1.127          c-0.15-0.299-0.03-0.663,0.269-0.812c0.297-0.152,0.66-0.032,0.812,0.269l0.504,1.031c0.039,0.048,0.074,0.104,0.097,0.161          c0.005,0.014,0.012,0.03,0.016,0.044c0.028,0.058,0.055,0.12,0.085,0.205c0.75,1.443,1.491,2.968,2.232,4.521          c4.172,8.64,8.012,17.619,11.413,26.684c1.535,4.038,3.316,8.859,4.88,13.988c0.007,0.023,0.012,0.046,0.016,0.069          c0.154,0.437,0.288,0.886,0.423,1.339l0.18,0.596c4.972,17.147,4.864,30.152-0.331,40.939l-0.196,0.437          c-0.115,0.235-0.242,0.46-0.37,0.663c-0.207,0.421-0.492,0.902-0.817,1.378          C378.434,464.539,378.246,464.631,378.052,464.631z"/>
							</g>
						</g>
					</g>
				</g>
				<g>
					<g>
						<g>
							<g>
								<g>
									<g>
										<g>
											<path style="fill:#FFB9C2;" d="M120.558,189.864c-8.103-1.544-16.901,0.512-23.23,5.824             c-8.653,7.262-11.807,19.997-8.828,30.929c2.979,10.932,11.453,19.897,21.62,24.796c10.167,4.899,21.86,6,33.046,4.598             c2.243-0.281,4.628-0.734,6.239-2.327c1.244-1.23,1.841-2.97,2.242-4.678c1.44-6.132,0.856-12.569-0.32-18.759             C147.89,212.148,140.677,193.699,120.558,189.864z"/>
										</g>
									</g>
									<g>
										<g>
											<path style="fill:#FFB9C2;" d="M362.704,178.834c7.992-2.042,16.9-0.533,23.546,4.378             c9.085,6.714,13.02,19.229,10.722,30.324c-2.298,11.095-10.202,20.566-20.047,26.084             c-9.845,5.518-21.448,7.339-32.699,6.631c-2.256-0.142-4.664-0.447-6.371-1.937c-1.318-1.151-2.021-2.851-2.527-4.531             c-1.816-6.031-1.63-12.492-0.84-18.743C336.801,202.764,342.861,183.904,362.704,178.834z"/>
										</g>
									</g>
								</g>
								<g>
									<g>
										<g>
											<path style="fill:#331510;" d="M345.338,231.449c-0.106,0.003-0.213-0.012-0.319-0.051             c-0.449-0.161-0.683-0.656-0.521-1.106c7.57-21.083,24.594-38.262,45.54-45.956c0.442-0.164,0.945,0.066,1.11,0.514             c0.165,0.448-0.066,0.945-0.514,1.11c-20.469,7.518-37.108,24.31-44.508,44.917             C346.002,231.221,345.683,231.439,345.338,231.449z"/>
										</g>
									</g>
									<g>
										<g>
											<path style="fill:#331510;" d="M143.009,245.1c-0.324,0.01-0.642-0.164-0.799-0.471             c-10.353-20.298-28.424-36.66-49.581-44.891c-0.446-0.173-0.666-0.675-0.493-1.119c0.172-0.448,0.673-0.665,1.119-0.493             c21.548,8.383,39.953,25.047,50.496,45.717c0.217,0.426,0.047,0.947-0.377,1.164             C143.257,245.066,143.132,245.096,143.009,245.1z"/>
										</g>
									</g>
								</g>
							</g>
							<g>
								<g>
									<path style="fill:#FFB9C2;" d="M352.654,179.801c0,0.139-0.023,0.301-0.046,0.463c-2.415,20.025-6.049,40.627-9.384,60.56           c-0.092,0.486-0.161,0.948-0.253,1.434c-0.138,0.809-0.299,1.619-0.46,2.428c-8.671,46.385-30.221,68.815-87.973,71.127           c-18.837,0.763-38.018-0.462-56.119-6.081c-13.156-4.07-26.634-10.012-36.041-20.464           c-10.12-11.192-13.547-26.823-17.158-41.206c-0.207-0.856-0.437-1.711-0.644-2.567           c-4.485-17.481-8.556-38.616-10.879-60.976c-0.023-0.254-0.046-0.509-0.069-0.763c-2.392-23.331-2.898-47.934-0.046-71.034           c2.369-19.285,10.442-33.621,21.16-44.258c0.092-0.093,0.184-0.185,0.276-0.277c31.647-31.101,86.018-30.453,86.018-30.453           c28.796-0.601,53.612,5.48,72.563,16.51c0.23,0.139,0.46,0.278,0.69,0.416c18.538,10.937,31.348,26.707,36.546,45.645           C357.07,122.964,356.172,150.735,352.654,179.801z"/>
								</g>
							</g>
						</g>
						<g>
							<g>
								<g>
									<g>
										<g>
											<path style="fill:#331510;" d="M201.7,186.565c0.106,5.868-4.541,10.711-10.377,10.817             c-5.837,0.106-10.654-4.565-10.76-10.433s4.541-10.711,10.377-10.817C196.777,176.026,201.595,180.696,201.7,186.565z"/>
										</g>
									</g>
									<g>
										<g>
											<path style="fill:#331510;" d="M306.209,184.665c0.106,5.868-4.54,10.711-10.377,10.817             c-5.837,0.106-10.654-4.565-10.759-10.433s4.54-10.711,10.377-10.817C301.286,174.126,306.103,178.797,306.209,184.665z"/>
										</g>
									</g>
								</g>
								<g>
									<g>
										<path style="fill:#FF5E5E;" d="M277.661,145.732c-2.364,3.005-3.542,6.716-1.795,10.535            c1.386,3.031,4.622,4.787,7.833,5.624c6.508,1.698,13.515,2.557,20.23,2.321c5.163-0.182,13.001-1.205,15.196-6.797            c1.035-2.638,0.377-5.668-0.861-8.216c-2.904-5.977-8.732-9.708-15.079-11.07c-6.031-1.294-12.751-0.617-18.353,1.999            C282.278,141.32,279.579,143.294,277.661,145.732z"/>
									</g>
								</g>
								<g>
									<g>
										<path style="fill:#FF5E5E;" d="M206.178,147.662c0.17,0.167,0.335,0.337,0.496,0.508c1.799,1.911,3.088,4.465,2.907,7.09            c-0.347,5.023-5.287,7.647-9.512,9.01c-8.573,2.766-20.315,4.588-29.068,1.461c-2.518-0.9-4.854-2.705-5.735-5.241            c-0.586-1.686-0.486-3.544-0.101-5.287c2.791-12.646,18.971-17.274,30.06-13.902            C199.104,142.48,203.238,144.763,206.178,147.662z"/>
									</g>
								</g>
							</g>
						</g>
					</g>
					<g>
						<g>
							<path style="fill:#FF5E5E;" d="M146.574,196.111c1.88-4.888,1.807-10.356,0.689-15.472         c-1.115-5.105-3.24-10.335-1.882-15.381c1.757-6.525,8.664-10.294,11.777-16.291c2.262-4.359,2.272-9.814,0.025-14.18         c-1.698-3.3-4.655-6.225-4.702-9.937c-0.052-4.056,3.397-7.252,4.634-11.115c1.939-6.054-2.235-12.847-8.028-15.465         c-5.793-2.618-12.601-1.837-18.613,0.23c-7.753,2.666-14.931,7.553-19.26,14.515c-4.329,6.962-5.464,16.107-1.907,23.494         c1.349,2.801,3.371,5.509,3.269,8.617c-0.098,2.983-2.13,5.486-3.694,8.028c-2.681,4.359-4.175,9.641-3.153,14.656         c1.023,5.014,4.912,9.58,9.946,10.5c1.592,0.291,3.37,0.278,4.599,1.332c1.991,1.708,1.248,4.866,0.651,7.42         c-0.598,2.554-0.27,6.104,2.296,6.645c0.774,0.163,1.572-0.021,2.358-0.113c7.236-0.848,8.035,4.971,11.367,9.223         C140.56,207.426,145.018,200.158,146.574,196.111z"/>
						</g>
						<g>
							<path style="fill:#FF5E5E;" d="M333.677,95.088c-5.34,4.796-8.175,13.056-5.488,19.865c1.159,2.938,3.289,5.746,2.868,8.894         c-0.477,3.572-4.02,5.798-5.33,9.134c-0.802,2.043-0.702,4.334-0.59,6.539c0.118,2.307,0.25,4.677,1.169,6.776         c2.9,6.625,12.444,8.315,14.336,15.329c1.26,4.673-1.558,9.347-2.741,14.042c-1.279,5.071-0.574,10.659,1.919,15.209         c1.151,2.099,2.763,4.053,4.931,4.893c2.168,0.839,4.946,0.253,6.168-1.802c1.17-1.968,0.648-4.543,1.263-6.77         c1.497-5.418,8.257-6.299,13.152-8.648c8.424-4.043,12.6-15.722,8.785-24.567c-2.003-4.644-5.926-8.983-5.077-14.002         c0.782-4.62,5.226-7.325,8.29-10.747c4.669-5.214,6.3-13.425,3.355-19.873c-1.176-2.575-2.975-4.771-4.754-6.935         C364.986,89.109,348.146,82.094,333.677,95.088z"/>
						</g>
						<g>
							<path style="fill:#FF5E5E;" d="M131.395,75.27c5.19-8.144,14.539-13.476,24.191-13.796c3.718-0.123,7.701,0.392,10.934-1.449         c4.221-2.404,5.466-7.75,7.252-12.267c3.707-9.377,11.49-17.059,20.915-20.644c9.424-3.585,20.345-3.017,29.347,1.526         c5.964,3.01,11.997,7.83,18.505,6.327c2.317-0.535,4.372-1.847,6.321-3.209c8.24-5.759,15.963-13.035,25.785-15.176         c11.501-2.506,23.753,2.947,31.555,11.761c4.444,5.02,8.204,11.428,14.632,13.333c3.613,1.071,7.497,0.492,11.236,0.963         c4.808,0.605,9.821,3.629,10.647,8.404c0.577,3.338-0.984,6.616-1.937,9.867c-0.953,3.251-1.071,7.316,1.57,9.436         c1.381,1.109,3.216,1.417,4.881,2.018c8.429,3.044,11.586,15.407,5.648,22.119c-1.597,1.805-3.741,3.204-6.125,3.552         c-4.311,0.628-8.366-2.172-12.696-2.654c-11.604-1.292-20.89,13.823-32.257,11.154c-10.85-2.548-13.643-19.318-24.598-21.369         c-12.603-2.359-21.346,17.07-33.997,14.984c-7.854-1.294-12.106-10.345-19.528-13.221         c-5.092-1.974-11.387-0.443-14.869,3.763c-3.482,4.207-3.762,10.808-0.507,15.193c3.255,4.385,9.801,6.003,14.648,3.487         c-6.643,7.602-20.482,6.85-26.262-1.426c-1.605-2.298-2.613-4.971-4.236-7.256c-1.623-2.285-4.162-4.241-6.956-4.021         c-3.609,0.284-5.88,3.831-8.258,6.561c-5.729,6.576-14.817,9.694-23.528,9.248c-7.433-0.381-20.62-3.825-24.993-10.472         C123.981,94.812,127.204,81.848,131.395,75.27z"/>
						</g>
					</g>
					<g>
						<path style="fill:#331510;" d="M242.815,249.529c-3.362,0-6.721-0.469-9.961-1.443c-4.142-1.243-7.096-3.04-9.029-5.495        c-0.297-0.377-0.232-0.92,0.143-1.215c0.375-0.297,0.92-0.232,1.215,0.143c1.707,2.168,4.379,3.774,8.168,4.91        c12.184,3.652,26.171-0.159,34.811-9.489c0.324-0.352,0.87-0.375,1.222-0.048c0.352,0.324,0.373,0.872,0.048,1.222        C262.652,245.438,252.732,249.529,242.815,249.529z"/>
					</g>
					<g>
						<path style="fill:#331510;" d="M245.931,237.343c-1.698,0-3.295-0.775-4.85-1.53c-1.779-0.865-3.456-1.675-5.044-1.197        c-0.357,0.11-0.739,0.267-1.125,0.423c-1.493,0.601-3.546,1.434-4.616-0.361c-0.377-0.628-0.375-1.33-0.373-1.843l0.35-51.696        c0.005-0.474,0.391-0.858,0.865-0.858c0.002,0,0.005,0,0.007,0c0.476,0.005,0.861,0.393,0.858,0.872l-0.35,51.694        c-0.002,0.322-0.005,0.729,0.124,0.941c0.272,0.449,0.98,0.255,2.485-0.352c0.435-0.177,0.865-0.35,1.266-0.472        c2.232-0.693,4.305,0.32,6.307,1.291c1.74,0.844,3.376,1.641,4.952,1.256c0.932-0.23,1.758-0.867,2.63-1.544        c1.008-0.78,2.052-1.588,3.396-1.878c1.344-0.297,2.646,0.009,3.905,0.304c1.215,0.283,2.363,0.555,3.376,0.216        c1.16-0.389,2.078-1.645,2.336-3.201c0.253-1.537-0.069-3.166-0.384-4.742c-0.092-0.467,0.212-0.923,0.681-1.017        c0.465-0.097,0.923,0.214,1.017,0.681c0.327,1.645,0.697,3.514,0.393,5.361c-0.361,2.179-1.733,3.967-3.493,4.558        c-1.475,0.495-2.92,0.156-4.319-0.173c-1.123-0.26-2.186-0.511-3.145-0.299c-0.962,0.209-1.809,0.863-2.704,1.558        c-0.976,0.755-1.986,1.537-3.274,1.855C246.771,237.297,246.347,237.343,245.931,237.343z"/>
					</g>
				</g>
			</g>
		</g>
	</g>
</g>















</svg>
