<?xml version="1.0" encoding="iso-8859-1"?>
<!-- Generator: Adobe Illustrator 25.0.0, SVG Export Plug-In . SVG Version: 6.00 Build 0)  -->
<svg version="1.1" id="Object" xmlns="http://www.w3.org/2000/svg" xmlns:xlink="http://www.w3.org/1999/xlink" x="0px" y="0px"
	 width="500px" height="500px" viewBox="0 0 500 500" enable-background="new 0 0 500 500" xml:space="preserve">
<g>
	<defs>
		<circle id="SVGID_9_" cx="250" cy="250" r="186.175"/>
	</defs>
	<clipPath id="SVGID_2_">
		<use xlink:href="#SVGID_9_"  overflow="visible"/>
	</clipPath>
	<circle clip-path="url(#SVGID_2_)" fill="#EAE8D6" cx="250" cy="262.1" r="187.36"/>
	<g clip-path="url(#SVGID_2_)">
		<g>
			<path fill="#E2C8C5" d="M317.038,194.881c0,0,15.27-61.798-35.046-73.874s-87.298,2.767-107.425,35.473
				s-11.573,79.248,10.566,93.839c22.139,14.592,30.19,22.485,30.19,22.485L317.038,194.881z"/>
			<path fill="#C67F7D" d="M316.207,183.148c0,0,5.598,68.807-0.252,84.279c-5.849,15.472-37.926,16.227-37.926,16.227l1.698,34.341
				h-70.379c0,0,3.962-33.397,2.453-45.473c-1.509-12.076-2.453-18.302-2.453-18.302s-22.453-1.132-26.416-11.51
				c-3.962-10.378,0-21.51,7.925-25.095c7.925-3.585,16.038-2.83,17.736,1.698c1.698,4.528,0.943,10.378,3.585,11.132
				c2.642,0.755,5.283,2.453,5.849-0.189s-0.377-32.642-0.377-32.642S232.305,176.418,316.207,183.148z"/>
			<path fill="#9B4B4B" d="M278.03,283.654c0,0-25.661,1.698-32.265-1.132c-6.604-2.83-19.812-11.887-19.812-11.887
				s15.5,38.651,53.317,38.1L278.03,283.654z"/>
			<g>
				<path fill="#7F3434" d="M191.371,225.082c2.116-0.957,4.782-1.893,7.017-0.769c1.991,1.001,3.303,3.192,3.941,5.256
					c1.377,4.458-0.135,9.178-3.174,12.581c-0.912,1.022,0.592,2.536,1.509,1.509c3.727-4.173,5.513-10.109,3.434-15.488
					c-0.951-2.461-2.654-4.881-5.154-5.937c-2.869-1.211-5.966-0.208-8.649,1.005C189.044,223.805,190.128,225.644,191.371,225.082
					L191.371,225.082z"/>
				<path fill="#7F3434" d="M194.638,236.839c-0.689-0.685-0.777-1.674-0.513-2.575c0.312-1.066,1.181-1.821,2.135-2.324
					c1.852-0.978,5.338-1.667,6.481,0.664c0.254,0.517,0.988,0.659,1.46,0.383c0.528-0.309,0.638-0.941,0.383-1.46
					c-1.719-3.502-6.682-2.947-9.537-1.356c-1.435,0.8-2.642,2.101-3.034,3.728c-0.379,1.573-0.053,3.286,1.117,4.449
					C194.104,239.318,195.613,237.809,194.638,236.839L194.638,236.839z"/>
			</g>
			<g>
				<g>
					<path fill="#E2C8C5" d="M300.025,260.908c0.841,2.541,1.741,5.062,2.7,7.561c0.206,0.538,0.718,0.909,1.313,0.745
						c0.514-0.141,0.953-0.772,0.745-1.313c-0.959-2.499-1.859-5.02-2.7-7.561c-0.181-0.547-0.737-0.904-1.313-0.745
						C300.235,259.743,299.843,260.359,300.025,260.908L300.025,260.908z"/>
					<path fill="#E2C8C5" d="M293.683,264.125c-0.039,2.893-0.017,5.787,0.066,8.68c0.04,1.37,2.174,1.376,2.134,0
						c-0.084-2.892-0.106-5.786-0.066-8.68C295.836,262.751,293.702,262.751,293.683,264.125L293.683,264.125z"/>
					<path fill="#E2C8C5" d="M284.336,264.692c-0.197,3.782-0.714,7.529-1.554,11.222c-0.304,1.337,1.753,1.908,2.058,0.567
						c0.881-3.874,1.424-7.822,1.63-11.79C286.542,263.319,284.407,263.323,284.336,264.692L284.336,264.692z"/>
					<path fill="#E2C8C5" d="M276.765,267.241c-0.476,2.102-1.067,4.176-1.773,6.212c-0.183,0.528,0.209,1.19,0.745,1.313
						c0.595,0.135,1.116-0.18,1.313-0.745c0.706-2.036,1.297-4.11,1.773-6.212c0.123-0.543-0.166-1.181-0.745-1.313
						C277.536,266.372,276.897,266.659,276.765,267.241L276.765,267.241z"/>
				</g>
			</g>
			<ellipse fill="#1E1E47" cx="258.23" cy="212.203" rx="4.746" ry="6.919"/>
			<ellipse fill="#1E1E47" cx="297.367" cy="211.687" rx="4.372" ry="6.403"/>
			<path fill="#E2C8C5" d="M249.196,198.995c0,0,1.887-3.031,6.061-3.945c4.174-0.915,6.175-0.4,6.633,0.572
				c0.457,0.972,0.343,2.859-1.144,3.088c-1.487,0.229-4.174-0.515-6.461,0.286S248.281,201.854,249.196,198.995z"/>
			<path fill="#E2C8C5" d="M292.538,196.021c0,0-0.915,1.658,0.457,2.516s2.23-0.515,5.432,1.201
				c3.202,1.715,5.146,1.144,4.403-0.858S293.11,192.934,292.538,196.021z"/>
			<g>
				<path fill="#7F3434" d="M277.207,211.802c-0.685,1.973-1.207,4.196-0.322,6.193c0.869,1.962,2.907,3.005,4.64,4.086
					c2.093,1.306,4.185,2.611,6.278,3.917c0.391,0.244,1.033,0.457,1.015,0.957c-0.019,0.5-0.495,1.156-0.721,1.593
					c-0.559,1.079-1.193,2.113-1.882,3.113c-0.781,1.134,1.068,2.202,1.843,1.077c0.689-1,1.323-2.034,1.882-3.113
					c0.479-0.925,1.125-1.99,1.033-3.07c-0.093-1.095-0.939-1.677-1.793-2.212c-1.095-0.686-2.192-1.368-3.288-2.052
					c-1.096-0.684-2.192-1.368-3.288-2.052c-0.944-0.589-1.973-1.132-2.809-1.873c-1.837-1.627-1.239-3.948-0.528-5.997
					C279.716,211.069,277.655,210.51,277.207,211.802L277.207,211.802z"/>
				<path fill="#7F3434" d="M264.339,244.907c-0.847,3.031,2.075,5.478,4.259,7.039c2.533,1.81,5.449,2.479,8.51,2.699
					c6.243,0.449,12.614-0.304,18.351-2.895c1.25-0.564,0.166-2.404-1.077-1.843c-4.9,2.213-10.345,2.888-15.68,2.689
					c-2.646-0.099-5.374-0.339-7.726-1.66c-1.091-0.613-2.083-1.386-2.994-2.24c-0.864-0.81-1.942-1.94-1.584-3.221
					C266.767,244.15,264.709,243.585,264.339,244.907L264.339,244.907z"/>
			</g>
		</g>
		<g>
			<path fill="#AEC655" d="M183.974,328.96c0,0-17.836-5.246-12.38-23.082s20.354-18.465,38.4-11.751s45.954,21.193,45.954,21.193
				s28.537-34.413,49.101-30.846c20.564,3.567,16.996,26.859,14.478,31.265c-2.518,4.406-2.518,4.406-2.518,4.406
				s49.101,22.802,58.054,48.262c8.953,25.46,11.751,71.623,11.751,71.623H113.19c0,0-0.56-54.836,16.227-75.26
				C146.204,344.348,183.974,328.96,183.974,328.96z"/>
			<g>
				<path fill="#699124" d="M182.347,330.837c19.876,4.074,40.149,6.198,60.439,6.295c5.77,0.028,11.539-0.112,17.301-0.409
					c1.366-0.07,1.375-2.205,0-2.134c-20.185,1.04-40.477,0.105-60.472-2.859c-5.593-0.829-11.162-1.816-16.701-2.951
					C181.573,328.505,181,330.561,182.347,330.837L182.347,330.837z"/>
				<path fill="#699124" d="M251.512,315.971c3.731,10.27,12.178,18.338,22.693,21.405c10.529,3.072,21.618,0.691,30.6-5.382
					c4.888-3.305,9.084-7.506,12.566-12.258c0.813-1.109-1.038-2.175-1.843-1.077c-5.71,7.791-13.774,14.258-23.197,16.823
					c-10.133,2.759-21.357,0.348-29.347-6.515c-4.229-3.633-7.508-8.32-9.414-13.564
					C253.105,314.123,251.041,314.676,251.512,315.971L251.512,315.971z"/>
				<path fill="#699124" d="M220.734,335.927c-4.911,5.515-6.212,13.18-7.669,20.173c-1.723,8.273-3.128,16.611-4.325,24.976
					c-0.676,4.725-1.281,9.459-1.818,14.201c-0.154,1.362,1.981,1.351,2.134,0c0.922-8.147,2.049-16.271,3.403-24.358
					c1.294-7.731,2.616-15.57,4.706-23.132c1.031-3.732,2.471-7.423,5.078-10.351C223.153,336.413,221.649,334.899,220.734,335.927
					L220.734,335.927z"/>
				<path fill="#699124" d="M284.585,339.546c2.26,14.473,3.595,29.088,3.999,43.731c0.114,4.136,0.152,8.274,0.12,12.411
					c-0.011,1.374,2.123,1.375,2.134,0c0.116-14.802-0.705-29.608-2.477-44.304c-0.5-4.145-1.074-8.28-1.718-12.405
					C286.431,337.625,284.374,338.2,284.585,339.546L284.585,339.546z"/>
			</g>
			<circle fill="#FFFFFF" cx="208.524" cy="402.611" r="9.023"/>
			<circle fill="#FFFFFF" cx="291.855" cy="400.347" r="9.023"/>
			<g>
				<path fill="#699124" d="M161.924,367.173c9.059,2.926,14.052,11.762,15.979,20.567c1.119,5.112,1.48,10.384,1.709,15.601
					c0.246,5.607,0.23,11.221,0.177,16.831c-0.059,6.317-0.159,12.634,0.004,18.95c0.036,1.371,2.17,1.376,2.134,0
					c-0.303-11.692,0.316-23.391-0.152-35.081c-0.408-10.194-1.166-21.507-7.407-30.032c-2.992-4.087-7.024-7.327-11.877-8.895
					C161.181,364.692,160.62,366.752,161.924,367.173L161.924,367.173z"/>
				<path fill="#699124" d="M344.525,378.036c1.965,15.495,3.593,31.033,4.876,46.6c0.363,4.406,0.698,8.814,1.007,13.223
					c0.095,1.362,2.23,1.373,2.134,0c-1.092-15.581-2.521-31.138-4.295-46.657c-0.502-4.392-1.032-8.781-1.588-13.166
					C346.489,376.692,344.353,376.675,344.525,378.036L344.525,378.036z"/>
			</g>
		</g>
	</g>
</g>
</svg>
