<?xml version="1.0" encoding="iso-8859-1"?>
<!-- Generator: Adobe Illustrator 25.0.0, SVG Export Plug-In . SVG Version: 6.00 Build 0)  -->
<svg version="1.1" id="Object" xmlns="http://www.w3.org/2000/svg" xmlns:xlink="http://www.w3.org/1999/xlink" x="0px" y="0px"
	 width="500px" height="500px" viewBox="0 0 500 500" enable-background="new 0 0 500 500" xml:space="preserve">
<g>
	<defs>
		<circle id="SVGID_5_" cx="257.767" cy="250" r="186.175"/>
	</defs>
	<clipPath id="SVGID_2_">
		<use xlink:href="#SVGID_5_"  overflow="visible"/>
	</clipPath>
	<circle clip-path="url(#SVGID_2_)" fill="#CCDCFF" cx="257.767" cy="262.1" r="187.36"/>
	<g clip-path="url(#SVGID_2_)">
		<g>
			<path fill="#72729B" d="M164.014,207.693c0,0-2.947,21.738,12.343,44.765s27.64,19.466,42.834,34.234
				c15.194,14.768,63.214-85.631,33.493-104.298S164.014,207.693,164.014,207.693z"/>
			<path fill="#FFC9C0" d="M313.783,174.534c0,0,19.896,70.371,6.263,93.398s-31.87,22.475-31.87,22.475l4.421,32.975h-69.45
				c0,0,0.921-19.159-3.132-33.896c-4.053-14.737-10.5-21.553-10.5-21.553s-16.948,1.474-21.001-6.632
				c-4.053-8.106-5.782-21.388,3.255-27.326c4.298-2.825,16.273-4.544,19.404,0.798c3.132,5.342,2.763,14.553,6.079,14.185
				s7.369-2.026,7.369-3.132c0-1.105-5.342-32.607-5.342-32.607s-4.79-14.922,32.791-25.79
				C289.651,176.561,313.783,174.534,313.783,174.534z"/>
			<g>
				<path fill="#E27169" d="M193.21,242.757c1.811-1.819,4.459-2.13,6.897-1.727c2.289,0.378,4.571,1.201,6.014,3.112
					c2.864,3.793,2.64,9.567,1.505,13.918c-0.347,1.33,1.711,1.897,2.058,0.567c1.363-5.223,1.424-12.105-2.381-16.393
					c-1.909-2.15-4.809-3.074-7.587-3.4c-2.896-0.34-5.905,0.296-8.013,2.414C190.731,242.222,192.239,243.732,193.21,242.757
					L193.21,242.757z"/>
				<path fill="#E27169" d="M199.904,253.505c-0.261-2.208,0.775-4.272,2.789-5.264c0.425-0.209,0.917-0.369,1.389-0.411
					c0.553-0.049,1.01,0.136,1.476,0.419c0.826,0.502,1.904,1.209,2.288,2.14c0.22,0.532,0.708,0.911,1.313,0.745
					c0.503-0.138,0.966-0.777,0.745-1.313c-0.616-1.494-1.846-2.532-3.196-3.371c-1.465-0.911-3.045-0.923-4.613-0.267
					c-2.868,1.2-4.692,4.211-4.325,7.32c0.068,0.572,0.442,1.067,1.067,1.067C199.361,254.572,199.972,254.081,199.904,253.505
					L199.904,253.505z"/>
			</g>
			<path fill="#E27169" d="M231.438,268.854c0,0,17.869,30.58,56.739,21.553l3.902,29.102
				C292.079,319.509,249.491,306.987,231.438,268.854z"/>
			<g>
				<g>
					
						<ellipse transform="matrix(0.9892 -0.1466 0.1466 0.9892 -27.8944 47.7825)" fill="#35356D" cx="310.257" cy="213.154" rx="3.992" ry="6.53"/>
					
						<ellipse transform="matrix(0.9892 -0.1466 0.1466 0.9892 -29.2888 41.4557)" fill="#35356D" cx="266.632" cy="219.452" rx="4.842" ry="6.695"/>
					<g>
						<path fill="#BC4A55" d="M277.634,253.054c0.253,3.243,1.563,6.192,3.595,8.497c2.664,3.043,6.579,4.967,10.94,4.982
							c4.259,0.015,8.098-1.793,10.782-4.688c2.154-2.319,3.564-5.343,3.851-8.69c0.058-0.652-0.468-1.21-1.12-1.212l-26.92-0.093
							c-0.129,0-0.253,0.022-0.371,0.066C277.924,252.071,277.591,252.531,277.634,253.054z"/>
						<path fill="#FFFFFF" d="M278.391,251.915c3.218,2.236,8.056,3.669,13.478,3.688c5.473,0.019,10.366-1.408,13.594-3.662
							l-26.701-0.092C278.633,251.849,278.509,251.871,278.391,251.915z"/>
						<path fill="#E27169" d="M281.229,261.551c2.664,3.043,6.579,4.967,10.94,4.982c4.259,0.015,8.098-1.793,10.782-4.688
							c-3.024-1.438-6.887-2.305-11.095-2.32C287.867,259.511,284.184,260.263,281.229,261.551z"/>
					</g>
					<path fill="#E27169" d="M292.306,215.357c-0.299,2.448-0.131,4.975,0.871,7.254c0.953,2.168,2.692,3.692,4.601,5.014
						c0.917,0.635,1.864,1.228,2.765,1.887c0.787,0.575,2.033,1.427,2.391,2.375c0.422,1.119-1.082,2.423-1.8,3.121
						c-0.918,0.893-1.946,1.622-3.069,2.235c-1.206,0.658-0.13,2.502,1.077,1.843c2.189-1.195,4.786-3.156,5.753-5.546
						c1.053-2.604-1.518-4.602-3.382-5.95c-1.907-1.379-4.144-2.502-5.576-4.43c-1.654-2.228-1.821-5.146-1.496-7.804
						C294.606,213.997,292.47,214.009,292.306,215.357L292.306,215.357z"/>
				</g>
				<g>
					<path fill="#FFFFFF" d="M315.402,236.633c-7.461,0-14.398-7.514-15.898-17.63l0,0c-1.607-10.848,3.638-20.645,11.693-21.838
						c3.966-0.588,7.983,0.954,11.309,4.34c3.238,3.297,5.445,7.974,6.215,13.168c1.608,10.848-3.638,20.645-11.693,21.839
						C316.484,236.594,315.942,236.633,315.402,236.633z M312.843,199.178c-0.445,0-0.89,0.033-1.333,0.098
						c-6.891,1.022-11.33,9.731-9.894,19.415l0,0c1.435,9.685,8.208,16.731,15.1,15.712c6.891-1.022,11.33-9.731,9.894-19.416
						c-0.704-4.752-2.702-9.008-5.626-11.985C318.531,200.505,315.684,199.178,312.843,199.178z"/>
					<path fill="#FFFFFF" d="M271.149,246.938c-4.472,0-8.857-1.737-12.567-5.023c-4.36-3.862-7.269-9.414-8.191-15.633l0,0
						c-0.921-6.218,0.253-12.375,3.305-17.336c3.089-5.02,7.728-8.22,13.061-9.01c10.933-1.626,21.391,7.561,23.303,20.468
						c0.922,6.218-0.252,12.375-3.305,17.336c-3.089,5.02-7.728,8.22-13.061,9.01C272.846,246.876,271.995,246.938,271.149,246.938z
						 M252.503,225.969c0.848,5.722,3.51,10.818,7.494,14.347c3.932,3.483,8.683,5.018,13.385,4.322
						c4.699-0.697,8.803-3.544,11.556-8.018c2.79-4.534,3.859-10.182,3.011-15.905c-1.74-11.743-11.107-20.113-20.879-18.67
						c-4.699,0.697-8.803,3.544-11.556,8.018C252.724,214.599,251.655,220.246,252.503,225.969L252.503,225.969z"/>
					<path fill="#FFFFFF" d="M205.752,230.472c-0.436,0-0.845-0.269-1.003-0.702c-0.201-0.554,0.084-1.166,0.638-1.368l47.47-17.261
						c0.554-0.201,1.166,0.084,1.367,0.638c0.201,0.554-0.084,1.166-0.638,1.368l-47.47,17.261
						C205.996,230.452,205.873,230.472,205.752,230.472z"/>
					<path fill="#FFFFFF" d="M286.937,214.567c-0.278,0-0.555-0.108-0.764-0.322c-0.411-0.422-0.403-1.098,0.019-1.509
						c7.007-6.832,14.986-1.974,15.066-1.922c0.499,0.312,0.651,0.97,0.339,1.47c-0.312,0.499-0.969,0.651-1.469,0.34
						c-0.28-0.173-6.663-4-12.446,1.64C287.475,214.467,287.206,214.567,286.937,214.567z"/>
				</g>
			</g>
			<path fill="#35356D" d="M167.863,229.916c-2.864,6.524-8.993-4.92-10.562-12.158c-1.343-6.199-3.068-10.004-4.34-21.301
				c-3.132-27.817,25.606-33.896,25.606-33.896s15.29-52.318,56.923-50.66s59.318,12.711,71.108,0.184
				c11.79-12.527,18.79-5.895,22.29,1.842c3.5,7.737,16.764,45.686-14.737,66.503s-93.03,5.158-114.031,14.185
				C188.351,199.673,171.307,222.071,167.863,229.916z"/>
		</g>
		<g>
			<path fill="#BBD8FC" d="M332.728,445.053H221.603l-12.305-83.724l-6.284-42.734l15.923-4.127c0,0-2.139-14.732,3.625-18.15
				c5.77-3.418,26.478,2.132,45.048,2.132c18.576,0,21.674-2.559,24.609,2.565c2.935,5.124,3.362,18.495,3.362,18.495l7.005,5.049
				l19.943,79.723L332.728,445.053z"/>
			<path fill="#91BDED" d="M332.728,445.053H221.603l-12.305-83.724c17.573,14.462,56.65,40.388,113.232,42.953L332.728,445.053z"/>
			<path fill="#3888FC" d="M302.015,325.611c3.38,21.166,11.119,74.602,9.662,111.297c-0.123,3.126-0.544,5.999-1.219,8.653h82.479
				c0,0-16.589-82.45-27.041-94.955c-7.877-9.422-39.836-19.432-55.104-23.798c-4.998-1.422-8.204-2.249-8.204-2.249
				S302.407,324.944,302.015,325.611z"/>
			<path fill="#3888FC" d="M113.534,444.546c0.326,0.334,0.667,0.667,1.023,1.016h123.316c-5.795-36.05-17.575-96.391-34.86-126.964
				c-1.385,0.544-3.387,1.349-5.861,2.365c-18.213,7.471-61.915,26.519-70.989,40.612
				C116.53,376.537,114.078,428.037,113.534,444.546z"/>
			<g>
				<path fill="#2962D3" d="M349.329,376.482c2.728,17.591,5.362,35.196,7.899,52.816c0.717,4.976,1.425,9.953,2.127,14.931
					c0.191,1.354,2.247,0.778,2.058-0.567c-2.484-17.628-5.062-35.242-7.737-52.842c-0.755-4.97-1.518-9.938-2.289-14.905
					C351.177,374.562,349.12,375.136,349.329,376.482L349.329,376.482z"/>
				<path fill="#2962D3" d="M172.501,368.496c8.637,4.438,10.268,16.044,10.93,24.686c0.852,11.129,0.578,22.303,0.248,33.446
					c-0.182,6.142-0.279,12.283-0.111,18.427c0.037,1.371,2.172,1.376,2.134,0c-0.301-10.995,0.392-21.968,0.439-32.96
					c0.026-6.069-0.097-12.167-0.524-18.222c-0.37-5.239-0.994-10.572-2.805-15.534c-1.737-4.758-4.607-9.31-9.233-11.687
					C172.359,366.027,171.278,367.868,172.501,368.496L172.501,368.496z"/>
			</g>
			<g>
				<path fill="#7CA3E0" d="M218.035,314.774c6.455,8.493,16.63,12.664,26.888,14.387c11.263,1.892,23.066,1.746,33.976-1.888
					c5.708-1.901,11.111-4.665,15.987-8.187c1.103-0.797,0.039-2.649-1.077-1.843c-8.594,6.206-18.728,9.917-29.294,10.762
					c-5.578,0.446-11.216,0.206-16.757-0.556c-5.267-0.725-10.553-1.941-15.406-4.158c-4.808-2.197-9.256-5.36-12.475-9.595
					C219.058,312.617,217.204,313.679,218.035,314.774L218.035,314.774z"/>
				<path fill="#7CA3E0" d="M292.859,321.674c-0.881,2.954-2.752,5.422-4.9,7.583c-2.189,2.201-4.622,4.184-7.137,5.999
					c-5.224,3.77-10.968,6.798-17.036,8.962c-1.284,0.458-0.731,2.521,0.567,2.058c4.99-1.78,9.784-4.095,14.253-6.943
					c4.363-2.781,8.707-6.033,12.14-9.93c1.85-2.101,3.365-4.463,4.17-7.161C295.31,320.923,293.251,320.359,292.859,321.674
					L292.859,321.674z"/>
			</g>
		</g>
	</g>
</g>
</svg>
