<?xml version="1.0" encoding="UTF-8"?>
<!-- Generator: Adobe Illustrator 25.2.3, SVG Export Plug-In . SVG Version: 6.00 Build 0)  -->
<svg xmlns="http://www.w3.org/2000/svg" xmlns:xlink="http://www.w3.org/1999/xlink" version="1.1" id="Capa_1" x="0px" y="0px" viewBox="0 0 510.72 510.72" style="enable-background:new 0 0 510.72 510.72;" xml:space="preserve" width="512" height="512">
<g>
	<g>
		<path style="fill:#FFFFFF;" d="M254.716,508.473c-21.959,0.095-44.065-2.623-65.748-8.367    c-47.563-12.6-91.792-38.511-124.785-75.172c-76.646-85.168-85.988-216.673-20.78-310.723    C92.286,43.708,175.263,0.809,261.102,2.281c12.555,0.215,25.094,1.376,37.467,3.519    c103.824,17.988,190.284,103.765,208.529,207.638c9.944,56.614-0.844,116.521-29.154,166.478    C432.359,460.357,344.782,508.082,254.716,508.473z"/>
	</g>
	<g>
		<g>
			<g>
				<path style="fill:#FF8476;" d="M415.777,433.334c0.167-0.167,0.357-0.31,0.524-0.477c21.407-19.214,39.358-42.195,52.755-67.917      c12.301-23.577,20.811-49.394,24.721-76.761c0.095-0.62,0.167-1.216,0.262-1.836c0.882-6.341,1.478-12.801,1.788-19.333      c0.048-0.405,0.072-0.834,0.072-1.263c0.047-0.524,0.071-1.049,0.095-1.573c0.024-0.405,0.048-0.858,0.048-1.263      c0.143-3.004,0.191-6.031,0.191-9.059c0-34.542-7.271-67.369-20.382-97.048c-0.143-0.358-0.31-0.715-0.5-1.073      c-0.096-0.262-0.215-0.524-0.334-0.763c-0.238-0.548-0.453-1.049-0.739-1.573c-12.801-27.868-30.776-52.875-52.731-73.734      c-0.286-0.286-0.549-0.548-0.835-0.811c-1.549-1.454-3.099-2.908-4.696-4.315c-0.31-0.286-0.62-0.572-0.954-0.834      c-21.336-18.928-46.08-34.09-73.209-44.459c-0.382-0.167-0.787-0.31-1.216-0.477c-1.383-0.524-2.765-1.025-4.148-1.526      c-0.334-0.143-0.715-0.262-1.073-0.381c-24.959-8.773-51.778-13.54-79.717-13.54c-7.056,0-14.041,0.31-20.931,0.93      c-0.643,0.024-1.263,0.095-1.907,0.167c-7.676,0.715-15.281,1.788-22.742,3.242c-0.524,0.072-1.025,0.191-1.573,0.31      c-50.61,10.012-95.475,35.949-129.183,72.375c-0.834,0.882-1.669,1.788-2.479,2.694c-1.478,1.621-2.932,3.29-4.363,4.982      c-0.31,0.31-0.596,0.667-0.858,0.977c-24.602,29.203-42.362,64.341-50.848,102.96c-0.19,0.787-0.357,1.526-0.524,2.312      c-2.813,13.326-4.482,27.081-4.935,41.122c-0.048,0.596-0.048,1.192-0.048,1.764c-0.095,2.241-0.119,4.458-0.119,6.699      c0,11.157,0.763,22.122,2.241,32.898c0.048,0.477,0.119,0.977,0.191,1.478c3.743,26.127,11.681,50.872,23.1,73.567      c7.713,15.354,17.099,29.864,27.904,43.223c10.908,13.488,23.306,25.048,36.437,36.303c0.286,0.238,0.62,0.501,0.93,0.739      c0.238,0.191,0.453,0.358,0.667,0.548c1.979,1.55,3.957,3.075,5.96,4.553c2.432,1.812,4.911,3.576,7.414,5.292      c1.287,0.882,2.575,1.74,3.862,2.575l71.832,2.089l60.239,29.904l94.162-47.14L415.777,433.334z"/>
			</g>
			<g>
				<g>
					<path style="fill:#FFB9C2;" d="M35.656,214.489c-4.727,10.929-11.413,23.125-20.359,32.67c0-0.576,0-1.176,0.046-1.775       c8.415-9.269,14.733-20.912,19.252-31.356c8.438-19.483,14.825-40.164,20.981-60.153c5.026-16.278,10.214-33.109,16.508-49.225       c1.545-3.989,3.159-7.862,4.796-11.62c0.807-0.899,1.637-1.798,2.49-2.698c-2.167,4.727-4.242,9.638-6.225,14.733       c-6.248,16.093-11.436,32.901-16.462,49.155C50.505,174.233,44.118,194.937,35.656,214.489z"/>
				</g>
				<g>
					<path style="fill:#FFB9C2;" d="M220.497,27.25c-3.896-3.159-7.839-6.364-11.943-9.292c0.53-0.115,1.037-0.231,1.568-0.3       c3.781,2.767,7.447,5.741,11.09,8.692c6.087,4.934,12.358,10.006,18.998,14.041c30.964,18.814,74.379,13.326,100.432-11.62       c0.415,0.161,0.83,0.3,1.222,0.461c-26.353,25.592-70.69,31.31-102.254,12.151C232.901,37.303,226.584,32.184,220.497,27.25z"/>
				</g>
				<g>
					<path style="fill:#FFB9C2;" d="M421.546,79.657c-10.882,12.819-26.653,23.448-46.181,30.987       c-16.416,6.363-33.915,10.214-50.839,13.926c-4.242,0.922-8.485,1.868-12.704,2.836       c-96.651,22.157-184.91,64.903-255.208,123.604c-15.24,12.75-28.128,25.016-38.988,37.212       c-0.069-0.484-0.139-0.991-0.208-1.476c10.744-12.012,23.448-24.117,38.434-36.613       c70.46-58.839,158.88-101.654,255.715-123.857c4.219-0.968,8.462-1.89,12.704-2.836c16.877-3.712,34.331-7.539,50.677-13.857       c19.367-7.493,34.999-18.03,45.766-30.734C420.993,79.104,421.269,79.38,421.546,79.657z"/>
				</g>
				<g>
					<path style="fill:#FFB9C2;" d="M76.604,342.934c-4.012,13.857-5.81,28.566-7.516,42.792       c-0.692,5.649-1.383,11.367-2.237,17.061c-0.346-0.415-0.669-0.83-0.968-1.245c0.761-5.326,1.429-10.675,2.052-15.955       c1.729-14.272,3.505-29.028,7.562-42.976c6.11-21.189,22.456-42.907,43.807-40.51c7.101,0.784,13.557,4.242,19.805,7.586       c6.018,3.205,12.243,6.525,18.975,7.401c16.854,2.167,32.232-12.012,38.688-27.137c4.888-11.436,6.479-24.071,8-36.314       c0.576-4.588,1.176-9.315,1.937-13.949c3.666-22.318,11.367-39.749,22.895-51.784c14.502-15.125,35.645-20.981,52.591-14.572       c15.24,5.741,24.762,19.598,33.962,32.993c4.773,6.94,9.706,14.11,15.378,20.128c14.202,15.056,35.506,23.171,58.424,22.295       c22.918-0.899,43.507-10.629,56.51-26.722c12.266-15.24,18.145-34.1,24.047-55.404l0.323-1.107       c1.13-4.035,2.236-8.069,3.435-12.127c0.277,0.53,0.507,1.037,0.738,1.568c-1.06,3.62-2.075,7.24-3.066,10.86l-0.3,1.107       c-5.949,21.442-11.874,40.417-24.278,55.819c-13.211,16.347-34.123,26.261-57.364,27.16c-23.217,0.899-44.89-7.355-59.3-22.641       c-5.741-6.11-10.698-13.326-15.494-20.289c-9.545-13.857-18.537-26.929-33.408-32.555c-16.531-6.248-37.19-0.507-51.369,14.295       c-11.367,11.851-18.952,29.074-22.595,51.162c-0.761,4.611-1.337,9.338-1.914,13.903c-1.545,12.312-3.136,25.039-8.093,36.636       c-6.41,15.033-21.65,30.157-39.91,27.829c-6.94-0.899-13.257-4.288-19.367-7.539c-6.133-3.297-12.496-6.686-19.39-7.47       C98.415,300.926,82.576,322.207,76.604,342.934z"/>
				</g>
				<g>
					<path style="fill:#FFB9C2;" d="M495.902,265.742c0,0.438-0.023,0.853-0.069,1.268c-34.538,16.485-72.673,23.886-109.171,29.281       c-8.6,1.268-17.361,2.467-25.823,3.62c-34.238,4.703-69.652,9.545-102.991,20.289c-32.878,10.583-63.427,26.607-90.795,47.68       c-21.488,16.554-47.219,41.616-61.052,74.171c-0.323-0.23-0.646-0.484-0.945-0.738c13.972-32.647,39.772-57.755,61.306-74.333       c27.46-21.166,58.124-37.259,91.141-47.887c33.431-10.767,68.891-15.632,103.176-20.312c8.462-1.176,17.223-2.375,25.823-3.643       C423.114,289.721,461.318,282.32,495.902,265.742z"/>
				</g>
			</g>
		</g>
		<g>
			<g>
				<path style="fill:#331510;" d="M415.777,433.334c0.167-0.167,0.357-0.31,0.524-0.477c21.407-19.214,39.358-42.195,52.755-67.917      c12.301-23.577,20.811-49.394,24.721-76.761c-7.605-3.123-15.018-6.436-20.549-11.753c-0.31-0.31-0.596-0.596-0.882-0.906      c-1.24-1.287-2.384-2.718-3.409-4.267c-11.276-17.331-0.62-43.72-14.375-59.001c-0.119-0.143-0.238-0.286-0.381-0.429      c-0.143-0.167-0.286-0.31-0.453-0.453c-15.209-15.352-45.175-5.268-60.908-20.358c-8.105-7.795-9.393-19.309-11.228-30.704      c-0.811-5.125-1.74-10.227-3.433-14.971c-4.291-11.967-13.373-21.074-24.435-27.701c-0.477-0.286-0.93-0.572-1.406-0.811      c-7.628-4.434-16.115-7.676-24.578-9.917c0,0-0.024,0-0.047-0.024c-0.215-0.048-0.382-0.119-0.596-0.167      c-0.167-0.048-0.334-0.095-0.525-0.119c-14.351-3.671-29.226-5.125-44.03-4.482c-2.789,0.095-5.579,0.286-8.368,0.572      c-19.715,1.859-39.096,7.414-56.712,16.282c-15.257,7.628-29.036,16.616-37.88,31.086c-0.644,1.049-1.288,2.098-1.883,3.147      c-0.024,0.048-0.072,0.119-0.095,0.191c-3.314,5.697-6.127,11.419-8.63,17.235c0,0.024-0.024,0.048-0.024,0.072      c-1.12,2.551-2.145,5.102-3.171,7.724c-0.19,0.524-0.381,1.049-0.572,1.597c-1.74,4.601-3.337,9.321-4.911,14.232      c-3.957,12.349-8.415,25.341-16.687,35.448l-0.024,0.024c-2.741,3.314-5.864,6.293-9.536,8.844      c-10.155,7.08-22.837,9.583-33.494,15.853c-15.495,9.13-25.627,26.509-25.913,44.34c-0.238,15.519,6.27,32.135-0.906,45.938      c-5.841,11.252-18.608,16.353-30.957,21.097c7.735,15.256,17.631,29.532,28.519,42.686      c10.895,13.162,23.162,25.169,36.551,35.798c0.602,0.478,1.209,0.947,1.812,1.424c1.955,1.55,3.957,3.051,5.96,4.553      c2.456,1.788,4.935,3.552,7.462,5.245h67.967l76.021,26.209l118.619-43.366L415.777,433.334z"/>
			</g>
			<g>
				<g>
					<g>
						<path style="fill:#D3542B;" d="M405.169,440.297c-0.31,0.238-0.644,0.501-0.954,0.739c-1.788,1.406-3.576,2.789-5.435,4.124        c-39.978,29.679-89.467,47.201-143.081,47.201c-34.518,0-67.297-7.247-96.976-20.358c-3.552-1.573-7.057-3.218-10.537-4.982        c-0.024,0-0.048-0.024-0.072-0.024c-1.859-1.168-3.719-2.36-5.554-3.552c15.781-16.878,42.934-33.017,64.484-44.674        c3.48-1.907,6.842-3.695,9.965-5.364c9.202-4.863,16.496-8.534,20.024-10.704c7.377-4.536,8.599-15.866,9.25-23.555        c0.53-6.255,1.712-12.585,1.573-18.861c-0.131-5.907-2.431-12.256-2.431-18.134c-0.024-0.143-0.024-0.215-0.024-0.215        s62.368-1.664,62.529-1.669c-0.277,0.007-0.133,17.049-0.031,18.304c0.896,11.059,2.553,22.326,6.73,32.544        c3.454,8.45,15.567,11.943,29.799,16.139c1.335,0.381,2.694,0.763,4.053,1.168c11.395,3.337,24.006,7.295,35.377,14.184        C392.057,427.567,399.209,433.884,405.169,440.297z"/>
					</g>
					<g>
						<g>
							<path style="fill:#331510;" d="M308.358,356.677c-7.893,6.818-18.301,11.018-28.818,11.32         c-8.44,0.238-22.717-2.944-32.95-9.221c-0.328-9.567-1.181-16.84-1.181-16.84l62.533-1.667         C307.942,340.27,307.833,347.413,308.358,356.677z"/>
						</g>
					</g>
				</g>
				<g>
					<path style="fill:#D3542B;" d="M378.32,194.173c0,4.541-0.324,9.014-0.881,13.395c-0.139,6.766-0.324,14.427-0.602,22.454       c-0.394,11.445-0.95,23.647-1.761,35.092c-1.135,16.216-2.734,30.94-5.028,40.023c-2.271,8.991-7.02,16.307-13.229,22.179       h-0.023c-12.998,12.408-32.367,18.647-48.747,21.399h-0.023c-2.271,0.367-4.472,0.688-6.603,0.94       c-12.117,1.422-33.687,2.982-55.211,1.491h-0.023c-22.543-1.583-45.04-6.514-56.555-18.486       c-1.946-2.041-3.73-4.633-5.329-7.706c-6.812-13.028-10.635-34.358-12.766-55.161c-1.112-10.826-1.738-21.514-2.131-30.803       c-0.695-16.995-0.487-29.312-0.487-29.312l0.579-0.069c-0.765-5.046-1.159-10.183-1.159-15.436       c0-57.409,47.01-103.945,104.978-103.945h0.996c2.641,0.023,5.259,0.16,7.831,0.367c49.465,4.083,89.154,42.087,95.317,90.436       l0.278-0.046c0,0,0,0.757,0,2.133C378.111,186.741,378.32,190.434,378.32,194.173z"/>
				</g>
			</g>
			<g>
				<g>
					<path style="fill:#FFC17D;" d="M415.777,433.334c-0.835-0.429-1.693-0.858-2.551-1.263       c-36.664-17.569-63.888-23.41-63.888-23.41s2.765-18.356-9.059-28.511c-11.848-10.155-30.347-5.435-30.347-5.435l1.74,9.416       c-41.646,18.451-66.224,3.743-66.224,3.743l0.405-4.339l0.167-1.55l0.215-2.289l0.048-0.548l0.143-1.335h-0.024       c-36.545-2.217-30.752,32.635-30.061,36.33c0.024,0.024,0.024,0.048,0.024,0.072c0.048,0.191,0.072,0.286,0.072,0.286       s-62.291,25.365-89.133,38.643c-1.192,0.596-2.313,1.216-3.409,1.883c-0.286,0.143-0.549,0.31-0.811,0.477       C123.083,455.504,269.43,557.645,415.777,433.334z"/>
				</g>
				<g>
					<path style="fill:#FADED3;" d="M273.996,438.347c-15.072,0-29.484-3.217-41.683-9.305c-8.288-4.137-13.677-8.923-16.48-14.634       c-0.14-0.285-0.023-0.631,0.263-0.771c0.279-0.14,0.631-0.023,0.771,0.263c2.689,5.475,7.908,10.091,15.963,14.11       c12.038,6.009,26.274,9.184,41.166,9.184c0.026,0,0.049,0,0.077,0c13.279-0.009,27.375-2.491,41.895-7.374       c15.986-5.378,26.509-12.087,33.116-21.114c0.191-0.26,0.552-0.313,0.805-0.126c0.258,0.189,0.314,0.549,0.126,0.805       c-6.756,9.229-17.458,16.069-33.679,21.526c-14.639,4.924-28.858,7.425-42.263,7.435       C274.047,438.347,274.021,438.347,273.996,438.347z"/>
				</g>
			</g>
			<g>
				<g>
					<path style="fill:#331510;" d="M278.094,114.179c-0.451,0.716-0.902,1.408-1.376,2.032       c-7.57,10.041-20.644,14.242-32.509,18.974c-11.841,4.755-24.394,11.934-27.597,24.006c-1.329,5.009-0.854,10.387-2.444,15.327       c-2.302,7.202-9.231,12.788-16.919,13.665c-3.465,0.393-7.048-0.069-10.394,0.831c-7.451,1.985-11.437,10.064-12.268,17.543       c-0.807,7.479,0.546,15.096-0.735,22.506c-0.831,4.87-3.37,9.856-7.19,12.88c-0.712-17.104-0.498-29.5-0.498-29.5l0.593-0.069       c-0.783-5.078-1.186-10.249-1.186-15.535c0-57.777,48.146-104.612,107.517-104.612h1.021c2.705,0.023,5.386,0.162,8.02,0.369       C284.216,99.406,281.701,108.293,278.094,114.179z"/>
				</g>
				<g>
					<path style="fill:#331510;" d="M380.103,197.454c0,4.597-0.33,9.125-0.895,13.56c-0.141,6.85-0.33,14.604-0.613,22.731       c-0.023,0-0.071-0.023-0.094-0.046c-7.705-4.574-13.078-12.77-14.162-21.57c-0.566-4.737,0.047-9.589-0.518-14.326       c-0.565-4.76-2.663-9.752-6.975-11.958c-3.582-1.811-7.823-1.323-11.805-1.741c-10.792-1.091-20.383-9.636-22.598-20.107       c-1.697-8.103,0.306-17.669-5.302-23.822c-5.09-5.596-13.879-5.387-21.019-8.01c-6.716-2.484-13.526-9.566-17.838-17.855       c-3.794-7.198-5.679-15.324-3.959-22.081c2.686,0.023,5.349,0.163,7.964,0.371c50.309,4.133,90.674,42.606,96.942,91.551       l0.283-0.046c0,0,0,0.766,0,2.159C379.891,189.931,380.103,193.669,380.103,197.454z"/>
				</g>
			</g>
			<g>
				<g>
					<path style="fill:#FFB9C2;" d="M137.57,234.916c0,0,12.225-9.369,28.789-30.061c16.563-20.691,30.366-46.457,79.267-53.484       c48.901-7.027,94.253-8.979,136.055,8.979c0,0,33.126-2.733,24.845-45.286s-44.957-50.752-76.112-56.217       c-32.479-5.698-67.032-0.356-99.307,6.384c-23.301,4.866-47.721,11.163-64.511,27.88       c-13.737,13.677-20.873,32.993-35.395,45.851c-7.058,6.249-15.552,10.68-23.02,16.443       c-15.136,11.679-26.093,31.423-20.47,49.587c3.059,9.88,10.672,17.975,19.692,23.174       C116.424,233.365,127.213,233.631,137.57,234.916z"/>
				</g>
				<g>
					<path style="fill:#FFB9C2;" d="M257.488,63.93c-0.89-9.8-0.547-19.71,1.019-29.427c0.219-1.358,0.908-3.079,2.292-2.959       c1.007,0.087,1.591,1.15,1.934,2.092c1.209,3.312,1.719,6.827,2.221,10.313c0.922,6.395,1.844,12.789,2.766,19.184       C264.258,63.064,260.678,62.594,257.488,63.93z"/>
				</g>
			</g>
			<g>
				<g style="opacity:0.49;">
					<g>
						<path style="fill:#FF5E5E;" d="M231.823,292.739c0,18.991-15.546,34.358-34.707,34.358c-4.541,0-8.85-0.848-12.812-2.431        c-6.812-13.028-10.635-34.358-12.766-55.161c6.371-6.812,15.477-11.101,25.578-11.101        C216.277,258.404,231.823,273.771,231.823,292.739z"/>
					</g>
					<g style="opacity:0.6;">
						<path style="fill:#FF5E5E;" d="M375.076,265.307c-1.135,16.216-2.734,30.94-5.028,40.023        c-2.271,8.991-7.02,16.307-13.229,22.179h-0.023c-0.626,0.046-1.274,0.069-1.923,0.069c-19.184,0-34.707-15.367-34.707-34.358        c0-18.968,15.523-34.335,34.707-34.335C362.403,258.885,369.4,261.248,375.076,265.307z"/>
					</g>
				</g>
				<g>
					<g>
						<g>
							<g>
								<path style="fill:#331510;" d="M232.657,237.907c0,5.901-4.832,10.685-10.793,10.685c-5.961,0-10.793-4.783-10.793-10.685          c0-5.901,4.832-10.684,10.793-10.684C227.825,227.223,232.657,232.006,232.657,237.907z"/>
							</g>
							<g>
								<path style="fill:#331510;" d="M330.165,235.696c0,5.901-4.832,10.685-10.793,10.685c-5.961,0-10.793-4.784-10.793-10.685          c0-5.901,4.832-10.684,10.793-10.684C325.332,225.012,330.165,229.796,330.165,235.696z"/>
							</g>
						</g>
					</g>
					<g>
						<path style="fill:#331510;" d="M274.401,271.753c-1.052,0-2.102-0.129-3.129-0.391c-1.453-0.37-2.817-0.992-4.137-1.592        c-1.921-0.874-3.739-1.702-5.652-1.702c-0.016,0-0.03,0-0.044,0c-0.826,0.006-1.699,0.159-2.626,0.322        c-1.967,0.348-4.195,0.739-6.106-0.504c-1.623-1.058-2.54-3.127-2.391-5.401c0.123-1.883,0.899-3.622,1.581-5.155        c0.247-0.549,0.889-0.794,1.436-0.552c0.549,0.246,0.796,0.888,0.552,1.436c-0.64,1.434-1.301,2.917-1.399,4.413        c-0.095,1.468,0.456,2.817,1.408,3.436c1.19,0.778,2.749,0.501,4.542,0.185c0.973-0.172,1.979-0.349,2.989-0.355        c0.019-0.001,0.037-0.001,0.058-0.001c2.386,0,4.505,0.965,6.553,1.897c1.29,0.588,2.507,1.142,3.776,1.465        c2.635,0.672,5.622,0.251,7.969-1.134c0.775-0.459,1.502-1.017,2.267-1.61c1.255-0.97,2.554-1.972,4.146-2.548        c1.35-0.488,2.763-0.616,4.132-0.739c1.73-0.157,3.362-0.305,4.607-1.168c0.875-0.608,1.464-1.638,1.616-2.827        c0.151-1.183-0.158-2.32-0.85-3.12c-0.391-0.454-0.342-1.141,0.114-1.534c0.454-0.391,1.138-0.342,1.534,0.114        c1.092,1.265,1.588,3.021,1.36,4.814c-0.228,1.801-1.152,3.383-2.535,4.341c-1.716,1.19-3.716,1.37-5.65,1.546        c-1.287,0.116-2.503,0.227-3.587,0.619c-1.273,0.46-2.382,1.316-3.557,2.223c-0.787,0.608-1.599,1.235-2.493,1.762        C278.922,271.154,276.666,271.753,274.401,271.753z"/>
					</g>
					<g>
						<g>
							<g>
								<path style="fill:#FF8476;" d="M241.868,295.004c0,0,10.049,0.277,15.91-4.697c5.862-4.974,7.536-10.5,19.539-10.776          c12.002-0.276,16.747,11.605,22.609,12.434c5.861,0.829,9.769,0,9.769,0S288.482,306.057,241.868,295.004z"/>
							</g>
							<g>
								<path style="fill:#FF8476;" d="M243.333,295.05c9.873,4.162,15.709,15.396,26.034,18.293          c4.66,1.308,9.653,0.701,14.364-0.415c1.913-0.452,3.819-0.992,5.575-1.868c7.727-3.853,10.988-13.206,17.936-18.309          c-12.133,1.928-24.396,1.926-36.684,2.011C261.895,294.821,251.995,294.99,243.333,295.05z"/>
							</g>
						</g>
						<g>
							<path style="fill:#331510;" d="M273.204,299.011c-1.02,0-2.032-0.021-3.038-0.066c-4.74-0.213-9.508-0.8-14.117-1.369         c-4.472-0.551-9.098-1.121-13.663-1.342c-0.449-0.022-0.796-0.404-0.775-0.854c0.021-0.448,0.326-0.812,0.854-0.775         c4.626,0.225,9.282,0.799,13.782,1.353c4.582,0.565,9.317,1.148,13.994,1.358c12.834,0.579,27.054-2.778,39.239-6.137         c0.431-0.12,0.885,0.136,1.003,0.57c0.119,0.434-0.135,0.883-0.57,1.003C298.552,295.883,285.452,299.011,273.204,299.011z"/>
						</g>
					</g>
				</g>
				<g>
					<g>
						<path style="fill:#331510;" d="M240.505,200.262c-17.469,1.111-34.325,3.07-51.521,6.307        c5.485-6.246,13.6-9.654,21.739-11.543c8.14-1.889,16.538-2.46,24.721-4.156C237.205,193.831,239.491,196.975,240.505,200.262        z"/>
					</g>
					<g>
						<path style="fill:#331510;" d="M301.771,199.481c17.469,1.111,34.325,3.07,51.522,6.307c-5.485-6.247-13.6-9.654-21.74-11.543        c-8.14-1.889-16.538-2.46-24.721-4.156C305.071,193.05,302.785,196.195,301.771,199.481z"/>
					</g>
				</g>
			</g>
		</g>
	</g>
</g>















</svg>
