<?xml version="1.0" encoding="iso-8859-1"?>
<!-- Generator: Adobe Illustrator 25.0.0, SVG Export Plug-In . SVG Version: 6.00 Build 0)  -->
<svg version="1.1" id="Object" xmlns="http://www.w3.org/2000/svg" xmlns:xlink="http://www.w3.org/1999/xlink" x="0px" y="0px"
	 width="500px" height="500px" viewBox="0 0 500 500" enable-background="new 0 0 500 500" xml:space="preserve">
<g>
	<defs>
		<circle id="SVGID_1_" cx="257.767" cy="258.147" r="186.175"/>
	</defs>
	<clipPath id="SVGID_2_">
		<use xlink:href="#SVGID_1_"  overflow="visible"/>
	</clipPath>
	<circle clip-path="url(#SVGID_2_)" fill="#FFE1CA" cx="257.767" cy="270.247" r="187.36"/>
	<g clip-path="url(#SVGID_2_)">
		<g>
			<rect x="222.181" y="270.277" fill="#FFAA9F" width="64.766" height="74.019"/>
			
				<ellipse transform="matrix(0.9793 -0.2025 0.2025 0.9793 -44.2925 42.087)" fill="#FFAA9F" cx="183.563" cy="237.532" rx="16.079" ry="19.548"/>
			<g>
				<path fill="#E27169" d="M177.553,228.26c3.636,0.667,5.923,3.781,7.022,7.116c1.289,3.912,1.52,8.146,1.001,12.214
					c-0.174,1.359,1.962,1.346,2.134,0c0.576-4.506,0.258-9.379-1.386-13.648c-1.408-3.657-4.172-7-8.203-7.74
					C176.778,225.956,176.202,228.012,177.553,228.26L177.553,228.26z"/>
				<path fill="#E27169" d="M185.888,236.02c-0.452-0.021-0.909-0.122-1.434-0.231c-0.552-0.115-1.112-0.225-1.677-0.248
					c-1.25-0.052-2.315,0.478-3.202,1.328c-1.536,1.473-2.438,3.65-1.939,5.768c0.132,0.561,0.772,0.894,1.313,0.745
					c0.574-0.158,0.878-0.75,0.745-1.313c-0.025-0.108-0.051-0.217-0.067-0.327c0.021,0.149,0.001-0.043-0.002-0.1
					c-0.011-0.202-0.004-0.401,0.011-0.603c0.024-0.314-0.05,0.156,0.025-0.152c0.022-0.089,0.038-0.18,0.061-0.269
					c0.051-0.197,0.114-0.392,0.189-0.582c-0.058,0.146,0.075-0.159,0.074-0.156c0.041-0.084,0.085-0.168,0.131-0.25
					c0.1-0.182,0.21-0.358,0.329-0.528c0.166-0.239,0.425-0.528,0.722-0.803c0.282-0.261,0.553-0.464,0.896-0.562
					c0.293-0.083,0.709-0.09,1.135-0.029c-0.129-0.019,0.106,0.021,0.14,0.028c0.102,0.018,0.203,0.038,0.305,0.058
					c0.225,0.045,0.449,0.095,0.674,0.141c0.518,0.106,1.043,0.192,1.572,0.218c0.576,0.027,1.067-0.51,1.067-1.067
					C186.955,236.487,186.466,236.048,185.888,236.02L185.888,236.02z"/>
			</g>
			
				<ellipse transform="matrix(0.2025 -0.9793 0.9793 0.2025 26.3954 507.4761)" fill="#FFAA9F" cx="324.765" cy="237.532" rx="19.548" ry="16.079"/>
			<g>
				<g>
					<path fill="#E27169" d="M330.207,226.202c-4.035,0.741-6.789,4.084-8.203,7.74c-1.649,4.264-1.961,9.146-1.386,13.648
						c0.172,1.344,2.308,1.361,2.134,0c-0.52-4.068-0.288-8.302,1.001-12.214c1.099-3.335,3.386-6.449,7.022-7.116
						C332.123,228.012,331.552,225.955,330.207,226.202L330.207,226.202z"/>
					<path fill="#E27169" d="M322.44,238.155c0.508-0.024,1.013-0.105,1.51-0.205c0.225-0.045,0.449-0.095,0.674-0.141
						c0.101-0.021,0.203-0.041,0.305-0.06c-0.01,0.002,0.329-0.057,0.201-0.038c0.217-0.031,0.439-0.043,0.658-0.039
						c0.29,0.005,0.226-0.003,0.477,0.068c0.345,0.097,0.614,0.302,0.896,0.562c0.298,0.275,0.556,0.566,0.722,0.803
						c0.108,0.155,0.209,0.315,0.302,0.479c0.055,0.098,0.108,0.198,0.158,0.299c0.014,0.028,0.134,0.306,0.074,0.156
						c0.069,0.172,0.127,0.349,0.175,0.528c0.029,0.107,0.05,0.215,0.075,0.323c0.042,0.181,0.007-0.011,0.019,0.097
						c0.022,0.2,0.029,0.402,0.02,0.602c0,0.004-0.032,0.342-0.005,0.154c-0.015,0.11-0.041,0.219-0.067,0.327
						c-0.132,0.561,0.175,1.156,0.745,1.313c0.541,0.149,1.18-0.182,1.313-0.745c0.498-2.116-0.402-4.299-1.939-5.768
						c-0.873-0.834-1.913-1.364-3.142-1.331c-0.584,0.016-1.166,0.132-1.736,0.251c-0.519,0.109-0.996,0.211-1.434,0.231
						c-0.576,0.027-1.067,0.471-1.067,1.067C321.373,237.644,321.861,238.182,322.44,238.155L322.44,238.155z"/>
				</g>
			</g>
			<path fill="#FFC9C0" d="M281.142,301.307h-53.154c-20.655,0-37.399-16.744-37.399-37.399v-94.954h127.953v94.954
				C318.541,284.562,301.797,301.307,281.142,301.307z"/>
			<path fill="#35356D" d="M321.558,215.332c-0.338,2.048-2.108,3.546-4.189,3.546c-2.34,0-4.242-1.896-4.242-4.243v-35.359
				c0-0.65-0.736-1.014-1.26-0.63c-3.891,2.85-17.971,10.447-57.301,10.447c-39.33,0-53.41-7.597-57.307-10.447
				c-0.524-0.384-1.253-0.02-1.253,0.63v35.201c0,2.084-1.436,3.973-3.489,4.333c-2.389,0.419-4.564-1.185-4.95-3.48
				c-1.883-11.229-6.477-46.562,5.728-68.722c5.807-10.541,16.618-17.316,27.561-21.654c21.613-8.568,45.809-8.569,67.421,0.001
				c10.942,4.338,21.75,11.113,27.554,21.653C328.041,168.771,323.447,204.103,321.558,215.332z"/>
			<g>
				<ellipse fill="#35356D" cx="225.817" cy="222.267" rx="4.344" ry="6.854"/>
				<ellipse fill="#35356D" cx="282.511" cy="222.267" rx="4.344" ry="6.854"/>
			</g>
			<path fill="#E27169" d="M251.318,222.963c0.383,1.403,0.785,2.828,0.706,4.298c-0.073,1.362-0.599,2.678-1.182,3.895
				c-1.192,2.486-2.677,4.839-4.393,6.996c-1.507,1.894-3.299,4.231-2.161,6.759c0.51,1.134,1.484,2.075,2.352,2.94
				c0.973,0.97,2.02,1.85,3.11,2.686c1.089,0.835,2.153-1.018,1.077-1.843c-1.07-0.82-2.076-1.726-3.015-2.694
				c-0.744-0.767-1.808-1.688-1.754-2.858c0.057-1.224,0.99-2.333,1.715-3.251c0.773-0.979,1.535-1.962,2.232-2.997
				c1.389-2.062,2.677-4.291,3.523-6.636c0.962-2.665,0.576-5.195-0.152-7.862C253.014,221.072,250.955,221.634,251.318,222.963
				L251.318,222.963z"/>
			<g>
				<path fill="#BC4A55" d="M270.303,264.408c-0.312,3.825-1.869,7.298-4.276,10.01c-3.155,3.58-7.782,5.833-12.926,5.833
					c-5.025,0-9.546-2.148-12.701-5.575c-2.532-2.744-4.183-6.317-4.508-10.268c-0.066-0.769,0.557-1.425,1.326-1.425h31.759
					c0.152,0,0.298,0.027,0.437,0.08C269.965,263.248,270.356,263.792,270.303,264.408z"/>
				<path fill="#FFFFFF" d="M269.415,263.063c-3.805,2.625-9.519,4.296-15.916,4.296c-6.457,0-12.224-1.704-16.022-4.375h31.501
					C269.13,262.983,269.276,263.01,269.415,263.063z"/>
				<path fill="#E27169" d="M266.028,274.418c-3.155,3.58-7.782,5.833-12.926,5.833c-5.025,0-9.546-2.148-12.701-5.575
					c3.573-1.684,8.134-2.691,13.099-2.691C258.205,271.985,262.547,272.887,266.028,274.418z"/>
			</g>
			<g>
				<path fill="#35356D" d="M215.874,203.264c-0.428,0.118-0.786-0.34-0.566-0.726c0.913-1.599,3.339-4.46,9.011-4.46
					c7.87,0,12.271,4.485,11.086,6.262c-1.185,1.777-4.274-2.581-10.663-2.327C220.383,202.185,217.357,202.855,215.874,203.264z"/>
				<path fill="#35356D" d="M273.684,203.264c-0.428,0.118-0.786-0.34-0.566-0.726c0.913-1.599,3.339-4.46,9.011-4.46
					c7.87,0,12.271,4.485,11.086,6.262s-4.274-2.581-10.663-2.327C278.193,202.185,275.167,202.855,273.684,203.264z"/>
			</g>
			<g>
				<path fill="#FFFFFF" d="M223.782,249.344c-13.403,0-24.307-10.904-24.307-24.306c0-13.403,10.904-24.307,24.307-24.307
					c13.403,0,24.306,10.904,24.306,24.307C248.088,238.44,237.184,249.344,223.782,249.344z M223.782,202.865
					c-12.226,0-22.173,9.947-22.173,22.173c0,12.226,9.947,22.172,22.173,22.172c12.226,0,22.172-9.947,22.172-22.172
					C245.954,212.812,236.008,202.865,223.782,202.865z"/>
				<path fill="#FFFFFF" d="M283.228,249.344c-13.403,0-24.307-10.904-24.307-24.306c0-13.403,10.904-24.307,24.307-24.307
					c13.403,0,24.306,10.904,24.306,24.307C307.535,238.44,296.631,249.344,283.228,249.344z M283.228,202.865
					c-12.226,0-22.173,9.947-22.173,22.173c0,12.226,9.947,22.172,22.173,22.172c12.226,0,22.172-9.947,22.172-22.172
					C305.401,212.812,295.454,202.865,283.228,202.865z"/>
				<path fill="#FFFFFF" d="M188.753,220.741c-0.475,0-0.908-0.32-1.033-0.801c-0.147-0.571,0.196-1.152,0.767-1.3l13.537-3.49
					c0.57-0.146,1.152,0.196,1.3,0.767c0.147,0.571-0.196,1.152-0.767,1.3l-13.537,3.49
					C188.93,220.73,188.841,220.741,188.753,220.741z"/>
				<path fill="#FFFFFF" d="M318.542,220.741c-0.088,0-0.178-0.011-0.267-0.034l-13.537-3.49c-0.571-0.147-0.914-0.729-0.767-1.3
					c0.147-0.571,0.73-0.912,1.3-0.767l13.537,3.49c0.571,0.147,0.914,0.729,0.767,1.3
					C319.45,220.422,319.017,220.741,318.542,220.741z"/>
				<path fill="#FFFFFF" d="M260.552,220.999c-0.155,0-0.312-0.034-0.46-0.105c-7.487-3.587-12.825-0.215-13.049-0.07
					c-0.493,0.32-1.154,0.183-1.476-0.308c-0.322-0.491-0.188-1.15,0.302-1.474c0.262-0.173,6.527-4.2,15.145-0.072
					c0.531,0.255,0.756,0.892,0.502,1.423C261.332,220.776,260.95,220.999,260.552,220.999z"/>
			</g>
		</g>
		<g>
			<path fill="#FF9A41" d="M402.942,448.341H103.254l11.057-63.744c1.551-8.962,7.451-16.572,15.744-20.318l77.234-34.862
				c0,0-0.172-9.645,0.842-16.075c1.021-6.437,6.099-11.853,16.082-10.494c9.983,1.352,28.882,2.194,28.882,2.194
				s18.906-0.842,28.889-2.194c9.983-1.359,15.061,4.057,16.075,10.494c1.021,6.43,0.849,16.075,0.849,16.075l77.234,34.862
				c8.293,3.745,14.193,11.355,15.744,20.318L402.942,448.341z"/>
			<path fill="#C14F2D" d="M206.183,329.669c8.163,10.628,21.13,15.48,34.07,17.02c7.229,0.86,14.578,0.869,21.82,0.159
				c6.953-0.681,14.016-1.829,20.387-4.821c6.408-3.01,11.944-7.67,16.596-12.959c0.904-1.028-0.6-2.543-1.509-1.509
				c-3.971,4.514-8.541,8.525-13.826,11.433c-5.881,3.236-12.463,4.624-19.072,5.437c-6.996,0.861-14.087,1.022-21.113,0.452
				c-6.687-0.542-13.401-1.828-19.605-4.444c-6.134-2.586-11.827-6.536-15.905-11.846c-0.354-0.46-0.914-0.693-1.46-0.383
				C206.113,328.467,205.833,329.213,206.183,329.669L206.183,329.669z"/>
			<g>
				<g>
					<path fill="#C14F2D" d="M200.458,341.055c2.347,5.642,6.697,9.862,11.688,13.24c5.556,3.761,11.664,6.784,17.876,9.292
						c3.74,1.51,7.567,2.795,11.455,3.866c1.326,0.365,1.892-1.693,0.567-2.058c-6.587-1.814-12.988-4.257-19.091-7.331
						c-5.245-2.641-10.597-5.611-14.866-9.7c-2.341-2.242-4.321-4.87-5.572-7.877C201.996,339.237,199.93,339.786,200.458,341.055
						L200.458,341.055z"/>
					<path fill="#C14F2D" d="M248.964,367.993c11.907,1.961,24.118,1.68,35.916-0.872c3.327-0.72,6.611-1.626,9.841-2.699
						c1.297-0.431,0.741-2.493-0.567-2.058c-11.127,3.699-22.888,5.29-34.598,4.662c-3.359-0.18-6.704-0.544-10.024-1.091
						C248.187,365.714,247.61,367.77,248.964,367.993L248.964,367.993z"/>
				</g>
			</g>
			<g>
				<g>
					<path fill="#C14F2D" d="M222.506,302.773c-3.889,4.12-5.586,9.623-6.347,15.124c-0.85,6.155-1.118,12.425-1.404,18.627
						c-0.063,1.373,2.071,1.37,2.134,0c0.271-5.885,0.537-11.822,1.277-17.67c0.664-5.242,2.134-10.637,5.848-14.573
						C224.957,303.284,223.451,301.772,222.506,302.773L222.506,302.773z"/>
					<path fill="#C14F2D" d="M235.433,304.793c-0.372,6.609-0.787,13.216-1.248,19.819c-0.231,3.302-0.472,6.603-0.726,9.903
						c-0.127,1.65-0.256,3.3-0.388,4.949c-0.121,1.506-0.178,3.027-0.593,4.488c-0.376,1.323,1.683,1.888,2.058,0.567
						c0.418-1.472,0.504-3.007,0.627-4.525c0.138-1.708,0.272-3.417,0.404-5.126c0.254-3.3,0.497-6.601,0.728-9.903
						c0.471-6.721,0.894-13.446,1.273-20.173C237.644,303.421,235.51,303.425,235.433,304.793L235.433,304.793z"/>
					<path fill="#C14F2D" d="M251.276,306.032c1.108,6.683,2.089,13.363,2.63,20.119c0.536,6.704,0.763,13.428,0.886,20.15
						c0.021,1.151,1.904,1.515,2.096,0.284c0.02-0.127,0.039-0.254,0.059-0.38c0.209-1.344-1.847-1.922-2.058-0.567
						c-0.02,0.127-0.039,0.254-0.059,0.38c0.699,0.095,1.397,0.189,2.096,0.284c-0.125-6.84-0.358-13.68-0.914-20.5
						c-0.557-6.827-1.558-13.582-2.678-20.337C253.11,304.113,251.053,304.687,251.276,306.032L251.276,306.032z"/>
					<path fill="#C14F2D" d="M265.807,305.082c3.412,12.811,4.682,26.114,3.778,39.34c-0.094,1.371,2.041,1.365,2.134,0
						c0.916-13.403-0.397-26.926-3.855-39.908C267.512,303.188,265.453,303.751,265.807,305.082L265.807,305.082z"/>
					<path fill="#C14F2D" d="M280.422,303.644c5.066,10.6,5.964,22.286,6.685,33.838c0.085,1.364,2.22,1.374,2.134,0
						c-0.747-11.955-1.737-23.952-6.977-34.916C281.673,301.328,279.833,302.409,280.422,303.644L280.422,303.644z"/>
				</g>
			</g>
			<path fill="#E87B3F" d="M200.542,353.597c0,0,34.628,36.977,36.934,36.977c2.307,0,72.94-12.863,72.94-12.863
				S238.253,375.52,200.542,353.597z"/>
			<path fill="#E87B3F" d="M358.369,448.341H141.118l4.13-35.876c0,0,28.074,16.473,106.607,18.163
				c78.533,1.69,103.988-11.581,103.988-11.581L358.369,448.341z"/>
			<g>
				<g>
					<path fill="#C14F2D" d="M144.183,397.118c-0.286,5.694-0.931,11.386-1.459,17.061c-0.742,7.965-1.505,15.93-2.373,23.883
						c-0.169,1.553-0.343,3.105-0.534,4.656c-0.129,1.045-0.16,1.451-0.356,2.522c-0.245,1.343,1.811,1.919,2.058,0.567
						c0.383-2.099,0.576-4.243,0.813-6.362c0.407-3.644,0.78-7.292,1.144-10.94c0.799-7.985,1.557-15.975,2.254-23.97
						c0.215-2.469,0.463-4.941,0.587-7.417C146.386,395.746,144.252,395.749,144.183,397.118L144.183,397.118z"/>
					<path fill="#C14F2D" d="M352.86,397.118c0.289,5.758,0.942,11.514,1.477,17.253c0.743,7.977,1.508,15.953,2.38,23.916
						c0.274,2.503,0.488,5.041,0.941,7.52c0.246,1.349,2.303,0.778,2.058-0.567c-0.056-0.309-0.103-0.62-0.148-0.93
						c-0.015-0.101-0.028-0.202-0.043-0.303c-0.037-0.263,0.002,0.021-0.018-0.132c-0.033-0.249-0.065-0.498-0.096-0.747
						c-0.163-1.297-0.311-2.596-0.456-3.895c-0.405-3.637-0.776-7.278-1.14-10.92c-0.794-7.947-1.548-15.898-2.241-23.854
						c-0.213-2.444-0.457-4.891-0.58-7.341C354.926,395.752,352.791,395.743,352.86,397.118L352.86,397.118z"/>
				</g>
			</g>
		</g>
	</g>
</g>
</svg>
