<?xml version="1.0" encoding="UTF-8"?>
<!-- Generator: Adobe Illustrator 25.2.3, SVG Export Plug-In . SVG Version: 6.00 Build 0)  -->
<svg xmlns="http://www.w3.org/2000/svg" xmlns:xlink="http://www.w3.org/1999/xlink" version="1.1" id="Capa_1" x="0px" y="0px" viewBox="0 0 511.495 511.495" style="enable-background:new 0 0 511.495 511.495;" xml:space="preserve" width="512" height="512">
<g>
	<g>
		<path style="fill:#FFFFFF;" d="M255.807,508.619c-46.638-0.171-93.268-12.63-133.343-36.686    c-26.02-15.619-49.012-36.154-67.816-59.951c-18.908-23.93-33.627-51.201-42.997-80.235    C0.349,296.726-2.623,259.404,2.268,222.974c1.784-13.283,4.592-26.433,8.439-39.272c7.466-24.917,18.697-48.713,33.296-70.246    c19.329-28.509,44.733-52.914,73.779-71.381c12.299-7.82,25.27-14.586,38.74-20.155C191.146,7.602,228.789,1.567,266.17,3.108    c9.851,0.406,19.681,1.333,29.436,2.763c33.244,4.874,64.659,15.599,93.432,33.062c34.915,21.19,64.822,50.699,86.027,85.64    c18.089,29.804,30.327,63.471,34.589,98.134c4.225,34.358,1.074,70.295-8.392,103.544c-6.12,21.497-15.121,42.172-26.862,61.197    c-7.641,12.382-16.375,24.149-25.957,34.972C399.885,477.277,329.025,508.888,255.807,508.619z"/>
	</g>
	<g>
		<g>
			<g>
				<g>
					<path style="fill:#FF8476;" d="M497.997,255.471c0.076,6.809-0.116,13.624-0.698,20.453       c-1.336,15.674-4.229,31.214-8.65,46.312c-3.408,11.639-7.73,23.164-12.902,34.135c-0.454,0.931-0.885,1.861-1.339,2.792       c-1.158,2.406-2.361,4.767-3.609,7.128c-7.424,14.038-16.196,27.342-26.227,39.655c-2.057,2.525-4.166,5.009-6.325,7.448       c-10.531,11.897-22.223,22.808-34.874,32.422c-11.312,8.595-23.364,16.214-35.996,22.716       c-12.58,6.475-25.727,11.844-39.243,16.026c-13.809,4.272-27.999,7.301-42.347,9.055c-9.944,1.215-19.962,1.819-29.98,1.819       c-16.288,0-32.577-1.599-48.543-4.827c-15.368-3.106-30.421-7.674-44.905-13.677c-14.687-6.063-28.771-13.62-41.979-22.448       c-9.667-6.462-19.05-13.749-27.731-21.576c-2.865-2.583-5.508-5.472-8.431-7.978c-5.31-4.552-9.704-10.039-14.22-15.346       c-4.67-5.49-9.131-11.203-13.224-17.138c-0.908-1.316-1.816-2.61-2.701-3.95c-0.431-0.613-0.84-1.226-1.226-1.839       c-8.525-13.542-16.042-27.519-22.227-42.28c-0.916-2.186-1.744-4.413-2.562-6.638c-0.204-0.499-0.386-1.021-0.568-1.521       c-5.533-15.206-9.436-31.006-11.706-47.025c-2.269-16.01-2.937-32.43-1.891-48.565c0.045-1.203,0.136-2.384,0.227-3.587       c1.227-16.238,4.179-32.371,8.717-48.009c4.45-15.335,10.465-30.236,17.898-44.367c7.35-13.973,16.14-27.193,26.091-39.448       c9.981-12.29,21.181-23.592,33.363-33.703c3.977-3.301,8.088-6.414,12.222-9.514c0.477-0.34,0.953-0.681,1.43-1.022       c10.601-7.604,21.86-14.369,33.664-20.203c1.158-0.59,2.315-1.158,3.473-1.702c14.326-6.74,29.219-12.157,44.575-16.035       c3.887-0.982,7.806-1.916,11.744-2.67c0.477-0.091,0.953-0.182,1.43-0.272c15.472-3.095,31.306-4.563,47.08-4.563       c12.762,0,25.559,0.916,38.159,2.974c2.293,0.363,4.585,0.749,6.855,1.18c0.431,0.068,0.84,0.136,1.271,0.25       c17.582,3.318,34.855,8.696,51.26,15.831c9.859,4.288,19.431,9.237,28.622,14.814c13.849,8.404,27.149,18.318,39.089,29.374       l0.885,0.817c12.93,12.033,24.538,25.526,34.521,40.096c3.929,5.735,7.602,11.647,11.026,17.697       c3.411,6.026,6.954,12.264,9.523,18.706c0.045,0.114,0.091,0.204,0.136,0.318c0.113,0.25,0.227,0.477,0.318,0.727       c0.068,0.113,0.113,0.227,0.159,0.363c9.262,20.725,15.618,42.971,18.591,66.284c0.068,0.522,0.136,1.044,0.182,1.566       C497.242,236.183,497.889,245.822,497.997,255.471z"/>
				</g>
			</g>
			<g>
				<g>
					<path style="fill:#FFC17D;" d="M71.3,135.885c-23.109,32.575-42.404,67.737-57.408,104.738       c0.045-1.203,0.136-2.384,0.227-3.587c14.869-35.911,33.755-70.098,56.251-101.81c2.361-3.337,4.79-6.674,7.219-10.011       c14.278-19.681,28.988-39.998,34.822-63.22c0.477-0.34,0.953-0.681,1.43-1.022c-5.652,23.971-20.725,44.765-35.344,64.9       C76.067,129.211,73.66,132.548,71.3,135.885z"/>
				</g>
				<g>
					<path style="fill:#FFC17D;" d="M60.336,236.809c-7.105,25.492-14.46,51.869-23.132,77.226       c-2.588,7.559-5.493,15.686-9.148,23.699c-0.204-0.499-0.386-1.022-0.568-1.521c3.428-7.627,6.197-15.322,8.649-22.541       c8.649-25.333,16.004-51.688,23.109-77.158c13.802-49.554,28.057-100.788,52.71-146.779       c10.964-20.453,22.723-36.706,35.548-48.964c1.158-0.59,2.315-1.158,3.473-1.702c-13.779,12.44-26.355,29.419-38.023,51.211       C88.37,136.157,74.114,187.323,60.336,236.809z"/>
				</g>
				<g>
					<path style="fill:#FFC17D;" d="M216.603,45.357c-2.02,11.214-9.08,20.634-16.14,29.328       c-11.078,13.643-22.995,26.922-34.549,39.793c-18.069,20.135-36.774,40.974-52.483,63.537       C71.005,238.943,49.939,314.398,54.07,388.491c-0.431-0.613-0.84-1.226-1.226-1.839C49.144,312.9,70.301,237.99,112.5,177.358       c15.754-22.609,34.482-43.47,52.573-63.651c11.532-12.826,23.449-26.128,34.504-39.725c6.969-8.581,13.915-17.888,15.89-28.829       c1.566-8.672-1.158-19.25-8.172-24.789c0.477-0.091,0.953-0.182,1.43-0.272C215.536,26.039,218.169,36.64,216.603,45.357z"/>
				</g>
				<g>
					<path style="fill:#FFC17D;" d="M207.795,437.296c2.202,8.672,4.041,17.184,2.679,25.742       c-1.68,10.306-7.627,18.478-15.595,24.72c-0.477-0.113-0.931-0.227-1.407-0.34c8.104-6.152,14.21-14.279,15.867-24.561       c1.362-8.331-0.477-16.73-2.633-25.288c-4.563-18.047-10.805-38.84-22.587-56.364c-5.743-8.535-12.826-16.367-19.704-23.926       c-9.874-10.919-20.089-22.178-26.377-35.73c-11.781-25.356-9.239-57.908,6.969-89.348       c11.895-23.063,29.306-43.062,46.104-62.425c3.223-3.678,6.424-7.355,9.579-11.055c27.354-32.007,52.528-66.33,74.797-102.059       l2.383-3.814c7.105-11.418,14.324-23.063,22.95-33.165c0.431,0.068,0.84,0.136,1.248,0.227v0.023       c-8.74,10.169-16.049,21.951-23.245,33.528l-2.361,3.814c-22.314,35.752-47.511,70.143-74.91,102.173       c-3.178,3.723-6.379,7.4-9.579,11.078c-16.776,19.295-34.118,39.249-45.945,62.198c-16.049,31.122-18.591,63.311-6.969,88.349       c6.22,13.393,16.389,24.607,26.219,35.435c6.878,7.605,13.983,15.459,19.772,24.062       C196.945,398.252,203.232,419.159,207.795,437.296z"/>
				</g>
				<g>
					<path style="fill:#FFC17D;" d="M365.198,220.306c-18.41,17.434-15.799,46.626-13.484,72.391l0.136,1.657       c2.043,22.904,2.747,52.369-10.056,76.953c-11.35,21.815-37.977,41.087-64.877,33.868       c-20.385-5.493-36.661-26.559-39.544-51.234c-2.928-25.061,6.583-49.69,14.006-66.012       c21.02-46.308,54.276-89.688,98.882-128.891c4.177-3.7,8.535-7.377,12.712-10.964c19.25-16.39,39.158-33.324,51.938-55.275       c2.361-4.041,4.426-8.354,6.152-12.848l0.885,0.817c-1.702,4.404-3.745,8.649-6.061,12.599       c-12.871,22.11-32.847,39.135-52.165,55.57c-4.199,3.587-8.535,7.264-12.712,10.941       c-44.469,39.112-77.657,82.356-98.609,128.528c-7.355,16.208-16.798,40.61-13.893,65.421       c2.838,24.221,18.75,44.878,38.704,50.235c26.377,7.105,52.437-11.849,63.583-33.278c12.667-24.335,11.963-53.572,9.92-76.318       l-0.136-1.657c-2.338-26.014-4.971-55.502,13.847-73.321c9.943-9.42,23.562-12.871,36.706-16.208       c8.49-2.156,17.252-4.381,25.061-8.172c10.033-4.88,18.75-12.508,27.172-19.885c7.468-6.515,15.073-13.166,23.653-17.956       c0.045,0.114,0.091,0.204,0.136,0.318c0.113,0.25,0.227,0.477,0.318,0.727c-8.445,4.744-15.981,11.327-23.358,17.774       c-8.49,7.423-17.252,15.096-27.422,20.044c-7.922,3.836-16.73,6.084-25.288,8.24       C387.807,207.821,374.936,211.09,365.198,220.306z"/>
				</g>
				<g>
					<path style="fill:#FFC17D;" d="M404.196,337.053c-4.563,15.504-2.52,29.51,5.448,37.478c7.173,7.151,19.363,9.466,31.054,5.902       c10.669-3.246,19.84-10.488,28.171-17.82c2.315-2.043,4.608-4.132,6.878-6.242c-0.454,0.931-0.885,1.861-1.339,2.792       c-1.566,1.453-3.178,2.883-4.79,4.313c-8.422,7.423-17.706,14.732-28.579,18.047c-12.099,3.677-24.743,1.248-32.189-6.197       c-8.285-8.263-10.419-22.7-5.743-38.59c8.966-30.486,33.255-52.937,56.75-74.638c12.735-11.781,25.719-23.767,36.366-37.137       c0.068,0.522,0.136,1.044,0.182,1.566c-10.555,13.098-23.29,24.834-35.775,36.388       C437.247,284.525,413.072,306.862,404.196,337.053z"/>
				</g>
			</g>
		</g>
		<g>
			<g>
				<g>
					<g>
						<path style="fill:#FFB9C2;" d="M307.471,355.213c-0.204-0.182-0.431-0.363-0.613-0.545c-0.522-0.454-0.999-0.931-1.453-1.407        c-5.432-5.705-8.372-13.767-10.123-21.312c-1.844-7.945-2.777-16.408-2.521-24.564c0,0-82.931,4.646-83.465,4.676        c0.363-0.014,0.625,7.978,0.66,8.87c0.237,6.196,0.172,12.433-0.738,18.577c-0.533,3.603-1.345,7.192-2.581,10.622        c-0.908,2.52-2.02,4.903-3.405,7.06l10.168,53.604l47.392-5.511l31.411,14.879l26.084-53.454L307.471,355.213z"/>
					</g>
					<g>
						<g>
							<path style="fill:#331510;" d="M296.013,334.841c0,0-22.951,13.914-36.197,15.868c-17.504,2.614-35.84-1.578-50.633-10.995         c1.369-7.767,0.067-16.068-0.66-23.898c-0.028-0.3,0.908-3.769,0.779-3.769c0,0,83.369-4.654,83.373-4.654         c-0.437,0.025,0.482,10.274,0.552,11.119C293.225,318.513,294.186,326.554,296.013,334.841z"/>
						</g>
					</g>
				</g>
				<g>
					<g>
						<g>
							<path style="fill:#FFB9C2;" d="M130.75,202.844c-7.69-0.759-15.665,2.293-20.884,7.992         c-5.982,6.532-8.097,16.08-6.541,24.799c1.557,8.72,6.49,16.605,12.871,22.748c3.051,2.937,6.481,5.543,10.374,7.21         c6.173,2.643,13.088,2.774,19.803,2.853c5.744,0.067,12.231-0.18,16.095-4.431c3.227-3.551,3.561-8.843,3.11-13.619         C163.92,232.856,150.974,204.84,130.75,202.844z"/>
						</g>
						<g>
							<path style="fill:#FFB9C2;" d="M357.617,192.441c7.3-2.536,15.767-1.433,22.174,2.888         c7.344,4.953,11.632,13.741,12.157,22.583c0.525,8.842-2.428,17.662-7.196,25.126c-2.279,3.568-5.005,6.905-8.4,9.435         c-5.384,4.013-12.077,5.757-18.587,7.404c-5.569,1.408-11.934,2.684-16.684-0.546c-3.968-2.698-5.53-7.765-6.208-12.515         C332.382,229.377,338.419,199.11,357.617,192.441z"/>
						</g>
					</g>
					<g>
						<g>
							<path style="fill:#331510;" d="M344.666,251.007c-0.023,0-0.046,0-0.07-0.002c-0.464-0.039-0.807-0.445-0.767-0.906         c1.914-22.73,16.331-42.573,38.568-53.079c0.422-0.19,0.922-0.019,1.119,0.401c0.197,0.42,0.019,0.92-0.401,1.119         c-21.69,10.244-35.749,29.572-37.613,51.698C345.466,250.675,345.1,251.007,344.666,251.007z"/>
						</g>
						<g>
							<path style="fill:#331510;" d="M148.565,252.84c-0.357,0-0.688-0.227-0.802-0.586c-5.896-18.714-18.811-33.767-36.361-42.385         c-0.415-0.204-0.586-0.707-0.382-1.124c0.204-0.415,0.707-0.582,1.124-0.382c17.965,8.821,31.185,24.23,37.223,43.386         c0.139,0.443-0.107,0.913-0.549,1.055C148.734,252.828,148.649,252.84,148.565,252.84z"/>
						</g>
					</g>
					<g>
						<g>
							<path style="fill:#FFB9C2;" d="M359.464,178.347l-0.571,3.272l-0.309,1.507l-6.921,38.235l-3.758,20.812l-0.143,0.777         c-0.166,1.318-0.381,2.708-0.618,4.144c-1.95,11.819-5.47,27.099-7.753,37.081c-0.024,0.047-0.024,0.094-0.048,0.141         c-4.447,19.094-22.807,31.525-45.971,38.635c-0.809,0.259-1.641,0.495-2.474,0.683c-19.621,5.674-42.404,7.628-63.119,6.686         c-4.78-0.211-9.442-0.565-13.937-1.082c-0.024,0-0.024,0-0.024,0c-20.453-2.308-37.291-7.605-44.474-14.95         c-5.375-5.485-9.917-15.374-13.746-27.499c-2.164-6.828-4.091-14.362-5.827-22.154v-0.023l-0.666-3.084         c-0.167,0.047-0.286,0.094-0.452,0.141l-0.785-5.51l-2.235-15.703l-6.136-42.967c0-0.118-0.024-0.259-0.048-0.377         c-0.166-1.743-0.333-3.414-0.475-5.015c-1.023-10.171-1.451-16.645-1.451-16.645l0.357-0.047         c-0.571-3.649-0.975-7.369-1.189-11.159c-2.616-45.604,22.926-86.358,61.692-105.687c1.379-0.707,2.783-1.366,4.233-2.001         v-0.024c12.272-5.462,25.733-8.876,39.979-9.653c14.936-0.848,29.348,1.248,42.69,5.744c0.571,0.212,1.141,0.4,1.713,0.636         c38.86,13.844,68.113,48.358,73.464,90.831l0.285-0.047c0,0,0,0.683-0.047,2.001c0.238,1.884,0.38,3.767,0.499,5.626         C361.724,160.831,361.081,169.73,359.464,178.347z"/>
						</g>
					</g>
				</g>
				<g>
					<path style="fill:#331510;" d="M361.576,190.15c-6.225,1.984-12.037,5.511-16.524,10.26       c1.594-10.934,3.188-21.868,4.782-32.801c0.525-3.599,0.936-7.658-1.319-10.513c-1.289-1.631-3.25-2.573-4.774-3.986       c-5.628-5.218-3.64-14.311-2.174-21.845c1.603-8.238,2.021-16.808,0.187-24.998c-0.842-3.758-2.225-7.53-4.899-10.302       c-3.737-3.874-9.496-5.214-14.867-4.85c-5.37,0.364-10.509,2.216-15.623,3.895c-26.127,8.576-54.298,13-81.214,7.372       c-10.062-2.104-19.833-5.583-30.008-7.047c-10.175-1.464-21.19-0.687-29.707,5.069c-7.159,4.837-11.922,13.057-12.559,21.673       c-0.402,5.431,0.744,10.848,0.975,16.288c0.23,5.44-0.636,11.308-4.337,15.303c-1.64,1.77-3.763,3.087-5.164,5.051       c-3.144,4.406-1.758,10.433-0.571,15.714c2.939,13.085,2.621,26.328,1.408,39.684c-3.022-4.555-7.41-8.191-12.447-10.314       c-1.842-18.139-2.817-36.419-2.585-54.65c0.235-18.488,1.711-37.599,10.345-53.949c13.602-25.757,42.399-39.821,70.678-46.798       c22.157-5.466,45.424-7.619,67.855-3.416c22.431,4.203,44.006,15.133,58.631,32.652c5.72,6.852,10.303,14.579,14.424,22.495       c7.344,14.104,13.373,29.224,14.551,45.082C367.764,160.357,365.395,175.46,361.576,190.15z"/>
				</g>
				<g>
					<g>
						<g>
							<path style="fill:#331510;" d="M247.309,253.95c-0.162,0-0.327-0.009-0.496-0.028c-1.214-0.127-2.211-0.723-3.178-1.298         c-0.304-0.183-0.61-0.364-0.918-0.528c-2.241-1.18-4.997-1.372-7.375-0.51l-0.413,0.155         c-0.978,0.369-2.195,0.837-3.393,0.352c-1.884-0.763-2.387-3.194-1.912-5.203l0.929-3.875         c3.82-15.888,6.58-27.366,2.765-44.747c-0.1-0.454,0.188-0.902,0.64-1.001c0.459-0.111,0.902,0.19,1.001,0.64         c3.896,17.761,1.099,29.396-2.774,45.5l-0.925,3.871c-0.308,1.298-0.053,2.872,0.904,3.259         c0.582,0.236,1.349-0.056,2.167-0.366l0.44-0.165c2.811-1.02,6.075-0.793,8.729,0.605c0.336,0.178,0.665,0.375,0.994,0.572         c0.848,0.505,1.648,0.98,2.494,1.071c1.444,0.125,2.779-0.853,4.167-1.921c1.217-0.934,2.475-1.901,4.012-2.267         c1.356-0.318,2.691-0.114,3.987,0.086l0.807,0.118c1.743,0.236,2.913,0.051,3.694-0.575c0.431-0.348,0.693-1.008,0.635-1.606         c-0.025-0.271-0.127-0.628-0.468-0.807c-0.41-0.216-0.57-0.721-0.355-1.133c0.216-0.413,0.723-0.568,1.133-0.355         c0.772,0.403,1.268,1.18,1.361,2.13c0.116,1.168-0.378,2.376-1.256,3.083c-1.532,1.219-3.574,1.117-4.969,0.927l-0.837-0.123         c-1.189-0.183-2.308-0.357-3.342-0.109c-1.189,0.28-2.251,1.099-3.377,1.963C250.718,252.789,249.209,253.95,247.309,253.95z         "/>
						</g>
						<g>
							<g>
								<g>
									<g>
										<g>
											<path style="fill:#331510;" d="M207.023,210.87c-0.259,6.167-5.421,10.959-11.529,10.702             c-6.108-0.257-10.85-5.464-10.591-11.631c0.259-6.167,5.421-10.958,11.529-10.702             C202.54,199.496,207.282,204.703,207.023,210.87z"/>
										</g>
										<g>
											<path style="fill:#331510;" d="M305.411,207.117c-0.259,6.167-5.421,10.959-11.529,10.702             c-6.108-0.256-10.85-5.464-10.591-11.631c0.259-6.167,5.421-10.958,11.529-10.702             C300.928,195.742,305.67,200.95,305.411,207.117z"/>
										</g>
									</g>
								</g>
							</g>
						</g>
					</g>
					<g>
						<path style="fill:#331510;" d="M173.705,173.203c0.284,2.236,1.666,4.402,3.842,5.486c1.891,0.942,4.151,1.008,6.308,0.942        c5.288-0.161,10.551-0.981,15.596-2.429c3.013-0.865,6.017-1.992,8.355-3.921c9.885-8.154-3.491-17.972-13.144-17.435        C186.208,156.317,172.618,164.639,173.705,173.203z"/>
					</g>
					<g>
						<path style="fill:#331510;" d="M315.075,170.14c-0.284,2.236-1.666,4.402-3.842,5.486c-1.891,0.942-4.151,1.008-6.307,0.942        c-5.288-0.161-10.551-0.981-15.596-2.429c-3.014-0.865-6.017-1.992-8.355-3.921c-9.885-8.154,3.491-17.972,13.144-17.435        C302.571,153.253,316.161,161.576,315.075,170.14z"/>
					</g>
					<g>
						<path style="fill:#331510;" d="M248.421,271.391c-1.78,0-3.569-0.234-5.322-0.723c-3.961-1.103-7.125-3.368-8.905-6.376        c-0.248-0.417-0.109-0.957,0.308-1.203c0.417-0.246,0.953-0.114,1.203,0.308c1.548,2.617,4.341,4.598,7.866,5.579        c8.152,2.269,17.186-1.469,21.938-9.106c0.257-0.415,0.802-0.538,1.21-0.283c0.413,0.257,0.538,0.797,0.283,1.21        C262.856,267.463,255.699,271.391,248.421,271.391z"/>
					</g>
				</g>
			</g>
			<g>
				<path style="fill:#FADED3;" d="M328.242,484.535c-22.859,7.06-47.194,10.896-72.436,10.896c-19.613,0-38.704-2.315-56.954-6.697      l-17.32-34.752l16.14-90.552c0.545-0.409,1.021-0.817,1.43-1.202c0.52-0.491,1.01-1,1.499-1.521      c0.386-0.409,0.704-0.817,1.067-1.248c0.567-0.726,1.09-1.476,1.566-2.27c1.589,0.522,3.201,1.18,4.812,1.952      c28.42,13.779,59.656,18.092,88.621,2.497c3.677-1.975,7.241-4.222,10.805-6.424c0.045,0.023,0.068,0.068,0.114,0.091      c0.272,0.204,0.522,0.431,0.794,0.635c0.843,0.631,1.759,1.142,2.633,1.725c0.136,0.091,0.272,0.159,0.408,0.25      c0.295,0.159,0.568,0.341,0.885,0.5c0.635,0.341,1.362,0.726,2.111,1.135l28.087,71.194L328.242,484.535z"/>
			</g>
			<g>
				<path style="fill:#D3542B;" d="M170.035,379.443c-7.782,4.192-15.852,7.826-23.815,11.662      c-7.963,3.836-15.926,7.672-23.819,11.652c-7.852,3.96-15.635,8.065-23.259,12.449c-1.372,0.789-15.009,9.636-14.926,9.718      c13.477,13.381,28.54,25.179,44.765,35.049c21.315,12.985,44.833,22.813,69.871,28.761c-1.385-21.361-1.998-42.767-1.839-64.196      c0.136-19,1.044-37.954,2.202-56.909c0.113-1.997,0.091-3.791-0.113-5.403C199.101,362.227,178.048,375.127,170.035,379.443z"/>
			</g>
			<g>
				<path style="fill:#D3542B;" d="M438.246,413.393c-18.553,20.996-40.728,38.711-65.298,52.179      c-7.137,3.912-14.471,7.465-21.966,10.64c-1.912,0.81-22.757,8.219-22.741,8.323c-1.725-11.6-3.405-23.222-5.062-34.822      c-3.246-22.768-6.379-45.582-9.398-68.395c-0.953-7.128-2.792-15.595-2.361-23.404c0.295,0.159,0.568,0.341,0.885,0.5      c0.635,0.341,1.362,0.726,2.111,1.135c9.813,5.353,20.367,9.204,30.926,12.793c26.057,8.855,53.193,16.849,77.702,29.552      C424.143,402.463,440.147,411.243,438.246,413.393z"/>
			</g>
		</g>
	</g>
</g>















</svg>
