<?xml version="1.0" encoding="iso-8859-1"?>
<!-- Generator: Adobe Illustrator 25.0.0, SVG Export Plug-In . SVG Version: 6.00 Build 0)  -->
<svg version="1.1" id="Object" xmlns="http://www.w3.org/2000/svg" xmlns:xlink="http://www.w3.org/1999/xlink" x="0px" y="0px"
	 width="500px" height="500px" viewBox="0 0 500 500" enable-background="new 0 0 500 500" xml:space="preserve">
<g>
	<defs>
		<circle id="SVGID_23_" cx="250" cy="258.147" r="186.175"/>
	</defs>
	<clipPath id="SVGID_2_">
		<use xlink:href="#SVGID_23_"  overflow="visible"/>
	</clipPath>
	<circle clip-path="url(#SVGID_2_)" fill="#F2DDE7" cx="250" cy="270.247" r="187.36"/>
	<g clip-path="url(#SVGID_2_)">
		<path fill="#BC5C83" d="M242.1,153.383c0,0,47.416-15.743,74.688,24.917s23.801,114.542,21.57,131.897
			c-2.231,17.355-3.719,19.715-3.719,19.715h-21.623l-1.035-17.08l-3.964,15.712H193.01l-4.991-28.264l-7.654,28.264h-17.293
			c0,0,4.962-110.823,23.307-145.037S230.881,149.788,242.1,153.383z"/>
		<g>
			<g>
				<path fill="#FFC9C0" d="M383.447,444.322H116.553c0,0,4.96-50.684,23.8-66.316c4.508-3.738,10.822-7.048,17.916-10.026
					c11.026-4.633,23.932-8.474,34.798-11.903c8.55-2.701,15.84-5.148,19.948-7.539c1.355-0.784,2.359-1.568,2.957-2.344
					c6.205-8.093,5.207-41.521,5.207-41.521l28.825,3.643l28.818-3.643c0,0-0.998,33.427,5.207,41.521
					c0.532,0.697,1.391,1.394,2.534,2.099c4.02,2.463,11.522,4.989,20.377,7.793c10.866,3.429,23.771,7.262,34.798,11.895
					c7.086,2.978,13.407,6.288,17.908,10.026C378.488,393.638,383.447,444.322,383.447,444.322z"/>
				<path fill="#FFAA9F" d="M286.563,348.292c-9.191,12.275-22.307,19.949-36.866,19.949c-14.456,0-27.5-7.571-36.683-19.703
					c1.355-0.784,2.359-1.568,2.957-2.344c2.971-3.872,4.289-13.55,4.858-22.586c0.619-9.852,0.35-18.935,0.35-18.935l28.825,3.643
					l28.818-3.643c0,0-0.247,8.387,0.284,17.779c0.524,9.353,1.828,19.703,4.923,23.742
					C284.561,346.89,285.42,347.587,286.563,348.292z"/>
				<path fill="#E27169" d="M279.106,322.451c-8.921,4.094-19.343,6.438-30.479,6.438c-10.036,0-19.496-1.909-27.799-5.282
					c0.619-9.852,0.35-18.935,0.35-18.935l28.825,3.643l28.818-3.643C278.822,304.673,278.574,313.059,279.106,322.451z"/>
			</g>
			<path fill="#35356D" d="M277.099,339.872h-54.803c-2.362,0-4.277-1.915-4.277-4.277v-6.958c0-2.362,1.915-4.277,4.277-4.277
				h54.803c2.362,0,4.277,1.915,4.277,4.277v6.958C281.375,337.958,279.461,339.872,277.099,339.872z"/>
			<path fill="#BF9FA7" d="M349.072,444.322H150.935c1.172-2.693,2.629-5.504,4.421-8.149c6.693-9.907,9.301-13.542,8.739-25.674
				c-0.357-7.824-3.583-28.692-5.826-42.519c11.026-4.633,23.932-8.474,34.798-11.903c1.333,12.782,6.118,36.429,23.283,41.679
				c23.8,7.278,33.654,5.258,33.654,5.258s9.854,2.019,33.654-5.258c17.158-5.25,21.95-28.89,23.283-41.671
				c10.866,3.429,23.771,7.262,34.798,11.895c-2.243,13.827-5.47,34.694-5.826,42.519c-0.561,12.132,2.047,15.767,8.739,25.674
				C346.443,438.818,347.9,441.629,349.072,444.322z"/>
			<g>
				<path fill="#E27169" d="M154.387,404.171c3.839,4.516,6.925,9.673,9.14,15.17c0.217,0.538,0.709,0.904,1.313,0.745
					c0.509-0.134,0.96-0.779,0.745-1.313c-2.362-5.861-5.594-11.295-9.689-16.112C155.006,401.614,153.502,403.13,154.387,404.171
					L154.387,404.171z"/>
				<path fill="#E27169" d="M344.918,409.381c-2.797,4.933-5.264,10.039-7.427,15.281c-0.221,0.537,0.24,1.168,0.745,1.313
					c0.61,0.175,1.094-0.215,1.313-0.745c2.091-5.069,4.507-10.001,7.212-14.771C347.439,409.262,345.596,408.185,344.918,409.381
					L344.918,409.381z"/>
				<path fill="#E27169" d="M205.718,361.987c6.09-0.157,12.181-0.315,18.271-0.472c1.523-0.039,3.045-0.079,4.568-0.118
					c1.439-0.037,2.946-0.209,4.381-0.091c2.066,0.17,2.812,2.854,4.257,4.035c1.055,0.863,2.573-0.639,1.509-1.509
					c-1.692-1.384-2.333-3.858-4.631-4.497c-1.294-0.36-2.79-0.143-4.111-0.109c-1.64,0.042-3.279,0.085-4.919,0.127
					c-6.442,0.166-12.884,0.333-19.326,0.499C204.347,359.888,204.341,362.022,205.718,361.987L205.718,361.987z"/>
				<path fill="#E27169" d="M261.672,363.771c-0.072-3.932,5.351-3.606,7.976-3.71c3.977-0.158,7.953-0.316,11.93-0.474
					c1.369-0.054,1.376-2.189,0-2.134c-4.678,0.186-9.357,0.366-14.035,0.558c-1.888,0.078-3.947,0.191-5.557,1.299
					c-1.486,1.022-2.481,2.629-2.448,4.462C259.563,365.143,261.697,365.147,261.672,363.771L261.672,363.771z"/>
			</g>
		</g>
		<g>
			<g>
				
					<ellipse transform="matrix(0.9793 -0.2025 0.2025 0.9793 -49.6324 42.4861)" fill="#FFAA9F" cx="182.843" cy="263.832" rx="17.03" ry="20.705"/>
				<g>
					<g>
						<path fill="#E27169" d="M176.495,253.95c3.914,0.716,6.353,4.095,7.515,7.684c1.334,4.122,1.577,8.571,1.028,12.85
							c-0.174,1.358,1.962,1.346,2.134,0c0.605-4.724,0.274-9.813-1.412-14.299c-1.469-3.907-4.397-7.507-8.697-8.293
							C175.72,251.646,175.144,253.703,176.495,253.95L176.495,253.95z"/>
						<path fill="#E27169" d="M185.306,262.293c-1.039-0.049-2.178-0.462-3.294-0.508c-1.307-0.055-2.419,0.499-3.346,1.388
							c-1.61,1.544-2.56,3.826-2.038,6.048c0.132,0.561,0.772,0.894,1.313,0.745c0.574-0.158,0.878-0.75,0.745-1.313
							c-0.333-1.415,0.406-2.971,1.575-4.053c0.672-0.622,1.288-0.777,2.196-0.644c0.845,0.124,1.899,0.425,2.849,0.47
							c0.576,0.027,1.067-0.51,1.067-1.067C186.373,262.76,185.884,262.321,185.306,262.293L185.306,262.293z"/>
					</g>
				</g>
			</g>
			<g>
				
					<ellipse transform="matrix(0.2025 -0.9793 0.9793 0.2025 -5.9094 520.4071)" fill="#FFAA9F" cx="316.552" cy="263.832" rx="20.705" ry="17.03"/>
				<g>
					<g>
						<path fill="#E27169" d="M322.332,251.892c-4.305,0.787-7.223,4.386-8.697,8.293c-1.691,4.481-2.017,9.58-1.412,14.299
							c0.172,1.344,2.308,1.361,2.134,0c-0.548-4.279-0.306-8.729,1.028-12.85c1.162-3.589,3.6-6.968,7.515-7.684
							C324.249,253.703,323.677,251.646,322.332,251.892L322.332,251.892z"/>
						<path fill="#E27169" d="M314.089,264.427c0.95-0.045,2.004-0.348,2.849-0.47c0.909-0.132,1.522,0.022,2.196,0.644
							c0.307,0.283,0.583,0.589,0.775,0.863c0.114,0.164,0.221,0.333,0.32,0.507c0.059,0.104,0.115,0.21,0.167,0.317
							c0.012,0.024,0.133,0.301,0.084,0.18c0.073,0.182,0.134,0.37,0.185,0.559c0.03,0.114,0.053,0.228,0.08,0.342
							c0.007,0.038,0.014,0.077,0.021,0.115c-0.007-0.072-0.006-0.071,0.001,0.005c0.025,0.211,0.03,0.426,0.021,0.638
							c0-0.005-0.029,0.337-0.008,0.18c-0.016,0.117-0.044,0.232-0.071,0.346c-0.132,0.561,0.175,1.156,0.745,1.313
							c0.541,0.149,1.18-0.182,1.313-0.745c0.522-2.219-0.426-4.508-2.038-6.048c-0.913-0.872-1.998-1.425-3.283-1.391
							c-1.136,0.031-2.302,0.461-3.357,0.511c-0.576,0.027-1.067,0.471-1.067,1.067C313.022,263.917,313.51,264.455,314.089,264.427
							L314.089,264.427z"/>
					</g>
				</g>
			</g>
		</g>
		<g>
			<path fill="#FFC9C0" d="M311.981,234.226v21.179c0,34.229-27.748,61.984-61.977,61.984s-61.984-27.755-61.984-61.984v-21.179
				c6.795-0.146,16.729-2.156,23.866-11.303c11.9-15.243,10.786-35.329,47.04-34.768
				C258.925,188.154,247.542,233.65,311.981,234.226z"/>
			<g>
				<ellipse fill="#35356D" cx="220.519" cy="247.773" rx="4.241" ry="6.691"/>
				<ellipse fill="#35356D" cx="275.865" cy="247.773" rx="4.241" ry="6.691"/>
			</g>
			<path fill="#E27169" d="M247.13,248.219c0.373,1.365,0.771,2.759,0.688,4.189c-0.076,1.32-0.576,2.591-1.141,3.771
				c-1.186,2.478-2.671,4.809-4.383,6.955c-1.434,1.797-3.08,4.024-2.063,6.424c0.489,1.154,1.464,2.096,2.339,2.968
				c0.952,0.949,1.976,1.809,3.041,2.626c1.089,0.835,2.153-1.018,1.077-1.843c-1.001-0.768-1.946-1.613-2.829-2.514
				c-0.787-0.802-1.938-1.778-1.809-3.019c0.112-1.084,0.922-2.082,1.572-2.906c0.778-0.987,1.549-1.973,2.253-3.015
				c1.39-2.058,2.69-4.296,3.511-6.649c0.894-2.564,0.501-5.002-0.196-7.555C248.827,246.328,246.767,246.89,247.13,248.219
				L247.13,248.219z"/>
			<g>
				<path fill="#BC4A55" d="M263.471,284.783c-0.304,3.734-1.825,7.125-4.174,9.772c-3.08,3.495-7.597,5.695-12.619,5.695
					c-4.905,0-9.319-2.097-12.399-5.442c-2.472-2.679-4.083-6.167-4.401-10.024c-0.065-0.751,0.544-1.391,1.294-1.391h31.004
					c0.149,0,0.291,0.026,0.427,0.078C263.141,283.65,263.523,284.181,263.471,284.783z"/>
				<path fill="#FFFFFF" d="M262.604,283.469c-3.715,2.563-9.293,4.193-15.538,4.193c-6.303,0-11.933-1.663-15.641-4.271h30.752
					C262.326,283.391,262.468,283.417,262.604,283.469z"/>
				<path fill="#E27169" d="M259.297,294.554c-3.08,3.495-7.597,5.695-12.619,5.695c-4.905,0-9.319-2.097-12.399-5.442
					c3.488-1.644,7.94-2.627,12.787-2.627C251.661,292.179,255.9,293.059,259.297,294.554z"/>
			</g>
			<g>
				<path fill="#35356D" d="M209.14,226.657c-0.418,0.115-0.768-0.332-0.553-0.709c0.891-1.561,3.26-4.354,8.796-4.354
					c7.683,0,11.979,4.378,10.822,6.113c-1.157,1.735-4.172-2.52-10.409-2.272C213.541,225.605,210.588,226.259,209.14,226.657z"/>
				<path fill="#35356D" d="M265.576,226.657c-0.418,0.115-0.768-0.332-0.553-0.709c0.891-1.561,3.26-4.354,8.796-4.354
					c7.683,0,11.979,4.378,10.822,6.113s-4.172-2.52-10.409-2.272C269.977,225.605,267.023,226.259,265.576,226.657z"/>
			</g>
			<g>
				<g>
					<ellipse fill="#FFAA9F" cx="213.474" cy="267.932" rx="12.888" ry="9.5"/>
					<ellipse fill="#FFAA9F" cx="280.556" cy="267.932" rx="12.888" ry="9.5"/>
				</g>
			</g>
			<g>
				<path fill="#FFFFFF" d="M220.204,271.166c-12.899,0-23.394-10.494-23.394-23.393c0-12.899,10.495-23.394,23.394-23.394
					s23.394,10.494,23.394,23.394C243.597,260.672,233.103,271.166,220.204,271.166z M220.204,226.513
					c-11.723,0-21.259,9.537-21.259,21.259s9.537,21.259,21.259,21.259c11.723,0,21.259-9.537,21.259-21.259
					S231.927,226.513,220.204,226.513z"/>
				<path fill="#FFFFFF" d="M277.315,271.166c-12.899,0-23.394-10.494-23.394-23.393c0-12.899,10.495-23.394,23.394-23.394
					s23.394,10.494,23.394,23.394C300.708,260.672,290.214,271.166,277.315,271.166z M277.315,226.513
					c-11.723,0-21.259,9.537-21.259,21.259s9.537,21.259,21.259,21.259s21.259-9.537,21.259-21.259S289.038,226.513,277.315,226.513
					z"/>
				<path fill="#FFFFFF" d="M186.551,243.687c-0.475,0-0.909-0.32-1.032-0.801c-0.147-0.571,0.196-1.152,0.767-1.3l13.005-3.353
					c0.568-0.148,1.152,0.196,1.299,0.767c0.147,0.571-0.196,1.152-0.767,1.3l-13.005,3.353
					C186.729,243.676,186.639,243.687,186.551,243.687z"/>
				<path fill="#FFFFFF" d="M311.24,243.687c-0.088,0-0.178-0.011-0.267-0.034l-13.005-3.353c-0.571-0.147-0.914-0.729-0.767-1.3
					c0.147-0.571,0.731-0.914,1.299-0.767l13.005,3.353c0.571,0.147,0.914,0.729,0.767,1.3
					C312.149,243.367,311.716,243.687,311.24,243.687z"/>
				<path fill="#FFFFFF" d="M255.529,243.935c-0.155,0-0.311-0.034-0.461-0.105c-7.223-3.46-12.44-0.106-12.492-0.072
					c-0.493,0.324-1.154,0.19-1.478-0.302c-0.325-0.492-0.19-1.154,0.301-1.479c0.253-0.167,6.29-4.048,14.591-0.072
					c0.531,0.255,0.756,0.892,0.501,1.423C256.309,243.711,255.927,243.935,255.529,243.935z"/>
			</g>
		</g>
	</g>
</g>
</svg>
