<?xml version="1.0" encoding="UTF-8"?>
<!-- Generator: Adobe Illustrator 25.2.3, SVG Export Plug-In . SVG Version: 6.00 Build 0)  -->
<svg xmlns="http://www.w3.org/2000/svg" xmlns:xlink="http://www.w3.org/1999/xlink" version="1.1" id="Capa_1" x="0px" y="0px" viewBox="0 0 511.672 511.672" style="enable-background:new 0 0 511.672 511.672;" xml:space="preserve" width="512" height="512">
<g>
	<g>
		<path style="fill:#FFFFFF;" d="M255.756,509.085c-36.034-0.011-72.072-7.567-104.986-22.257    C82.071,456.167,28.868,395.134,8.822,322.529c-24.676-89.377,3.598-185.67,70-249.69c16.295-15.711,34.667-29.267,54.561-40.075    c67.96-36.924,152.692-39.657,223.775-9.879c18.707,7.837,36.487,17.909,52.709,30.092    c60.391,45.354,98.024,118.859,101.56,194.097c2.91,61.91-20.15,125.167-60.257,172.187c-9.566,11.214-20.094,21.609-31.45,31.006    c-41.918,34.686-94.895,55.289-149.186,58.4C265.612,508.947,260.684,509.087,255.756,509.085z"/>
	</g>
	<g>
		<g>
			<g>
				<path style="fill:#7EA8C5;" d="M445.083,407.171c10.542-12.683,19.763-26.445,27.478-41.124      c15.94-30.206,25.532-64.174,27.061-100.23c0.023-0.413,0.046-0.849,0.046-1.262c0.139-2.982,0.185-5.986,0.185-9.014      c0-34.358-7.298-67.018-20.482-96.537c-0.139-0.367-0.301-0.711-0.486-1.078c-13.994-30.964-34.429-58.44-59.636-80.757      c-0.301-0.298-0.626-0.573-0.95-0.826c-22.868-20.069-49.604-35.894-78.96-46.215c-0.347-0.16-0.718-0.275-1.089-0.39      C313.184,21,286.238,16.275,258.157,16.275c-7.089,0-14.11,0.298-21.037,0.918c-0.649,0.023-1.274,0.092-1.923,0.161      c-64.409,5.986-121.474,37.018-161.115,83.165c-0.325,0.321-0.603,0.665-0.857,0.986      c-24.721,29.036-42.584,63.991-51.111,102.408c-0.185,0.78-0.348,1.537-0.51,2.316c-3.382,15.917-5.143,32.408-5.143,49.312      c0,50.803,15.987,97.868,43.233,136.583c2.711,3.876,5.561,7.661,8.526,11.376l95.087,40.985l72.045-18.647l108.973,20.488      l74.925-35.945L445.083,407.171z"/>
			</g>
			<g>
				<g>
					<path style="fill:#FADED3;" d="M88.398,103.925c-5.097-0.367-10.171-1.33-15.176-2.431c0.255-0.321,0.533-0.665,0.857-0.986       c4.773,1.032,9.592,1.926,14.411,2.294c25.648,1.927,50.253-10.78,66.541-20.505c19.74-11.789,38.275-25.642,55.095-41.193       c3.823-3.532,7.622-7.202,11.306-10.78c4.495-4.335,9.036-8.739,13.762-12.982c0.649-0.069,1.274-0.138,1.923-0.16       c-5.12,4.518-10.032,9.266-14.874,13.968c-3.684,3.578-7.507,7.248-11.329,10.78c-16.89,15.619-35.495,29.518-55.281,41.353       C139.207,93.077,114.37,105.898,88.398,103.925z"/>
				</g>
				<g>
					<path style="fill:#FADED3;" d="M339.339,30.118c-4.078,13.716-16.774,24.954-25.347,31.262       c-38.437,28.234-85.284,43.28-130.602,57.821c-48.261,15.482-98.189,31.491-137.576,63.51c-8.758,7.11-16.844,15-24.211,23.509       c0.162-0.78,0.324-1.537,0.51-2.316c7.02-7.982,14.689-15.367,22.96-22.087c39.572-32.133,89.594-48.188,137.97-63.716       c45.226-14.495,91.98-29.519,130.255-57.638c8.457-6.216,20.991-17.317,24.953-30.734       C338.621,29.842,338.991,29.957,339.339,30.118z"/>
				</g>
				<g>
					<path style="fill:#FADED3;" d="M419.25,77.17c-0.718,2.385-1.46,4.77-2.155,7.11c-4.402,14.61-8.92,29.725-19.091,41.307       c-10.982,12.546-28.196,19.587-44.901,18.417c-11.237-0.803-21.917-5.046-32.228-9.128c-3.498-1.399-7.113-2.821-10.704-4.106       c-17.84-6.376-32.344-6.628-43.14-0.757c-10.588,5.757-18.164,18.142-20.759,33.945c-1.367,8.188-1.483,16.652-1.575,24.84       c-0.07,5.459-0.162,11.124-0.602,16.651c-1.066,13.509-5.723,38.395-24.791,53.418c-22.891,18.027-55.976,13.532-79.283,3.28       c-1.066-0.459-2.155-0.94-3.22-1.445c-7.461-3.348-15.152-6.835-23.122-5.986c-11.005,1.17-18.906,10.207-22.613,18.28       c-4.309,9.358-5.19,19.793-6.024,29.886l-6.626,80.275c-0.486,6.055-1.066,11.858-2.062,17.293       c-0.625,3.463-1.413,6.766-2.456,9.931c-0.301-0.344-0.602-0.688-0.903-1.032c0.857-2.706,1.552-5.527,2.085-8.44       c1.066-5.596,1.668-11.582,2.178-17.844l6.626-80.275c0.857-10.184,1.715-20.711,6.117-30.275       c3.846-8.349,12.071-17.729,23.563-18.945c8.271-0.872,16.126,2.683,23.702,6.101c1.089,0.482,2.155,0.963,3.221,1.445       c23.007,10.092,55.605,14.564,78.102-3.142c18.721-14.748,23.308-39.289,24.351-52.615c0.44-5.504,0.533-11.124,0.602-16.559       c0.116-8.234,0.208-16.743,1.576-25.023c2.687-16.147,10.472-28.83,21.361-34.771c11.098-6.032,25.926-5.803,44.09,0.688       c3.591,1.284,7.229,2.729,10.75,4.106c10.217,4.083,20.806,8.28,31.88,9.059c16.334,1.147,33.177-5.757,43.928-18.004       c10.009-11.422,14.504-26.399,18.86-40.895c0.765-2.523,1.529-5.069,2.317-7.615C418.624,76.597,418.949,76.872,419.25,77.17z"/>
				</g>
				<g>
					<path style="fill:#FADED3;" d="M499.667,264.545c0,0.413-0.023,0.849-0.046,1.262c-2.757,0.986-5.723,1.445-8.874,1.17       c-9.128-0.78-15.917-7.363-22.497-13.739c-5.978-5.78-12.14-11.743-19.995-13.395c-12.164-2.546-24.049,6.468-29.494,16.697       c-5.19,9.748-6.487,21.078-7.738,32.041l-0.394,3.463c-5.051,42.89-17.052,79.198-35.61,107.936       c-4.356,6.743-9.87,14.129-17.747,17.844c-10.125,4.77-23.771,2.661-33.919-5.275c-8.225-6.422-14.596-16.353-18.998-29.541       c-14.434-43.303-0.602-89.702,13.067-125.298c6.997-18.188,15.987-39.129,29.679-56.766       c14.527-18.647,33.108-31.445,52.384-36.032c12.025-2.867,24.605-2.706,36.792-2.569c5.584,0.069,11.353,0.138,17.006-0.069       c7.785-0.321,16.936-1.422,25.602-4.358c0.185,0.367,0.347,0.711,0.487,1.078c-7.53,2.546-16.241,4.037-26.042,4.426       c-5.676,0.207-11.469,0.138-17.052,0.069c-12.117-0.138-24.652-0.298-36.537,2.546c-18.998,4.518-37.371,17.179-51.713,35.62       c-13.623,17.5-22.566,38.372-29.517,56.468c-13.6,35.413-27.385,81.56-13.067,124.519       c4.332,12.982,10.588,22.729,18.605,28.991c9.824,7.684,22.983,9.748,32.714,5.161c7.622-3.601,13.021-10.826,17.284-17.408       c18.465-28.601,30.397-64.771,35.425-107.477l0.394-3.44c1.274-11.078,2.572-22.523,7.877-32.477       c5.653-10.596,18.026-19.931,30.745-17.271c8.202,1.72,14.481,7.821,20.574,13.693c6.719,6.514,13.067,12.683,21.779,13.417       C493.967,266.082,496.933,265.577,499.667,264.545z"/>
				</g>
			</g>
		</g>
		<g>
			<g>
				<g>
					<g>
						<g>
							<path style="fill:#FF8476;" d="M123.258,189.957c-11.536,3.648-19.459,15.711-19.043,27.692         c0.416,11.982,8.6,23.123,19.628,28.077c11.142,5.005,23.963,4.039,36.151,2.974c0.382-0.034-4.484-41.245-6.141-45.763         C149.748,191.745,134.163,186.508,123.258,189.957z"/>
						</g>
						<g>
							<path style="fill:#FF8476;" d="M377.711,185.038c11.56,3.573,19.564,15.583,19.228,27.567         c-0.336,11.984-8.446,23.179-19.44,28.205c-11.108,5.078-23.936,4.196-36.13,3.211c-0.382-0.031,4.209-41.273,5.835-45.802         C351.234,186.999,366.785,181.661,377.711,185.038z"/>
						</g>
					</g>
				</g>
				<g>
					<g>
						<path style="fill:#331510;" d="M347.075,230.712c-0.184,0-0.371-0.045-0.544-0.141c-0.548-0.301-0.748-0.989-0.447-1.536        c9.286-16.897,23.981-30.918,41.378-39.482c0.562-0.276,1.238-0.045,1.514,0.516c0.277,0.56,0.045,1.239-0.516,1.514        c-16.983,8.361-31.328,22.049-40.393,38.541C347.862,230.499,347.474,230.712,347.075,230.712z"/>
					</g>
					<g>
						<path style="fill:#331510;" d="M150.259,237.216c-0.412,0-0.808-0.226-1.008-0.617c-5.136-10.021-10.043-17.588-15.448-23.814        c-6.758-7.785-14.309-13.447-22.444-16.827c-0.577-0.24-0.851-0.902-0.611-1.479c0.24-0.579,0.903-0.853,1.479-0.611        c8.461,3.516,16.296,9.382,23.285,17.434c5.528,6.367,10.533,14.077,15.753,24.266c0.285,0.556,0.065,1.238-0.491,1.523        C150.608,237.175,150.432,237.216,150.259,237.216z"/>
					</g>
				</g>
			</g>
			<g>
				<g>
					<g>
						<path style="fill:#FF8476;" d="M302.239,336.835c-1.643-2.504-3.041-5.194-4.048-8.236c-0.209-0.633-0.405-1.27-0.589-1.91        c-1.615-5.637-2.466-11.584-3.03-17.413c-0.055-0.568-0.686-10.249-0.364-10.27c0,0-81.3,4.541-81.3,4.541        s0.023,0.092,0.046,0.298c0,0.138,0.046,0.298,0.046,0.505c0.046,0.298,0.093,0.711,0.162,1.17        c0.023,0.298,0.07,0.665,0.093,1.032c0.715,11.35,0.947,23.222-2.943,34.083l-15.835,27.624l28.895,17.337l73.258-5.269        c0,0,25.836-19.547,25.836-19.547c-3.393-3.892-6.785-7.785-10.178-11.677C308.712,344.997,305.103,341.2,302.239,336.835z"/>
					</g>
					<g>
						<g>
							<path style="fill:#331510;" d="M297.348,325.776c-10.241,8.005-22.324,13.528-35.229,15.432         c-17.052,2.546-34.915-1.537-49.327-10.711c0.888-5.036,0.704-10.161,0.651-15.262c-0.03-2.918-0.004-5.777-0.187-8.683         c-0.023-0.367-0.07-0.734-0.093-1.032c-0.069-0.459-0.116-0.872-0.162-1.17c0-0.207-0.046-0.367-0.046-0.505         c-0.023-0.206-0.046-0.298-0.046-0.298l81.3-4.541c0,0,0.128,4.666,0.753,11.272c0.407,4.295,0.795,8.735,1.787,12.96         C296.8,323.456,297.348,325.776,297.348,325.776z"/>
						</g>
					</g>
				</g>
				<g>
					<g>
						<path style="fill:#FF8476;" d="M359.197,173.295l-0.556,3.188l-0.301,1.468l-6.742,37.248l-3.661,20.275l-0.139,0.757        c-0.162,1.284-0.371,2.638-0.602,4.037c-1.9,11.514-5.329,26.399-7.553,36.124c-0.023,0.046-0.023,0.092-0.047,0.138        c-4.332,18.601-22.219,30.711-44.785,37.638c-0.788,0.252-1.599,0.482-2.41,0.665c-19.114,5.528-41.31,7.431-61.49,6.513        c-4.657-0.206-9.198-0.55-13.577-1.055c-0.023,0-0.023,0-0.023,0c-19.925-2.248-36.329-7.409-43.326-14.565        c-5.236-5.344-9.661-14.977-13.391-26.789c-2.109-6.651-3.985-13.991-5.676-21.582v-0.023l-0.649-3.005        c-0.162,0.046-0.278,0.092-0.44,0.138l-0.765-5.367l-2.178-15.298l-5.978-41.858c0-0.115-0.023-0.252-0.047-0.367        c-0.162-1.698-0.324-3.326-0.463-4.886c-0.996-9.908-1.413-16.215-1.413-16.215l0.348-0.046        c-0.556-3.555-0.95-7.179-1.158-10.871c-2.549-44.427,22.335-84.129,60.1-102.959c1.344-0.688,2.711-1.331,4.124-1.95v-0.023        c11.955-5.321,25.068-8.647,38.947-9.403c14.55-0.826,28.59,1.216,41.588,5.596c0.556,0.207,1.112,0.39,1.668,0.62        c37.858,13.486,66.355,47.11,71.568,88.487l0.278-0.046c0,0,0,0.665-0.046,1.95c0.231,1.835,0.37,3.67,0.486,5.481        C361.398,156.23,360.772,164.9,359.197,173.295z"/>
					</g>
				</g>
				<g>
					<g>
						<path style="fill:#D3542B;" d="M198.949,257.274c-0.006,0-0.013,0-0.02-0.001c-0.477-0.01-0.856-0.406-0.844-0.883        c0.254-11.009,4.254-21.782,11.264-30.334c0.303-0.37,0.849-0.425,1.216-0.12c0.369,0.303,0.423,0.847,0.12,1.216        c-6.765,8.254-10.627,18.652-10.873,29.277C199.803,256.899,199.418,257.274,198.949,257.274z"/>
					</g>
					<g>
						<path style="fill:#D3542B;" d="M302.184,252.035c-0.325,0-0.637-0.184-0.783-0.497c-1.399-2.976-2.604-6.078-3.77-9.079        c-0.943-2.426-1.917-4.935-2.983-7.347c-2.862-6.474-5.926-11.027-9.64-14.328c-0.357-0.317-0.39-0.864-0.072-1.22        c0.319-0.356,0.866-0.391,1.22-0.072c3.906,3.471,7.107,8.212,10.073,14.921c1.083,2.448,2.065,4.975,3.015,7.419        c1.155,2.973,2.349,6.047,3.723,8.97c0.204,0.432,0.017,0.948-0.414,1.15C302.432,252.008,302.306,252.035,302.184,252.035z"/>
					</g>
				</g>
				<g>
					<path style="fill:#FADED3;" d="M351.597,215.198l-3.661,20.275l-0.139,0.757c-0.162,1.284-0.371,2.638-0.602,4.037       c-1.9,11.514-5.329,26.399-7.553,36.124c-0.023,0.046-0.023,0.092-0.047,0.138c-4.332,18.601-22.219,30.711-44.785,37.638       c-0.788,0.252-1.599,0.482-2.41,0.665c-19.114,5.528-41.31,7.431-61.49,6.513c-4.657-0.206-9.198-0.55-13.577-1.055       c-0.023,0-0.023,0-0.023,0c-19.925-2.248-36.329-7.409-43.326-14.565c-5.236-5.344-9.661-14.977-13.391-26.789       c-2.109-6.651-3.985-13.991-5.676-21.582v-0.023l-0.649-3.005c-0.162,0.046-0.278,0.092-0.44,0.138l-0.765-5.367l-2.178-15.298       c-0.185-14.335-0.487-27.202-2.271-41.445c5.399,23.647,14.898,46.353,27.942,66.858c1.9,2.959,4.31,6.17,7.808,6.537       c3.244,0.344,6.093-1.858,8.897-3.464c9.36-5.367,21.941-4.633,30.606,1.789c5.143,3.807,9.314,9.587,15.639,10.734       c5.375,0.986,10.634-1.697,15.546-4.037c4.912-2.34,10.658-4.404,15.662-2.271c1.807,0.78,3.429,2.064,5.375,2.385       c4.332,0.688,7.599-3.486,10.727-6.537c5.584-5.436,13.716-8.211,21.501-7.294c4.611,0.55,9.013,2.271,13.623,2.913       c4.588,0.642,9.824-0.069,12.859-3.555c2.595-2.958,2.989-7.133,3.73-10.963c1.575-8.12,5.097-18.326,7.46-25.94       c3.082-9.885,2.711-20.505,5.561-30.459C351.458,197.584,351.551,206.414,351.597,215.198z"/>
				</g>
				<g>
					<path style="fill:#FADED3;" d="M254.31,224.202c-15.487,0.911-31.755,3.663-43.343,13.876c-3.46,3.049-6.46,6.566-9.447,10.07       c-4.73,5.549-9.461,11.098-14.192,16.647c4.245,2.245,9.704,0.933,14.423-0.007c11.338-2.257,22.78-5.074,32.681-10.99       c9.901-5.916,18.181-15.401,20.081-26.694c2.818,8.64,9.688,16.024,17.443,20.871c7.755,4.847,16.687,7.568,25.688,9.311       c3.891,0.753,7.892,1.359,11.4,3.188c-1.245-14.179-10.951-27.005-24.255-32.4C275.336,224.241,264.51,223.602,254.31,224.202z       "/>
				</g>
			</g>
			<g>
				<path style="fill:#FADED3;" d="M368,160.473c-4.379,8.578-12.117,17.294-10.356,26.743c-5.283-12.5-7.322-27.087-5.514-40.665      c0.278-2.064,0.648-4.106,1.089-6.101c-0.162-0.137-0.324-0.252-0.463-0.413c-5.236-4.564-5.259-12.661-6.557-19.564      c-1.784-9.358-7.461-18.578-16.45-22.018c-5.908-2.271-12.581-1.858-18.535-4.037c-8.572-3.142-12.998-10.023-17.817-17.638      c-0.209-0.367-0.44-0.711-0.672-1.078c-0.046-0.069-0.092-0.16-0.139-0.23c-16.195,6.354-34.313,3.372-48.052-7.064      c-0.394-0.298-0.788-0.619-1.181-0.941c-0.186-0.138-0.371-0.275-0.556-0.436c-1.274,0.344-2.549,0.62-3.869,0.849h-0.023      c-1.066,0.184-2.131,0.344-3.197,0.436c-11.932,1.216-24.327-2.179-33.78-9.495c-5.954-4.587-10.333-6.56-12.928-13.555      c15.871-20.688,44.438-27.844,70.688-27.018c7.53,0.252,15.315,1.101,21.779,4.954c4.703,2.798,8.387,7.018,12.974,10.023      c1.946,1.284,3.985,2.317,6.093,3.165c0.626,0.252,1.274,0.505,1.923,0.711c0.023-0.023,0.023-0.023,0.046,0      c9.754,3.417,20.829,3.601,30.861,6.812c6.001,1.926,11.607,5.023,16.473,8.968c0.602,0.482,1.182,0.986,1.761,1.491      c5.12,4.518,9.337,10.069,12.233,16.238c5.375,11.468,6.997,25.895,3.174,38.074c-0.324,1.124-0.741,2.248-1.182,3.326      c0.07,0.138,0.162,0.252,0.232,0.39C374.859,126.712,375.6,145.519,368,160.473z"/>
			</g>
			<g>
				<path style="fill:#FADED3;" d="M131.242,182.251c6.962,5.992,13.28,12.717,18.814,20.024c1.901-4.473,3.579-9.285,5.48-13.759      c2.327-5.477,4.675-11.02,5.617-16.889c0.942-5.868,0.354-12.187-2.855-17.209c-3.881-6.071-11.542-9.512-18.725-8.485      c-7.183,1.028-13.52,6.427-15.694,13.282C121.703,166.071,125.765,177.536,131.242,182.251z"/>
			</g>
			<g>
				<path style="fill:#FADED3;" d="M352.13,146.551c-3.71,15.211-4.906,35.087-1.009,50.251c5.107-4.857,7.451-11.792,9.331-18.551      c1.183-4.255,2.367-8.51,3.551-12.765c0.905-3.254,1.818-6.572,1.682-9.944c-0.136-3.373-1.492-6.871-4.296-8.792      C358.586,144.831,352.931,143.27,352.13,146.551z"/>
			</g>
			<g>
				<path style="fill:#FADED3;" d="M181.252,142.192c-3.479,2.551-5.965,6.396-6.848,10.592c-0.506,2.41-0.464,5.048,0.782,7.178      c2.248,3.842,7.424,4.725,11.908,4.694c9.168-0.063,18.313-2.259,26.492-6.359c6.111-3.064,12.567-7.845,14.127-14.85      c1.295-5.814-0.48-11.35-7.012-10.824c-6.243,0.503-12.341,3.387-18.656,4.136C194.958,137.6,187.227,137.812,181.252,142.192z"/>
			</g>
			<g>
				<path style="fill:#FADED3;" d="M324.675,142.192c3.479,2.551,5.965,6.396,6.847,10.592c0.507,2.41,0.464,5.048-0.782,7.178      c-2.248,3.842-7.424,4.725-11.908,4.694c-9.168-0.063-18.313-2.259-26.492-6.359c-6.111-3.064-12.567-7.845-14.127-14.85      c-1.295-5.814,0.48-11.35,7.012-10.824c6.243,0.503,12.341,3.387,18.656,4.136C310.969,137.6,318.7,137.812,324.675,142.192z"/>
			</g>
			<g>
				<g>
					<g>
						<path style="fill:#331510;" d="M211.558,181.642c0.149,5.899-4.561,10.8-10.52,10.948c-5.959,0.147-10.91-4.515-11.059-10.414        c-0.149-5.899,4.561-10.8,10.52-10.948S211.409,175.743,211.558,181.642z"/>
					</g>
					<g>
						<path style="fill:#331510;" d="M308.98,177.023c0.149,5.899-4.561,10.8-10.52,10.948c-5.959,0.147-10.91-4.515-11.059-10.414        c-0.149-5.899,4.561-10.8,10.52-10.948C303.88,166.461,308.831,171.124,308.98,177.023z"/>
					</g>
				</g>
			</g>
			<g>
				<path style="fill:#331510;" d="M257.928,224.757c-3.536,0-6.974-1.577-10.322-3.115c-3.441-1.578-7-3.231-10.57-3.074      c-1.523,0.059-3.01,0.432-4.585,0.828c-1.821,0.456-3.704,0.916-5.663,0.879c-2.439-0.062-4.994-1.503-6.212-3.506      c-0.839-1.379-0.943-2.876-0.292-4.215c0.21-0.428,0.719-0.61,1.156-0.399c0.43,0.208,0.608,0.726,0.399,1.156      c-0.396,0.814-0.324,1.675,0.214,2.56c0.915,1.504,2.925,2.629,4.779,2.677c1.694,0.02,3.411-0.381,5.198-0.829      c1.591-0.399,3.236-0.811,4.938-0.878c4.008-0.155,7.734,1.567,11.358,3.23c4.266,1.958,8.29,3.803,12.362,2.547      c3.635-1.127,6.486-4.842,7.265-9.467c0.733-4.363-0.24-8.961-1.099-13.016c-4.341-20.496-9.068-41.223-14.048-61.606      c-0.114-0.463,0.17-0.931,0.634-1.044c0.461-0.113,0.932,0.169,1.044,0.634c4.985,20.399,9.717,41.144,14.062,61.657      c0.89,4.207,1.9,8.974,1.11,13.661c-0.885,5.262-4.204,9.513-8.457,10.831C260.1,224.609,259.01,224.757,257.928,224.757z"/>
			</g>
			<g style="opacity:0.61;">
				<g>
					<path style="fill:#D3542B;" d="M285.901,197.614c-0.186,0-0.374-0.061-0.532-0.185c-5.378-4.218-9.821-9.671-12.851-15.764       c-0.213-0.428-0.038-0.946,0.389-1.159c0.431-0.214,0.946-0.038,1.159,0.389c2.916,5.867,7.194,11.113,12.369,15.175       c0.376,0.294,0.441,0.838,0.147,1.213C286.412,197.5,286.158,197.614,285.901,197.614z"/>
				</g>
				<g>
					<path style="fill:#D3542B;" d="M275.313,195.493c-0.26,0-0.516-0.116-0.686-0.338c-2.072-2.689-3.894-5.592-5.415-8.629       c-0.214-0.427-0.041-0.946,0.385-1.161c0.43-0.215,0.949-0.041,1.16,0.385c1.471,2.939,3.234,5.748,5.238,8.349       c0.292,0.378,0.221,0.921-0.157,1.212C275.682,195.434,275.497,195.493,275.313,195.493z"/>
				</g>
				<g>
					<path style="fill:#D3542B;" d="M204.207,200.397c-0.253,0-0.504-0.112-0.675-0.325c-0.298-0.374-0.237-0.917,0.135-1.215       c5.281-4.222,9.397-9.754,11.902-15.999c0.177-0.443,0.684-0.662,1.123-0.481c0.443,0.177,0.659,0.681,0.481,1.123       c-2.616,6.523-6.913,12.3-12.426,16.707C204.588,200.335,204.397,200.397,204.207,200.397z"/>
				</g>
				<g>
					<path style="fill:#D3542B;" d="M215.279,196.964c-0.145,0-0.292-0.037-0.428-0.114c-0.414-0.237-0.558-0.766-0.321-1.18       c1.066-1.864,1.739-3.974,1.944-6.102c0.047-0.475,0.485-0.825,0.943-0.778c0.475,0.045,0.824,0.468,0.778,0.943       c-0.228,2.371-0.977,4.721-2.163,6.795C215.87,196.807,215.579,196.964,215.279,196.964z"/>
				</g>
			</g>
			<g>
				<g>
					<path style="fill:#FADED3;" d="M195.88,74.028c-5.352,3.372-10.612,7.018-15.917,10.55c-1.877,1.284-3.753,2.546-5.653,3.762       c-0.996,0.642-1.9,1.376-2.688,2.202c-5.305,5.436-6,14.151-6.047,22.454c-0.023,1.078-0.023,2.11-0.023,3.142v2.041       c0,2.821,0.047,5.619,0.116,8.44c0,0,0,0,0,0.023c0.023,1.927,0.07,3.808,0.116,5.734v0.023c-0.023,0.023-0.023,0.046,0,0.069       c0.139,8.601,0.069,17.179-1.46,25.619c-1.97,10.848-12.025,38.326-26.76,29.587c-1.692-1.009-3.36-2.133-4.958-3.395       c-0.348-0.229-0.672-0.481-0.996-0.78c-2.966-2.363-5.769-5.092-8.364-8.074v-0.023c-0.487-0.55-0.973-1.101-1.437-1.674       c-3.892-4.817-7.206-10.161-9.707-15.619c-0.371-0.803-0.718-1.629-1.043-2.454c-0.788-1.95-1.483-3.899-2.039-5.826       c-4.982-17.087-1.043-37.179,12.233-49.152c4.449-4.037,9.986-7.316,12.534-12.752c0.44-0.917,0.764-1.858,1.043-2.821       c0.208-0.78,0.394-1.559,0.556-2.362c0.347-1.56,0.648-3.119,1.066-4.656c2.502-9.128,9.383-16.445,16.844-22.362       c11.399-9.037,26.157-15.917,40.36-12.546c5.491,1.307,10.959,4.518,12.905,9.748c0.116,0.321,0.232,0.665,0.325,0.986       c0.162,0.619,0.278,1.238,0.324,1.858C208.02,62.881,202.298,69.992,195.88,74.028z"/>
				</g>
				<g>
					<g>
						<g>
							<path style="fill:#331510;" d="M165.784,132.377v0.023c-0.023,0.023-0.023,0.046,0,0.069         c-0.232,1.697-0.371,3.371-0.51,5.046c-0.255,2.752-0.486,5.619-1.042,8.417c-2.827,14.312-14.017,27.89-31.626,38.348         c-0.348-0.229-0.672-0.481-0.996-0.78c10.657-6.284,27.779-19.083,31.44-37.798c0.556-2.73,0.787-5.551,1.019-8.303         c0.301-3.532,0.625-7.202,1.599-10.757C165.691,128.57,165.737,130.45,165.784,132.377z"/>
						</g>
					</g>
					<g>
						<g>
							<path style="fill:#331510;" d="M165.575,112.996c-0.023,1.078-0.023,2.11-0.023,3.142         c-3.081,7.018-7.599,13.532-13.183,19.037c-3.012,2.936-6.371,5.642-9.592,8.234c-1.854,1.491-3.776,3.027-5.607,4.61         c-6.232,5.344-9.986,9.908-12.233,14.84c-1.9,4.22-2.456,8.601-1.691,12.546c-0.487-0.55-0.973-1.101-1.437-1.674         c-0.347-3.67,0.324-7.592,2.039-11.353c2.294-5.092,6.163-9.793,12.534-15.252c1.83-1.583,3.777-3.142,5.63-4.633         c3.22-2.592,6.534-5.252,9.499-8.165C157.698,128.248,162.54,120.886,165.575,112.996z"/>
						</g>
					</g>
					<g>
						<g>
							<path style="fill:#331510;" d="M207.209,55.771c-2.664,4.427-7.321,8.234-13.183,10.665         c-7.229,2.959-15.222,3.716-22.265,4.358l-0.371,0.046c-7.298,0.665-14.851,1.376-21.663,3.968         c-5.815,2.225-10.959,5.78-14.897,10.298c0.208-0.78,0.394-1.559,0.556-2.362c3.869-3.899,8.618-7.018,13.925-9.037         c6.951-2.661,14.596-3.372,21.987-4.06l0.347-0.023c6.951-0.642,14.851-1.376,21.918-4.289         c6.186-2.546,10.959-6.674,13.322-11.422C207.047,54.533,207.163,55.152,207.209,55.771z"/>
						</g>
					</g>
					<g>
						<g>
							<path style="fill:#331510;" d="M179.963,84.579c-1.877,1.284-3.753,2.546-5.653,3.762c-0.996,0.642-1.9,1.376-2.688,2.202         c-3.614,1.95-7.275,3.808-10.982,5.596l-2.409,1.17c-2.989,1.445-6.093,2.936-9.036,4.564         c-12.557,6.996-22.636,16.835-29.123,28.464c-4.842,8.647-7.576,18.257-7.97,27.775c-0.371-0.803-0.718-1.629-1.043-2.454         c0.718-8.9,3.406-17.799,7.947-25.895c6.603-11.812,16.844-21.812,29.61-28.922c2.966-1.651,6.093-3.165,9.105-4.61         l2.387-1.147C166.826,91.803,173.476,88.294,179.963,84.579z"/>
						</g>
					</g>
				</g>
			</g>
			<g>
				<g>
					<g>
						<path style="fill:#331510;" d="M302.456,37.101c-12.952,2.821-24.327,10.711-34.939,18.67l-0.834,0.619        c-4.263,3.211-8.665,6.514-13.531,8.945c-2.896,1.445-5.815,2.477-8.619,3.074c-0.394-0.298-0.788-0.619-1.181-0.941        c3.012-0.504,6.14-1.582,9.267-3.142c4.773-2.385,9.152-5.665,13.368-8.853l0.811-0.619        c10.264-7.683,21.246-15.344,33.734-18.463C301.159,36.642,301.807,36.895,302.456,37.101z"/>
					</g>
				</g>
				<g>
					<g>
						<path style="fill:#331510;" d="M351.597,54.372c-5.282-1.078-11.353-0.573-17.446,1.537c-6.696,2.317-12.79,6.17-18.698,9.908        l-2.294,1.445c-5.769,3.624-12.441,7.569-19.763,9.518c-0.209-0.367-0.44-0.711-0.672-1.078        c7.298-1.858,14.017-5.826,19.786-9.449l2.294-1.445c5.954-3.762,12.117-7.661,18.952-10.023        c5.537-1.927,11.074-2.546,16.079-1.904C350.439,53.363,351.018,53.867,351.597,54.372z"/>
					</g>
				</g>
				<g>
					<g>
						<path style="fill:#331510;" d="M365.823,112.01c0.07,0.138,0.162,0.252,0.232,0.39c-6.371,10.459-10.959,21.789-13.577,33.739        c-0.046,0.183-0.185,0.344-0.347,0.413c0.278-2.064,0.648-4.106,1.089-6.101c-0.162-0.137-0.324-0.252-0.463-0.413        c3.058-11.101,7.831-21.629,14.202-31.308c0-0.023,0.023-0.046,0.046-0.046C366.68,109.808,366.263,110.932,365.823,112.01z"/>
					</g>
				</g>
			</g>
			<g>
				<path style="fill:#FFC17D;" d="M441.191,411.759c-8.341,9.587-17.446,18.509-27.2,26.674c-1.437,1.193-2.896,2.386-4.356,3.555      c-2.526,2.018-5.074,3.968-7.692,5.872c-25.694,18.876-55.304,32.821-87.416,40.39c-18.095,4.289-36.954,6.56-56.37,6.56      c-17.979,0-35.494-1.949-52.362-5.642c-26.621-5.826-51.573-15.986-74.094-29.702c-5.954-3.624-11.723-7.5-17.33-11.605      c-2.016-1.491-4.008-3.005-5.978-4.542c-8.596-6.697-16.705-13.991-24.281-21.789c0.162-0.298,0.324-0.574,0.486-0.849      c3.455-5.985,9.138-9.138,14.865-12.743c5.925-3.731,12.009-7.206,18.178-10.515c12.39-6.646,25.122-12.62,37.788-18.714      c7.973-3.836,15.926-7.719,23.753-11.846c3.913-2.063,7.794-4.186,11.627-6.393c3.144-1.81,7.264-4.224,10.475-6.664      c2.322,1.879,4.462,3.945,6.896,5.706c6.951,4.977,14.898,8.532,23.076,10.55c15.176,3.762,31.116,2.661,46.337-0.826      c7.46-1.697,14.875-4.037,21.894-7.225c0.371-0.138,0.718-0.321,1.089-0.482c1.784-0.826,3.545-1.697,5.259-2.661      c4.193-2.271,8.178-4.885,11.862-7.89c0.408-0.333,6.954,3.09,7.739,3.416c3.183,1.323,6.392,2.582,9.612,3.811      c6.995,2.669,14.038,5.155,21.102,7.633c14.908,5.229,29.742,10.667,44.497,16.312c2.066,0.79,4.13,1.585,6.192,2.383      c6.701,2.594,13.439,5.258,19.453,9.19C433.481,398.419,437.568,404.199,441.191,411.759z"/>
			</g>
			<g>
				<g>
					<path style="fill:#331510;" d="M210.43,339.671c0,0-0.046,0.321-0.116,0.964c-0.301,2.454-1.135,9.472-2.131,18.876       c-2.34,22.248-5.607,58.005-4.842,78.922c0.579,15.115,1.553,34.496,2.456,50.734c-8.595-1.881-17.029-4.22-25.254-6.973       c-0.765-0.275-1.53-0.527-2.294-0.803c-16.404-5.665-31.973-13.051-46.546-21.927c-5.954-3.624-11.723-7.5-17.33-11.605       c-2.016-1.491-4.008-3.005-5.978-4.542c-8.596-6.697-16.705-13.991-24.281-21.789c-3.545-3.601-6.928-7.317-10.218-11.147       c-0.301-0.344-0.602-0.688-0.903-1.032c-1.622-1.926-3.221-3.876-4.773-5.848c2.062-0.78,4.379-1.651,6.858-2.592       c0.417-0.16,0.834-0.298,1.274-0.459c20.296-7.638,51.667-19.495,73.353-27.982c0.463-0.184,0.927-0.367,1.367-0.551       c8.943-3.486,16.102-6.376,19.925-8.05C189.532,355.658,210.43,339.671,210.43,339.671z"/>
				</g>
				<g>
					<path style="fill:#331510;" d="M445.083,407.171c-1.251,1.537-2.548,3.073-3.892,4.587c-8.341,9.587-17.446,18.509-27.2,26.674       c-1.437,1.193-2.896,2.386-4.356,3.555c-2.526,2.018-5.074,3.968-7.692,5.872c-22.358,16.422-47.705,29.128-75.067,37.133       c-0.764,0.229-1.506,0.436-2.27,0.619c-3.336,0.964-6.696,1.835-10.078,2.638c-0.44-28.716-1.391-66.95-3.267-89.817       c-0.069-0.94-0.162-1.858-0.231-2.729c0-0.069-0.023-0.138-0.023-0.206c-1.298-14.174-3.244-26.606-5.167-36.629       c-2.502-12.982-5.005-21.995-6.093-25.711c-0.232-0.803-0.394-1.354-0.487-1.652c-0.047-0.092-0.047-0.16-0.07-0.206       c0.209,0.275,0.394,0.574,0.625,0.872c8.874,12.133,33.919,24.037,59.961,34.106c0.371,0.16,0.765,0.298,1.135,0.436       c8.758,3.371,17.585,6.536,25.926,9.427c0.371,0.114,0.742,0.252,1.089,0.367c19.995,6.904,37,12.202,42.955,15.069       C436.348,394.213,441.144,400.291,445.083,407.171z"/>
				</g>
				<g>
					<g>
						<g>
							<path style="fill:#FADED3;" d="M189.508,393.204l-51.203,43.326l42.237,45.665c-0.765-0.275-1.53-0.527-2.294-0.803         l-41.194-44.519c-0.116-0.115-0.162-0.275-0.162-0.436c0.023-0.138,0.093-0.298,0.209-0.39l51.018-43.188l-38.298-20.298         c-0.046-0.023-0.093-0.046-0.116-0.092c-0.185-0.16-0.232-0.436-0.116-0.665c0.162-0.298,0.51-0.39,0.788-0.252l0.695,0.367         l38.345,20.321c0.162,0.092,0.278,0.275,0.301,0.459C189.74,392.882,189.671,393.066,189.508,393.204z"/>
						</g>
					</g>
					<g>
						<g>
							<path style="fill:#FADED3;" d="M374.303,434.098c0.023,0.16-0.046,0.321-0.162,0.459l-47.265,50.436         c-0.764,0.229-1.506,0.436-2.27,0.619l48.214-51.422l-54.331-45.39c-0.162-0.115-0.231-0.321-0.208-0.528         c0.023-0.183,0.139-0.367,0.324-0.458l41.171-21.537l0.255-0.138c0.301-0.161,0.672-0.046,0.834,0.252         c0.046,0.092,0.069,0.206,0.046,0.321c0,0.184-0.116,0.39-0.301,0.504l-40.638,21.239l54.122,45.229         C374.233,433.777,374.303,433.937,374.303,434.098z"/>
						</g>
					</g>
				</g>
			</g>
		</g>
	</g>
</g>















</svg>
