<?xml version="1.0" encoding="UTF-8"?>
<!-- Generator: Adobe Illustrator 25.2.3, SVG Export Plug-In . SVG Version: 6.00 Build 0)  -->
<svg xmlns="http://www.w3.org/2000/svg" xmlns:xlink="http://www.w3.org/1999/xlink" version="1.1" id="Capa_1" x="0px" y="0px" viewBox="0 0 511.999 511.999" style="enable-background:new 0 0 511.999 511.999;" xml:space="preserve" width="512" height="512">
<g>
	<g>
		<path style="fill:#FFFFFF;" d="M257.555,508.049c-47.108,0-93.135-12.87-133.103-37.22c-6.236-3.793-12.378-7.911-18.248-12.237    l-1.852-1.35c-0.622-0.47-1.216-0.923-1.795-1.367c-15.405,0.653-29.225,1.143-42.109,1.492c-0.123,0.003-0.247,0.004-0.369,0.004    c-3.072,0-5.987-1.041-8.323-2.862c-2.372,2.038-5.397,3.207-8.567,3.267c-6.083,0.113-12.141,0.205-18.222,0.272    c-0.051,0.001-0.101,0.001-0.152,0.001c-5.097,0-9.769-2.866-12.076-7.421c-10.12-19.985-7.613-43.94,6.543-62.517    c4.117-5.407,8.834-9.768,13.45-13.94c0.331-0.299-8.554-17.507-9.312-19.265c-3.005-6.967-5.69-14.072-8.042-21.285    c-14.585-44.73-16.116-93.588-4.616-139.196c1.509-5.983,3.242-11.91,5.198-17.763c-11.488-6.797-14.39-14.615-14.978-19.403    c-1.157-5.191-3.036-19.661,6.203-37.12C20.594,94.8,50.872,74.675,97.199,60.301c13.056-10.508,27.163-19.706,42.028-27.445    c14.853-7.733,30.464-14.011,46.543-18.687c17.832-5.186,36.177-8.363,54.699-9.631c18.771-1.285,37.81-0.454,56.402,2.426    c17.699,2.742,35.434,7.424,52.235,13.833c13.303,5.074,26.183,11.266,38.441,18.512c50.143,7.022,83.772,21.694,99.982,43.626    c4.547,6.152,8.16,13.381,9.548,20.944c1.458,7.942-0.635,15.054-5.035,21.702c-2.811,4.247-6.345,7.982-10.231,11.259    c-0.205,0.173,5.751,11.328,6.294,12.48c7.962,16.886,14.106,34.628,18.107,52.868c2.895,13.196,4.703,26.629,5.424,40.119    c1.022,19.113-0.11,38.536-3.46,57.459c-4.167,23.543-11.72,46.704-22.556,68.032c-0.374,0.737-5.275,9.465-5.08,9.645    c3.438,3.21,6.832,6.649,9.897,10.67c14.156,18.577,16.663,42.532,6.543,62.517c-2.306,4.555-6.978,7.421-12.077,7.421    c-0.043,0-0.086,0-0.13-0.001c-11.956-0.113-24.022-0.344-35.862-0.682c-3.165-0.09-6.072-1.268-8.344-3.186    c-2.293,1.704-5.111,2.674-8.076,2.674c-0.152,0-0.305-0.002-0.458-0.008c-6.08-0.205-12.161-0.432-18.239-0.681l-1.541-0.065    c-1.084,0.822-2.204,1.656-3.371,2.511C364.858,490.951,312.527,508.049,257.555,508.049z"/>
	</g>
	<g>
		<g>
			<g>
				<path style="fill:#FFC17D;" d="M297.027,20.567c14.44,2.234,28.615,5.668,42.086,10.361c0.361,0.113,0.745,0.226,1.083,0.384      c15.636,5.505,30.55,12.567,44.494,21.029c12.161,7.333,23.601,15.727,34.206,25.045c0.338,0.248,0.654,0.519,0.948,0.812      c6.543,5.776,12.748,11.913,18.592,18.366c1.918,2.098,3.791,4.242,5.596,6.408c0.271,0.271,0.519,0.564,0.767,0.88      c1.783,2.143,3.565,4.332,5.28,6.543c5.641,7.198,10.831,14.711,15.569,22.518c5.077,8.281,9.634,16.9,13.651,25.79      c0.18,0.361,0.338,0.699,0.474,1.083c13.154,29.422,20.42,61.958,20.42,96.209c0,3.023-0.045,6.024-0.18,9.003      c0,0.406-0.023,0.835-0.045,1.241c-1.173,27.482-7.04,53.768-16.877,78.069c-0.293,0.79-0.609,1.579-0.97,2.369      c-2.73,6.656-5.799,13.154-9.138,19.472c-2.482,4.738-5.144,9.386-7.942,13.921c-12.229,19.856-27.324,37.771-44.675,53.227      c-1.895,1.715-3.813,3.385-5.754,5.009c-1.444,1.196-2.888,2.369-4.355,3.542c-0.226,0.181-0.429,0.339-0.654,0.519      l-84.255,8.794l-57.394,25.975l-59.882-24.575l-93.933-6.2c-1.399-1.06-2.775-2.121-4.151-3.181      c-0.451-0.339-0.88-0.699-1.309-1.038c-12.026-9.522-23.105-20.194-33.078-31.792c-0.293-0.339-0.587-0.699-0.902-1.038      c-4.648-5.506-9.093-11.237-13.245-17.171c-3.497-4.986-6.814-10.086-9.95-15.343c-13.357-22.45-23.105-47.27-28.429-73.646      c-0.158-0.745-0.293-1.467-0.451-2.189c-2.798-14.553-4.264-29.58-4.264-44.968c0-14.802,1.354-29.287,3.971-43.344      c0.158-0.858,0.316-1.692,0.496-2.527c0.203-1.106,0.429-2.189,0.654-3.272c0.158-0.79,0.338-1.534,0.519-2.301      c2.662-12.049,6.25-23.759,10.695-35.04c4.084-10.379,8.89-20.442,14.35-30.054c3.136-5.551,6.498-10.943,10.063-16.2      c4.896-7.22,10.199-14.17,15.84-20.803c0.248-0.316,0.519-0.654,0.857-0.97c9.003-10.492,18.931-20.217,29.625-29.016      c28.791-23.691,63.402-40.658,101.218-48.984l42.648,8.534L297.027,20.567z"/>
			</g>
			<g>
				<g>
					<path style="fill:#FADED3;" d="M22.257,213.02c0.158-0.858,0.309-1.708,0.49-2.543c14.553-19.359,32.124-38.161,52.77-56.889       c12.387-11.236,25.609-22.112,38.403-32.649c32.288-26.602,65.681-54.107,88.56-89.576c1.421-2.211,2.866-4.851,4.106-7.717       c0.451-0.113,0.925-0.226,1.376-0.316c-1.309,3.159-2.911,6.114-4.535,8.642c-22.969,35.627-56.431,63.177-88.786,89.824       c-12.771,10.537-25.993,21.412-38.38,32.626C55.007,173.715,37.036,193.074,22.257,213.02z"/>
				</g>
				<g>
					<path style="fill:#FADED3;" d="M296.895,20.785c-27.978,7.446-53.022,21.718-71.84,42.093       c-20.374,22.089-33.077,50.135-45.352,77.234c-9.206,20.307-18.705,41.291-31.408,59.86       c-12.59,18.366-25.654,28.317-39.959,30.37c-4.716,0.699-9.567,0.451-14.237,0.226c-4.151-0.18-8.438-0.406-12.613,0.045       c-17.983,1.918-35.108,16.471-45.848,38.944c-4.4,9.251-7.717,19.133-10.921,28.7c-0.541,1.624-1.083,3.249-1.647,4.896       c-0.158-0.745-0.293-1.467-0.451-2.189c0.361-1.015,0.699-2.053,1.038-3.069c3.204-9.589,6.543-19.517,10.966-28.813       c10.898-22.834,28.362-37.635,46.751-39.598c4.242-0.451,8.596-0.226,12.771-0.045c4.625,0.226,9.409,0.451,14.034-0.203       c13.967-2.031,26.783-11.801,39.192-29.919c12.635-18.457,22.134-39.395,31.295-59.657       c12.32-27.211,25.068-55.325,45.577-77.55c18.389-19.946,42.644-33.961,69.833-41.655       C295.001,20.591,295.97,20.627,296.895,20.785z"/>
				</g>
				<g>
					<path style="fill:#FADED3;" d="M467.294,358.071c5.28-4.535,10.559-9.115,15.794-13.763c-0.293,0.79-0.609,1.579-0.97,2.369       c-4.671,4.129-9.364,8.213-14.079,12.252c-12.703,10.943-23.849,16.426-33.258,16.426c-4.016,0-7.717-0.993-11.101-2.978       c-9.273-5.483-13.764-18.231-12.026-34.115c3.001-27.234,17.757-54.106,43.863-79.874c1.376-1.354,2.775-2.708,4.174-4.061       c6.114-5.911,12.455-12.026,17.103-19.246c6.453-10.063,8.303-20.894,5.077-29.693c-2.595-7.04-8.439-12.365-16.516-15.05       c-10.74-3.565-23.714-1.918-33.077,4.174c-16.404,10.74-24.594,29.896-31.588,48.579l-0.474,1.309       c-6.859,18.366-13.944,37.365-29.016,49.684c-16.629,13.606-41.403,15.885-60.244,5.528       c-21.142-11.597-33.551-38.29-30.189-64.914c2.911-23.195,16.494-45.668,38.245-63.29       c20.577-16.674,45.307-26.805,66.764-34.544l4.174-1.489c18.344-6.543,37.32-13.312,50.271-27.595       c1.466-1.624,2.753-3.227,3.813-4.806c0.271,0.271,0.519,0.564,0.767,0.88c-1.06,1.557-2.324,3.091-3.745,4.67       c-13.132,14.486-32.243,21.322-50.722,27.911l-4.174,1.489c-21.39,7.694-46.006,17.802-66.448,34.364       c-21.503,17.419-34.95,39.643-37.838,62.568c-3.294,26.173,8.89,52.392,29.625,63.764c18.434,10.131,42.69,7.897,58.98-5.415       c14.847-12.139,21.864-30.979,28.678-49.188l0.474-1.309c7.062-18.885,15.343-38.222,32.039-49.142       c9.612-6.273,22.992-7.965,34.048-4.287c8.393,2.775,14.508,8.348,17.216,15.727c3.34,9.115,1.467,20.307-5.189,30.686       c-4.716,7.333-11.101,13.493-17.283,19.449c-1.377,1.354-2.775,2.685-4.152,4.039c-25.903,25.586-40.568,52.234-43.524,79.197       c-0.632,5.776-1.692,25.248,11.485,33.01C435.119,377.792,449.582,373.324,467.294,358.071z"/>
				</g>
			</g>
		</g>
		<g>
			<g>
				<g>
					<path style="fill:#FADED3;" d="M362.826,68.88c-69.923,10.785-141.335,17.848-211.8,24.03c-3.407,0.293-9.07-4.4-8.597-7.784       c0.948-6.927,3.181-13.515,6.408-19.63c1.015-1.963,2.144-3.858,3.362-5.708c7.942-12.071,19.743-21.909,32.762-28.339       c21.3-10.492,45.623-13.154,69.359-13.651c21.39-0.451,43.231,0.812,63.2,8.461c10.266,3.926,20.036,9.77,28.091,17.283       c3.113,2.866,5.956,6.002,8.484,9.364C357.75,57.779,360.728,63.104,362.826,68.88z"/>
				</g>
				<g style="opacity:0.47;">
					<path style="fill:#FF8476;" d="M354.094,52.905c-68.118-10.311-137.771-2.143-205.257,12.59       c1.015-1.963,2.144-3.858,3.362-5.708c16.313-6.385,33.687-10.627,50.812-13.132c19.991-2.933,40.072-5.325,60.199-7.175       c27.347-2.505,55.438-3.926,81.791,3.858c0.203,0.068,0.406,0.113,0.609,0.203C348.724,46.407,351.567,49.543,354.094,52.905z"/>
				</g>
			</g>
			<g>
				<path style="fill:#FADED3;" d="M16.121,155.093c0,0-2.256,27.076,124.097,22.563c126.354-4.512,327.166-13.538,345.216-65.433      L343.287,64.841L77.041,109.967L16.121,155.093z"/>
			</g>
			<g>
				<path style="fill:#331510;" d="M152.586,266.055c-16.556,55.848-24.9,114.123-24.683,172.373      c2.761-0.732,6.033,0.35,8.858,0.769h264.319c0.779-38.785,4.388-77.515,5.167-116.3c0.571-28.426,0.314-59.43-17.439-81.638      c-13.365-16.719-34.402-25.277-55.08-30.804c-31.416-8.396-64.401-11.368-96.677-7.403c-20.022,2.46-40.566,8.017-55.508,21.57      C167.872,237.024,157.833,248.357,152.586,266.055z"/>
			</g>
			<g>
				<g>
					<g>
						<path style="fill:#FF8476;" d="M295.678,313.938c-0.622,0.017,0.878,25.783,1.077,28.437        c0.795,10.569,1.815,23.023,6.859,32.563c2.005,3.792,5.018,6.895,8.535,9.315c3.036,2.09,7.515,4.937,11.123,5.542        c0.135,0.023,0.248,0.09,0.383,0.135c4.896,1.805,10.379,3.475,16.268,5.19c1.624,0.496,3.272,0.947,4.919,1.444        c11.462,3.362,23.962,7.243,35.785,13.245l8.056,21.532c0,0-96.476,41.233-149.339,39.383s-107.016-37.349-107.016-37.349        l22.894-14.112c6.227-3.61,12.387-7.017,18.186-10.153c4.219-2.324,8.281-4.49,12.071-6.52        c3.136-1.647,6.092-3.204,8.822-4.648c6.95-3.61,12.387-6.431,15.433-8.326c0,0,0.023,0,0.023-0.022        c9.591-5.755,10.551-21.974,11.093-31.756c0.761-13.753-0.748-27.492-0.872-41.241L295.678,313.938z"/>
					</g>
					<g>
						<g>
							<path style="fill:#331510;" d="M297.015,333.88c-9.567,8.265-22.98,13.31-35.729,13.677         c-10.23,0.289-29.345-3.334-41.749-10.942c-0.397-11.597-1.711-21.262-1.711-21.262l79.189-1.429         C297.015,313.923,296.379,322.65,297.015,333.88z"/>
						</g>
					</g>
				</g>
				<g>
					<path style="fill:#7EA8C5;" d="M424.514,436.095c-0.135,0.135-0.271,0.226-0.429,0.339c-0.496,0.406-1.015,0.835-1.512,1.218       c-0.384,0.271-0.745,0.586-1.128,0.857c-0.632,0.519-1.264,1.015-1.918,1.489c-0.519,0.429-1.06,0.835-1.602,1.264       c-0.609,0.474-1.218,0.925-1.85,1.377c-2.166-0.09-4.31-0.18-6.476-0.271c-2.302,1.828-4.625,3.587-6.995,5.325       c-40.05,29.422-89.644,46.819-143.321,46.819c-46.232,0-89.395-12.906-126.06-35.244c-5.934-3.61-11.688-7.468-17.261-11.575       c-0.609-0.451-1.218-0.88-1.828-1.331c2.053-1.602,4.152-3.181,6.295-4.738c2.437-1.783,4.941-3.542,7.468-5.28       c1.783-1.196,3.565-2.414,5.37-3.587c7.513,2.459,15.095,4.603,22.744,6.43c0.745,0.203,1.489,0.384,2.234,0.542       c57.671,13.515,119.088,10.492,178.046-0.542c0.632-0.113,1.241-0.226,1.85-0.338c5.393-1.015,10.74-2.098,16.065-3.249       c16.042-3.43,32.175-7.491,47.383-13.493c0.09-0.045,0.18-0.068,0.271-0.113c6.069,3.542,12.771,7.559,18.502,11.304       c1.421,0.925,2.775,1.828,4.039,2.708C424.424,436.027,424.491,436.072,424.514,436.095z"/>
				</g>
			</g>
			<g>
				<g>
					<path style="fill:#FF8476;" d="M364.585,168.889c0,4.625-0.316,9.183-0.858,13.628c-0.135,6.904-0.316,14.666-0.564,22.856       c-0.384,10.966-0.88,22.608-1.602,33.642c-0.045,0.699-0.09,1.376-0.135,2.053c-0.383,5.708-0.835,11.282-1.354,16.449       c-0.948,9.725-2.121,18.208-3.588,24.255c-2.211,9.138-6.882,16.584-12.974,22.563h-0.023       c-0.812,0.812-1.647,1.579-2.504,2.302l-0.023,0.022c-3.362,2.956-7.062,5.505-10.988,7.739       c-10.83,6.16-23.263,9.77-34.319,11.688h-0.022c-2.211,0.384-4.377,0.722-6.453,0.97c-11.913,1.444-33.055,3.023-54.174,1.512       h-0.023c-13.358-0.97-26.692-3.181-37.658-7.491c-3.859-1.489-7.424-3.249-10.582-5.325c-2.73-1.76-5.167-3.746-7.22-5.979       c-1.918-2.098-3.655-4.716-5.235-7.852c-3.836-7.604-6.701-18.005-8.844-29.49c-1.512-8.055-2.64-16.652-3.52-25.18       c-0.045-0.474-0.09-0.948-0.135-1.422c-1.106-11.033-1.715-21.886-2.098-31.34c-0.699-17.306-0.497-29.829-0.497-29.829       s-0.564-10.424-0.564-15.772c0-58.416,46.119-105.731,102.979-105.731h0.97c2.595,0.022,5.167,0.158,7.671,0.361       c48.533,4.174,87.455,42.825,93.502,92.012l0.271-0.045c0,0,0,0.767,0,2.166C364.382,161.331,364.585,165.098,364.585,168.889z       "/>
				</g>
			</g>
			<g>
				<g>
					<g>
						<path style="fill:#331510;" d="M255.206,249.323c-0.152,0-0.304-0.007-0.463-0.023c-1.129-0.12-2.057-0.673-2.956-1.207        c-0.288-0.173-0.576-0.346-0.869-0.498c-2.096-1.104-4.672-1.281-6.891-0.481l-0.387,0.145        c-0.915,0.348-2.05,0.779-3.17,0.329c-1.451-0.587-2.057-2.189-1.799-4.76c1.673-16.79,2.011-33.84,1.007-50.676        c-0.025-0.431,0.304-0.804,0.737-0.829c0.452,0.035,0.804,0.304,0.829,0.737c1.009,16.917,0.668,34.05-1.011,50.925        c-0.124,1.235-0.081,2.781,0.825,3.147c0.558,0.226,1.267-0.051,2.025-0.341l0.41-0.152c2.633-0.951,5.679-0.742,8.155,0.567        c0.316,0.166,0.629,0.352,0.942,0.537c0.788,0.47,1.53,0.912,2.318,0.995c1.357,0.166,2.596-0.797,3.896-1.795        c1.136-0.873,2.308-1.776,3.744-2.117c1.276-0.302,2.518-0.111,3.725,0.078l0.753,0.113c1.617,0.217,2.718,0.046,3.449-0.539        c0.405-0.325,0.65-0.94,0.597-1.497c-0.025-0.253-0.12-0.59-0.438-0.756c-0.385-0.203-0.532-0.677-0.332-1.06        c0.203-0.385,0.684-0.525,1.06-0.332c0.723,0.38,1.186,1.108,1.272,1.995c0.104,1.09-0.357,2.219-1.177,2.875        c-1.426,1.145-3.336,1.041-4.64,0.869l-0.783-0.117c-1.106-0.173-2.154-0.334-3.122-0.104        c-1.108,0.265-2.101,1.027-3.152,1.836C258.392,248.238,256.982,249.323,255.206,249.323z"/>
					</g>
					<g>
						<g>
							<g>
								<g>
									<g>
										<path style="fill:#331510;" d="M217.573,209.078c-0.242,5.761-5.064,10.237-10.77,9.998            c-5.706-0.239-10.136-5.104-9.894-10.865c0.242-5.761,5.064-10.237,10.77-9.998S217.815,203.317,217.573,209.078z"/>
									</g>
									<g>
										<path style="fill:#331510;" d="M309.486,205.572c-0.242,5.762-5.064,10.238-10.77,9.998            c-5.706-0.239-10.136-5.104-9.894-10.865c0.242-5.761,5.064-10.237,10.77-9.998            C305.297,194.946,309.728,199.811,309.486,205.572z"/>
									</g>
								</g>
							</g>
						</g>
						<g style="opacity:0.37;">
							<path style="fill:#FF5E5E;" d="M228.94,266.095c0,20.65-16.737,37.387-37.408,37.387c-1.213,0-2.385-0.063-3.577-0.167         c-2.532-1.632-4.791-3.473-6.695-5.544c-1.779-1.946-3.389-4.373-4.854-7.281c-3.557-7.051-6.214-16.696-8.201-27.345         c-1.402-7.469-2.448-15.44-3.264-23.348c6.779-6.841,16.193-11.088,26.591-11.088         C212.203,228.709,228.94,245.446,228.94,266.095z"/>
						</g>
						<g style="opacity:0.37;">
							<path style="fill:#FF5E5E;" d="M350.055,232.161c-0.042,0.648-0.083,1.276-0.125,1.904         c-0.355,5.293-0.774,10.461-1.255,15.252c-0.879,9.017-1.966,16.884-3.327,22.491c-2.05,8.473-6.381,15.377-12.03,20.922         h-0.021c-0.753,0.753-1.527,1.465-2.322,2.134l-0.021,0.021c-2.469,0.502-5.042,0.774-7.657,0.774         c-20.649,0-37.387-16.737-37.387-37.387c0-20.671,16.737-37.408,37.387-37.408         C333.779,220.863,343.277,225.194,350.055,232.161z"/>
						</g>
					</g>
				</g>
				<g>
					<path style="fill:#D3542B;" d="M186.448,175.164c0.265,1.647,1.557,3.242,3.589,4.041c1.766,0.694,3.878,0.742,5.892,0.694       c4.94-0.119,9.857-0.722,14.569-1.789c2.815-0.637,5.621-1.467,7.805-2.888c9.234-6.006-3.261-13.237-12.279-12.842       C198.128,162.727,185.433,168.857,186.448,175.164z"/>
				</g>
				<g>
					<path style="fill:#D3542B;" d="M318.513,172.908c-0.265,1.647-1.557,3.242-3.589,4.041c-1.766,0.694-3.878,0.742-5.892,0.694       c-4.94-0.119-9.857-0.723-14.569-1.789c-2.815-0.637-5.621-1.467-7.805-2.888c-9.234-6.006,3.261-13.237,12.279-12.842       C306.832,160.47,319.528,166.6,318.513,172.908z"/>
				</g>
				<g>
					<path style="fill:#331510;" d="M256.248,265.618c-1.666,0-3.336-0.221-4.974-0.677c-3.698-1.03-6.653-3.145-8.319-5.955       c-0.23-0.392-0.101-0.894,0.288-1.127c0.389-0.223,0.894-0.101,1.127,0.288c1.447,2.447,4.057,4.297,7.347,5.213       c7.628,2.119,16.057-1.373,20.494-8.508c0.242-0.389,0.753-0.5,1.131-0.265c0.385,0.24,0.502,0.746,0.265,1.131       C269.734,261.945,263.046,265.618,256.248,265.618z"/>
				</g>
			</g>
			<g>
				<path style="fill:#D3542B;" d="M178.192,165.811c-12.094,14.598-11.778,35.718-8.461,54.4c3.317,18.66,9.025,37.59,5.55,56.228      c-1.76,9.319-5.708,19.179-1.895,27.866c4.107,9.319,15.162,12.883,23.33,18.93c11.597,8.574,17.915,23.782,15.772,38.041      c-1.467,9.702-6.431,19.788-2.55,28.791c3.362,7.784,12.049,11.552,18.073,17.509c7.243,7.152,10.537,18.096,8.461,28.068      c-58.145,2.798-116.426,6.611-174.661,8.19c-5.145-11.033-8.822-21.119-12.613-33.822c-4.648,10.695-6.205,22.676-4.535,34.228      c-6.047,0.113-12.071,0.203-18.118,0.271c-7.965-15.726-5.46-34.161,5.235-48.195c9.138-12.003,24.03-19.698,29.806-33.642      c4.535-10.898,2.437-23.263,0.677-34.928c-3.317-21.773-5.122-45.081,4.67-64.824c11.462-23.15,36.913-37.162,47.563-60.695      c6.16-13.56,6.724-28.881,9.364-43.524c5.708-31.769,22.134-61.981,47.518-81.904c25.384-19.946,58.506-23.263,89.779-15.298      c-11.755,8.506-24.007,17.599-30.122,30.776c-6.002,12.997-5.347,28.678-13.177,40.659      C208.382,147.399,189.203,152.476,178.192,165.811z"/>
			</g>
			<g>
				<path style="fill:#D3542B;" d="M486.63,444.511c-11.868-0.113-23.737-0.338-35.605-0.677      c-1.376-12.184-2.82-23.759-5.618-36.146c-2.256,12.274-6.047,24.255-11.191,35.627c-6.047-0.203-12.094-0.429-18.141-0.677      c-2.166-0.09-4.31-0.18-6.476-0.271c-21.638-0.925-43.254-2.031-64.869-3.182c-2.211-0.113-4.4-0.226-6.589-0.338      c-20.51-1.106-40.975-2.211-61.439-3.204c-2.098-9.973,1.196-20.916,8.439-28.068c6.024-5.957,14.734-9.725,18.073-17.509      c1.963-4.58,1.67-9.432,0.677-14.373c-0.925-4.783-2.482-9.634-3.204-14.418c-2.143-14.26,4.152-29.467,15.749-38.041      c5.235-3.858,11.62-6.701,16.629-10.695c2.843-2.256,5.235-4.851,6.701-8.235c2.685-6.115,1.534-12.793,0-19.472      c-0.654-2.82-1.354-5.618-1.873-8.393c-3.114-16.674,1.128-33.596,4.4-50.361c0.406-1.963,0.79-3.904,1.128-5.867      c0.384-2.166,0.722-4.355,1.015-6.588c2.211-16.9,1.218-34.905-9.454-47.811c-0.18-0.226-0.384-0.451-0.609-0.677      c-11.056-12.839-29.761-17.983-39.057-32.198c-5.528-8.461-6.836-18.75-9.251-28.633c-0.023-0.09-0.045-0.203-0.068-0.293      c-0.97-4.039-2.143-7.987-3.881-11.733c-1.963-4.264-4.58-8.1-7.626-11.62c-1.038-1.241-2.143-2.414-3.294-3.588      c-4.445-4.467-9.499-8.439-14.621-12.229c-0.654-0.496-1.309-0.97-1.963-1.444c-0.88-0.632-1.737-1.264-2.618-1.895      c1.512-0.384,3.046-0.745,4.581-1.083c24.188-5.28,49.188-3.723,70.645,7.152c3.068,1.512,6.092,3.272,9.002,5.235      c1.896,1.241,3.746,2.572,5.551,3.994c10.74,8.439,19.856,18.682,27.256,30.122c0.226,0.339,0.451,0.699,0.677,1.038      c9.431,14.914,15.952,31.746,19.291,49.097c0.113,0.542,0.226,1.106,0.316,1.647c2.617,14.643,3.204,29.964,9.341,43.524      c10.672,23.533,36.101,37.545,47.586,60.695c9.77,19.743,7.987,43.05,4.671,64.824c-1.783,11.665-3.858,24.03,0.677,34.928      c2.866,6.904,7.942,12.274,13.448,17.396c5.641,5.212,11.733,10.176,16.358,16.245      C492.091,410.35,494.595,428.785,486.63,444.511z"/>
			</g>
			<g>
				<g>
					<path style="fill:#FADED3;" d="M16.121,155.093c0,0,94.765-56.408,243.682-51.895c148.917,4.512,225.631,9.025,225.631,9.025       S498.3,35.653,254.09,49.767C-12.146,65.154,16.121,155.093,16.121,155.093z"/>
				</g>
				<g>
					<path style="fill:#331510;" d="M108.918,120.258c-0.339,0-0.652-0.223-0.753-0.564c-0.122-0.417,0.117-0.852,0.532-0.975       c0.571-0.168,58.168-16.719,154.042-15.587c95.722,1.14,144.781,7.434,145.265,7.497c0.431,0.058,0.733,0.452,0.677,0.88       c-0.058,0.428-0.415,0.735-0.88,0.677c-0.484-0.065-49.467-6.347-145.081-7.483c-95.554-1.186-153.01,15.357-153.582,15.523       C109.066,120.247,108.992,120.258,108.918,120.258z"/>
				</g>
			</g>
		</g>
	</g>
</g>















</svg>
