<?xml version="1.0" encoding="iso-8859-1"?>
<!-- Generator: Adobe Illustrator 25.0.0, SVG Export Plug-In . SVG Version: 6.00 Build 0)  -->
<svg version="1.1" id="Object" xmlns="http://www.w3.org/2000/svg" xmlns:xlink="http://www.w3.org/1999/xlink" x="0px" y="0px"
	 width="500px" height="500px" viewBox="0 0 500 500" enable-background="new 0 0 500 500" xml:space="preserve">
<g>
	<defs>
		<circle id="SVGID_19_" cx="250" cy="258.147" r="186.175"/>
	</defs>
	<clipPath id="SVGID_2_">
		<use xlink:href="#SVGID_19_"  overflow="visible"/>
	</clipPath>
	<circle clip-path="url(#SVGID_2_)" fill="#CCDCFF" cx="250" cy="270.247" r="187.36"/>
	<g clip-path="url(#SVGID_2_)">
		<path fill="#35356D" d="M308.82,243.131l5.16-13.227c0,0,37.836-78.963-17.542-103.729c-55.379-24.766-83.24,20.179-83.24,20.179
			s-25.683-0.459-35.129,28.435c-9.446,28.893,12.771,65.459,12.771,65.459s-18.746,29.361-18.23,58.427
			c0.338,19.022,11.945,25.225,19.926,27.242c1.895,2.524,4.17,4.99,6.903,7.326c21.326,18.23,109.725,12.727,124.172-23.734
			C338.057,273.049,308.82,243.131,308.82,243.131z M180.004,310.714c-1.204-13.071,4.472-21.842,4.472-21.842
			s-4.498,18.486,6.753,35.208C186.157,321.727,180.639,317.609,180.004,310.714z"/>
		<g>
			<path fill="#FFAA9F" d="M319.45,338.917v37.324l-70.411,22.013l-70.412-22.013v-37.324c0,0,36.287-12.212,41.103-21.151
				c1.293-2.405,2.23-5.84,2.897-9.579c1.839-10.171,1.751-22.586,1.751-22.586l24.661,6.366l24.667-6.366
				c0,0-0.108,14.617,2.25,25.125c0.613,2.735,1.394,5.193,2.391,7.039C283.163,326.705,319.45,338.917,319.45,338.917z"/>
			<path fill="#E27169" d="M275.956,310.727c-7.241,4.324-15.702,6.81-24.748,6.81c-10.697,0-20.579-3.476-28.581-9.35
				c1.839-10.171,1.751-22.586,1.751-22.586l24.661,6.366l24.667-6.366C273.706,285.602,273.598,300.219,275.956,310.727z"/>
		</g>
		<g>
			<g>
				
					<ellipse transform="matrix(0.2025 -0.9793 0.9793 0.2025 18.6524 503.6482)" fill="#FFAA9F" cx="318.543" cy="240.372" rx="19.864" ry="16.338"/>
				<g>
					<g>
						<path fill="#E27169" d="M324.078,228.875c-4.148,0.761-6.962,4.23-8.379,7.999c-1.617,4.303-1.932,9.187-1.353,13.718
							c0.172,1.344,2.308,1.361,2.134,0c-0.523-4.087-0.294-8.328,0.97-12.267c1.107-3.45,3.433-6.701,7.195-7.391
							C325.994,230.686,325.423,228.629,324.078,228.875L324.078,228.875z"/>
						<path fill="#E27169" d="M316.181,240.987c0.514-0.024,1.026-0.106,1.53-0.208c0.229-0.046,0.456-0.096,0.685-0.143
							c0.103-0.021,0.206-0.042,0.31-0.061c-0.009,0.002,0.323-0.056,0.209-0.04c0.22-0.031,0.446-0.044,0.669-0.04
							c0.285,0.005,0.241,0,0.489,0.069c0.353,0.099,0.633,0.312,0.918,0.575c0.301,0.277,0.564,0.572,0.736,0.82
							c0.11,0.157,0.212,0.32,0.307,0.486c0.056,0.1,0.11,0.201,0.161,0.304c0.013,0.027,0.134,0.305,0.076,0.162
							c0.07,0.175,0.129,0.355,0.178,0.537c0.029,0.109,0.051,0.218,0.076,0.328c0.007,0.037,0.013,0.073,0.02,0.11
							c-0.008-0.081-0.008-0.083,0-0.007c0.023,0.203,0.029,0.408,0.02,0.612c0,0.001-0.031,0.341-0.006,0.161
							c-0.015,0.112-0.042,0.222-0.068,0.332c-0.132,0.561,0.175,1.156,0.745,1.313c0.541,0.149,1.18-0.182,1.313-0.745
							c0.504-2.144-0.408-4.356-1.966-5.845c-0.884-0.844-1.936-1.381-3.181-1.347c-0.592,0.016-1.182,0.133-1.76,0.254
							c-0.523,0.11-1.009,0.214-1.461,0.236c-0.576,0.027-1.067,0.471-1.067,1.067C315.114,240.477,315.602,241.015,316.181,240.987
							L316.181,240.987z"/>
					</g>
				</g>
			</g>
			<g>
				
					<ellipse transform="matrix(0.9793 -0.2025 0.2025 0.9793 -44.8759 42.0642)" fill="#FFAA9F" cx="183.16" cy="240.372" rx="16.338" ry="19.864"/>
				<g>
					<g>
						<path fill="#E27169" d="M177.058,230.933c3.762,0.69,6.088,3.941,7.195,7.391c1.264,3.939,1.493,8.18,0.97,12.267
							c-0.174,1.359,1.962,1.346,2.134,0c0.58-4.531,0.264-9.414-1.353-13.718c-1.416-3.769-4.231-7.238-8.379-7.999
							C176.283,228.629,175.707,230.685,177.058,230.933L177.058,230.933z"/>
						<path fill="#E27169" d="M185.523,238.853c-0.464-0.022-0.932-0.125-1.461-0.236c-0.559-0.117-1.127-0.228-1.699-0.252
							c-1.265-0.053-2.344,0.484-3.241,1.344c-1.556,1.492-2.471,3.698-1.966,5.845c0.132,0.561,0.772,0.894,1.313,0.745
							c0.574-0.158,0.878-0.75,0.745-1.313c-0.157-0.668-0.085-1.306,0.22-2.074c-0.055,0.137,0.079-0.167,0.076-0.162
							c0.042-0.086,0.087-0.17,0.133-0.254c0.102-0.185,0.214-0.364,0.334-0.537c0.128-0.183,0.132-0.185,0.297-0.371
							c0.139-0.157,0.286-0.306,0.44-0.449c0.286-0.264,0.568-0.476,0.918-0.575c0.305-0.087,0.728-0.092,1.158-0.03
							c-0.124-0.018,0.116,0.023,0.147,0.029c0.103,0.018,0.206,0.038,0.309,0.059c0.229,0.046,0.456,0.096,0.685,0.143
							c0.525,0.107,1.057,0.195,1.593,0.221c0.576,0.027,1.067-0.51,1.067-1.067C186.59,239.319,186.101,238.881,185.523,238.853
							L185.523,238.853z"/>
					</g>
				</g>
			</g>
		</g>
		<g>
			<path fill="#FFC9C0" d="M311.226,214.331v30.167c0,33.054-26.796,59.85-59.85,59.85h-0.687c-33.054,0-59.85-26.796-59.85-59.85
				v-31.684c0-1.222,0.874-2.261,2.077-2.476c5.784-1.03,14.968-3.38,25.783-8.722c12.385-6.112,18.756-11.718,21.627-14.776
				c1.066-1.135,2.884-1.056,3.826,0.184c5.98,7.871,26.741,30.524,64.168,24.826C309.847,211.619,311.226,212.788,311.226,214.331z
				"/>
			<g>
				<ellipse fill="#35356D" cx="221.884" cy="229.277" rx="4.414" ry="6.965"/>
				<ellipse fill="#35356D" cx="279.494" cy="229.277" rx="4.414" ry="6.965"/>
			</g>
			<path fill="#E27169" d="M251.368,229.73c0.389,1.426,0.803,2.878,0.718,4.372c-0.079,1.388-0.608,2.726-1.203,3.966
				c-1.234,2.573-2.777,4.995-4.556,7.224c-1.473,1.845-3.183,4.137-2.158,6.608c0.484,1.166,1.451,2.113,2.326,2.996
				c1.021,1.029,2.122,1.96,3.271,2.842c1.089,0.835,2.153-1.018,1.077-1.843c-1.088-0.835-2.112-1.756-3.067-2.74
				c-0.78-0.804-1.886-1.77-1.787-3.003c0.091-1.123,0.91-2.158,1.576-3.013c0.802-1.029,1.611-2.044,2.346-3.124
				c1.45-2.132,2.791-4.441,3.669-6.873c0.979-2.71,0.586-5.269-0.155-7.98C253.064,227.839,251.005,228.401,251.368,229.73
				L251.368,229.73z"/>
			<g>
				<path fill="#BC4A55" d="M268.335,267.801c-0.317,3.887-1.9,7.416-4.345,10.171c-3.206,3.637-7.908,5.928-13.135,5.928
					c-5.106,0-9.7-2.182-12.906-5.665c-2.573-2.789-4.25-6.419-4.581-10.434c-0.067-0.781,0.566-1.448,1.347-1.448h32.272
					c0.155,0,0.303,0.027,0.445,0.081C267.991,266.622,268.389,267.175,268.335,267.801z"/>
				<path fill="#FFFFFF" d="M267.432,266.434c-3.866,2.667-9.673,4.365-16.173,4.365c-6.561,0-12.421-1.731-16.281-4.446h32.01
					C267.143,266.353,267.291,266.38,267.432,266.434z"/>
				<path fill="#E27169" d="M263.99,277.973c-3.206,3.637-7.908,5.928-13.135,5.928c-5.106,0-9.7-2.182-12.906-5.665
					c3.631-1.711,8.265-2.735,13.31-2.735C256.042,275.5,260.454,276.417,263.99,277.973z"/>
			</g>
			<g>
				<path fill="#35356D" d="M211.781,214.096c-0.435,0.12-0.799-0.346-0.575-0.738c0.928-1.624,3.393-4.532,9.156-4.532
					c7.997,0,12.469,4.558,11.265,6.363c-1.204,1.806-4.343-2.623-10.835-2.365C216.363,213,213.288,213.681,211.781,214.096z"/>
				<path fill="#35356D" d="M270.525,214.096c-0.435,0.12-0.799-0.346-0.575-0.738c0.928-1.624,3.393-4.532,9.156-4.532
					c7.997,0,12.469,4.558,11.265,6.363c-1.204,1.806-4.343-2.623-10.835-2.365C275.107,213,272.032,213.681,270.525,214.096z"/>
			</g>
			<g>
				<g>
					<ellipse fill="#FFAA9F" cx="216.293" cy="250.261" rx="13.415" ry="9.889"/>
					<ellipse fill="#FFAA9F" cx="286.118" cy="250.261" rx="13.415" ry="9.889"/>
				</g>
			</g>
		</g>
		<path fill="#3888FC" d="M374.744,444.322H125.256c0,0,13.039-78.341,21.962-90.141c8.936-11.8,62.478-28.438,62.478-28.438
			s3.653,26.436,17.653,44.507c7.643,9.877,13.855,16.155,17.911,19.821c2.731,2.466,6.748,2.466,9.479,0
			c4.057-3.659,10.262-9.943,17.911-19.821c14-18.071,15.552-44.971,15.552-44.971s55.643,17.103,64.579,28.902
			C361.704,365.981,374.744,444.322,374.744,444.322z"/>
		<path fill="#336AE5" d="M340.306,444.322H156.028c-0.583-7.047-0.689-18.064,2.572-28.385c0,0,27.484,15.068,90.445,14.166
			c62.962-0.902,89.584-9.194,89.584-9.194S340.213,431.236,340.306,444.322z"/>
		<g>
			<g>
				<path fill="#2962D3" d="M167.175,372.728c0.436,5.034,2.234,9.959,1.96,15.048c-0.247,4.578-2.389,8.772-4.55,12.717
					c-2.248,4.103-4.431,8.184-6.09,12.57c-1.715,4.534-2.96,9.246-3.711,14.034c-0.832,5.307-1.087,10.682-0.721,16.041
					c0.093,1.363,2.228,1.373,2.134,0c-0.656-9.599,0.677-19.261,3.919-28.322c1.591-4.448,3.741-8.583,6.017-12.71
					c2.216-4.019,4.387-8.195,4.99-12.804c0.736-5.629-1.333-11.023-1.814-16.574C169.192,371.37,167.056,371.358,167.175,372.728
					L167.175,372.728z"/>
				<path fill="#2962D3" d="M326.469,372.728c-0.437,5.039-2.235,9.945-1.96,15.048c0.245,4.555,2.134,8.755,4.258,12.719
					c2.214,4.132,4.529,8.163,6.232,12.545c1.755,4.518,3.042,9.219,3.836,14.001c0.882,5.314,1.113,10.726,0.745,16.098
					c-0.094,1.371,2.041,1.365,2.134,0c0.653-9.555-0.64-19.245-3.785-28.293c-1.544-4.441-3.576-8.638-5.85-12.746
					c-2.227-4.024-4.603-8.165-5.286-12.785c-0.825-5.582,1.331-11.07,1.809-16.586C328.722,371.36,326.587,371.368,326.469,372.728
					L326.469,372.728z"/>
				<path fill="#2962D3" d="M203.496,348.294c1.386,9.573,4.727,18.815,9.757,27.076c0.713,1.171,2.56,0.1,1.843-1.077
					c-4.943-8.118-8.18-17.161-9.542-26.566C205.358,346.373,203.301,346.949,203.496,348.294L203.496,348.294z"/>
				<path fill="#2962D3" d="M216.989,379.578c5.365,10.324,15.346,17.835,26.792,20.01c3.445,0.655,6.957,0.851,10.452,0.561
					c1.359-0.113,1.371-2.248,0-2.134c-11.411,0.945-22.704-3.512-30.314-12.078c-2.004-2.255-3.696-4.761-5.087-7.437
					C218.199,377.282,216.356,378.36,216.989,379.578L216.989,379.578z"/>
			</g>
		</g>
		<g>
			<path fill="#E27169" d="M217.228,331.438c4.866-0.009,9.732-0.018,14.598-0.026c1.173-0.002,2.345-0.004,3.518-0.006
				c1.128-0.002,2.345-0.132,3.46,0.074c1.857,0.343,2.677,2.345,3.3,3.91c0.502,1.261,2.567,0.711,2.058-0.567
				c-0.718-1.804-1.555-3.747-3.283-4.808c-0.996-0.612-2.153-0.734-3.297-0.746c-1.332-0.014-2.665,0.004-3.996,0.007
				c-5.452,0.01-10.905,0.02-16.357,0.03C215.855,329.306,215.852,331.44,217.228,331.438L217.228,331.438z"/>
			<path fill="#E27169" d="M281.292,329.304c-5.452-0.01-10.905-0.02-16.357-0.03c-1.332-0.002-2.665-0.019-3.996-0.007
				c-1.108,0.011-2.211,0.126-3.19,0.685c-1.798,1.026-2.66,3.036-3.39,4.869c-0.508,1.276,1.555,1.83,2.058,0.567
				c0.625-1.57,1.441-3.559,3.3-3.91c1.057-0.199,2.215-0.076,3.284-0.075c1.231,0.002,2.462,0.004,3.693,0.007
				c4.866,0.009,9.732,0.018,14.598,0.026C282.665,331.44,282.668,329.306,281.292,329.304L281.292,329.304z"/>
		</g>
	</g>
</g>
</svg>
