<?xml version="1.0" encoding="iso-8859-1"?>
<!-- Generator: Adobe Illustrator 25.0.0, SVG Export Plug-In . SVG Version: 6.00 Build 0)  -->
<svg version="1.1" id="Object" xmlns="http://www.w3.org/2000/svg" xmlns:xlink="http://www.w3.org/1999/xlink" x="0px" y="0px"
	 width="500px" height="500px" viewBox="0 0 500 500" enable-background="new 0 0 500 500" xml:space="preserve">
<g>
	<defs>
		<circle id="SVGID_11_" cx="250" cy="250" r="186.175"/>
	</defs>
	<clipPath id="SVGID_2_">
		<use xlink:href="#SVGID_11_"  overflow="visible"/>
	</clipPath>
	<circle clip-path="url(#SVGID_2_)" fill="#FFE1CA" cx="250" cy="262.1" r="187.36"/>
	<g clip-path="url(#SVGID_2_)">
		<path fill="#FF9A41" d="M314.611,242.559c0,0,7.491-3.437,13.959-14.149s8.287-22.436,8.287-22.436l-2.223,26.074
			c0,0,17.383-25.603,6.064-59.829c-11.319-34.227-54.439-31.801-54.439-31.801s-13.071-30.858-80.581,5.525
			s-44.468,97.425-31.127,123.701c13.34,26.276-46.489,60.638,4.447,99.042s162.914,20.617,167.361-27.085
			C350.803,293.899,314.611,242.559,314.611,242.559z"/>
		<path fill="#FFC9C0" d="M185.461,392.944c0.958,17.369-5.62,35.213-11.17,46.89h-49.194c0,0,9.698-71.954,26.141-84.352
			c4.806-3.626,12.461-7.315,20.892-10.727C177.189,355.617,184.425,374.111,185.461,392.944z"/>
		<path fill="#FFC9C0" d="M310.782,287.835c-6.666,24.256-34.762,16.174-34.762,16.174v27.487c0,0,3.769,1.14,9.452,3.072
			c-5.169,14.559-18.327,50.928-23.473,58.646c-6.468,9.698-9.698,12.936-19.404,2.423c-7.56-8.202-28.08-46.122-36.741-62.423
			c6.982-2.09,11.677-3.333,11.677-3.333s1.085-31.263-1.077-46.091c-2.153-14.82-3.769-18.327-3.769-18.327
			s-26.956,7.014-28.302-12.936c-1.346-19.942,11.052-23.441,18.327-21.288c7.276,2.153,5.93,9.437,18.327,3.507
			c12.397-5.93,18.327-6.737,37.192-33.155c18.865-26.41,49.455-25.737,55.179-5.724
			C313.41,195.868,317.456,263.579,310.782,287.835z"/>
		<path fill="#FFC9C0" d="M325.601,439.834V423.93c0-15.897-10.774-25.333-14.551-36.915c-2.565-7.885-0.514-29.355,1.053-42.283
			c11.107,4.837,21.438,10.402,25.357,15.596c9.975,13.213,22.642,79.507,22.642,79.507H325.601z"/>
		<path fill="#35356D" d="M275.549,325.734h-57.579c-1.375,0-2.489-1.115-2.489-2.489v-9.777c0-1.375,1.115-2.489,2.489-2.489
			h57.579c1.375,0,2.489,1.115,2.489,2.489v9.777C278.038,324.619,276.923,325.734,275.549,325.734z"/>
		<path fill="#E27169" d="M276.017,304.005c0,0-18.09-2.628-31.128-11.42c-13.037-8.792-17.484-17.08-17.484-17.08
			s5.979,18.991,15.867,25.805c16.035,11.05,32.795,9.668,32.795,9.668L276.017,304.005z"/>
		<path fill="#FF4F4D" d="M325.601,423.93v15.905h-151.31c5.55-11.677,12.128-29.521,11.17-46.89
			c-1.037-18.834-8.273-37.327-13.331-48.189c11.574-4.679,24.605-8.827,33.725-11.542c8.661,16.3,29.181,54.221,36.741,62.423
			c9.706,10.513,12.936,7.275,19.404-2.423c5.146-7.719,18.303-44.088,23.473-58.646c7.077,2.399,17.14,6.017,26.632,10.165
			c-1.567,12.928-3.618,34.398-1.053,42.283C314.827,398.597,325.601,408.033,325.601,423.93z"/>
		<g>
			<path fill="#E27169" d="M318.428,377.439c-1.354,7.842-1.54,15.83-0.488,23.721c0.077,0.576,0.436,1.06,1.067,1.067
				c0.518,0.005,1.143-0.496,1.067-1.067c-1.025-7.689-0.908-15.507,0.412-23.154C320.718,376.663,318.662,376.086,318.428,377.439
				L318.428,377.439z"/>
			<path fill="#E27169" d="M220.434,344.589c4.96,0.018,9.919,0.037,14.879,0.055c2.422,0.009,4.867-0.079,7.285,0.07
				c2.021,0.125,4.239,0.683,5.354,2.532c0.709,1.175,2.555,0.103,1.843-1.077c-2.655-4.402-8.7-3.637-13.081-3.654
				c-5.426-0.02-10.853-0.04-16.279-0.061C219.061,342.45,219.059,344.584,220.434,344.589L220.434,344.589z"/>
			<path fill="#E27169" d="M262.676,346.71c1.722,0.03,3.442-0.127,5.135-0.442c0.55-0.102,0.912-0.797,0.745-1.313
				c-0.19-0.588-0.723-0.855-1.313-0.745c-0.2,0.037-0.4,0.073-0.6,0.105c-0.108,0.017-0.216,0.034-0.324,0.05
				c-0.053,0.008-0.33,0.05-0.088,0.014c-0.386,0.057-0.777,0.092-1.166,0.124c-0.795,0.065-1.592,0.088-2.389,0.074
				c-0.558-0.01-1.093,0.498-1.067,1.067C261.636,346.23,262.078,346.7,262.676,346.71L262.676,346.71z"/>
			<path fill="#E27169" d="M171.47,375.044c6.647,10.556,10.702,22.655,11.697,35.094c0.109,1.36,2.244,1.371,2.134,0
				c-1.025-12.815-5.136-25.288-11.989-36.171C172.583,372.808,170.736,373.878,171.47,375.044L171.47,375.044z"/>
		</g>
		<g>
			<path fill="#E27169" d="M194.14,241.355c0.957-1.243,2.686-1.669,4.183-1.495c1.751,0.203,3.24,1.277,4.218,2.713
				c2.585,3.797,1.77,8.609,1.009,12.84c-0.241,1.343,1.815,1.919,2.058,0.567c0.935-5.203,1.743-11.102-1.971-15.464
				c-2.887-3.39-8.477-3.956-11.34-0.239c-0.354,0.46-0.067,1.191,0.383,1.46C193.227,242.066,193.79,241.81,194.14,241.355
				L194.14,241.355z"/>
			<path fill="#E27169" d="M198.107,254.149c-0.174-0.314-0.203-0.369-0.304-0.677c-0.094-0.286-0.167-0.581-0.211-0.879
				c0.025,0.176-0.012-0.152-0.013-0.167c-0.011-0.151-0.017-0.302-0.016-0.453c0-0.151,0.007-0.303,0.018-0.454
				c0.006-0.076,0.013-0.151,0.022-0.226c-0.013,0.096-0.009,0.078,0.011-0.054c0.11-0.556,0.263-1.063,0.47-1.459
				c0.282-0.54,0.48-0.81,0.923-1.221c0.672-0.623,1.76-1.051,2.628-1.118c0.609-0.047,1.036-0.015,1.52,0.098
				c0.147,0.034,0.292,0.075,0.436,0.121c0.04,0.013,0.394,0.144,0.273,0.094c0.279,0.117,0.542,0.272,0.793,0.438
				c0.482,0.317,1.18,0.096,1.46-0.383c0.305-0.521,0.1-1.142-0.383-1.46c-1.975-1.3-4.546-1.355-6.66-0.372
				c-2.145,0.996-3.422,3.182-3.624,5.486c-0.114,1.299,0.184,2.625,0.813,3.764C196.928,256.428,198.772,255.353,198.107,254.149
				L198.107,254.149z"/>
		</g>
		<path fill="#35356D" d="M200.846,308.831c-6.531,0-11.648-10.377-11.648-23.623c0-8.291,2.025-15.798,5.416-20.082l1.862,1.474
			c-3.024,3.821-4.902,10.951-4.902,18.609c0,11.518,4.247,21.248,9.273,21.248s9.273-9.73,9.273-21.248s-4.247-21.249-9.273-21.249
			v-2.375c6.531,0,11.648,10.377,11.648,23.624C212.494,298.454,207.377,308.831,200.846,308.831z"/>
		<path fill="#E27169" d="M286.89,230.671c-2.427,4.382,0.741,8.837,3.616,12.03c0.816,0.906,1.653,1.803,2.359,2.799
			c0.306,0.432,0.763,0.98,0.879,1.51c0.133,0.607-0.304,1.075-0.637,1.542c-1.545,2.17-3.255,4.216-5.077,6.158
			c-0.939,1.001,0.567,2.513,1.509,1.509c1.834-1.954,3.545-4.02,5.121-6.188c0.728-1.001,1.471-2.015,1.205-3.321
			c-0.228-1.121-0.997-2.106-1.682-2.99c-1.474-1.904-3.333-3.529-4.624-5.572c-1.179-1.866-1.969-4.338-0.827-6.401
			C289.398,230.546,287.556,229.468,286.89,230.671L286.89,230.671z"/>
		<ellipse fill="#35356D" cx="264.854" cy="231.558" rx="4.506" ry="6.569"/>
		<ellipse fill="#35356D" cx="302.014" cy="231.068" rx="4.151" ry="6.079"/>
		<path fill="#35356D" d="M256.276,219.016c0,0,1.792-2.877,5.755-3.746c3.963-0.869,5.863-0.38,6.298,0.543
			c0.434,0.923,0.326,2.715-1.086,2.932c-1.412,0.217-3.963-0.489-6.135,0.271C258.936,219.777,255.407,221.731,256.276,219.016z"/>
		<path fill="#35356D" d="M297.429,216.193c0,0-0.869,1.574,0.434,2.389c1.303,0.814,2.117-0.489,5.158,1.14
			c3.04,1.629,4.886,1.086,4.18-0.814S297.972,213.262,297.429,216.193z"/>
		<g>
			<path fill="#BC4A55" d="M260.35,267.531c-0.243,3.504,0.69,6.862,2.495,9.646c2.364,3.673,6.242,6.348,10.898,7.055
				c4.548,0.69,8.934-0.633,12.261-3.302c2.669-2.136,4.653-5.143,5.49-8.674c0.165-0.687-0.308-1.366-1.004-1.472l-28.744-4.361
				c-0.138-0.021-0.274-0.017-0.407,0.012C260.816,266.528,260.387,266.966,260.35,267.531z"/>
			<path fill="#FFFFFF" d="M261.339,266.436c3.083,2.898,8.025,5.195,13.815,6.073c5.843,0.887,11.297,0.137,15.101-1.76
				l-28.51-4.325C261.608,266.403,261.472,266.407,261.339,266.436z"/>
			<path fill="#E27169" d="M262.845,277.178c2.364,3.673,6.242,6.348,10.898,7.055c4.548,0.69,8.934-0.633,12.261-3.302
				c-3.003-2.014-6.992-3.553-11.485-4.234C270.259,276.05,266.205,276.27,262.845,277.178z"/>
		</g>
		<g>
			<ellipse fill="#FFAA9F" cx="256.988" cy="251.46" rx="12.799" ry="9.128"/>
			<ellipse fill="#FFAA9F" cx="305.177" cy="253.909" rx="8.031" ry="6.679"/>
		</g>
	</g>
</g>
</svg>
