<?xml version="1.0" encoding="UTF-8"?>
<!-- Generator: Adobe Illustrator 25.2.3, SVG Export Plug-In . SVG Version: 6.00 Build 0)  -->
<svg xmlns="http://www.w3.org/2000/svg" xmlns:xlink="http://www.w3.org/1999/xlink" version="1.1" id="Capa_1" x="0px" y="0px" viewBox="0 0 511.929 511.929" style="enable-background:new 0 0 511.929 511.929;" xml:space="preserve" width="512" height="512">
<g>
	<g>
		<path style="fill:#FFFFFF;" d="M256.031,511.929c-30.687-0.001-61.375-5.535-90.002-16.603    c-48.135-18.609-90.04-52.693-118.501-95.698C22.307,361.519,7.997,316.309,6.463,270.647    c-1.771-52.734,13.566-105.595,43.36-149.138C70.834,50.953,156.037,0,253.656,0c92.115,0,171.823,43.578,199.19,108.662    c45.461,58.159,62.96,135.771,46.935,207.852c-10.657,47.939-35.837,92.307-71.334,126.224    c-23.794,22.736-52.014,40.886-82.744,52.717C317.17,506.439,286.6,511.93,256.031,511.929z"/>
	</g>
	<g>
		<g>
			<path style="fill:#FFB9C2;" d="M423.734,429.615c30.861-30.491,52.669-69.367,62.971-111.488     c4.569-18.681,6.642-37.314,6.492-55.803c-0.121-14.955-1.707-29.884-4.582-44.557c-7.324-37.385-23.728-72.523-47.253-102.451     c-30.19-38.406-72.271-66.462-119.29-79.8c-26.501-7.518-54.255-9.999-81.692-7.752c-51.558,4.222-100.52,24.037-139.307,58.515     c-24.276,21.579-43.971,48.276-57.479,77.812c-21.866,47.812-27.238,102.645-14.84,153.77     c10.061,41.49,31.588,80.004,61.654,110.306l114.573,13.683l76.915,38.6l69.001-48.164L423.734,429.615z"/>
		</g>
		<g>
			<g>
				<ellipse style="fill:#D3542B;" cx="255.445" cy="155.557" rx="194.819" ry="141.542"/>
			</g>
			<g>
				<g>
					<path style="fill:#FF8476;" d="M293.021,379.208c-0.257-0.234-0.514-0.561-0.747-0.958c-2.85-4.765-3.574-20.298-3.667-32.982       c-0.07-9.834,0.233-17.963,0.233-17.963l-16.701-0.187v-0.397l-8.409,0.28l-23.779-0.28v1.098l-19.691,0.677       c0,0,0.794,7.521,1.332,16.795c0.771,13.501-0.748,31.72-4.275,34.897l18.437,49.01l33.94-17.512l20.581,6.68L293.021,379.208z       "/>
				</g>
				<g>
					<path style="fill:#331510;" d="M288.606,345.268c-10.535,7.778-23.195,12.614-36.229,12.357       c-11.259-0.21-22.564-4.765-30.786-12.333c-0.537-9.273-1.332-16.795-1.332-16.795l19.691-0.677v-1.098l23.779,0.28l8.409-0.28       v0.397l16.701,0.187C288.839,327.306,288.536,335.434,288.606,345.268z"/>
				</g>
			</g>
			<g>
				<g>
					<g>
						<path style="fill:#FF8476;" d="M171.745,263.617c-0.953,2.769-2.542,5.424-4.993,6.967c-0.772,0.477-1.611,0.84-2.474,1.135        c-0.817,0.272-1.679,0.454-2.542,0.613c-11.325,2.088-23.557-2.202-31.228-10.757c-7.648-8.579-10.553-21.129-7.603-32.227        c0.999-3.699,2.633-7.33,5.288-10.076c3.926-4.062,9.827-5.878,15.478-5.606c4.88,0.204,8.896,1.77,12.255,4.199        c0.25,0.159,0.499,0.34,0.749,0.545c0.023,0,0.045,0.045,0.045,0.045c7.58,5.923,11.665,16.386,14.616,25.804        C173.334,250.522,173.924,257.421,171.745,263.617z"/>
					</g>
					<g>
						<path style="fill:#331510;" d="M164.498,259.551c-0.228,0-0.444-0.139-0.529-0.365c-6.425-16.749-20.231-30.657-36.934-37.205        c-0.291-0.114-0.435-0.444-0.32-0.736c0.115-0.292,0.44-0.439,0.736-0.32c16.994,6.662,31.042,20.813,37.578,37.855        c0.113,0.292-0.033,0.62-0.326,0.732C164.635,259.539,164.565,259.551,164.498,259.551z"/>
					</g>
				</g>
				<g>
					<g>
						<path style="fill:#FF8476;" d="M360.088,196.554l-0.522,3.041l-0.295,1.384l-1.157,6.332v0.023l-0.068,0.386l-5.197,28.732        l-3.472,19.291l-0.136,0.726c-0.159,1.225-0.363,2.519-0.567,3.835c-0.25,1.566-0.545,3.177-0.862,4.857        c-0.681,3.631-1.452,7.467-2.247,11.257c-1.43,6.695-2.928,13.231-4.085,18.292c-0.023,0.046-0.023,0.068-0.046,0.114        c-4.13,17.725-21.151,29.254-42.643,35.835c-0.749,0.25-1.521,0.454-2.292,0.636c-18.201,5.265-39.33,7.081-58.53,6.196        c-4.448-0.182-8.76-0.522-12.936-0.999c-0.023,0-0.023,0-0.023,0c-18.973-2.133-34.587-7.058-41.236-13.866        c-3.631-3.699-6.831-9.555-9.668-16.794c-1.089-2.723-2.111-5.651-3.087-8.715c-1.997-6.332-3.79-13.299-5.401-20.539v-0.023        l-0.613-2.86c-0.159,0.046-0.272,0.091-0.431,0.136l-0.295-2.111l-0.431-2.996l-2.065-14.57l-5.106-35.676v-0.068l-0.59-4.108        c0-0.114-0.023-0.227-0.045-0.341c-0.159-1.634-0.295-3.177-0.431-4.652c-0.953-9.441-1.362-15.432-1.362-15.432l0.341-0.045        c-0.522-3.404-0.908-6.854-1.112-10.349c-1.634-28.799,8.805-55.489,27.007-75.256c0.068-0.091,0.159-0.159,0.227-0.25        c8.465-9.169,18.61-16.839,30.002-22.513c1.271-0.658,2.565-1.271,3.903-1.861V83.58c11.393-5.061,23.875-8.238,37.083-8.964        c13.866-0.772,27.234,1.157,39.602,5.333c0.522,0.204,1.044,0.386,1.589,0.59c10.598,3.767,20.448,9.214,29.163,16.045        c0.091,0.068,0.182,0.136,0.272,0.204c20.766,16.272,35.199,40.306,38.694,67.993l0.272-0.046c0,0,0,0.636-0.045,1.861        c0.204,1.748,0.34,3.495,0.454,5.22C362.176,180.304,361.586,188.565,360.088,196.554z"/>
					</g>
				</g>
				<g>
					<path style="fill:#FF8476;" d="M364.283,205.895c5.593-0.843,11.643,0.351,15.974,3.989c2.934,2.464,4.933,5.887,6.295,9.469       c4.086,10.75,2.497,23.519-4.242,32.838c-6.739,9.319-18.467,14.841-29.93,13.926c-1.779-0.142-3.576-0.438-5.177-1.226       c-2.61-1.285-4.451-3.766-5.688-6.399c-2.796-5.949-2.919-12.876-1.597-19.315C342.823,225.02,347.856,208.369,364.283,205.895       z"/>
				</g>
				<g>
					<path style="fill:#331510;" d="M346.681,256.186c-0.049,0-0.1-0.007-0.151-0.021c-0.302-0.083-0.479-0.396-0.397-0.698       c5.154-18.78,18.786-34.868,36.467-43.033c0.286-0.129,0.623-0.006,0.754,0.277c0.131,0.285,0.007,0.622-0.277,0.754       c-17.382,8.026-30.783,23.841-35.849,42.303C347.158,256.02,346.93,256.186,346.681,256.186z"/>
				</g>
			</g>
			<g>
				<path style="fill:#331510;" d="M143.945,213.088c2.928,0.611,5.288,2.732,7.335,4.912c3.724,3.963,6.937,8.406,9.535,13.183      c5.32-7.213,7.189-16.207,4.967-24.89c-1.078-4.211-3.051-8.159-4.017-12.397s-0.749-9.098,2.098-12.383      c3.149-3.634,8.655-4.428,11.923-7.955c3.484-3.76,3.484-9.615,2.133-14.56c-1.351-4.945-3.823-9.578-4.65-14.637      c-0.827-5.059,0.526-11.031,5.001-13.53c2.39-1.335,5.24-1.457,7.911-2.052c10.493-2.338,18.403-13.999,15.369-24.311      c-1.322-4.493-4.399-8.323-8.077-11.222c-9.121-7.19-22.338-8.754-32.885-3.891c-10.547,4.863-17.941,15.929-18.397,27.535      c-0.212,5.395,0.913,11.067-1.224,16.025c-1.884,4.371-5.942,7.321-9.372,10.62c-5.1,4.905-9.136,11.127-10.489,18.072      c-1.352,6.945,0.243,14.626,5.042,19.826c4.326,4.688,10.812,7.077,14.729,12.111      C144.874,198.677,147.186,207.446,143.945,213.088z"/>
			</g>
			<g>
				<path style="fill:#331510;" d="M156.95,93.893c-2.55-7.238-1.007-15.769,3.916-21.656c4.923-5.887,13.046-8.915,20.621-7.687      c5.288-8.434,14.702-14.684,24.657-14.77c3.408-4.549,9.365-6.361,15.035-6.759c8.127-0.57,16.406,1.222,23.57,5.101      c10.378-3.861,23.056-3.605,33.499,0.077c4.987,1.758,10.021,4.721,11.991,9.628c2.838-1.507,6.943-1.976,10.088-1.32      c3.145,0.656,6.066,2.131,8.777,3.854c6.129,3.894,11.667,9.688,12.645,16.884c1.039,7.645,3.081,16.007,2.114,23.662      c-0.571,4.521-2.59,9.84-7.093,10.542c-1.701,0.265-3.431-0.229-5.018-0.896c-6.222-2.618-10.971-7.824-14.969-13.262      c-0.788-1.071-1.634-2.219-2.89-2.656c-1.548-0.538-3.215,0.156-4.785,0.626c-6.779,2.03-14.688-0.53-18.992-6.147      c-7.655,8.517-22.09,9.757-31.086,2.671c0.023,4.521-4.556,7.594-8.787,9.188c-6.721,2.532-14.005,3.558-21.165,2.98      C190.893,102.483,174.677,89.572,156.95,93.893z"/>
			</g>
			<g>
				<path style="fill:#331510;" d="M313.282,105.949c0.076,6.37,0.525,13.553,5.568,17.742c2.908,2.416,7.059,3.516,9.179,6.586      c1.819,2.634,1.648,6.134,0.55,9.108c-1.098,2.974-3.009,5.601-4.585,8.373c-1.83,3.217-3.241,6.757-3.234,10.415      c0.007,3.658,1.626,7.453,4.816,9.493c3.796,2.427,9.86,2.768,11.049,6.97c0.98,3.461-2.368,6.52-3.787,9.84      c-1.857,4.347,0.036,9.845,4.236,12.302c2.49,1.457,5.536,1.885,7.993,3.392c4.251,2.607,2.967,8.165,3.283,12.72      c4.168-2.184,8.935-4.16,13.103-6.343c1.087-0.569,3.084-0.482,3.728-1.491c1.014-1.591,0.066-5.333-0.461-7.125      c-2.367-8.048-4.212-17.677,1.603-23.94c2.832-3.05,7.006-4.654,10.18-7.382c3.733-3.209,5.869-7.807,6.988-12.474      c1.394-5.809,1.181-12.419-2.721-17.079c-4.295-5.129-11.842-6.611-17.083-10.869c-4.932-4.008-7.46-10.531-6.443-16.627      c0.718-4.302,3.056-8.331,3.122-12.687c0.068-4.471-2.328-8.728-5.609-11.929c-3.281-3.201-7.399-5.493-11.515-7.65      c-4.867-2.55-10.228-5.043-15.73-4.304c-4.495,0.604-8.428,3.348-11.259,6.724C310.853,86.154,313.184,97.711,313.282,105.949z"/>
			</g>
			<g>
				<g>
					<g>
						<path style="fill:#331510;" d="M186.696,177.43c-3.811,2.252-6.95,5.217-8.715,8.62c-1.756,3.386-1.978,7.728,0.127,10.909        c1.623,2.452,4.419,3.95,7.299,4.544c2.88,0.594,5.865,0.374,8.781-0.006c5.252-0.684,10.437-1.881,15.459-3.563        c3.637-1.219,9.256-2.434,11.081-6.244c2.174-4.539-0.929-10.526-4.105-13.795C209.59,170.652,196.098,171.872,186.696,177.43        z"/>
					</g>
					<g>
						<path style="fill:#331510;" d="M314.529,174.746c3.811,2.252,6.95,5.217,8.715,8.62c1.756,3.386,1.978,7.728-0.127,10.909        c-1.623,2.452-4.419,3.95-7.299,4.544c-2.88,0.594-5.865,0.374-8.781-0.006c-5.252-0.684-10.437-1.881-15.459-3.563        c-3.637-1.218-9.256-2.434-11.081-6.244c-2.174-4.54,0.929-10.526,4.105-13.795        C291.634,167.968,305.127,169.189,314.529,174.746z"/>
					</g>
				</g>
				<g>
					<g>
						<path style="fill:#331510;" d="M216.084,216.537c0,5.352-4.339,9.691-9.691,9.691c-5.352,0-9.691-4.339-9.691-9.691        c0-5.352,4.339-9.691,9.691-9.691C211.745,206.846,216.084,211.185,216.084,216.537z"/>
					</g>
					<g>
						<path style="fill:#331510;" d="M308.822,213.555c0,5.352-4.339,9.691-9.691,9.691s-9.691-4.339-9.691-9.691        s4.339-9.691,9.691-9.691S308.822,208.203,308.822,213.555z"/>
					</g>
				</g>
				<g>
					<g>
						<path style="fill:#331510;" d="M246.506,255.424c-0.132,0-0.243-0.018-0.332-0.054c-0.731-0.292-2.091-0.836,1.54-45.613        c0.039-0.482,0.474-0.842,0.943-0.802c0.482,0.039,0.842,0.461,0.802,0.943c-1.239,15.289-2.904,39.861-2.351,43.774        c1.746-0.602,8.648-4.921,14.699-9.082c0.399-0.271,0.946-0.173,1.218,0.226c0.274,0.398,0.173,0.944-0.226,1.218        C253.73,252.271,248.256,255.424,246.506,255.424z"/>
					</g>
					<g>
						<path style="fill:#331510;" d="M254.569,268.254c-5.189,0-10.287-1.986-14.106-5.519c-0.355-0.328-0.376-0.883-0.048-1.239        c0.331-0.356,0.884-0.375,1.239-0.048c3.691,3.417,8.694,5.252,13.708,5.037c5.023-0.214,9.846-2.468,13.231-6.184        c0.327-0.359,0.882-0.383,1.237-0.058c0.358,0.326,0.383,0.88,0.058,1.237c-3.699,4.059-8.966,6.522-14.452,6.754        C255.147,268.247,254.858,268.254,254.569,268.254z"/>
					</g>
				</g>
			</g>
			<g>
				<path style="fill:#FADED3;" d="M423.734,429.615c-22.08,22.082-48.711,39.551-77.659,51.232      c-21.337,8.61-43.927,14.092-66.843,16.17c-25.746,2.334-51.878,0.452-77.003-5.649c-30.2-7.334-58.897-20.751-83.945-39.141      c-9.902-7.27-19.236-15.327-27.875-24.06c0.467-0.327,0.934-0.63,1.425-0.958c0.561-0.374,1.121-0.747,1.705-1.098      c1.308-0.841,2.663-1.658,4.064-2.453c1.168-0.701,2.383-1.378,3.644-2.056c29.989-16.114,63.975-25.594,96.527-35.135      c3.618-1.06,7.239-2.113,10.86-3.161c0.673-0.195,8.608-3.184,8.68-3.118c7.568,6.821,17.846,10.535,28.053,12.006      c10.581,1.518,21.653,0.888,31.557-3.2c5.816-2.406,11.165-6.073,15.346-10.745c0.233,0.396,0.489,0.722,0.745,0.956      c1.967,1.793,5.758,2.881,8.264,3.592c4.082,1.158,8.164,2.318,12.243,3.489c8.164,2.345,16.315,4.736,24.432,7.239      c16.198,4.995,32.273,10.44,47.968,16.857C398.972,415.717,412.39,421.24,423.734,429.615z"/>
			</g>
			<g>
				<g>
					<path style="fill:#D3542B;" d="M208.3,383.366c-0.14,0.631-0.257,1.308-0.397,2.032c-3.06,15.861-4.952,31.931-5.956,48.072       c-1.191,19.247-1.098,38.541-0.21,57.789c-33.358-8.094-64.786-23.752-91.527-45.251c-6.928-5.57-13.537-11.53-19.799-17.839       c-0.057-0.057,9.96-6.874,21.606-13.096c9.488-5.07,17.224-7.954,24.468-10.569c16.781-6.058,31.708-9.61,48.808-14.674       c3.489-1.033,9.562-2.84,13.133-3.836C201.462,385.146,208.3,383.366,208.3,383.366z"/>
				</g>
				<g>
					<path style="fill:#D3542B;" d="M423.734,429.615c-0.08-0.059-13.344,12.303-14.497,13.272       c-5.253,4.411-10.698,8.592-16.315,12.529c-24.351,17.068-51.893,29.466-80.841,36.286       c-0.467-16.211-1.308-32.421-2.523-48.609c-1.355-17.916-3.177-35.902-7.171-53.444c-0.607-2.663-1.582-4.891-2.329-7.203       c0,0,13.515,3.891,15.967,4.565c6.901,1.896,13.815,4.026,20.658,6.123c21.645,6.633,43.273,13.659,63.89,23.046       C408.776,419.953,416.478,424.258,423.734,429.615z"/>
				</g>
				<g>
					<path style="fill:#331510;" d="M145.372,470.318c-0.216,0-0.431-0.08-0.6-0.237c-0.352-0.333-0.37-0.887-0.038-1.239       l34.768-36.965l-42.579-24.488c-0.42-0.242-0.563-0.778-0.323-1.195c0.241-0.422,0.777-0.568,1.196-0.324l43.539,25.04       c0.232,0.135,0.39,0.367,0.43,0.632c0.039,0.265-0.046,0.534-0.229,0.728l-35.528,37.773       C145.837,470.225,145.605,470.318,145.372,470.318z"/>
				</g>
				<g>
					<path style="fill:#331510;" d="M373.794,468.38c-0.219,0-0.438-0.082-0.608-0.244l-37.84-36.418       c-0.177-0.171-0.274-0.408-0.268-0.655c0.007-0.246,0.116-0.477,0.301-0.639l31.603-27.446       c0.365-0.315,0.918-0.276,1.236,0.087c0.317,0.365,0.278,0.919-0.087,1.236l-30.88,26.819l37.15,35.752       c0.348,0.335,0.358,0.89,0.023,1.239C374.253,468.291,374.023,468.38,373.794,468.38z"/>
				</g>
			</g>
		</g>
		<g>
			<g>
				<path style="fill:#FADED3;" d="M53.309,343.802c0,0,14.026,0.721,16.561-2.54c2.536-3.261,5.279-17.388,5.279-17.388      s1.281,13.193,3.37,16.925c2.442,4.365,15.369,7.017,15.369,7.017s-12.065-0.375-15.25,3.193      c-2.171,2.432-6.097,12.843-6.492,17.121c0,0-0.285-16.065-3.759-18.466C64.913,347.263,53.309,343.802,53.309,343.802z"/>
			</g>
			<g>
				<path style="fill:#FADED3;" d="M49.725,240.298c0,0,14.026,0.721,16.561-2.54c2.536-3.261,5.279-17.388,5.279-17.388      s1.281,13.193,3.37,16.925c2.442,4.365,15.369,7.017,15.369,7.017s-12.065-0.374-15.25,3.193      c-2.171,2.432-6.097,12.843-6.492,17.121c0,0-0.286-16.065-3.759-18.466C61.329,243.76,49.725,240.298,49.725,240.298z"/>
			</g>
			<g>
				<path style="fill:#FADED3;" d="M410.007,385.121c0,0,14.025,0.721,16.561-2.54c2.536-3.261,5.278-17.387,5.278-17.387      s1.281,13.193,3.37,16.925c2.442,4.365,15.369,7.017,15.369,7.017s-12.065-0.374-15.25,3.193      c-2.171,2.432-6.097,12.843-6.492,17.121c0,0-0.286-16.065-3.759-18.466C421.611,388.582,410.007,385.121,410.007,385.121z"/>
			</g>
			<g>
				<g>
					<path style="fill:#FADED3;" d="M427.744,231.551c0,0,14.025,0.721,16.561-2.54c2.536-3.261,5.279-17.388,5.279-17.388       s1.281,13.193,3.37,16.925c2.442,4.365,15.369,7.017,15.369,7.017s-12.065-0.374-15.25,3.193       c-2.171,2.432-6.098,12.843-6.492,17.121c0,0-0.286-16.065-3.759-18.466C439.349,235.013,427.744,231.551,427.744,231.551z"/>
				</g>
				<g>
					<circle style="fill:#FADED3;" cx="404.231" cy="137.629" r="7.129"/>
				</g>
			</g>
			<g>
				<circle style="fill:#FADED3;" cx="146.114" cy="376.119" r="7.129"/>
			</g>
			<g>
				<path style="fill:#FADED3;" d="M391.621,315.984c0,3.937-3.192,7.129-7.129,7.129c-3.937,0-7.129-3.192-7.129-7.129      c0-3.937,3.192-7.129,7.129-7.129C388.429,308.855,391.621,312.047,391.621,315.984z"/>
			</g>
		</g>
	</g>
</g>















</svg>
