<?xml version="1.0" encoding="iso-8859-1"?>
<!-- Generator: Adobe Illustrator 25.0.0, SVG Export Plug-In . SVG Version: 6.00 Build 0)  -->
<svg version="1.1" id="Object" xmlns="http://www.w3.org/2000/svg" xmlns:xlink="http://www.w3.org/1999/xlink" x="0px" y="0px"
	 width="500px" height="500px" viewBox="0 0 500 500" enable-background="new 0 0 500 500" xml:space="preserve">
<g>
	<defs>
		<circle id="SVGID_21_" cx="250" cy="258.147" r="186.175"/>
	</defs>
	<clipPath id="SVGID_2_">
		<use xlink:href="#SVGID_21_"  overflow="visible"/>
	</clipPath>
	<circle clip-path="url(#SVGID_2_)" fill="#FFDCDC" cx="250" cy="270.247" r="187.36"/>
	<g clip-path="url(#SVGID_2_)">
		<g>
			<g>
				<rect x="218.599" y="280.619" fill="#FFAA9F" width="63.404" height="82.183"/>
				
					<ellipse transform="matrix(0.9793 -0.2025 0.2025 0.9793 -46.5833 41.7544)" fill="#FFAA9F" cx="180.792" cy="248.563" rx="15.741" ry="19.137"/>
				<g>
					<path fill="#E27169" d="M174.903,239.507c3.611,0.665,5.841,3.78,6.904,7.094c1.217,3.792,1.436,7.873,0.933,11.808
						c-0.174,1.359,1.962,1.346,2.134,0c0.558-4.369,0.255-9.077-1.305-13.226c-1.37-3.645-4.089-6.994-8.099-7.733
						C174.128,237.202,173.552,239.258,174.903,239.507L174.903,239.507z"/>
					<path fill="#E27169" d="M183.068,247.06c-0.318-0.015-0.363-0.021-0.677-0.078c-0.241-0.044-0.481-0.097-0.721-0.147
						c-0.542-0.113-1.093-0.221-1.647-0.244c-1.229-0.051-2.278,0.47-3.15,1.307c-1.509,1.447-2.394,3.587-1.904,5.669
						c0.132,0.561,0.772,0.894,1.313,0.745c0.574-0.158,0.878-0.75,0.745-1.313c-0.025-0.106-0.049-0.212-0.065-0.32
						c0.022,0.152,0.002-0.03-0.001-0.092c-0.011-0.197-0.005-0.393,0.011-0.59c0.027-0.325-0.047,0.177,0.023-0.142
						c0.019-0.088,0.037-0.176,0.06-0.264c0.05-0.193,0.111-0.384,0.185-0.57c-0.062,0.157,0.07-0.147,0.07-0.147
						c0.04-0.083,0.083-0.164,0.128-0.245c0.098-0.178,0.206-0.35,0.322-0.517c0.157-0.226,0.409-0.51,0.703-0.782
						c0.602-0.557,1.097-0.697,1.973-0.571c-0.134-0.019,0.093,0.019,0.131,0.026c0.1,0.018,0.199,0.037,0.298,0.057
						c0.22,0.044,0.439,0.093,0.659,0.138c0.509,0.104,1.025,0.189,1.545,0.214c0.558,0.027,1.092-0.51,1.067-1.067
						C184.108,247.527,183.666,247.089,183.068,247.06L183.068,247.06z"/>
				</g>
				
					<ellipse transform="matrix(0.2025 -0.9793 0.9793 0.2025 11.0152 510.652)" fill="#FFAA9F" cx="319.025" cy="248.563" rx="19.137" ry="15.741"/>
				<g>
					<g>
						<path fill="#E27169" d="M324.346,237.449c-4.011,0.739-6.73,4.089-8.099,7.733c-1.559,4.149-1.863,8.858-1.305,13.226
							c0.172,1.344,2.308,1.361,2.134,0c-0.503-3.935-0.284-8.016,0.933-11.808c1.063-3.313,3.293-6.428,6.904-7.094
							C326.263,239.259,325.691,237.201,324.346,237.449L324.346,237.449z"/>
						<path fill="#E27169" d="M316.748,249.195c0.499-0.024,0.995-0.103,1.485-0.202c0.22-0.044,0.44-0.093,0.66-0.138
							c0.099-0.02,0.199-0.04,0.298-0.059c-0.009,0.002,0.334-0.057,0.191-0.037c0.212-0.03,0.43-0.042,0.644-0.038
							c0.096,0.002,0.194,0.003,0.289,0.017c-0.162-0.024,0.175,0.049,0.172,0.048c0.336,0.094,0.59,0.288,0.868,0.544
							c0.295,0.272,0.547,0.557,0.703,0.782c0.106,0.151,0.205,0.308,0.295,0.469c0.054,0.096,0.106,0.194,0.155,0.293
							c0.015,0.03,0.133,0.307,0.07,0.147c0.067,0.169,0.124,0.342,0.171,0.517c0.028,0.105,0.049,0.21,0.073,0.316
							c0.043,0.186,0.006-0.023,0.018,0.089c0.021,0.196,0.028,0.393,0.02,0.59c0,0.008-0.032,0.342-0.005,0.145
							c-0.015,0.108-0.04,0.214-0.065,0.32c-0.128,0.542,0.169,1.181,0.745,1.313c0.546,0.124,1.176-0.164,1.313-0.745
							c0.489-2.079-0.393-4.225-1.904-5.669c-0.859-0.82-1.883-1.342-3.092-1.309c-0.574,0.015-1.146,0.129-1.706,0.246
							c-0.24,0.05-0.48,0.103-0.721,0.147c-0.328,0.061-0.356,0.063-0.677,0.078c-0.557,0.027-1.094,0.472-1.067,1.067
							C315.706,248.683,316.151,249.223,316.748,249.195L316.748,249.195z"/>
					</g>
				</g>
				<path fill="#FFC9C0" d="M276.319,310.996h-52.036c-20.221,0-36.613-16.392-36.613-36.613v-92.957h125.262v92.957
					C312.932,294.604,296.54,310.996,276.319,310.996z"/>
				<path fill="#FF4F4D" d="M315.885,226.83c-0.331,2.005-2.064,3.472-4.101,3.472c-2.291,0-4.153-1.856-4.153-4.153v-34.615
					c0-0.636-0.72-0.993-1.233-0.617c-3.809,2.79-17.593,10.228-56.096,10.228c-38.502,0-52.286-7.437-56.102-10.228
					c-0.513-0.376-1.227-0.019-1.227,0.617v34.461c0,2.041-1.406,3.889-3.415,4.242c-2.338,0.41-4.468-1.16-4.846-3.407
					c-1.843-10.993-6.34-45.583,5.607-67.277c5.685-10.319,16.268-16.951,26.981-21.199c21.158-8.388,44.845-8.388,66.003,0.001
					c10.712,4.247,21.293,10.879,26.975,21.198C322.232,181.247,317.735,215.837,315.885,226.83z"/>
				<g>
					<ellipse fill="#35356D" cx="222.157" cy="233.619" rx="4.253" ry="6.71"/>
					<ellipse fill="#35356D" cx="277.659" cy="233.619" rx="4.253" ry="6.71"/>
				</g>
				<path fill="#E27169" d="M247.101,234.306c0.374,1.368,0.775,2.768,0.69,4.201c-0.082,1.38-0.618,2.7-1.216,3.929
					c-1.206,2.479-2.703,4.786-4.416,6.942c-1.432,1.803-3.01,4.039-1.938,6.418c0.502,1.114,1.452,2.032,2.306,2.883
					c0.955,0.951,1.981,1.813,3.049,2.633c1.089,0.835,2.153-1.018,1.077-1.843c-1.004-0.77-1.952-1.618-2.838-2.521
					c-0.723-0.737-1.794-1.645-1.824-2.759c-0.031-1.138,0.834-2.223,1.494-3.072c0.77-0.991,1.551-1.966,2.259-3.004
					c1.433-2.1,2.772-4.391,3.61-6.8c0.896-2.572,0.503-5.012-0.197-7.575C248.797,232.415,246.738,232.977,247.101,234.306
					L247.101,234.306z"/>
				<g>
					<path fill="#35356D" d="M212.424,221.564c-0.419,0.115-0.77-0.333-0.554-0.711c0.894-1.565,3.269-4.366,8.821-4.366
						c7.705,0,12.013,4.391,10.853,6.131c-1.16,1.74-4.184-2.527-10.438-2.278C216.838,220.508,213.876,221.164,212.424,221.564z"/>
					<path fill="#35356D" d="M269.018,221.564c-0.419,0.115-0.77-0.333-0.554-0.711c0.894-1.565,3.269-4.366,8.821-4.366
						c7.705,0,12.013,4.391,10.853,6.131s-4.184-2.527-10.438-2.278C273.432,220.508,270.47,221.164,269.018,221.564z"/>
				</g>
				<path fill="#FF4F4D" d="M308.622,310.65c-4.591,4.198-10.547,7.688-16.898,10.562c-26.425,11.956-56.898,11.957-83.322-0.001
					c-6.35-2.874-12.304-6.363-16.892-10.56c-18.354-16.788-4.88-57.368-4.88-57.368l-2.389-30.248c0,0-3.447-27.483-1.113-36.322
					c2.341-8.839,11.713-8.385,11.713,4.205v69.471c0,0,35.936-7.398,55.225,6.081c19.282-13.479,55.225-6.081,55.225-6.081v-69.471
					c0-12.59,9.372-13.044,11.706-4.205c2.341,8.839-1.106,36.322-1.106,36.322l-2.396,30.248
					C313.495,253.282,326.975,293.861,308.622,310.65z"/>
				<path fill="#FFC9C0" d="M255.675,274.727c-4.467,1.028-8.931,0.989-13.514,0.148c-8.988-1.648-14.157,3.521-10.861,10.786
					c3.296,7.266,20.149,11.61,30.411,6.741c5.269-2.5,11.898-13.089,5.467-17.8c-2.686-1.967-6.205-1.444-9.173-0.51
					C257.227,274.337,256.451,274.548,255.675,274.727z"/>
				<path fill="#E27169" d="M235.268,281.579c4.417,3.13,9.767,4.69,15.152,4.867c2.665,0.087,5.347-0.173,7.955-0.728
					c2.678-0.57,5.521-1.373,7.511-3.356c0.974-0.971-0.534-2.48-1.509-1.509c-1.779,1.772-4.465,2.378-6.849,2.866
					c-2.428,0.497-4.917,0.688-7.393,0.582c-4.934-0.21-9.747-1.7-13.789-4.565C235.223,278.941,234.155,280.791,235.268,281.579
					L235.268,281.579z"/>
			</g>
			<g>
				<ellipse fill="#F9E8E5" cx="251.887" cy="119.471" rx="15.195" ry="15.291"/>
				<path fill="#35356D" d="M182.211,191.97c0,0-5.094-75.557,69.675-75.557s66.546,79.155,66.546,79.155L182.211,191.97z"/>
				<path fill="#F9E8E5" d="M174.103,197.497l2.983,12.106c0.912,3.699,4.751,5.832,8.349,4.642
					c11.958-3.958,38.963-11.48,71.502-11.48c30.35,0,50.396,7.989,59.965,12.985c3.525,1.841,7.847,0.099,9.141-3.68l3.464-10.117
					c0.825-2.408,0.192-5.079-1.633-6.844c-7.405-7.16-29.942-24.005-78.088-24.005c-47.419,0-67.309,13.852-73.847,20.069
					C174.235,192.791,173.539,195.207,174.103,197.497z"/>
				<g>
					<g>
						<path fill="#E2BAB5" d="M189.248,182.347c-1.484,9.662-1.299,19.481,0.57,29.078c0.262,1.347,2.32,0.777,2.058-0.567
							c-1.79-9.192-1.991-18.685-0.57-27.943C191.512,181.571,189.456,180.992,189.248,182.347L189.248,182.347z"/>
						<path fill="#E2BAB5" d="M205.592,177.836c0.144,9.334,0.289,18.668,0.433,28.003c0.021,1.372,2.155,1.376,2.134,0
							c-0.144-9.334-0.289-18.668-0.433-28.003C207.705,176.464,205.57,176.46,205.592,177.836L205.592,177.836z"/>
						<path fill="#E2BAB5" d="M227.856,172.726c1.273,10.324,1.795,20.73,1.56,31.13c-0.031,1.374,2.103,1.373,2.134,0
							c0.235-10.4-0.286-20.805-1.56-31.13C229.825,171.38,227.688,171.363,227.856,172.726L227.856,172.726z"/>
						<path fill="#E2BAB5" d="M250.793,172.025c1.953,9.427,2.52,19.093,1.724,28.686c-0.114,1.369,2.021,1.361,2.134,0
							c0.812-9.783,0.191-19.643-1.8-29.254C252.572,170.114,250.515,170.683,250.793,172.025L250.793,172.025z"/>
						<path fill="#E2BAB5" d="M273.057,174.656c1.218,8.71,1.058,17.615-0.454,26.278c-0.234,1.343,1.822,1.92,2.058,0.567
							c1.584-9.072,1.73-18.293,0.454-27.413C274.926,172.734,272.869,173.311,273.057,174.656L273.057,174.656z"/>
						<path fill="#E2BAB5" d="M295.09,178.139c1.555,9.362,0.117,19.155-4.039,27.684c-0.599,1.23,1.241,2.313,1.843,1.077
							c4.428-9.087,5.909-19.359,4.254-29.328C296.923,176.22,294.866,176.794,295.09,178.139L295.09,178.139z"/>
						<path fill="#E2BAB5" d="M312.692,184.925c1.458,9.223,0.326,18.738-3.135,27.401c-0.509,1.275,1.554,1.829,2.058,0.567
							c3.61-9.036,4.653-18.933,3.135-28.535C314.536,183.005,312.48,183.58,312.692,184.925L312.692,184.925z"/>
					</g>
				</g>
			</g>
		</g>
		<path fill="#F9E8E5" d="M298.94,430.512c-0.431,4.906-1.479,9.514-3.063,13.81H191.49c0.229-36.569,4.861-82.326,8.403-112.178
			l19.071-5.127c-2.257,25.64,19.376,29.819,31.016,30.235h0.042c11.64-0.415,33.273-4.595,31.016-30.235l16.251,4.367
			C299.67,353.74,302.329,391.633,298.94,430.512z"/>
		<path fill="#35356D" d="M199.893,332.143c-3.542,29.852-8.174,75.61-8.403,112.178h-89.728l15.084-61.073
			c4.695-19.027,20.071-34.18,40.155-39.58L199.893,332.143z"/>
		<path fill="#35356D" d="M298.94,430.512c3.389-38.879,0.729-76.771-1.653-99.128l45.711,12.285
			c20.085,5.399,35.46,20.552,40.155,39.58l15.084,61.073h-102.36C297.461,440.025,298.51,435.418,298.94,430.512z"/>
		<g>
			<path fill="#E2BAB5" d="M197.095,386.714c17.482,11.2,36.037,20.691,55.343,28.328c5.433,2.149,10.925,4.147,16.466,5.997
				c1.306,0.436,1.866-1.624,0.567-2.058c-19.517-6.518-38.389-14.915-56.294-25.058c-5.083-2.88-10.086-5.901-15.005-9.052
				C197.012,384.128,195.94,385.974,197.095,386.714L197.095,386.714z"/>
			<path fill="#E2BAB5" d="M206.921,423.656c13.938-0.236,27.885,0.155,41.787,1.186c3.972,0.295,7.94,0.643,11.903,1.039
				c1.365,0.137,1.356-1.998,0-2.134c-13.871-1.389-27.802-2.154-41.742-2.276c-3.983-0.035-7.966-0.017-11.948,0.051
				C205.549,421.545,205.545,423.679,206.921,423.656L206.921,423.656z"/>
		</g>
	</g>
</g>
</svg>
