<?xml version="1.0" encoding="UTF-8"?>
<!-- Generator: Adobe Illustrator 25.2.3, SVG Export Plug-In . SVG Version: 6.00 Build 0)  -->
<svg xmlns="http://www.w3.org/2000/svg" xmlns:xlink="http://www.w3.org/1999/xlink" version="1.1" id="Capa_1" x="0px" y="0px" viewBox="0 0 512 512" style="enable-background:new 0 0 512 512;" xml:space="preserve" width="512" height="512">
<g>
	<g>
		<path style="fill:#FFFFFF;" d="M236.297,512c-1.273,0-2.549-0.17-3.798-0.514c-2.904-0.801-5.487-2.856-7.351-5.173    c0,0-5.918-0.603-7.735-0.79c-11.713-1.211-23.492-4.309-34.738-7.684c-28.02-8.41-54.633-21.75-78.093-39.235    c-37.349-27.838-67.147-65.878-84.501-109.159C3.153,307.228-1.671,260.746,5.035,215.83c3.937-26.37,12.006-52.064,23.974-75.895    c6.275-12.494,13.551-24.487,21.763-35.804c7.274-10.024,15.314-19.493,24.071-28.252c31.05-31.06,69.535-54.507,111.913-66.369    C209.049,3.269,232.718,0,255.875,0c50.92,0,99.41,15.382,141.585,43.757c24.05,16.181,45.361,36.342,62.503,59.738    c20.567,28.071,35.613,60.131,43.294,94.109c7.999,35.384,8.978,72.439,1.682,108.03c-4.712,22.989-12.671,45.284-23.525,66.088    c-22.381,42.896-57.705,79.655-99.876,103.361c-27.735,15.591-58.334,26.105-89.752,31.072c-6.907,1.092-13.857,1.91-20.828,2.448    c-6.956,0.537-13.933,0.805-20.91,0.805c-1.929,0-3.704-0.017-5.386-0.052c-0.378,0.23-0.757,0.456-1.137,0.68    C241.313,511.333,238.815,512,236.297,512z"/>
	</g>
	<g>
		<g>
			<path style="fill:#FF8476;" d="M408.234,438.715c18.407-15.335,34.546-33.39,47.661-53.497     c25.255-38.718,38.755-84.741,38.835-130.942c0.022-12.657-0.948-25.31-2.924-37.806c-7.172-45.351-27.808-88.4-58.497-122.548     c-30.295-33.709-69.964-58.498-113.615-70.751c-47.176-13.243-98.206-11.617-144.447,4.592     c-41.416,14.517-78.297,40.595-106.16,74.463c-28.579,34.737-47.3,77.832-52.451,122.563     c-5.389,46.799,2.434,95.017,23.62,137.192c18.717,37.261,47.867,69.724,82.634,92.793l42.456-5.865l61.074,28.697l62.877-31.551     l81.357,7.83l20.058-16.168L408.234,438.715z"/>
		</g>
		<g>
			<g>
				<path style="fill:#D3542B;" d="M118.405,166.057c-3.584,5.756-8.63,10.313-13.123,15.322c-6.869,7.659-12.61,16.7-15.103,26.874      c-2.493,10.174-1.439,21.576,4.24,30.237c2.958,4.512,7.193,8.476,8.097,13.865c1.025,6.107-2.54,11.868-4.869,17.57      c-5.232,12.815-4.274,28.08,2.001,40.372s17.615,21.5,30.397,25.42c8.306,2.548,17.072,2.954,25.727,2.824      c25.446-0.384,50.825-5.298,74.716-14.469c1.994-0.766,4.16-1.728,5.082-3.73c0.578-1.256,0.557-2.712,0.506-4.106      c-1.327-36.337-14.125-71.11-28.741-104.102c-9.359-21.127-19.745-42.176-35.033-59.099      c-5.865-6.492-12.567-12.419-20.522-15.666c-7.174-2.928-19.142-4.987-24.003,3.053      C123.135,148.099,123.315,158.173,118.405,166.057z"/>
			</g>
			<g>
				<path style="fill:#D3542B;" d="M276.836,51.257c5.512,0.554,10.915,1.884,16.267,3.315      c17.245,4.613,34.389,10.423,49.438,20.024c15.049,9.602,27.969,23.338,33.913,40.171c3.06,8.667,4.434,18.354,10.493,25.266      c5.176,5.903,12.998,8.815,18.704,14.206c6.376,6.024,9.691,15.135,8.677,23.847c-0.994,8.536-5.765,16.099-10.434,23.314      c-0.656,1.014-1.341,2.138-1.201,3.337c0.13,1.12,0.947,2.019,1.701,2.858c19.066,21.207,20.227,55.156,5.834,79.775      c-14.393,24.619-42.019,39.864-70.349,43.127c-17.093,1.969-35.373-0.329-49.402-10.289      c-18.355-13.032-26.105-36.412-29.711-58.632c-6.333-39.016-3.368-78.871-0.387-118.285c2.173-28.732,4.39-57.715,12.51-85.362      L276.836,51.257z"/>
			</g>
			<g>
				<g>
					<g>
						<path style="fill:#FFB9C2;" d="M143.572,223.836c-8.873-7.311-23.123-5.793-31.502,2.08        c-8.379,7.872-11.047,20.67-8.314,31.838c2.807,11.472,10.98,21.511,21.645,26.587c10.665,5.076,23.61,5.086,34.283,0.029        C155.652,264.286,159.38,236.862,143.572,223.836z"/>
					</g>
					<g>
						<path style="fill:#FFB9C2;" d="M366.252,219.555c8.873-7.311,23.123-5.793,31.502,2.08c8.379,7.872,11.047,20.67,8.315,31.838        c-2.807,11.472-10.98,21.511-21.645,26.587c-10.665,5.076-23.61,5.086-34.284,0.029        C354.173,260.006,350.444,232.581,366.252,219.555z"/>
					</g>
					<g>
						<g>
							<path style="fill:#331510;" d="M149.08,272.906c-0.353,0-0.69-0.199-0.852-0.539c-3.863-8.141-8.511-17.49-14.797-25.42         c-6.704-8.459-14.664-14.408-23.027-17.202c-0.492-0.165-0.76-0.699-0.595-1.193c0.167-0.495,0.702-0.758,1.194-0.596         c8.708,2.911,16.976,9.073,23.905,17.82c6.409,8.085,11.115,17.548,15.024,25.783c0.223,0.47,0.023,1.033-0.448,1.257         C149.354,272.876,149.217,272.906,149.08,272.906z"/>
						</g>
						<g>
							<path style="fill:#331510;" d="M362.543,269.68c-0.067,0-0.137-0.007-0.204-0.023c-0.509-0.113-0.829-0.617-0.715-1.125         c2.599-11.645,6.323-21.188,11.382-29.175c6.088-9.614,14.121-16.84,23.231-20.895c0.479-0.211,1.034,0.002,1.245,0.479         c0.211,0.475-0.002,1.033-0.479,1.245c-8.769,3.904-16.516,10.882-22.404,20.181c-4.941,7.8-8.583,17.149-11.136,28.577         C363.365,269.382,362.975,269.68,362.543,269.68z"/>
						</g>
					</g>
				</g>
				<g>
					<g>
						<g>
							<path style="fill:#FFB9C2;" d="M369.149,415.332c-10.628-5.386-22.017-9.025-33.376-12.514         c-5.635-1.73-11.281-3.424-16.874-5.288c-5.166-1.721-10.326-3.504-14.278-7.448c-3.52-3.513-5.595-8.261-6.833-13.012         c-3.965-15.225-4.648-31.681-4.494-47.346c0,0-67.561,1.805-67.696,1.808c0.113-0.002,0.413,5.313,0.425,5.526         c0.992,12.902,1.668,25.797-0.018,38.677c-0.63,4.812-1.572,9.656-3.533,14.121c-2.055,4.68-5.19,7.162-9.639,9.528         c-15.062,8.01-30.21,15.865-44.988,24.391l-0.022,37.885h34.925l61.868,22.479l57.124-33.824l52.885-5.763         C374.626,444.553,369.149,415.332,369.149,415.332z"/>
						</g>
						<g>
							<g>
								<path style="fill:#331510;" d="M293.577,347.55c-8.545,7.381-19.621,11.862-31.007,12.19          c-9.137,0.258-24.665-3.178-35.743-9.973c-0.721-10.234-1.838-18.451-1.838-18.451l68.329-1.593          C293.318,329.723,293.577,337.533,293.577,347.55z"/>
							</g>
						</g>
					</g>
					<g>
						<path style="fill:#FFB9C2;" d="M369.499,171.568c0,4.904-0.352,9.758-0.956,14.485c-0.151,7.343-0.352,15.617-0.629,24.318        c-0.428,12.398-1.031,25.601-1.911,37.999c-0.428,6.086-0.906,11.996-1.484,17.503c-1.056,10.361-2.339,19.389-3.974,25.802        c-2.439,9.732-7.595,17.654-14.31,24.017h-0.025c-4.401,4.2-9.481,7.746-14.913,10.713        c-11.971,6.564-25.677,10.411-37.874,12.449H293.4c-2.44,0.402-4.829,0.754-7.142,1.031        c-13.127,1.534-36.465,3.219-59.778,1.61h-0.025c-14.737-1.031-29.474-3.395-41.57-7.972        c-7.947-2.968-14.737-6.916-19.641-12.046c-2.112-2.213-4.049-5.005-5.784-8.349c-4.225-8.098-7.393-19.163-9.757-31.385        c-1.76-9.053-3.068-18.736-4.049-28.317c-1.207-11.719-1.886-23.287-2.314-33.347c-0.755-18.409-0.528-31.737-0.528-31.737        s-0.629-11.091-0.629-16.774c0-62.167,50.9-112.539,113.645-112.539h1.081c2.867,0.025,5.708,0.176,8.475,0.402        c53.566,4.426,96.519,45.569,103.183,97.902l0.302-0.05c0,0,0,0.83,0,2.314C369.272,163.521,369.499,167.52,369.499,171.568z"/>
					</g>
				</g>
				<g>
					<path style="fill:#D3542B;" d="M142.048,214.352c21.115-32.546,29.794-72.95,23.908-111.296       c-2.911-0.207-6.708-0.274-9.441-1.295c-10.511,3.508-18.472,11.451-24.253,20.904c-5.782,9.454-8.827,20.372-10.304,31.354       c-1.492,11.09-1.431,22.497,1.357,33.335C126.101,198.191,133.589,207.026,142.048,214.352z"/>
				</g>
				<g>
					<g>
						<path style="fill:#D3542B;" d="M137.864,213.994c2.658,8.976,4.728,18.137,6.192,27.399c9.877-21.141,14.4-45.18,14.16-68.634        c-0.035-3.437-0.2-6.959-1.486-10.132c-1.286-3.173-3.911-5.972-7.211-6.508c-5.56-0.904-10.078,4.563-12.513,9.784        C130.719,179.384,133.628,199.69,137.864,213.994z"/>
					</g>
					<g>
						<path style="fill:#D3542B;" d="M371.677,208.725c-2.6,8.459-4.625,17.091-6.056,25.819        c-9.661-19.922-14.085-42.574-13.85-64.677c0.034-3.239,0.196-6.557,1.453-9.547c1.258-2.99,3.826-5.627,7.054-6.133        c5.438-0.852,9.858,4.3,12.239,9.22C378.666,176.11,375.82,195.246,371.677,208.725z"/>
					</g>
				</g>
				<g>
					<g>
						<g>
							<g>
								<g>
									<path style="fill:#331510;" d="M213.057,222.452c-0.201,6.805-5.827,12.161-12.568,11.963           c-6.741-0.199-12.042-5.876-11.842-12.682c0.201-6.805,5.827-12.16,12.568-11.962           C207.956,209.969,213.257,215.647,213.057,222.452z"/>
								</g>
								<g>
									<path style="fill:#331510;" d="M319.618,219.34c-0.201,6.806-5.828,12.161-12.568,11.963           c-6.741-0.199-12.042-5.876-11.842-12.682c0.201-6.805,5.827-12.161,12.568-11.962           C314.517,206.857,319.818,212.535,319.618,219.34z"/>
								</g>
							</g>
						</g>
						<g>
							<path style="fill:#331510;" d="M251.105,260.032c-1.738,0-3.475-0.411-4.997-1.225c-0.825-0.443-1.57-0.983-2.29-1.505         c-0.695-0.504-1.352-0.98-2.058-1.36c-1.494-0.805-3.347-1.094-5.236-0.818c-1.494,0.221-2.959-0.229-4.021-1.23         c-0.992-0.935-1.494-2.254-1.373-3.62c0-0.003,0.033-0.352,0.033-0.355c0.729-7.35,2.553-14.525,5.419-21.328         c0.202-0.483,0.753-0.706,1.236-0.503c0.479,0.202,0.704,0.755,0.502,1.235c-2.792,6.63-4.569,13.621-5.28,20.782         l-0.971,0.252l0.938,0.082c-0.07,0.798,0.211,1.538,0.79,2.082c0.641,0.603,1.538,0.868,2.453,0.738         c2.281-0.339,4.553,0.026,6.404,1.022c0.818,0.44,1.556,0.976,2.269,1.494c0.702,0.508,1.364,0.988,2.077,1.369         c2.314,1.239,5.238,1.34,7.633,0.267c0.985-0.441,1.895-1.066,2.859-1.728c1.438-0.985,2.924-2.005,4.727-2.417         c1.821-0.418,3.635-0.142,5.387,0.123l0.518,0.079c1.617,0.239,3.461,0.437,4.99-0.244c1.247-0.554,2.318-2.052,1.858-3.317         c-0.177-0.49,0.077-1.03,0.564-1.208c0.492-0.177,1.031,0.076,1.21,0.564c0.85,2.346-0.825,4.777-2.866,5.684         c-1.9,0.842-4.021,0.684-6.03,0.386l-0.527-0.079c-1.652-0.251-3.21-0.484-4.681-0.151c-1.454,0.333-2.732,1.209-4.081,2.136         c-0.992,0.679-2.016,1.381-3.157,1.893C254.062,259.734,252.585,260.032,251.105,260.032z"/>
						</g>
						<g>
							<path style="fill:#331510;" d="M255.433,274.223c-5.35,0-10.753-1.689-15.108-4.768c-0.425-0.301-0.527-0.888-0.228-1.315         c0.304-0.426,0.89-0.528,1.315-0.225c4.585,3.24,10.425,4.823,16.014,4.336c5.591-0.484,11.069-3.045,15.027-7.024         c0.372-0.369,0.966-0.368,1.333-0.004c0.369,0.368,0.372,0.965,0.005,1.335c-4.269,4.29-10.174,7.05-16.202,7.573         C256.873,274.191,256.153,274.223,255.433,274.223z"/>
						</g>
						<g>
							<path style="fill:#D3542B;" d="M172.72,194.05c-1.336,1.043-2.679,2.201-3.32,3.769c-0.641,1.568-0.339,3.65,1.102,4.541         c0.883,0.546,1.986,0.551,3.024,0.518c12.708-0.401,25.308-3.891,36.411-10.087c1.234-0.689,2.486-1.441,3.321-2.582         c1.2-1.638,1.334-3.955,0.442-5.779c-3.183-6.503-13.681-3.165-18.785-1.689C186.891,185.061,179.305,188.909,172.72,194.05z         "/>
						</g>
						<g>
							<path style="fill:#D3542B;" d="M334.676,181.985c1.545,0.695,3.126,1.501,4.121,2.872c0.996,1.371,1.197,3.464,0.009,4.673         c-0.728,0.741-1.799,1.007-2.815,1.222c-12.439,2.632-25.508,2.236-37.765-1.142c-1.363-0.376-2.757-0.809-3.839-1.719         c-1.554-1.306-2.236-3.524-1.803-5.508c1.546-7.073,12.536-6.326,17.844-6.106         C318.774,176.623,327.057,178.558,334.676,181.985z"/>
						</g>
					</g>
					<g style="opacity:0.32;">
						<path style="fill:#FF8476;" d="M231.384,292.331c0,22.935-18.585,41.52-41.52,41.52c-1.685,0-3.345-0.101-4.979-0.327        c-7.947-2.968-14.737-6.916-19.641-12.046c-2.112-2.213-4.049-5.005-5.784-8.349c-4.225-8.098-7.393-19.163-9.757-31.385        c4.677-17.805,20.873-30.932,40.162-30.932C212.799,250.811,231.384,269.395,231.384,292.331z"/>
					</g>
					<g style="opacity:0.32;">
						<path style="fill:#FF8476;" d="M364.519,265.875c-1.056,10.361-2.339,19.389-3.974,25.802        c-2.439,9.732-7.595,17.654-14.31,24.017h-0.025c-4.401,4.2-9.481,7.746-14.913,10.713c-1.182,0.126-2.389,0.176-3.596,0.176        c-22.935,0-41.52-18.585-41.52-41.52s18.584-41.52,41.52-41.52C343.722,243.543,357.603,252.596,364.519,265.875z"/>
					</g>
				</g>
				<g>
					<g>
						<path style="fill:#D3542B;" d="M157.338,103.964c13.298,24.656,38.285,42.818,66.044,48.004        c13.26,14.382,36.144,18.707,54.81,12.545c12.072,10.429,29.601,13.298,45.037,9.035c-3.548-16.549-5.771-35.458-6.579-52.357        c12.577,20.619,29.373,44.184,38.022,66.695c7.336-4.5,12.842-11.129,15.41-23.115c3.704-17.285-3.15-31.87-10.189-48.097        c-3.565-8.218-7.29-16.443-12.501-23.752c-7.413-10.396-17.599-18.588-28.453-25.41c-7.315-4.597-15.011-8.643-23.124-11.658        c-28.358-10.538-60.536-7.794-88.871,2.805C186.599,66.27,165.994,84.223,157.338,103.964z"/>
					</g>
					<g>
						<path style="fill:#331510;" d="M308.007,177.247c-8.616,0-19.717-2.472-30.441-12.03        c-21.909-19.524-24.841-38.675-24.955-39.481c-0.072-0.516,0.286-0.992,0.801-1.065c0.495-0.086,0.992,0.285,1.066,0.799        c0.028,0.192,2.987,19.308,24.341,38.339c21.196,18.892,43.798,8.984,44.019,8.879c0.479-0.214,1.034-0.006,1.25,0.47        c0.214,0.474,0.005,1.033-0.469,1.249C323.496,174.462,317.149,177.247,308.007,177.247z"/>
					</g>
					<g>
						<path style="fill:#331510;" d="M262.715,168.281c-5.229,0-11.707-0.732-19.384-2.925        c-22.725-6.494-28.843-29.015-28.904-29.242c-0.13-0.504,0.17-1.019,0.674-1.15c0.509-0.134,1.02,0.171,1.152,0.672        c0.056,0.217,5.928,21.713,27.598,27.905c21.786,6.23,33.786,0.196,33.905,0.135c0.465-0.239,1.031-0.062,1.273,0.401        c0.239,0.461,0.063,1.029-0.397,1.271C278.295,165.525,272.861,168.281,262.715,168.281z"/>
					</g>
					<g>
						<path style="fill:#331510;" d="M223.382,152.911c-0.016,0-0.033,0-0.049-0.001c-0.534-0.029-13.282-0.807-31.559-10.748        c-18.344-9.977-27.271-27.195-27.359-27.367c-0.237-0.465-0.051-1.033,0.413-1.268c0.46-0.236,1.031-0.052,1.268,0.411        c0.086,0.167,8.764,16.879,26.578,26.568c17.868,9.717,30.63,10.513,30.757,10.52c0.52,0.029,0.918,0.473,0.89,0.993        C224.297,152.521,223.881,152.911,223.382,152.911z"/>
					</g>
				</g>
			</g>
			<g>
				<path style="fill:#331510;" d="M408.254,438.738c-10.109-7.017-25.998-15.818-32.754-19.885c-2.069-1.261-4.21-2.45-6.351-3.52      c-13.986,12.488-31.588,20.67-49.713,26.094c-1.832,0.547-3.639,1.07-5.471,1.57c-1.998,0.547-4.02,1.047-6.042,1.522      c-4.995,1.213-10.014,2.26-15.081,3.116c-5.066,0.88-10.181,1.57-15.295,2.117c-2.307,0.238-4.638,0.428-6.969,0.595      c-14.105,1.023-28.329,0.761-42.387-0.833c-0.737-0.095-1.475-0.167-2.212-0.285c-12.25-1.499-24.429-4.067-35.632-9.253      c-8.444-3.901-16.317-9.3-22.502-16.198c-15.723,9.11-32.207,19.766-44.956,30.994      C122.889,454.77,260.843,553.805,408.254,438.738z"/>
			</g>
			<g>
				<g>
					<path style="fill:#FF5E5E;" d="M226.898,358.038l-0.191,10.165c0,0,29.727,9.418,68.252-5.992l-0.754-8.368       c0,0,17.769-3.511,20.98,7.726c0,0,15.731,3.853,12.199,18.942c-3.531,15.089-9.631,17.336-9.631,17.336       s-14.768,11.236-38.204,8.989c-23.436-2.247-27.931-7.384-27.931-7.384s-40.772,13.484-49.441,4.816c0,0-8.989-17.658,0-30.178       c8.989-12.521,15.41-11.558,15.41-11.558S219.192,356.112,226.898,358.038z"/>
				</g>
				<g>
					<path style="fill:#FF5E5E;" d="M272.053,441.664c-0.333,2.926-0.833,5.828-1.475,8.682c-1.261,5.471-3.14,10.823-5.566,15.889       c-5.447,11.322-13.748,20.456-23.881,27.64c-0.523,0.357-1.047,0.714-1.57,1.07c-1.427,0.975-2.878,1.903-4.377,2.783       c-0.547-0.999-1.047-2.022-1.522-3.068c-0.238-0.452-0.452-0.928-0.69-1.403c-6.232-13.677-8.682-29.091-6.993-44.028       c0.167-1.76,0.428-3.473,0.737-5.209c2.831-15.913,10.442-30.922,21.527-42.673c0.119-0.143,0.262-0.262,0.404-0.404       c0,0,0-0.024,0.024-0.024c0.238-0.262,0.476-0.523,0.761-0.785c0.238-0.262,0.476-0.5,0.761-0.761       c0.951-0.975,1.95-1.903,2.973-2.831c0.404,0.238,0.785,0.5,1.213,0.737c1.308,0.809,2.712,1.594,4.067,2.402       c0.975,0.595,1.903,1.189,2.807,1.832c1.047,0.737,2.022,1.522,2.902,2.402c0.238,0.238,0.476,0.476,0.642,0.714       c0.19,0.167,0.309,0.309,0.452,0.476c3.972,4.9,5.709,11.227,6.589,17.483C272.719,428.914,272.767,435.313,272.053,441.664z"/>
				</g>
				<g>
					<path style="fill:#FF5E5E;" d="M258.218,395.914c0.77,18.876,7.295,37.478,18.483,52.701       c11.188,15.222,26.995,27.002,44.78,33.373c3.846-19.862,1.154-40.971-10.508-57.501       C299.309,407.955,278.446,396.239,258.218,395.914z"/>
				</g>
			</g>
			<g>
				<path style="fill:#331510;" d="M251.475,371.356c-4.63,0-9.261-0.244-13.895-0.734c-5.612-0.592-12.063-1.659-17.373-5.078      c-0.29-0.188-0.374-0.578-0.188-0.871c0.19-0.29,0.574-0.374,0.871-0.188c5.087,3.278,11.357,4.309,16.82,4.887      c15.252,1.605,30.516,0.541,45.384-3.173c5.8-1.447,12.411-3.521,17.482-7.912c0.26-0.225,0.66-0.197,0.887,0.065      c0.225,0.262,0.197,0.66-0.065,0.887c-5.271,4.562-12.056,6.695-17.998,8.181C272.905,370.039,262.213,371.356,251.475,371.356z      "/>
			</g>
			<g>
				<path style="fill:#331510;" d="M248.643,401.561c-0.116,0-0.232-0.033-0.335-0.098c-0.295-0.186-0.383-0.574-0.197-0.866      c1.145-1.816,3.278-2.725,4.834-3.387c11.772-4.999,23.844-9.696,35.886-13.961l0.841-0.297      c5.436-1.919,11.052-3.905,15.884-7.092c5.682-3.749,9.403-8.736,10.476-14.049c0.067-0.337,0.362-0.567,0.741-0.49      c0.339,0.067,0.56,0.4,0.49,0.741c-1.138,5.64-5.05,10.913-11.015,14.848c-4.959,3.273-10.65,5.282-16.156,7.226l-0.843,0.297      c-12.016,4.256-24.065,8.943-35.812,13.933c-1.821,0.776-3.398,1.528-4.262,2.899      C249.054,401.456,248.852,401.561,248.643,401.561z"/>
			</g>
			<g>
				<path style="fill:#331510;" d="M291.986,407.01c-0.936,0-1.863-0.037-2.785-0.116c-3.127-0.262-6.204-0.987-9.182-1.686      c-0.697-0.165-1.394-0.328-2.091-0.488c-10.495-2.383-20.523-3.317-29.812-2.767c-0.402,0.009-0.632-0.242-0.655-0.581      c-0.019-0.341,0.242-0.634,0.581-0.655c9.408-0.548,19.547,0.386,30.16,2.799c0.699,0.158,1.398,0.323,2.1,0.488      c2.934,0.69,5.967,1.403,9.001,1.659c9.103,0.76,18.98-2.411,29.387-9.449c0.281-0.193,0.667-0.118,0.857,0.165      c0.193,0.283,0.118,0.667-0.165,0.857C309.784,403.73,300.583,407.01,291.986,407.01z"/>
			</g>
			<g>
				<path style="fill:#331510;" d="M250.991,448.908c-1.524,0-2.957-0.911-3.793-1.963c-1.143-1.443-1.57-3.296-1.837-4.922      c-1.424-8.743,0.304-17.696,1.97-24.518l0,0c0.934-3.835,2.074-7.9,4.084-11.64c1.315-2.453,2.911-5.489,4.834-5.384      c0.936,0.056,1.682,0.829,2.281,2.362c3.591,9.217,2.132,23.747,1.338,29.566c-0.806,5.898-2.439,10.483-4.992,14.019      c-0.625,0.864-1.417,1.805-2.564,2.239C251.872,448.834,251.428,448.908,250.991,448.908z M256.139,401.712      c-1.089,0-2.743,3.078-3.638,4.739c-1.942,3.617-3.057,7.591-3.972,11.347l0,0c-1.635,6.708-3.336,15.503-1.947,24.026      c0.251,1.542,0.618,3.136,1.582,4.353c0.832,1.045,2.374,1.844,3.71,1.333c0.841-0.318,1.482-1.092,1.998-1.807      c2.432-3.366,3.993-7.77,4.769-13.461c0.611-4.465,2.321-19.749-1.264-28.948c-0.381-0.983-0.82-1.556-1.203-1.58      C256.162,401.712,256.151,401.712,256.139,401.712z M247.93,417.651h0.016H247.93z"/>
			</g>
			<g>
				<path style="fill:#331510;" d="M270.94,443.091c-0.002,0-0.007,0-0.009,0c-0.341-0.005-0.613-0.286-0.609-0.627      c0.218-13.642-2.365-27.538-7.473-40.181c-0.128-0.318,0.026-0.678,0.341-0.806c0.321-0.125,0.678,0.028,0.806,0.341      c5.166,12.797,7.782,26.859,7.561,40.664C271.554,442.822,271.277,443.091,270.94,443.091z"/>
			</g>
			<g>
				<path style="fill:#331510;" d="M302.439,453.883c-1.292,0-2.715-0.402-4.244-1.199c-6.609-3.443-10.262-10.592-12.706-16.437      c-1.542-3.689-2.918-7.505-4.244-11.194c-1.308-3.631-2.66-7.387-4.167-11.003c-2.736-6.56-3.301-9.484-2.012-10.423      c0.952-0.702,2.523-0.028,5.089,2.156c10.613,9.034,19.6,20.288,25.988,32.546c1.275,2.448,2.634,5.315,2.576,8.369      c-0.051,2.899-1.842,6.358-5.057,7.057C303.268,453.842,302.861,453.883,302.439,453.883z M275.932,404.599      c-0.1,0-0.137,0.026-0.139,0.026c-0.235,0.172-0.755,1.326,2.427,8.952c1.519,3.645,2.876,7.415,4.186,11.059      c1.324,3.675,2.692,7.475,4.221,11.134l0,0c2.365,5.654,5.882,12.56,12.139,15.819c1.768,0.92,3.322,1.25,4.634,0.959      c2.595-0.564,4.039-3.447,4.084-5.872c0.051-2.764-1.231-5.463-2.437-7.775c-6.316-12.118-15.201-23.243-25.693-32.174      C277.133,404.834,276.239,404.599,275.932,404.599z"/>
			</g>
			<g>
				<g>
					<circle style="fill:#FADED3;" cx="138.611" cy="281.951" r="9.31"/>
				</g>
				<g>
					<path style="fill:#FADED3;" d="M384.208,278.098c0,5.142-4.168,9.31-9.31,9.31c-5.142,0-9.31-4.168-9.31-9.31       s4.168-9.31,9.31-9.31C380.04,268.788,384.208,272.957,384.208,278.098z"/>
				</g>
			</g>
		</g>
		<g>
			<g>
				<path style="fill:#FADED3;" d="M98.724,386.476c0,0,14.282,0.734,16.865-2.587c2.582-3.321,5.375-17.706,5.375-17.706      s1.305,13.435,3.432,17.236c2.487,4.444,15.65,7.146,15.65,7.146s-12.286-0.382-15.53,3.251      c-2.211,2.476-6.209,13.078-6.611,17.434c0,0-0.291-16.36-3.827-18.804C110.541,390.001,98.724,386.476,98.724,386.476z"/>
			</g>
			<g>
				<path style="fill:#FADED3;" d="M35.154,272.169c0,0,14.282,0.734,16.865-2.587c2.582-3.321,5.375-17.706,5.375-17.706      s1.305,13.434,3.432,17.235c2.487,4.445,15.65,7.146,15.65,7.146s-12.286-0.381-15.529,3.251      c-2.211,2.476-6.209,13.078-6.611,17.434c0,0-0.291-16.36-3.828-18.804C46.971,275.694,35.154,272.169,35.154,272.169z"/>
			</g>
			<g>
				<path style="fill:#FADED3;" d="M146.764,66.406c0,0,13.916-3.296,15.465-7.207c1.549-3.911,0.201-18.503,0.201-18.503      s5.015,12.531,8.122,15.584c3.632,3.57,17.025,2.476,17.025,2.476s-11.901,3.075-13.997,7.471      c-1.429,2.997-2.298,14.294-1.464,18.588c0,0-4.861-15.623-8.941-16.979C159.095,66.48,146.764,66.406,146.764,66.406z"/>
			</g>
			<g>
				<path style="fill:#FADED3;" d="M355.071,365.391c0,0,14.282,0.734,16.865-2.587c2.582-3.321,5.375-17.706,5.375-17.706      s1.305,13.435,3.432,17.235c2.487,4.445,15.65,7.146,15.65,7.146s-12.286-0.381-15.529,3.251      c-2.211,2.477-6.209,13.078-6.611,17.434c0,0-0.291-16.36-3.828-18.804C366.888,368.916,355.071,365.391,355.071,365.391z"/>
			</g>
			<g>
				<g>
					<path style="fill:#FADED3;" d="M427.386,224.394c0,0,14.282,0.734,16.865-2.587c2.582-3.321,5.375-17.706,5.375-17.706       s1.305,13.435,3.432,17.235c2.487,4.445,15.65,7.146,15.65,7.146s-12.286-0.381-15.53,3.251       c-2.211,2.476-6.209,13.078-6.611,17.434c0,0-0.291-16.36-3.828-18.804C439.203,227.919,427.386,224.394,427.386,224.394z"/>
				</g>
				<g>
					<circle style="fill:#FADED3;" cx="392.915" cy="107.697" r="7.26"/>
				</g>
			</g>
			<g>
				<circle style="fill:#FADED3;" cx="75.737" cy="168.023" r="7.26"/>
			</g>
			<g>
				<circle style="fill:#FADED3;" cx="175.083" cy="356.851" r="7.26"/>
			</g>
			<g>
				<path style="fill:#FADED3;" d="M440.019,339.394c0,4.009-3.25,7.26-7.26,7.26c-4.009,0-7.26-3.25-7.26-7.26s3.25-7.26,7.26-7.26      C436.769,332.134,440.019,335.384,440.019,339.394z"/>
			</g>
		</g>
	</g>
</g>















</svg>
