<?xml version="1.0" encoding="UTF-8"?>
<!-- Generator: Adobe Illustrator 25.2.3, SVG Export Plug-In . SVG Version: 6.00 Build 0)  -->
<svg xmlns="http://www.w3.org/2000/svg" xmlns:xlink="http://www.w3.org/1999/xlink" version="1.1" id="Capa_1" x="0px" y="0px" viewBox="0 0 510.646 510.646" style="enable-background:new 0 0 510.646 510.646;" xml:space="preserve" width="512" height="512">
<g>
	<g>
		<path style="fill:#FFFFFF;" d="M236.887,509.996c-40.005-2.793-79.344-14.582-113.697-35.337    c-55.452-33.502-96.218-89.33-113.845-151.433c-25.195-88.767,2.258-186.628,67.87-251.135    C84.427,65,92.071,58.348,100.107,52.205c63.745-48.737,151.179-64.832,228.101-41.989    c79.769,23.689,146.75,88.852,170.959,168.654c17.628,58.108,14.96,121.128-9.207,176.987    c-21.517,49.734-58.33,93.118-105.227,120.585C340.4,502.408,288.098,513.572,236.887,509.996z"/>
	</g>
	<g>
		<g>
			<path style="fill:#FFC17D;" d="M456.405,389.694c5.082-7.53,9.744-15.355,13.953-23.438     c13.59-26.073,22.325-54.554,25.683-83.764c1.074-9.343,1.559-18.594,1.498-27.761c-0.168-25.356-4.618-50.525-12.221-74.682     c-9.506-30.204-25.538-57.922-45.946-82.058c-17.705-20.94-38.96-38.829-62.706-52.556     c-22.915-13.247-48.063-22.573-74.031-27.66c-42.245-8.275-86.96-5.283-127.481,9.415c-0.374,0.135-0.747,0.272-1.12,0.409     c-37.66,13.879-72.233,37.401-98.921,67.392c-9.182,10.319-17.437,21.459-24.673,33.223     c-6.566,10.674-12.288,21.866-17.113,33.431c-10.193,24.437-15.879,50.538-17.503,76.939     c-2.541,41.31,4.581,82.698,22.391,120.158c7.709,16.216,17.327,31.559,28.513,45.673l69.69,18.755l132.218,50.251     l116.566-70.846L456.405,389.694z"/>
		</g>
		<g>
			<g>
				<g>
					<path style="fill:#FF8476;" d="M452.413,392.042c-29.499,41.553-71.217,73.114-120.599,86.781       c-0.239,0.066-0.478,0.132-0.717,0.197c-36.246,9.902-76.191,11.877-113.23,5.525c-0.274-0.047-0.548-0.094-0.822-0.141       c-50.827-8.718-98.769-33.115-135.781-68.994c-1.804-1.748-3.582-3.523-5.334-5.322c0.191-0.311,0.359-0.598,0.527-0.911       c5.155-8.915,16.57-14.572,25.295-19.456c30.109-16.853,62.44-29.559,92.095-47.198c7.91-4.705,13.395-9.882,16.56-18.616       c1.244-3.446,2.082-7.156,2.633-10.817c0.12-0.551,0.191-1.125,0.263-1.675c0.096-0.527,0.144-1.029,0.191-1.556       c0.12-0.933,0.191-1.89,0.263-2.824c0.024-0.12,0.024-0.263,0.024-0.383c0.072-0.407,0.096-0.814,0.12-1.221v-0.12       c0.024-0.67,0.072-1.34,0.096-1.962c0.048-0.862,0.072-1.699,0.072-2.489c0-0.455,0.048-0.862,0.024-1.316       c0.024-0.431,0.024-0.885,0-1.34c0,0-0.024-0.335,0-0.335c-0.024-4.26-0.311-7.874-0.55-10.291       c-0.024-0.383-0.072-0.79-0.096-1.101c-0.072-0.479-0.12-0.933-0.168-1.244c0-0.216-0.048-0.383-0.048-0.527       c-0.024-0.239-0.048-0.335-0.048-0.335l86.612-4.835c0,0-0.168,5.098,0.503,12.134c0.12,1.244,0.263,2.561,0.479,3.925       c0.072,0.622,0.144,1.22,0.239,1.843c0.096,0.67,0.191,1.34,0.311,2.035c0.048,0.335,0.096,0.622,0.144,0.933       c0.168,0.838,0.335,1.651,0.503,2.465l0.096,0.527c0.096,0.503,0.215,1.005,0.335,1.484c0.096,0.479,0.239,1.029,0.359,1.508       c0.12,0.551,0.263,1.101,0.431,1.651c0.431,1.627,0.933,3.255,1.532,4.834c0.12,0.335,0.239,0.694,0.359,1.029       c0,0.024,0,0.024,0.024,0.048c0.024,0.048,0.024,0.119,0.072,0.215c0.144,0.383,0.311,0.79,0.479,1.173       c0.024,0.048,0.048,0.12,0.072,0.167c0.383,1.005,0.838,1.962,1.268,2.92c0.311,0.574,0.598,1.149,0.933,1.7       c5.811,10.718,17.209,15.41,28.063,19.696c32.5,12.835,66.328,22.36,97.975,37.174       C441.662,380.595,447.887,384.721,452.413,392.042z"/>
				</g>
				<g>
					<g>
						<path style="fill:#331510;" d="M303.184,308.034c-10.912,8.529-23.823,14.443-37.574,16.472        c-18.17,2.713-37.203-1.638-52.559-11.413c0.099-0.562,0.173-1.124,0.247-1.687c0.099-0.513,0.148-1.026,0.197-1.539        c0.124-0.953,0.198-1.906,0.272-2.835c0.024-0.122,0.024-0.269,0.024-0.391c0.05-0.44,0.074-0.88,0.099-1.32        c0.025-0.684,0.074-1.344,0.099-1.98c0.05-0.855,0.074-1.686,0.074-2.492c0-0.44,0.049-0.856,0.024-1.295        c0.025-0.44,0.025-0.904,0-1.344l-0.024-0.342c0,0,0,0,0.024,0c-0.024-4.252-0.296-7.869-0.543-10.289        c-0.025-0.391-0.074-0.782-0.099-1.099c-0.074-0.489-0.124-0.929-0.173-1.246c0-0.22-0.05-0.391-0.05-0.538        c-0.025-0.22-0.05-0.318-0.05-0.318l86.627-4.839c0,0-0.173,5.083,0.494,12.122c0.247,2.395,0.568,5.059,1.037,7.82        c0.05,0.318,0.099,0.611,0.148,0.929c0.148,0.831,0.321,1.637,0.493,2.468l0.099,0.514c0.099,0.513,0.223,1.002,0.321,1.491        c0.098,0.489,0.247,1.026,0.37,1.515C302.888,306.934,303.036,307.496,303.184,308.034z"/>
					</g>
				</g>
			</g>
			<g>
				<g>
					<g>
						<g>
							<path style="fill:#FF8476;" d="M167.52,219.379c-1.005,2.92-2.68,5.72-5.265,7.347c-0.814,0.503-1.699,0.886-2.609,1.197         c-0.861,0.287-1.771,0.479-2.68,0.646c-11.942,2.202-24.842-2.321-32.931-11.344c-8.065-9.047-11.129-22.281-8.017-33.984         c1.053-3.901,2.776-7.73,5.576-10.626c4.141-4.284,10.363-6.199,16.322-5.912c5.145,0.216,9.382,1.867,12.924,4.428         c0.263,0.168,0.527,0.359,0.79,0.574c0.024,0,0.048,0.048,0.048,0.048c7.993,6.246,12.301,17.279,15.413,27.211         C169.195,205.569,169.817,212.845,167.52,219.379z"/>
						</g>
						<g>
							<path style="fill:#331510;" d="M159.878,215.091c-0.241,0-0.467-0.146-0.559-0.384c-6.775-17.663-21.336-32.33-38.949-39.233         c-0.307-0.12-0.459-0.469-0.339-0.776c0.12-0.307,0.465-0.462,0.776-0.339c17.92,7.024,32.736,21.947,39.629,39.92         c0.118,0.309-0.036,0.654-0.345,0.772C160.022,215.078,159.949,215.091,159.878,215.091z"/>
						</g>
					</g>
					<g>
						<g>
							<path style="fill:#FF8476;" d="M366.136,148.658l-0.55,3.207l-0.311,1.46l-1.221,6.677v0.024l-0.072,0.407l-5.481,30.299         l-3.662,20.343l-0.144,0.766c-0.168,1.292-0.383,2.657-0.598,4.044c-0.263,1.651-0.574,3.351-0.909,5.122         c-0.718,3.829-1.532,7.874-2.369,11.871c-1.508,7.06-3.087,13.953-4.308,19.29c-0.024,0.048-0.024,0.072-0.048,0.12         c-4.356,18.691-22.305,30.849-44.969,37.789c-0.79,0.264-1.604,0.479-2.417,0.67c-19.194,5.552-41.475,7.467-61.722,6.533         c-4.691-0.191-9.238-0.55-13.641-1.053c-0.024,0-0.024,0-0.024,0c-20.008-2.25-36.473-7.443-43.486-14.623         c-3.829-3.901-7.203-10.076-10.195-17.71c-1.149-2.872-2.226-5.959-3.255-9.19c-2.106-6.677-3.997-14.024-5.696-21.659         v-0.024l-0.646-3.016c-0.168,0.048-0.287,0.095-0.455,0.144l-0.311-2.226l-0.455-3.159l-2.178-15.365l-5.385-37.622v-0.072         l-0.622-4.332c0-0.12-0.024-0.24-0.048-0.359c-0.168-1.723-0.311-3.351-0.455-4.906c-1.005-9.956-1.436-16.274-1.436-16.274         l0.359-0.048c-0.55-3.59-0.957-7.228-1.173-10.913c-1.723-30.37,9.286-58.515,28.48-79.36         c0.072-0.096,0.167-0.168,0.239-0.263c8.927-9.669,19.625-17.758,31.639-23.741c1.34-0.694,2.704-1.34,4.116-1.962v-0.024         c12.014-5.337,25.177-8.688,39.106-9.453c14.623-0.814,28.719,1.22,41.762,5.624c0.55,0.215,1.101,0.407,1.675,0.622         c11.177,3.973,21.563,9.717,30.754,16.92c0.095,0.072,0.191,0.144,0.287,0.215c21.898,17.16,37.119,42.505,40.805,71.702         l0.287-0.048c0,0,0,0.67-0.048,1.962c0.215,1.843,0.359,3.685,0.479,5.504C368.338,131.522,367.716,140.234,366.136,148.658z         "/>
						</g>
					</g>
					<g>
						<g>
							<path style="fill:#FADED3;" d="M350.819,232.877c-1.508,7.06-3.087,13.953-4.308,19.29c-0.024,0.048-0.024,0.072-0.048,0.12         c-4.356,18.691-22.305,30.849-44.969,37.789c-0.79,0.264-1.604,0.479-2.417,0.67c-19.194,5.552-41.475,7.467-61.722,6.533         c-4.691-0.191-9.238-0.55-13.641-1.053c-0.024,0-0.024,0-0.024,0c-20.008-2.25-36.473-7.443-43.486-14.623         c-3.829-3.901-7.203-10.076-10.195-17.71c0.287-2.13,0.742-4.236,1.292-6.294c4.332-15.748,14.575-29.557,27.618-39.393         c13.019-9.836,28.719-15.843,44.802-18.596c4.092-0.694,7.275,3.638,11.44,3.518c4.236-0.144,7.18-5.05,11.416-5.217         c1.819-0.072,4.069,1.364,5.888,1.46c25.488,1.484,51.814,7.993,70.792,25.057         C346.057,226.942,348.713,229.742,350.819,232.877z"/>
						</g>
						<g>
							<path style="fill:#FF8476;" d="M300.99,210.512c-7.321,5.221-19.519,6.567-28.326,4.748c-5.685-1.174-11.446-3.1-15.052-7.65         c-2.67,4.533-7.291,7.671-12.241,9.452c-4.95,1.782-10.25,2.329-15.5,2.658c-6.564,0.411-13.938,0.205-18.596-4.437         c2.111,11.43,5.9,22.436,13.767,30.993c3.289,3.577,7.567,6.632,12.417,6.919c4.019,0.238,7.867-1.434,11.76-2.461         c4.345-1.147,8.899-1.503,13.369-1.045c7.39,0.757,14.923,3.691,22.027,1.517c7.115-2.177,11.91-9.168,13.586-16.418         C299.879,227.539,301.893,217.898,300.99,210.512z"/>
						</g>
					</g>
					<g>
						<path style="fill:#FF8476;" d="M370.559,158.509c5.899-0.889,12.278,0.37,16.845,4.206c3.094,2.599,5.203,6.208,6.638,9.985        c4.308,11.336,2.633,24.802-4.473,34.629s-19.474,15.651-31.563,14.686c-1.875-0.15-3.771-0.461-5.459-1.293        c-2.752-1.356-4.694-3.971-5.999-6.748c-2.948-6.274-3.079-13.579-1.684-20.369        C347.929,178.677,353.237,161.118,370.559,158.509z"/>
					</g>
					<g>
						<path style="fill:#331510;" d="M351.998,211.542c-0.053,0-0.105-0.007-0.158-0.021c-0.319-0.088-0.507-0.417-0.419-0.735        c5.434-19.804,19.81-36.769,38.456-45.382c0.301-0.137,0.654-0.008,0.795,0.292c0.138,0.3,0.007,0.656-0.292,0.795        c-18.33,8.466-32.463,25.143-37.804,44.611C352.502,211.368,352.261,211.542,351.998,211.542z"/>
					</g>
				</g>
				<g>
					<path style="fill:#331510;" d="M259.757,223.777c-4.916,0-9.846-1.763-13.634-4.898c-0.381-0.317-0.435-0.882-0.119-1.264       c0.317-0.38,0.882-0.432,1.264-0.119c3.648,3.021,8.471,4.636,13.186,4.473c4.733-0.176,9.404-2.161,12.817-5.443       c0.355-0.342,0.927-0.332,1.268,0.025c0.345,0.356,0.333,0.924-0.025,1.268c-3.725,3.585-8.826,5.752-13.993,5.943       C260.268,223.772,260.012,223.777,259.757,223.777z"/>
				</g>
				<g>
					<g>
						<path style="fill:#FADED3;" d="M366.136,148.658l-0.55,3.207l-0.311,1.46l-1.22,6.673l-0.001,0.028l-0.143,0.8        c-18.284-12.349-30.993-32.51-36.618-53.834c-5.481-20.654-4.954-42.528-0.981-63.541        c21.898,17.16,37.119,42.505,40.805,71.702l0.287-0.048c0,0,0,0.67-0.048,1.962c0.215,1.843,0.359,3.685,0.479,5.504        C368.338,131.522,367.716,140.234,366.136,148.658z"/>
					</g>
					<g>
						<path style="fill:#FADED3;" d="M169.458,148.251c-4.428,8.831-10.052,17.327-17.782,23.502c0,0.024-0.024,0.024-0.048,0.024        c-0.12,0.12-0.239,0.216-0.359,0.311c-0.144-0.311-0.287-0.646-0.431-0.957c0.263,0.168,0.527,0.359,0.79,0.574l-0.622-4.332        c0-0.12-0.024-0.24-0.048-0.359c-0.168-1.723-0.311-3.351-0.455-4.906c-1.005-9.956-1.436-16.274-1.436-16.274l0.359-0.048        c-0.55-3.59-0.957-7.228-1.173-10.913c-1.723-30.49,9.382-58.754,28.719-79.624        C186.355,85.668,183.722,119.723,169.458,148.251z"/>
					</g>
					<g>
						<path style="fill:#FADED3;" d="M326.026,43.235c-29.557,26.469-72.013,38.196-110.904,29.963        c-13.929-2.943-27.666-8.472-38.388-17.686c0.072-0.096,0.167-0.168,0.239-0.263c8.927-9.669,19.625-17.758,31.639-23.741        c1.34-0.694,2.704-1.34,4.116-1.962v-0.024c12.014-5.337,25.177-8.688,39.106-9.453c14.623-0.814,28.719,1.22,41.762,5.624        c0.55,0.215,1.101,0.407,1.675,0.622C306.448,30.287,316.835,36.031,326.026,43.235z"/>
					</g>
				</g>
				<g>
					<g>
						<g>
							<g>
								<g>
									<path style="fill:#331510;" d="M219.739,166.735c0.149,5.922-4.579,10.843-10.562,10.991           c-5.982,0.148-10.953-4.533-11.102-10.455c-0.149-5.922,4.579-10.843,10.561-10.991           C214.619,156.131,219.589,160.812,219.739,166.735z"/>
								</g>
								<g>
									<path style="fill:#331510;" d="M317.543,162.097c0.15,5.922-4.579,10.843-10.561,10.991           c-5.982,0.148-10.953-4.533-11.102-10.455c-0.149-5.922,4.579-10.843,10.561-10.991           C312.423,151.494,317.394,156.175,317.543,162.097z"/>
								</g>
							</g>
						</g>
						<g>
							<g>
								<path style="fill:#FADED3;" d="M178.666,143.467c-1.641,2.458-2.792,5.326-2.783,8.281c0.009,2.955,1.305,5.986,3.741,7.659          c3.527,2.422,8.267,1.53,12.429,0.543c6.952-1.649,13.904-3.298,20.856-4.947c6.052-1.435,14.108-4.23,13.642-11.843          c-0.397-6.472-7.971-13.201-13.859-15.05C202.195,124.813,184.295,135.036,178.666,143.467z"/>
							</g>
							<g>
								<path style="fill:#FADED3;" d="M331.038,134.812c1.949,2.221,3.466,4.914,3.844,7.845c0.378,2.931-0.509,6.106-2.705,8.083          c-3.179,2.863-7.995,2.601-12.251,2.168c-7.108-0.723-14.216-1.446-21.325-2.17c-6.188-0.63-14.541-2.344-15.077-9.953          c-0.455-6.468,6.172-14.132,11.767-16.737C305.267,119.404,324.353,127.192,331.038,134.812z"/>
							</g>
						</g>
					</g>
					<g>
						<path style="fill:#331510;" d="M254.108,203.766c-2.172,0-4.233-0.947-6.237-1.867c-2.241-1.03-4.354-1.999-6.57-1.73        c-0.603,0.075-1.209,0.241-1.852,0.416c-1.357,0.37-2.758,0.754-4.164,0.242c-3.778-1.377-2.827-6.893-2.445-8.552        c1.256-5.453,2.838-10.959,4.367-16.284c3.801-13.234,7.731-26.918,6.92-40.734c-0.02-0.33,0.233-0.613,0.562-0.632        c0.314-0.037,0.612,0.233,0.632,0.562c0.823,14.021-3.135,27.804-6.964,41.134c-1.525,5.311-3.103,10.802-4.352,16.223        c-0.672,2.919-0.582,6.333,1.687,7.159c1.048,0.38,2.21,0.063,3.439-0.272c0.656-0.179,1.333-0.363,2.02-0.449        c2.563-0.312,4.923,0.776,7.216,1.83c2.336,1.072,4.545,2.086,6.825,1.658c1.603-0.3,2.969-1.274,4.416-2.306        c1.444-1.03,2.939-2.094,4.732-2.48c1.615-0.345,3.232-0.093,4.796,0.151c0.427,0.067,0.852,0.133,1.277,0.187        c2.338,0.297,4.057-0.05,5.11-1.034c0.636-0.594,0.93-1.656,0.715-2.581c-0.088-0.379-0.341-1.045-1.058-1.262        c-0.317-0.096-0.494-0.43-0.398-0.747c0.096-0.316,0.429-0.497,0.747-0.398c0.943,0.287,1.627,1.066,1.876,2.136        c0.311,1.344-0.116,2.841-1.063,3.727c-1.326,1.24-3.366,1.697-6.08,1.347c-0.436-0.056-0.873-0.124-1.311-0.193        c-1.523-0.237-2.966-0.46-4.358-0.162c-1.552,0.334-2.882,1.282-4.289,2.285c-1.489,1.061-3.029,2.158-4.892,2.507        C254.975,203.729,254.539,203.766,254.108,203.766z"/>
					</g>
					<g>
						<g>
							<path style="fill:#D3542B;" d="M293.576,180.435c-0.152,0-0.304-0.057-0.421-0.173c-3.798-3.749-6.846-8.111-9.057-12.964         c-0.137-0.3-0.005-0.656,0.297-0.792c0.305-0.133,0.656-0.004,0.792,0.297c2.15,4.72,5.114,8.962,8.809,12.609         c0.235,0.231,0.237,0.61,0.005,0.846C293.884,180.376,293.73,180.435,293.576,180.435z"/>
						</g>
						<g>
							<path style="fill:#D3542B;" d="M219.514,183.395c-0.161,0-0.323-0.067-0.438-0.197c-0.215-0.242-0.193-0.612,0.049-0.827         c4.542-4.034,7.793-9.079,9.401-14.592c0.09-0.31,0.414-0.49,0.728-0.398c0.311,0.091,0.488,0.417,0.398,0.728         c-1.671,5.724-5.042,10.959-9.749,15.139C219.793,183.346,219.654,183.395,219.514,183.395z"/>
						</g>
					</g>
				</g>
			</g>
			<g>
				<path style="fill:#FADED3;" d="M395.389,390.849c-24.387-32.596-68.866-54.629-71.187-58.122      c-0.144-0.24-0.287-0.479-0.407-0.766c-0.287-0.598-0.527-1.34-0.742-2.178c-0.168-0.646-0.311-1.364-0.479-2.13      c-0.957-4.978-1.867-12.182-6.103-18.955c-6.103-9.788-14.144-7.227-14.144-7.227l-14.336,18.524l-0.024,0.024l-8.951,11.607      l-0.909,1.173l-13.785,17.854l-30.227-26.494l-19.05-16.705c-0.048,0-0.096-0.024-0.144-0.024      c-16.633-2.753-19.673,23.502-20.151,29.126c-0.048,0.67-0.072,1.053-0.072,1.053c-24.651,1.771-71.298,56.841-91.473,69.693      l77.364-5.207l80.988,64.716l77.088-78.861L395.389,390.849z"/>
			</g>
			<g>
				<path style="fill:#7EA8C5;" d="M456.405,389.686c-42.308,62.946-115.715,103.624-191.478,106.377      c-75.312,2.736-151.708-32.158-198.216-91.635c20.175-12.852,103.317-65.049,127.967-66.82c0,0,0.024-0.383,0.072-1.053      c0.431,1.149,0.909,2.369,1.412,3.638c0.383,0.957,0.79,1.939,1.197,2.943c0.646,1.532,1.316,3.111,2.01,4.739      c0.909,2.082,1.867,4.212,2.896,6.366c0.335,0.718,0.67,1.436,1.029,2.154c0.072,0.191,0.168,0.359,0.263,0.526      c0.886,1.819,1.819,3.638,2.776,5.433c0.12,0.215,0.215,0.431,0.335,0.622c0.527,0.981,1.077,1.939,1.627,2.896      c0.598,1.053,1.221,2.106,1.843,3.111c0,0,6.94-19.96,19.122-29.963l1.244,0.215l34.63,47.674l25.416-49.612l0.263-0.503      l1.053-0.144c0.024-0.024,0.024,0,0.024,0c10.578,7.204,18.596,19.936,20.869,23.765c0.527-1.34,1.029-2.681,1.508-3.973      c0.239-0.646,0.455-1.292,0.694-1.939c2.489-7.012,4.212-13.187,5.361-17.806c0.168-0.742,0.335-1.436,0.479-2.082      c0.024-0.095,0.048-0.191,0.072-0.263c0.168-0.742,0.311-1.412,0.455-2.035l1.244-0.191l0.227-3.314      c0.12,0.287,1.257,3.673,1.401,3.912C326.523,336.221,432.018,357.09,456.405,389.686z"/>
			</g>
			<g>
				<path style="fill:#331510;" d="M210.139,369.583c-0.206,0-0.398-0.105-0.508-0.283c-6.467-10.452-11.966-23.458-15.439-32.529      c-0.118-0.309,0.036-0.657,0.345-0.774c0.306-0.124,0.654,0.037,0.772,0.344c3.34,8.722,8.559,21.098,14.7,31.281      c1.711-4.441,8.4-20.467,18.849-29.065c0.034-0.028,0.071-0.051,0.111-0.072c5.09-4.191,10.421-6.067,15.857-5.541      c0.33,0.03,0.57,0.323,0.54,0.652c-0.032,0.332-0.34,0.584-0.652,0.54c-5.148-0.486-10.206,1.313-15.07,5.345      c-0.035,0.028-0.072,0.054-0.113,0.075c-11.837,9.809-18.757,29.43-18.825,29.626c-0.076,0.217-0.271,0.374-0.5,0.397      C210.182,369.581,210.161,369.583,210.139,369.583z"/>
			</g>
			<g>
				<g>
					<path style="fill:#331510;" d="M323.316,328.323c0,0.024-0.096,0.527-0.263,1.46c-0.12,0.598-0.263,1.388-0.479,2.346       c-1.173,5.6-3.949,16.872-9.166,29.868c-0.096,0.216-0.287,0.359-0.527,0.383h-0.024c-0.215,0-0.431-0.12-0.527-0.311       c-0.12-0.24-9.358-16.633-21.779-24.77c-3.901-2.561-8.113-4.308-12.445-4.499l0.909-1.173       c4.523,0.359,8.879,2.298,12.852,5.026c0.024-0.024,0.024-0.024,0.024,0c10.578,7.204,18.596,19.936,20.869,23.765       c4.763-12.11,7.371-22.569,8.568-28.097c0.574-2.633,0.814-4.14,0.814-4.188c0.048-0.239,0.215-0.431,0.431-0.478       c0.096-0.024,0.168-0.048,0.263-0.024C323.148,327.677,323.364,327.988,323.316,328.323z"/>
				</g>
			</g>
		</g>
		<g>
			<g>
				<path style="fill:#FADED3;" d="M51.285,296.859c0,0,14.37,0.738,16.968-2.603c2.598-3.341,5.408-17.815,5.408-17.815      s1.313,13.517,3.453,17.342c2.502,4.472,15.746,7.19,15.746,7.19s-12.361-0.384-15.625,3.271      c-2.225,2.492-6.247,13.159-6.652,17.541c0,0-0.292-16.46-3.851-18.92C63.175,300.406,51.285,296.859,51.285,296.859z"/>
			</g>
			<g>
				<path style="fill:#FADED3;" d="M47.614,190.811c0,0,14.37,0.738,16.968-2.603c2.598-3.341,5.408-17.815,5.408-17.815      s1.313,13.517,3.453,17.341c2.502,4.472,15.746,7.19,15.746,7.19s-12.361-0.384-15.625,3.271      c-2.225,2.492-6.247,13.159-6.652,17.541c0,0-0.293-16.46-3.851-18.92C59.503,194.358,47.614,190.811,47.614,190.811z"/>
			</g>
			<g>
				<path style="fill:#FADED3;" d="M97.991,108.436c0,0,14.002-3.316,15.56-7.251c1.558-3.935,0.202-18.617,0.202-18.617      s5.046,12.608,8.172,15.68c3.655,3.592,17.13,2.491,17.13,2.491s-11.974,3.094-14.083,7.517      c-1.438,3.015-2.312,14.382-1.473,18.702c0,0-4.891-15.719-8.996-17.084C110.398,108.511,97.991,108.436,97.991,108.436z"/>
			</g>
			<g>
				<path style="fill:#FADED3;" d="M416.752,339.194c0,0,14.37,0.738,16.968-2.603c2.598-3.341,5.408-17.815,5.408-17.815      s1.313,13.517,3.453,17.341c2.502,4.472,15.746,7.19,15.746,7.19s-12.361-0.384-15.625,3.271      c-2.225,2.492-6.247,13.159-6.652,17.541c0,0-0.293-16.46-3.851-18.92C428.642,342.741,416.752,339.194,416.752,339.194z"/>
			</g>
			<g>
				<g>
					<path style="fill:#FADED3;" d="M419.446,194.885c0,0,14.37,0.738,16.968-2.603c2.598-3.341,5.408-17.815,5.408-17.815       s1.313,13.517,3.453,17.341c2.502,4.472,15.746,7.19,15.746,7.19s-12.361-0.384-15.625,3.271       c-2.225,2.492-6.247,13.159-6.652,17.541c0,0-0.293-16.46-3.851-18.92C431.336,198.432,419.446,194.885,419.446,194.885z"/>
				</g>
				<g>
					<circle style="fill:#FADED3;" cx="374.986" cy="92.951" r="7.304"/>
				</g>
			</g>
			<g>
				<circle style="fill:#FADED3;" cx="146.372" cy="329.971" r="7.304"/>
			</g>
			<g>
				<path style="fill:#FADED3;" d="M397.914,268.358c0,4.034-3.27,7.304-7.304,7.304c-4.034,0-7.304-3.27-7.304-7.304      c0-4.034,3.27-7.304,7.304-7.304C394.644,261.053,397.914,264.323,397.914,268.358z"/>
			</g>
		</g>
	</g>
</g>















</svg>
