<?xml version="1.0" encoding="UTF-8"?>
<!-- Generator: Adobe Illustrator 25.2.3, SVG Export Plug-In . SVG Version: 6.00 Build 0)  -->
<svg xmlns="http://www.w3.org/2000/svg" xmlns:xlink="http://www.w3.org/1999/xlink" version="1.1" id="Capa_1" x="0px" y="0px" viewBox="0 0 511.949 511.949" style="enable-background:new 0 0 511.949 511.949;" xml:space="preserve" width="512" height="512">
<g>
	<g>
		<path style="fill:#FFFFFF;" d="M255.948,511.948c-53.936-0.036-107.204-17.279-150.622-49.323    c-27.4-20.223-50.736-45.941-68.04-75.282C9.388,340.038-1.852,283.52,5.308,229.107c0.072-0.544,0.145-1.088,0.22-1.631    c3.738-27.017,11.853-53.451,24.182-77.792c20.055-39.596,50.755-73.648,87.996-97.783c18.372-11.906,38.282-21.443,59.102-28.217    C198.535,7.965,223.894,0,252.227,0c24.134,0,46.461,6.374,66.399,18.949c50.721,12.767,96.726,41.531,130.627,81.329    c14.951,17.552,27.506,37.156,37.021,58.163c18.187,40.153,25.846,85.219,21.086,129.091    c-4.621,42.594-20.318,84.084-45.243,118.947c-2.908,4.068-5.943,8.047-9.097,11.927c-2.219,2.73-4.496,5.413-6.83,8.044    c-33.322,37.558-77.828,64.946-126.423,77.613C299.062,509.463,277.331,511.963,255.948,511.948z"/>
	</g>
	<g>
		<g>
			<g>
				<g>
					<g>
						<path style="fill:#7EA8C5;" d="M464.457,380.939c1.928-3.251,3.766-6.569,5.537-9.931c1.233-2.332,2.421-4.663,3.565-7.04        c0.448-0.919,0.874-1.838,1.323-2.757c7.387-15.187,12.75-31.594,16.447-48.049c3.861-17.185,5.364-34.326,5.312-51.601        c-0.029-9.478-0.526-18.997-1.358-28.585c-0.045-0.515-0.112-1.031-0.179-1.547c-2.937-23.024-9.214-44.995-18.361-65.463        c-0.045-0.135-0.09-0.247-0.157-0.359c-0.09-0.247-0.202-0.471-0.314-0.717c-0.045-0.112-0.09-0.202-0.135-0.314        c-3.968-8.721-8.452-17.173-13.429-25.311c-11.308-18.491-25.087-35.47-40.959-50.241l-0.874-0.807        c-11.789-10.915-24.96-20.73-38.605-29.01c-21.818-13.239-46.014-22.986-70.81-28.59c-26.583-6.008-54.111-7.531-81.196-4.473        c-26.385,2.978-52.115,10.397-76.128,21.697c-1.143,0.538-2.287,1.098-3.43,1.681c-11.658,5.762-22.778,12.442-33.247,19.953        c-0.471,0.336-0.942,0.672-1.412,1.009c-3.833,2.802-7.6,5.717-11.254,8.721c-17.602,14.483-33.279,31.668-46.026,50.465        c-9.873,14.217-17.926,29.868-24.257,45.959c-8.52,21.624-13.744,44.557-15.536,67.727c-0.09,1.188-0.179,2.354-0.224,3.542        c-0.314,4.842-0.471,9.73-0.471,14.662c0,0.949,0.006,1.899,0.017,2.848c0.31,26.133,4.962,52.315,13.883,76.896        c0.179,0.493,0.359,1.009,0.56,1.502c0.359,0.986,0.74,1.973,1.143,2.959c4.439,11.68,9.819,22.912,16.029,33.606        l106.198,1.569l86.097,91.363l80.085-64.785L464.457,380.939z"/>
					</g>
				</g>
			</g>
			<g>
				<g>
					<path style="fill:#FADED3;" d="M75.901,143.678c-22.822,32.171-42.347,66.898-57.166,103.44       c0.045-1.188,0.149-2.575,0.238-3.763c14.685-35.466,33.792-69.008,56.009-100.327c2.332-3.295,4.73-6.591,7.129-9.887       c14.101-19.437,28.565-40.003,34.326-62.937c0.471-0.336,0.872-0.624,1.343-0.96c-5.582,23.674-20.334,44.661-34.772,64.547       C80.609,137.087,78.232,140.383,75.901,143.678z"/>
				</g>
				<g>
					<path style="fill:#FADED3;" d="M64.825,243.765c-7.017,25.176-14.281,51.227-22.845,76.269       c-2.556,7.465-5.425,15.491-9.035,23.405c-0.202-0.493-0.381-1.009-0.56-1.502c3.385-7.533,6.12-15.133,8.541-22.262       c8.542-25.019,15.805-51.047,22.822-76.202c13.631-48.94,27.71-99.539,52.056-144.96       c10.828-20.199,22.828-37.186,35.494-49.292c1.143-0.583,2.007-0.99,3.15-1.528c-13.608,12.285-26.135,29.836-37.658,51.358       C92.512,144.36,78.433,194.892,64.825,243.765z"/>
				</g>
				<g>
					<path style="fill:#FADED3;" d="M219.404,54.272c-1.995,11.075-8.968,20.379-15.94,28.965       c-10.941,13.474-22.71,26.589-34.121,39.3c-17.845,19.885-36.319,40.466-51.832,62.75       C75.609,245.459,54.805,319.98,58.885,393.155c-0.426-0.605-0.829-1.211-1.21-1.816c-3.654-72.839,17.24-146.82,58.917-206.701       c15.559-22.329,34.054-42.932,51.922-62.862c11.389-12.667,23.159-25.804,34.077-39.233       c6.882-8.474,13.743-17.666,15.693-28.472c1.547-8.564-1.143-19.011-8.071-24.481c0.471-0.09,0.942-0.179,1.412-0.269       C218.35,35.194,220.95,45.663,219.404,54.272z"/>
				</g>
				<g>
					<path style="fill:#FADED3;" d="M210.705,441.355c2.175,8.564,3.991,16.971,2.645,25.423       c-1.659,10.178-7.533,18.249-15.402,24.414c-0.471-0.112-0.919-0.224-1.39-0.336c8.004-6.075,14.034-14.101,15.671-24.257       c1.345-8.228-0.471-16.523-2.601-24.975c-4.506-17.823-10.671-38.358-22.307-55.666c-5.672-8.43-12.667-16.164-19.459-23.629       c-9.752-10.783-19.841-21.903-26.051-35.287c-11.635-25.042-9.124-57.19,6.883-88.24       c11.748-22.777,28.943-42.528,45.533-61.652c3.183-3.632,6.344-7.264,9.461-10.918c27.015-31.611,51.877-65.508,73.87-100.795       l2.354-3.766c7.017-11.277,14.146-22.778,22.666-32.754c0.426,0.067,0.83,0.135,1.233,0.224v0.023       c-8.631,10.044-15.85,21.679-22.957,33.112l-2.332,3.767c-22.038,35.31-46.923,69.274-73.982,100.907       c-3.139,3.677-6.3,7.309-9.461,10.941c-16.567,19.056-33.695,38.762-45.376,61.427c-15.85,30.736-18.361,62.526-6.883,87.254       c6.143,13.227,16.186,24.302,25.894,34.996c6.793,7.51,13.81,15.267,19.527,23.764       C199.989,402.795,206.199,423.442,210.705,441.355z"/>
				</g>
				<g>
					<path style="fill:#FADED3;" d="M366.157,227.054c-18.182,17.218-15.603,46.048-13.317,71.494l0.135,1.637       c2.018,22.621,2.713,51.72-9.931,76c-11.209,21.544-37.507,40.578-64.073,33.449c-20.132-5.425-36.206-26.23-39.053-50.599       c-2.892-24.75,6.501-49.075,13.832-65.194c20.76-45.735,53.603-88.577,97.656-127.294c4.125-3.654,8.429-7.286,12.555-10.828       c19.011-16.186,38.672-32.911,51.294-54.59c2.332-3.99,4.372-8.25,6.075-12.689l0.875,0.807       c-1.682,4.349-3.699,8.541-5.986,12.442c-12.712,21.836-32.44,38.65-51.518,54.881c-4.147,3.542-8.429,7.174-12.555,10.806       c-43.918,38.628-76.695,81.336-97.387,126.935c-7.264,16.007-16.59,40.107-13.72,64.611       c2.802,23.921,18.518,44.322,38.224,49.613c26.051,7.017,51.787-11.703,62.795-32.866c12.51-24.033,11.815-52.908,9.797-75.372       l-0.135-1.637c-2.309-25.692-4.91-54.814,13.675-72.413c9.819-9.304,23.271-12.711,36.251-16.007       c8.385-2.13,17.038-4.327,24.75-8.071c9.909-4.82,18.518-12.353,26.835-19.639c7.376-6.434,14.886-13.003,23.361-17.733       c0.045,0.112,0.09,0.202,0.134,0.314c0.112,0.247,0.224,0.471,0.314,0.717c-8.34,4.686-15.783,11.187-23.069,17.554       c-8.384,7.331-17.038,14.908-27.082,19.796c-7.824,3.789-16.523,6.008-24.974,8.138       C388.486,214.723,375.774,217.952,366.157,227.054z"/>
				</g>
				<g>
					<path style="fill:#FADED3;" d="M404.298,342.091c-4.506,15.312-2.489,29.145,5.381,37.013       c7.084,7.062,19.123,9.349,30.669,5.829c10.537-3.206,19.594-10.358,27.822-17.599c2.287-2.018,4.551-4.08,6.793-6.165       c-0.448,0.919-0.875,1.838-1.323,2.757c-1.547,1.435-3.139,2.847-4.73,4.26c-8.318,7.331-17.487,14.55-28.225,17.823       c-11.949,3.632-24.436,1.233-31.79-6.12c-8.183-8.161-10.29-22.419-5.672-38.112c8.856-30.108,32.843-52.281,56.047-73.713       c12.577-11.635,25.4-23.473,35.915-36.677c0.067,0.515,0.135,1.031,0.18,1.547c-10.425,12.936-23.002,24.526-35.332,35.937       C436.94,290.214,413.064,312.274,404.298,342.091z"/>
				</g>
			</g>
		</g>
		<g>
			<g>
				<g>
					<polygon style="fill:#FF8476;" points="294.529,308.18 292.079,272.791 291.72,266.245 264.234,264.922 264.234,263.958        254.325,264.451 244.394,263.958 244.394,264.922 216.931,266.245 216.258,278.62 214.644,308.235 254.325,370.92      "/>
				</g>
				<g>
					<path style="fill:#331510;" d="M292.079,272.791c-4.618,5.717-10.694,10.245-17.509,12.958       c-7.107,2.825-14.841,3.699-22.486,3.766c-8.564,0.067-17.285-0.874-25.176-4.192c-3.856-1.637-7.533-3.901-10.649-6.703       l0.672-12.375l27.463-1.323v-0.964l9.931,0.493l9.909-0.493v0.964l27.485,1.323L292.079,272.791z"/>
				</g>
			</g>
			<g>
				<path style="fill:#331510;" d="M225.069,496.351c10.649,1.457,21.544,2.197,32.597,2.197c22.486,0,44.277-3.071,64.947-8.856      l35.597-62.785l73.017-29.248l20.458-13.768l-18.598-14.95l-92.494-48.355l-0.785-0.336c0,0-6.3-29.189-14.325-36.632      c-8.004-7.443-32.999-4.658-32.999-4.658l0.962,13.805c-36.072,26.903-77.86,4.596-77.86,4.596l0.467-14.981      c-44.636-2.87-42.817,36.144-42.817,36.144c-0.247,0.045-0.516,0.112-0.785,0.157l-76.958,58.975l-35.522,3.596l51.226,20.962      l14.403,42.261l60.075-23.689L225.069,496.351z"/>
			</g>
			<g>
				<g>
					<path style="fill:#D3542B;" d="M49.91,379.37c0,0,5.537,9.445,8.548,13.882c18.445,27.18,42.246,50.178,70.042,67.852       c27.642,17.576,58.767,29.354,91.249,34.471c1.77,0.279,3.543,0.537,5.319,0.775c-1.367-16.993-4.058-33.875-7.802-50.51       c-5.381-24.055-12.913-47.595-21.634-70.642c-4.394-11.568-9.079-23.046-13.989-34.413c-2.421-5.56-5.044-15.536-9.192-22.105       C172.452,318.682,92.544,333.584,49.91,379.37z"/>
				</g>
				<g>
					<path style="fill:#D3542B;" d="M340.593,320.588c-6.344,14.46-7.734,32.933-10.223,48.335       c-3.027,18.675-5.201,37.462-6.524,56.316c-1.502,21.163-1.906,42.372-1.255,63.58c0,0.292,0.022,0.583,0.022,0.874       c30.284-8.423,58.821-22.872,83.545-42.282c23.34-18.323,43.16-40.954,58.299-66.472       C464.457,380.939,420.396,337.003,340.593,320.588z"/>
				</g>
			</g>
			<g>
				<g>
					<path style="fill:#331510;" d="M197.494,491.532c-0.209,0-0.411-0.119-0.507-0.32c-12.764-26.947-75.629-98.321-76.262-99.04       c-0.118-0.133-0.165-0.314-0.128-0.488c0.038-0.174,0.156-0.32,0.317-0.394l47.238-21.37l-43.918-34.345       c-0.244-0.19-0.286-0.543-0.096-0.787c0.192-0.245,0.543-0.286,0.787-0.096l44.647,34.915c0.155,0.121,0.235,0.314,0.211,0.508       c-0.023,0.195-0.146,0.364-0.325,0.444L122.067,392c6.001,6.84,63.712,72.931,75.934,98.731       c0.132,0.279,0.013,0.613-0.267,0.746C197.656,491.514,197.575,491.532,197.494,491.532z"/>
				</g>
				<g>
					<path style="fill:#331510;" d="M332.358,487.378c-0.055,0-0.11-0.009-0.165-0.025c-0.296-0.092-0.462-0.405-0.371-0.7       c8.63-28.045,58.74-77.83,64.325-83.314l-46.923-30.529c-0.164-0.105-0.26-0.288-0.255-0.485       c0.006-0.195,0.112-0.373,0.28-0.469l48.654-28.048c0.268-0.151,0.612-0.064,0.766,0.206c0.155,0.268,0.063,0.611-0.205,0.765       l-47.862,27.592l46.742,30.41c0.143,0.092,0.236,0.245,0.252,0.414c0.017,0.172-0.045,0.339-0.167,0.458       c-0.554,0.536-55.524,54.044-64.536,83.33C332.82,487.222,332.598,487.378,332.358,487.378z"/>
				</g>
			</g>
			<g>
				<g>
					<g>
						<path style="fill:#FF8476;" d="M136.176,171.186c-0.449-5.067,0.133-10.305,2.296-14.909        c2.163-4.605,6.01-8.522,10.817-10.189c2.403-0.834,5.126-1.077,7.45-0.043c2.327,1.035,3.951,3.195,5.205,5.411        c4.118,7.276,5.282,15.81,6.135,24.127c0.787,7.679,2.748,30.142-10.528,26.661        C145.289,199.029,137.191,182.656,136.176,171.186z"/>
					</g>
					<g>
						<path style="fill:#FF8476;" d="M367.713,170.041c0.448-5.067-0.133-10.305-2.296-14.909        c-2.163-4.605-6.01-8.522-10.817-10.189c-2.403-0.834-5.126-1.077-7.45-0.043c-2.327,1.035-3.951,3.195-5.205,5.411        c-4.118,7.276-5.282,15.81-6.135,24.127c-0.787,7.679-2.748,30.142,10.528,26.661        C358.6,197.885,366.698,181.511,367.713,170.041z"/>
					</g>
				</g>
				<g>
					<g>
						<g>
							<path style="fill:#FF8476;" d="M358.36,138.587l-0.518,2.969l-0.281,1.367l-6.278,34.684l-3.409,18.88l-0.13,0.705         c-0.151,1.196-0.345,2.456-0.561,3.759c-1.769,10.721-4.962,24.582-7.033,33.637c-0.022,0.043-0.022,0.085-0.043,0.128         c-4.034,17.321-20.689,28.597-41.702,35.047c-0.734,0.235-1.488,0.449-2.244,0.62c-17.799,5.147-38.466,6.92-57.257,6.065         c-4.337-0.192-8.565-0.512-12.642-0.982c-0.022,0-0.022,0-0.022,0c-18.554-2.093-33.828-6.899-40.344-13.562         c-4.876-4.976-8.996-13.946-12.469-24.945c-1.963-6.193-3.711-13.028-5.285-20.097v-0.021l-0.605-2.798         c-0.151,0.042-0.259,0.086-0.41,0.128l-0.712-4.998l-2.028-14.245l-5.566-38.977c0-0.107-0.022-0.235-0.044-0.342         c-0.151-1.581-0.302-3.097-0.431-4.549c-0.928-9.226-1.316-15.099-1.316-15.099l0.324-0.043         c-0.518-3.31-0.885-6.685-1.079-10.123c-2.373-41.369,20.797-78.338,55.963-95.872c1.251-0.641,2.524-1.239,3.84-1.815         v-0.022c11.132-4.955,23.343-8.052,36.266-8.756c13.549-0.769,26.622,1.132,38.725,5.211         c0.518,0.192,1.036,0.363,1.554,0.577c35.252,12.558,61.788,43.868,66.642,82.396l0.259-0.043c0,0,0,0.62-0.043,1.815         c0.215,1.709,0.345,3.417,0.453,5.104C360.41,122.698,359.827,130.771,358.36,138.587z"/>
						</g>
					</g>
				</g>
				<g>
					<g>
						<g>
							<g>
								<g>
									<g>
										<g>
											<g>
												<g>
													
														<ellipse transform="matrix(0.0416 -0.9991 0.9991 0.0416 29.3673 362.8168)" style="fill:#331510;" cx="203.804" cy="166.101" rx="10.25" ry="10.152"/>
												</g>
												<g>
													<path style="fill:#331510;" d="M304.18,163.084c-0.237,5.656-4.971,10.051-10.573,9.815               c-5.602-0.235-9.951-5.011-9.713-10.667c0.237-5.656,4.971-10.05,10.573-9.815               C300.069,152.653,304.418,157.428,304.18,163.084z"/>
												</g>
											</g>
										</g>
									</g>
								</g>
							</g>
							<g>
								<path style="fill:#331510;" d="M184.432,142.728c0.443,1.698,1.728,3.233,3.516,3.853c1.555,0.538,3.307,0.363,4.966,0.097          c4.068-0.654,8.051-1.814,11.801-3.437c2.241-0.97,4.448-2.141,6.06-3.864c6.818-7.286-4.494-13.531-11.896-12.15          C192.399,128.436,182.736,136.223,184.432,142.728z"/>
							</g>
							<g>
								<path style="fill:#331510;" d="M312.587,135.825c-0.219,1.728-1.288,3.403-2.97,4.24c-1.461,0.728-3.208,0.779-4.875,0.729          c-4.087-0.124-8.156-0.758-12.055-1.878c-2.329-0.669-4.651-1.54-6.458-3.031c-7.641-6.303,2.698-13.891,10.16-13.476          C302.922,122.773,313.427,129.206,312.587,135.825z"/>
							</g>
							<g>
								<path style="fill:#331510;" d="M251.913,222.032c-1.633,0-3.272-0.215-4.879-0.664c-3.634-1.012-6.534-3.088-8.168-5.849          c-0.227-0.382-0.1-0.877,0.283-1.103c0.386-0.222,0.878-0.098,1.104,0.284c1.42,2.399,3.983,4.216,7.214,5.116          c7.489,2.078,15.763-1.351,20.121-8.353c0.236-0.375,0.731-0.494,1.11-0.259c0.378,0.236,0.493,0.732,0.259,1.11          C265.154,218.427,258.587,222.032,251.913,222.032z"/>
							</g>
						</g>
						<g>
							<path style="fill:#331510;" d="M248.122,203.596c-2.019,0-4.039-0.643-5.636-1.914c-0.332-0.263-0.65-0.554-0.968-0.847         c-0.755-0.691-1.47-1.346-2.323-1.55c-0.49-0.117-1.043-0.085-1.628-0.046c-0.794,0.048-1.614,0.098-2.442-0.199         c-2.541-0.911-2.497-3.871-2.463-6.247c0.006-0.341,0.01-0.678,0.008-1c-0.103-14.066,2.973-26.928,7.331-43.563         c0.108-0.41,0.521-0.652,0.941-0.552c0.411,0.11,0.657,0.529,0.549,0.941c-4.326,16.52-7.381,29.286-7.28,43.164         c0.002,0.332-0.002,0.68-0.008,1.032c-0.037,2.479,0.046,4.274,1.443,4.773c0.53,0.192,1.162,0.151,1.828,0.112         c0.67-0.041,1.364-0.082,2.076,0.087c1.244,0.293,2.143,1.117,3.01,1.911c0.292,0.268,0.583,0.536,0.886,0.778         c2.44,1.941,6.231,2.094,8.819,0.359c0.737-0.494,1.396-1.122,2.094-1.785c1.167-1.108,2.374-2.255,4.001-2.774         c0.81-0.261,1.703-0.375,2.566-0.485c2.003-0.256,3.246-0.492,3.624-1.6c0.137-0.401,0.573-0.625,0.977-0.478         c0.403,0.135,0.618,0.575,0.481,0.977c-0.714,2.097-2.931,2.378-4.886,2.63c-0.794,0.101-1.616,0.206-2.292,0.421         c-1.291,0.414-2.32,1.392-3.408,2.426c-0.714,0.68-1.454,1.383-2.299,1.948C251.642,203.109,249.882,203.596,248.122,203.596         z"/>
						</g>
					</g>
					<g>
						<polygon style="fill:#331510;" points="355.955,145.312 346.872,182.359 339.289,129.442       "/>
					</g>
					<g>
						<polygon style="fill:#331510;" points="147.857,153.302 160.831,189.173 162.739,135.749       "/>
					</g>
				</g>
				<g>
					<g>
						<g>
							<path style="fill:#A65236;" d="M367.72,166.615c0,0-5.605-7.891-17.083-17.442c-0.292-0.247-0.605-0.493-0.919-0.762         c-9.057-7.398-21.612-15.716-37.731-22.06c-0.336-0.134-0.695-0.269-1.054-0.403c-9.775-3.766-20.849-6.815-33.247-8.497         c-0.359-0.067-0.74-0.112-1.121-0.157c-11.815-1.524-24.818-1.838-39.031-0.381c-0.381,0.022-0.762,0.067-1.143,0.112         c-0.067,0-0.135,0.022-0.202,0.022c-11.792,1.278-22.195,3.385-31.319,6.076c-0.381,0.09-0.74,0.202-1.099,0.314         c-14.527,4.372-25.849,10.178-34.637,16.5c-0.314,0.224-0.628,0.448-0.919,0.673c-10.582,7.779-17.397,16.209-21.769,23.495         c-0.247,0.381-0.471,0.762-0.673,1.143c-5.806,10.066-6.883,17.621-6.883,17.621s-16.59-30.893-17.756-51.518         c-0.74-13.182,8.138-23.069,14.617-28.494c1.3-1.076,2.511-1.995,3.52-2.69c1.166-0.83,2.062-1.412,2.578-1.704         c0.314-0.202,0.471-0.291,0.471-0.291c0.045-0.247,0.09-0.493,0.135-0.762c3.564-19.841,35.22-83.958,111.488-83.958         c72.682,0,103.844,64.297,107.296,71.942c0.023,0.022,0.023,0.022,0.023,0.022c0.179,0.471,0.291,0.717,0.291,0.717         s0.202-0.022,0.561,0.045c1.95,0.292,8.609,2.623,14.886,19.998C384.444,126.777,367.72,166.615,367.72,166.615z"/>
						</g>
					</g>
					<g style="opacity:0.49;">
						<g>
							<path style="fill:#FADED3;" d="M142.325,98.722c-0.182,0-0.359-0.087-0.467-0.25c-0.172-0.256-0.103-0.604,0.154-0.777         c0.37-0.248,37.751-24.735,106.561-27.759c68.779-3.021,112.763,15.505,113.198,15.691c0.285,0.123,0.416,0.451,0.293,0.736         c-0.123,0.285-0.458,0.412-0.736,0.293c-0.434-0.186-44.191-18.607-112.708-15.599         c-68.472,3.008-105.619,27.325-105.987,27.57C142.54,98.691,142.432,98.722,142.325,98.722z"/>
						</g>
					</g>
					<g style="opacity:0.49;">
						<g>
							<path style="fill:#FADED3;" d="M146.446,164.105c-0.247,0.381-0.471,0.762-0.673,1.143         c-8.586-16.298-15.828-34.816-12.936-53.424c0.448-2.802,1.278-6.12,2.915-8.968c1.278-2.219,3.004-4.17,5.38-5.358         c0.292-0.135,0.628-0.022,0.762,0.247c0.022,0.023,0.022,0.045,0.022,0.067c0.067,0.202,0.022,0.426-0.112,0.538         c-0.045,0.09-0.09,0.135-0.157,0.157c-0.897,0.448-1.681,1.009-2.376,1.659c-3.296,3.027-4.73,7.914-5.336,11.837         C131.134,130.05,138.061,148.12,146.446,164.105z"/>
						</g>
					</g>
					<g style="opacity:0.49;">
						<g>
							<path style="fill:#FADED3;" d="M169.134,139.937c-0.314,0.224-0.628,0.448-0.919,0.673         c-5.246-12.061-9.819-25.737-10.111-40.152c-0.09-3.318,0.067-7.107,1.592-10.492c0.179-0.359,0.336-0.717,0.538-1.076         c0.157-0.269,0.493-0.381,0.762-0.224c0.247,0.135,0.359,0.404,0.247,0.65c0,0.045,0,0.067-0.023,0.112         c-1.883,3.408-2.085,7.488-1.995,11.008C159.516,114.581,164,128.033,169.134,139.937z"/>
						</g>
					</g>
					<g style="opacity:0.49;">
						<g>
							<path style="fill:#FADED3;" d="M204.869,123.123c-0.381,0.09-0.74,0.202-1.099,0.314         c-4.618-14.595-7.577-29.682-8.811-44.972c-0.045-0.359-0.067-0.717-0.09-1.076v-0.067c0.022-0.292,0.224-0.516,0.515-0.538         c0.224-0.022,0.448,0.09,0.538,0.292c0.045,0.067,0.067,0.134,0.067,0.224c0.022,0.291,0.045,0.605,0.067,0.897         C197.27,93.485,200.229,108.551,204.869,123.123z"/>
						</g>
					</g>
					<g style="opacity:0.49;">
						<g>
							<path style="fill:#FADED3;" d="M237.534,116.913c-0.381,0.022-0.762,0.067-1.143,0.112         c-2.063-14.886-4.596-29.772-7.555-44.434c-0.067-0.247-0.112-0.493-0.157-0.74c-0.022-0.135,0-0.269,0.067-0.381         c0.067-0.135,0.202-0.247,0.359-0.292c0.202-0.022,0.404,0.045,0.538,0.179c0.067,0.067,0.112,0.157,0.135,0.269         c0.067,0.269,0.112,0.56,0.157,0.83C232.915,87.141,235.449,102.027,237.534,116.913z"/>
						</g>
					</g>
					<g style="opacity:0.49;">
						<g>
							<path style="fill:#FADED3;" d="M277.686,117.451c-0.359-0.067-0.74-0.112-1.121-0.157         c-0.269-15.536-1.637-31.14-4.058-46.452c-0.045-0.224-0.067-0.471-0.112-0.695c-0.022-0.135,0-0.291,0.09-0.403         c0.09-0.112,0.224-0.202,0.359-0.224c0.224-0.023,0.448,0.067,0.56,0.246c0.045,0.045,0.067,0.135,0.09,0.202         c0.045,0.291,0.09,0.605,0.135,0.897C276.072,86.244,277.439,101.87,277.686,117.451z"/>
						</g>
					</g>
					<g style="opacity:0.49;">
						<g>
							<path style="fill:#FADED3;" d="M311.986,126.351c-0.336-0.134-0.695-0.269-1.054-0.403c3.923-16.904,4.394-34.57,1.345-51.63         c-0.068-0.314,0.134-0.605,0.448-0.65c0.291-0.067,0.605,0.135,0.65,0.448c0.022,0.135,0.045,0.247,0.067,0.381         C316.47,91.647,315.955,109.38,311.986,126.351z"/>
						</g>
					</g>
					<g style="opacity:0.49;">
						<g>
							<path style="fill:#FADED3;" d="M356.846,123.392c-1.121,8.811-3.452,17.397-6.21,25.782         c-0.292-0.247-0.605-0.493-0.919-0.762c2.668-8.206,4.909-16.59,6.008-25.154c1.39-10.806,1.367-26.544-6.614-40.241         c-0.112-0.18-0.09-0.381,0-0.561c0.045-0.067,0.112-0.134,0.202-0.202c0.247-0.157,0.605-0.067,0.763,0.202         c0.067,0.112,0.134,0.224,0.179,0.336C358.214,96.669,358.236,112.519,356.846,123.392z"/>
						</g>
					</g>
				</g>
			</g>
		</g>
	</g>
</g>















</svg>
