<?xml version="1.0" encoding="iso-8859-1"?>
<!-- Generator: Adobe Illustrator 25.0.0, SVG Export Plug-In . SVG Version: 6.00 Build 0)  -->
<svg version="1.1" id="Object" xmlns="http://www.w3.org/2000/svg" xmlns:xlink="http://www.w3.org/1999/xlink" x="0px" y="0px"
	 width="500px" height="500px" viewBox="0 0 500 500" enable-background="new 0 0 500 500" xml:space="preserve">
<g>
	<defs>
		<circle id="SVGID_17_" cx="250" cy="250" r="186.175"/>
	</defs>
	<clipPath id="SVGID_2_">
		<use xlink:href="#SVGID_17_"  overflow="visible"/>
	</clipPath>
	<circle clip-path="url(#SVGID_2_)" fill="#E9E4F2" cx="250" cy="262.1" r="187.36"/>
	<g clip-path="url(#SVGID_2_)">
		<g>
			
				<ellipse transform="matrix(0.0928 -0.9957 0.9957 0.0928 69.7806 515.2502)" fill="#35356D" cx="317.656" cy="219.33" rx="45.291" ry="35.064"/>
			<path fill="#35356D" d="M219.751,213.881c0.335,0.287,0.443,0.615,0.281,0.881c-2.289,3.747-19.432,32.608-20.069,57.577
				c-0.311,12.193,0.293,21.493,1.042,28.005c0.128,1.112-2.602,0.945-3.054-0.186c-7.424-18.594-19.561-54.899-11.416-76.741
				C196.811,195.857,216.29,210.912,219.751,213.881z"/>
			<path fill="#35356D" d="M316.133,213.061c-10.885,50.705-37.347,57.14-46.255,79.151c-8.901,22.018-98.689-66.893-98.689-66.893
				s-1.176-1.5-2.893-4.145c-0.14-0.668-0.292-1.354-0.458-2.054c0,0-12.245-26.31-1.857-48.715
				c10.383-22.386,33.092-20.78,33.119-20.778c0.293,0.021,2.651-4.025,2.9-4.357c2.66-3.552,5.763-6.789,9.18-9.618
				c10.86-8.989,24.671-13.007,38.683-11.689c20.258,1.905,37.754,10.846,50.439,26.695c13.652,17.058,20.315,39.454,16.097,61.1
				C316.315,212.192,316.226,212.627,316.133,213.061z"/>
			<path fill="#FFC9C0" d="M173.506,198.401c0,0-8.904,59.92,4.081,76.801c12.986,16.881,40.998,13.913,40.998,13.913v21.555
				l-24.997,12.013c0,0,2.922,43.234,50.783,36.184c47.861-7.049,64.557-36.731,64.557-36.731l-32.279-16.139v-46.377
				c0,0,23.374-1.67,22.818-21.148c-0.557-19.478-18.18-15.212-22.261-12.429c-4.081,2.783-18.551,7.42-39.699-8.348
				s-33.392-41.183-33.392-41.183S184.08,185.786,173.506,198.401z"/>
			<g>
				<path fill="#E27169" d="M288.897,230.063c-4.891,0.456-8.815,3.799-10.649,8.272c-1.689,4.119-2.294,10.793,2.703,12.829
					c1.271,0.518,1.824-1.546,0.567-2.058c-1.873-0.763-2.374-3.029-2.349-4.837c0.027-1.926,0.456-3.902,1.266-5.652
					c1.562-3.375,4.665-6.066,8.461-6.421C290.253,232.07,290.266,229.935,288.897,230.063L288.897,230.063z"/>
				<path fill="#E27169" d="M279.76,243.531c0.806-1.25,1.973-2.506,3.542-2.663c0.814-0.082,1.517,0.223,2.206,0.624
					c0.849,0.495,1.665,1.053,2.465,1.624c0.469,0.335,1.188,0.083,1.46-0.383c0.313-0.536,0.088-1.124-0.383-1.46
					c-1.797-1.282-3.794-2.812-6.127-2.495c-2.204,0.3-3.845,1.878-5.005,3.676C277.171,243.612,279.018,244.683,279.76,243.531
					L279.76,243.531z"/>
			</g>
			<path fill="#E27169" d="M218.585,289.115c0,0,12.8,0.026,25.044-7.853s19.107-15.892,19.107-15.892s-3.339,22.628-17.994,35.558
				c-14.655,12.93-26.157,14.344-26.157,14.344V289.115z"/>
			<g>
				<g>
					<ellipse fill="#FFAA9F" cx="180.746" cy="248.26" rx="9.318" ry="6.869"/>
					<ellipse fill="#FFAA9F" cx="224.635" cy="245.671" rx="13.609" ry="8.924"/>
				</g>
			</g>
			<g>
				<ellipse fill="#35356D" cx="184.012" cy="225.376" rx="3.517" ry="5.754"/>
				<ellipse fill="#35356D" cx="222.852" cy="225.23" rx="4.267" ry="5.9"/>
				<path fill="#E27169" d="M197.985,225.398c0.616,2.25,0.815,4.789-0.373,6.896c-1.078,1.912-2.971,3.199-4.493,4.727
					c-1.47,1.477-3.216,3.613-1.786,5.694c1.314,1.911,3.663,3.2,5.784,3.985c1.29,0.477,1.847-1.585,0.567-2.058
					c-1.038-0.384-2.024-0.908-2.919-1.562c-0.607-0.444-1.978-1.34-1.842-2.229c0.136-0.889,1.191-1.813,1.798-2.416
					c0.734-0.728,1.524-1.397,2.276-2.106c1.47-1.386,2.733-2.963,3.269-4.946c0.582-2.149,0.356-4.43-0.225-6.552
					C199.68,223.508,197.621,224.07,197.985,225.398L197.985,225.398z"/>
			</g>
			<path fill="#35356D" d="M175.413,215.966c-0.374,0.112-0.687-0.324-0.495-0.69c0.798-1.52,2.918-4.24,7.874-4.24
				c6.877,0,10.722,4.264,9.687,5.953c-1.035,1.689-3.734-2.454-9.317-2.212C179.352,214.941,176.708,215.578,175.413,215.966z"/>
			<path fill="#35356D" d="M213.83,212.243c-0.374,0.112-0.687-0.324-0.495-0.69c0.798-1.52,2.918-4.24,7.874-4.24
				c6.877,0,10.722,4.264,9.687,5.953c-1.035,1.689-3.734-2.454-9.317-2.212C217.769,211.218,215.126,211.855,213.83,212.243z"/>
			<path fill="#35356D" d="M263.297,206.119c-0.197,0.214-0.287,0.519-0.235,0.822c0.72,4.272,6.024,37.072,3.6,62.285
				c-1.184,12.312-2.502,21.515-3.586,27.887c-0.185,1.088,1.182,1.529,1.529,0.494c5.707-17.015,15.685-50.762,14.057-74.508
				C276.608,193.136,265.333,203.91,263.297,206.119z"/>
			<path fill="#E27169" d="M192.121,257.239c3,2.832,7.127,4.436,11.268,4.166c4.042-0.263,7.884-2.188,10.508-5.274
				c0.885-1.041-0.618-2.557-1.509-1.509c-2.254,2.65-5.5,4.421-8.999,4.649c-3.59,0.234-7.147-1.076-9.759-3.541
				C192.632,254.788,191.12,256.294,192.121,257.239L192.121,257.239z"/>
			<path fill="#E27169" d="M203.391,269.743c0.649-0.08,1.299-0.16,1.948-0.24c0.147,0.006,0.284-0.025,0.411-0.092
				c0.132-0.043,0.247-0.117,0.343-0.221c0.185-0.185,0.324-0.489,0.313-0.754c-0.012-0.276-0.103-0.562-0.313-0.755
				c-0.194-0.178-0.481-0.346-0.755-0.313c-0.649,0.08-1.299,0.16-1.948,0.24c-0.147-0.006-0.284,0.025-0.411,0.092
				c-0.132,0.043-0.247,0.117-0.343,0.221c-0.185,0.185-0.324,0.489-0.313,0.755c0.012,0.276,0.103,0.562,0.313,0.755
				C202.83,269.608,203.117,269.777,203.391,269.743L203.391,269.743z"/>
			<rect x="218.585" y="291.546" fill="#35356D" width="58.731" height="10.876"/>
		</g>
		<path fill="#FFC9C0" d="M178.008,330.127c0.655,7.482,0.881,17.622-1.49,25.044c-4.23,13.256-14.987,26.135-15.95,41.513
			c-0.715,11.419,2.921,31.321,4.833,40.806h-30.072c0,0,3.839-67.137,16.914-86.361
			C157.489,343.405,167.688,336.104,178.008,330.127z"/>
		<path fill="#FFC9C0" d="M364.672,437.49h-56.207c-1.227-15.175-4.178-58.969,0.858-79.948c6.15-25.631,37.155-24.863,46.12-1.799
			C363.392,379.318,364.672,437.49,364.672,437.49z"/>
		<path fill="#35356D" d="M355.443,355.743c-8.965-23.064-39.97-23.832-46.12,1.799c-5.036,20.979-2.085,64.773-0.858,79.948H165.4
			c-1.912-9.485-5.548-29.387-4.833-40.806c0.964-15.378,11.72-28.258,15.95-41.513c2.371-7.422,2.145-17.561,1.49-25.044
			c15.356-8.897,30.998-14.851,30.998-14.851s-8.077,32.782,27.03,32.782c35.1,0,54.769-34.98,54.769-34.98
			S347.502,332.167,355.443,355.743z"/>
	</g>
</g>
</svg>
