<?xml version="1.0" encoding="iso-8859-1"?>
<!-- Generator: Adobe Illustrator 25.0.0, SVG Export Plug-In . SVG Version: 6.00 Build 0)  -->
<svg version="1.1" id="Object" xmlns="http://www.w3.org/2000/svg" xmlns:xlink="http://www.w3.org/1999/xlink" x="0px" y="0px"
	 width="500px" height="500px" viewBox="0 0 500 500" enable-background="new 0 0 500 500" xml:space="preserve">
<g>
	<defs>
		<circle id="SVGID_15_" cx="250" cy="250" r="186.175"/>
	</defs>
	<clipPath id="SVGID_2_">
		<use xlink:href="#SVGID_15_"  overflow="visible"/>
	</clipPath>
	<circle clip-path="url(#SVGID_2_)" fill="#F4E4E4" cx="250" cy="262.1" r="187.36"/>
	<g clip-path="url(#SVGID_2_)">
		<g>
			<path fill="#FF9A41" d="M317.765,202.881c0,0-1.841,32.687-9.129,48.81s-26.63,45.962-26.63,45.962l-22.622-111.999
				L317.765,202.881z"/>
			<path fill="#FF4F4D" d="M172.586,179.617c0,0,4.123-79.215,78.037-66.258s67.142,89.522,67.142,89.522L172.586,179.617z"/>
			<path fill="#FFC9C0" d="M173.028,198.022c0,0-8.245,53.89-0.736,78.037c7.509,24.147,42.847,21.792,42.847,21.792v18.994
				l-31.73,13.693c0,0,15.239,45.718,67.804,39.534c52.565-6.184,45.719-50.118,45.719-50.118l-12.885-3.319
				c0,0-2.797-9.95-1.914-21.214c0.883-11.264,4.638-20.761,4.638-20.761s14.061,1.84,23.338-8.466
				c9.276-10.307,6.184-23.411-5.006-27.681c-11.19-4.27-16.933,1.767-17.522,7.804s-0.736,6.184-3.975,5.448
				c-3.239-0.736-4.123-2.356-3.975-4.712c0.147-2.356,0-46.381,0-46.381L173.028,198.022z"/>
			<path fill="#E27169" d="M215.138,297.851c0,0,9.791,2.319,27.239-4.086c17.448-6.405,22.528-11.485,22.528-11.485
				s-2.061,10.27-13.693,24.847c-11.632,14.577-36.074,19.436-36.074,19.436V297.851z"/>
			<g>
				<path fill="#E27169" d="M303.691,245.141c-2.648-1.007-5.434-0.007-7.694,1.458c-2.125,1.378-4.27,3.067-5.365,5.415
					c-2.032,4.355-1.281,10.191,2.368,13.474c1.019,0.917,2.533-0.588,1.509-1.509c-2.928-2.635-3.633-7.342-2.034-10.888
					c0.875-1.94,2.606-3.318,4.334-4.474c1.881-1.258,4.059-2.276,6.315-1.419C304.409,247.687,304.964,245.625,303.691,245.141
					L303.691,245.141z"/>
				<path fill="#E27169" d="M291.77,258.177c0.118-1.452,1.595-2.471,3.071-2.493c1.798-0.027,3.289,1.063,4.4,2.385
					c0.371,0.441,1.126,0.383,1.509,0c0.437-0.437,0.372-1.067,0-1.509c-1.555-1.85-3.88-3.231-6.37-2.982
					c-2.482,0.247-4.539,2.056-4.745,4.599c-0.047,0.575,0.524,1.067,1.067,1.067C291.319,259.244,291.723,258.754,291.77,258.177
					L291.77,258.177z"/>
			</g>
			<path fill="#E27169" d="M215.666,224.083c1.045,2.685,2.027,5.474,0.452,8.159c-0.72,1.228-1.696,2.285-2.617,3.363
				c-1.018,1.192-2.037,2.383-3.054,3.575c-0.825,0.967-1.626,1.958-1.732,3.276c-0.103,1.274,0.398,2.502,1.177,3.488
				c1.676,2.119,4.432,3.477,6.905,4.417c1.285,0.488,1.841-1.574,0.567-2.058c-1.244-0.473-2.432-1.077-3.55-1.8
				c-0.99-0.64-2.094-1.395-2.65-2.472c-0.649-1.259-0.166-2.213,0.678-3.21c0.938-1.108,1.885-2.207,2.828-3.31
				c1.591-1.862,3.437-3.74,4.155-6.145c0.795-2.661-0.138-5.372-1.102-7.85C217.231,222.25,215.167,222.8,215.666,224.083
				L215.666,224.083z"/>
			<path fill="#FF9A41" d="M246.456,266.412c-0.294,7.145-11.341-0.882-11.341-0.882s2.725,3.097,0.813,4.784
				c-0.77,0.683-2.638,0.277-4.593-0.45c-2.872-1.081-5.934-2.863-5.934-2.863s0.96,3.166-1.912,4.42
				c-2.872,1.254-7.439-3.607-7.439-3.607s-1.765,2.5-5.156,3.088c-3.382,0.597-4.118-3.823-4.118-3.823s-0.286,0.182-0.761,0.467
				c-1.825,1.081-6.453,3.607-8.149,2.552c-2.076-1.289,1.635-5.51,1.834-5.735c-0.32,0.164-7.163,3.685-8.166,1.168
				c-1.029-2.578,0.735-5.813,6.557-9.792c5.813-3.97,17.958-4.265,17.958-4.265C237.399,247.866,246.75,259.276,246.456,266.412z"
				/>
			<path fill="#E27169" d="M231.335,269.864c-1.176,3.789-6.358,6.635-12.56,6.635c-7.076,0-12.811-3.702-12.811-8.278
				c0-0.225,0.017-0.45,0.052-0.675c0.476-0.286,0.761-0.467,0.761-0.467s0.735,4.42,4.118,3.823
				c3.391-0.588,5.156-3.088,5.156-3.088s4.567,4.861,7.439,3.607c2.872-1.254,1.912-4.42,1.912-4.42
				S228.463,268.783,231.335,269.864z"/>
			<ellipse fill="#1E1E47" cx="195.895" cy="225.687" rx="4.226" ry="6.212"/>
			<ellipse fill="#1E1E47" cx="239.309" cy="226.414" rx="4.226" ry="6.212"/>
			<path fill="#FF9A41" d="M187.799,213.06c0,0,2.088-3.921,6.466-4.99c4.379-1.069,6.823-1.375,7.536,0.051
				c0.713,1.426,0.967,2.851-1.68,2.953c-2.648,0.102-5.448-0.407-7.79,1.171C189.989,213.823,187.137,215.3,187.799,213.06z"/>
			<path fill="#FF9A41" d="M248.329,213.06c0,0-2.088-3.921-6.466-4.99c-4.379-1.069-6.823-1.375-7.536,0.051
				c-0.713,1.426-0.967,2.851,1.68,2.953c2.648,0.102,5.448-0.407,7.79,1.171C246.14,213.823,248.991,215.3,248.329,213.06z"/>
			<path fill="#FF9F9F" d="M192.506,136.416c0.34-1.673,1.709-2.936,3.403-3.153c3.787-0.487,10.963-1.081,19.175-0.11
				c8.249,0.975,15.951,3.274,20.045,4.649c1.789,0.601,2.901,2.387,2.666,4.26l-1.771,14.089c-0.315,2.507-2.855,4.084-5.244,3.26
				c-6.552-2.257-18.785-6.006-28.175-6.159l-8.69-0.142c-2.486-0.041-4.325-2.329-3.83-4.765L192.506,136.416z"/>
			<path fill="#DB3A58" d="M173.028,198.022c0,0-40.786-3.681-49.325-23.706s8.54-31.804,61.546-23.264
				c53.006,8.54,132.516,51.829,132.516,51.829S218.23,202.292,173.028,198.022z"/>
		</g>
		<g>
			<path fill="#FFFFFF" d="M388.448,451.517H99.366c0,0,17.161-85.297,27.975-98.234c8.149-9.748,41.212-20.103,57.007-24.62
				c5.17-1.471,8.487-2.326,8.487-2.326s0.188,0.398,0.593,1.088c2.746,4.705,15.406,22.872,45.181,19.285
				c34.143-4.105,55.034-27.404,55.034-27.404s0.78,0.3,2.206,0.863c1.433,0.563,3.504,1.396,6.063,2.446
				c18.842,7.729,64.054,27.434,73.441,42.014c9.965,15.481,12.501,68.759,13.064,85.837
				C388.425,450.834,388.44,451.186,388.448,451.517z"/>
			<path fill="#FF4F4D" d="M193.428,327.424c-3.497,21.896-11.503,77.178-9.995,115.14c0.128,3.234,0.563,6.206,1.261,8.952H99.366
				c0,0,17.161-85.297,27.975-98.234c8.149-9.748,41.212-20.103,57.007-24.62c5.17-1.471,8.487-2.326,8.487-2.326
				S193.023,326.734,193.428,327.424z"/>
			<path fill="#FF4F4D" d="M388.418,450.466c-0.338,0.345-0.69,0.69-1.058,1.051H259.785c5.996-37.294,18.182-99.72,36.064-131.349
				c1.433,0.563,3.504,1.396,6.063,2.446c18.842,7.729,64.054,27.434,73.441,42.014
				C385.319,380.109,387.855,433.387,388.418,450.466z"/>
			<g>
				<g>
					<path fill="#AA2B46" d="M142.386,379.475c-2.823,18.203-5.549,36.421-8.174,54.654c-0.741,5.143-1.473,10.287-2.198,15.432
						c-0.081,0.575,0.141,1.139,0.745,1.313c0.499,0.143,1.232-0.175,1.313-0.745c2.57-18.241,5.238-36.469,8.006-54.681
						c0.781-5.136,1.569-10.272,2.366-15.405C144.653,378.699,142.597,378.12,142.386,379.475L142.386,379.475z"/>
					<path fill="#AA2B46" d="M326.319,369.916c-9.171,4.708-11.392,16.482-12.245,25.766c-1.086,11.82-0.77,23.751-0.414,35.597
						c0.197,6.572,0.315,13.142,0.135,19.715c-0.038,1.374,2.097,1.373,2.134,0c0.302-11.031-0.361-22.038-0.448-33.066
						c-0.048-6.093,0.075-12.203,0.433-18.286c0.319-5.419,0.865-10.914,2.58-16.093c1.582-4.774,4.291-9.424,8.901-11.791
						C328.618,371.131,327.54,369.289,326.319,369.916L326.319,369.916z"/>
				</g>
			</g>
			<g>
				<path fill="#E2BAB5" d="M194.115,344.493c5.32,7.352,12.787,12.919,21.365,15.893c1.3,0.451,1.859-1.61,0.567-2.058
					c-8.014-2.779-15.115-8.038-20.089-14.913C195.161,342.314,193.308,343.378,194.115,344.493L194.115,344.493z"/>
				<path fill="#E2BAB5" d="M220.863,361.172c12.897,2.3,26.169,1.934,38.914-1.106c1.335-0.319,0.77-2.377-0.567-2.058
					c-12.355,2.947-25.273,3.336-37.78,1.106C220.087,358.875,219.511,360.931,220.863,361.172L220.863,361.172z"/>
				<path fill="#E2BAB5" d="M191.984,405.705c12.835,8.698,26.29,16.473,40.245,23.23c3.959,1.917,7.957,3.75,11.99,5.504
					c1.247,0.542,2.335-1.296,1.077-1.843c-14.218-6.184-27.989-13.385-41.167-21.554c-3.738-2.317-7.427-4.713-11.068-7.18
					C191.922,403.09,190.853,404.938,191.984,405.705L191.984,405.705z"/>
				<path fill="#E2BAB5" d="M217.151,432.35c7.873,0.054,15.737,0.483,23.569,1.288c1.365,0.14,1.355-1.995,0-2.134
					c-7.831-0.805-15.696-1.234-23.569-1.288C215.777,430.206,215.776,432.341,217.151,432.35L217.151,432.35z"/>
				<path fill="#E2BAB5" d="M190.329,445.041c12.61-0.116,25.22-0.231,37.829-0.347c3.611-0.033,7.223-0.066,10.834-0.099
					c1.373-0.013,1.376-2.147,0-2.134c-12.61,0.116-25.22,0.231-37.829,0.347c-3.611,0.033-7.223,0.066-10.834,0.099
					C188.957,442.92,188.953,445.054,190.329,445.041L190.329,445.041z"/>
			</g>
		</g>
	</g>
</g>
</svg>
