<?xml version="1.0" encoding="UTF-8"?>
<!-- Generator: Adobe Illustrator 25.2.3, SVG Export Plug-In . SVG Version: 6.00 Build 0)  -->
<svg xmlns="http://www.w3.org/2000/svg" xmlns:xlink="http://www.w3.org/1999/xlink" version="1.1" id="Capa_1" x="0px" y="0px" viewBox="0 0 510.02 510.02" style="enable-background:new 0 0 510.02 510.02;" xml:space="preserve" width="512" height="512">
<g>
	<g>
		<path style="fill:#FFFFFF;" d="M255.433,508.197c-32.598,0.114-65.244-5.856-95.814-18.216    C91.056,462.258,35.513,404.568,12.477,334.058C-7.72,272.237-3.334,203.331,25.18,144.815    c15.917-32.665,38.73-61.986,66.807-85.087c70.947-58.386,169.593-73.54,255.334-41.264    c80.46,30.288,140.313,100.744,157.409,184.945c3.666,18.056,5.403,36.492,5.283,54.913    c-0.333,51.426-16.595,101.711-46.604,143.493c-22.587,31.448-52.359,57.54-86.539,75.738    C339.627,497.38,297.637,508.05,255.433,508.197z"/>
	</g>
	<g>
		<g>
			<g>
				<path style="fill:#FFB9C2;" d="M499.543,254.887c-0.001,4.803-0.147,9.605-0.436,14.399      c-1.227,20.341-4.992,40.681-11.469,60.016c-1.628,4.861-3.562,9.613-5.303,14.433c-0.295,0.795-0.613,1.589-0.976,2.384      c-0.84,2.043-1.725,4.086-2.633,6.106c-2.02,4.585-4.222,9.08-6.56,13.484c-2.497,4.767-5.176,9.443-7.99,14.006      c-8.217,13.348-17.752,25.833-28.352,37.296c-3.155,3.405-6.401,6.719-9.761,9.92c-2.225,2.156-4.517,4.268-6.833,6.333      c-1.907,1.725-3.836,3.405-5.788,5.039c-1.453,1.203-2.906,2.383-4.381,3.564c-0.227,0.182-0.431,0.34-0.658,0.522      c-2.315,1.839-4.654,3.609-7.037,5.357c-40.293,29.601-90.187,47.103-144.191,47.103c-9.965,0-19.795-0.59-29.442-1.771      c-0.886-0.091-1.748-0.204-2.633-0.341c-0.681-0.068-1.339-0.159-2.02-0.249c-9.216-1.294-18.251-3.087-27.104-5.38      c-23.449-6.016-45.514-15.459-65.626-27.717c-5.97-3.632-11.759-7.514-17.366-11.645c-0.613-0.454-1.226-0.885-1.839-1.339      c-1.407-1.067-2.792-2.134-4.177-3.201c-0.454-0.341-0.885-0.704-1.317-1.044c-12.099-9.579-23.245-20.316-33.278-31.984      c-0.295-0.341-0.59-0.704-0.908-1.044c-4.676-5.539-9.148-11.305-13.325-17.275c-3.519-5.017-6.856-10.147-10.011-15.436      c-1.544-2.611-3.042-5.244-4.495-7.9c-11.146-20.453-19.363-42.722-24.107-66.194c-0.159-0.749-0.295-1.476-0.454-2.202      c-2.815-14.642-4.29-29.76-4.29-45.241c0-90.548,54.083-175.636,135.225-215.272c17.194-8.399,35.383-14.742,54.071-18.857      c0.454-0.113,0.931-0.227,1.385-0.318c11.652-2.333,23.471-4.16,35.335-4.947c12.031-0.788,24.096-0.697,36.114,0.248      c3.12,0.245,6.208,0.55,9.311,0.952c3.03,0.393,6.1,0.713,9.11,1.227c19.887,3.076,39.531,8.764,58.03,16.676      c18.253,7.807,35.741,18.012,51.521,30.052c13.889,10.598,26.919,22.8,38.158,36.286c0.272,0.272,0.522,0.568,0.772,0.886      c12.436,14.953,23.132,31.271,31.677,48.75c8.805,18.012,15.319,37.142,19.305,56.792      C497.965,222.99,499.547,238.94,499.543,254.887z"/>
			</g>
			<g>
				<g>
					<path style="fill:#FADED3;" d="M18.779,211.275c0.159-0.862,0.318-1.702,0.499-2.542c14.642-19.477,32.166-38.409,52.937-57.25       c12.462-11.305,25.765-22.246,38.636-32.847c32.484-26.764,66.08-54.435,89.098-90.119c1.43-2.225,2.883-4.88,4.132-7.763       c0.454-0.114,0.931-0.227,1.385-0.318c-1.317,3.178-2.928,6.152-4.563,8.694c-23.108,35.844-56.773,63.56-89.325,90.369       c-12.848,10.601-26.151,21.543-38.613,32.824C51.58,171.732,33.647,191.208,18.779,211.275z"/>
				</g>
				<g>
					<path style="fill:#FADED3;" d="M295.334,17.916c-28.148,7.491-53.663,22.178-72.595,42.676       c-20.498,22.223-33.278,50.439-45.627,77.702c-9.262,20.43-18.818,41.541-31.598,60.223       c-12.667,18.478-25.81,28.488-40.202,30.554c-4.744,0.704-9.625,0.454-14.324,0.227c-4.177-0.182-8.49-0.409-12.689,0.045       c-18.092,1.93-35.321,16.571-46.127,39.18c-4.426,9.307-7.763,19.25-10.987,28.875c-0.545,1.634-1.089,3.269-1.657,4.926       c-0.159-0.749-0.295-1.476-0.454-2.202c0.363-1.021,0.704-2.066,1.044-3.087c3.224-9.648,6.583-19.635,11.032-28.988       c10.964-22.973,28.534-37.864,47.035-39.839c4.268-0.454,8.649-0.227,12.848-0.045c4.654,0.227,9.466,0.454,14.119-0.204       c14.051-2.043,26.945-11.872,39.43-30.1c12.712-18.569,22.269-39.634,31.485-60.019c12.394-27.376,25.22-55.661,45.854-78.02       c18.501-20.067,43.266-34.595,70.62-42.336C293.472,17.621,294.403,17.757,295.334,17.916z"/>
				</g>
				<g>
					<path style="fill:#FADED3;" d="M466.447,357.577c5.312-4.563,10.624-9.171,15.89-13.847c-0.295,0.794-0.613,1.589-0.976,2.383       c-4.699,4.154-9.42,8.263-14.165,12.326c-12.78,11.01-23.994,16.526-33.46,16.526c-4.04,0-7.763-0.999-11.168-2.996       c-9.33-5.516-13.847-18.342-12.099-34.323c3.019-27.399,17.865-54.435,44.129-80.358c1.385-1.362,2.792-2.724,4.2-4.086       c6.152-5.947,12.53-12.099,17.207-19.363c6.492-10.124,8.354-21.02,5.108-29.873c-2.611-7.082-8.49-12.44-16.617-15.141       c-10.805-3.587-23.858-1.93-33.278,4.199c-16.503,10.805-24.743,30.077-31.78,48.873l-0.477,1.317       c-6.901,18.478-14.029,37.591-29.192,49.986c-16.73,13.688-41.655,15.981-60.609,5.562       c-21.27-11.668-33.755-38.522-30.373-65.308c2.928-23.336,16.594-45.945,38.477-63.674       c20.702-16.775,45.582-26.968,67.169-34.754l4.199-1.498c18.455-6.583,37.546-13.393,50.576-27.762       c1.475-1.634,2.769-3.246,3.836-4.835c0.272,0.272,0.522,0.567,0.772,0.885c-1.067,1.566-2.338,3.11-3.768,4.699       c-13.211,14.573-32.439,21.452-51.03,28.08l-4.199,1.498c-21.52,7.741-46.286,17.91-66.852,34.572       c-21.633,17.524-35.162,39.884-38.068,62.947c-3.314,26.332,8.944,52.71,29.805,64.15c18.546,10.192,42.949,7.945,59.338-5.448       c14.937-12.212,21.996-31.167,28.852-49.486l0.477-1.317c7.105-19,15.436-38.454,32.234-49.441       c9.67-6.311,23.132-8.013,34.255-4.313c8.444,2.792,14.596,8.399,17.32,15.822c3.36,9.171,1.476,20.43-5.221,30.872       c-4.744,7.378-11.168,13.575-17.388,19.568c-1.385,1.362-2.792,2.701-4.177,4.063c-26.06,25.742-40.815,52.551-43.789,79.677       c-0.636,5.811-1.702,25.401,11.554,33.21C434.077,377.417,448.627,372.923,466.447,357.577z"/>
				</g>
			</g>
		</g>
		<g>
			<g>
				<g>
					<g>
						<path style="fill:#FF5E5E;" d="M150.5,213.193c-8.636,32.132-0.801,66.488,11.487,97.408        c6.735,16.947,14.876,33.486,26.032,47.912c11.156,14.426,25.494,26.711,42.388,33.579c19.948,8.11,42.275,8.282,63.643,5.614        c7.539-0.941,15.158-2.258,21.984-5.592c7.925-3.87,14.353-10.257,19.895-17.118c25.135-31.122,33.885-72.413,36.338-112.342        c0.998-16.242,1.072-32.69-2.275-48.615c-3.347-15.924-10.326-31.405-21.873-42.871        c-14.368-14.266-34.655-21.228-54.773-23.515c-32.184-3.658-64.746,3.565-95.17,14.681        C173.985,171.173,157.309,187.863,150.5,213.193z"/>
					</g>
				</g>
				<g style="opacity:0.75;">
					<g>
						<path style="fill:#331510;" d="M150.5,213.193c-8.636,32.132-0.801,66.488,11.487,97.408        c6.735,16.947,14.876,33.486,26.032,47.912c11.156,14.426,25.494,26.711,42.388,33.579c19.948,8.11,42.275,8.282,63.643,5.614        c7.539-0.941,15.158-2.258,21.984-5.592c7.925-3.87,14.353-10.257,19.895-17.118c25.135-31.122,33.885-72.413,36.338-112.342        c0.998-16.242,1.072-32.69-2.275-48.615c-3.347-15.924-10.326-31.405-21.873-42.871        c-14.368-14.266-34.655-21.228-54.773-23.515c-32.184-3.658-64.746,3.565-95.17,14.681        C173.985,171.173,157.309,187.863,150.5,213.193z"/>
					</g>
				</g>
			</g>
			<g>
				<g>
					<g>
						<g>
							<path style="fill:#D3542B;" d="M435.187,416.557c-21.699-15.117-43.96-28.394-68.94-37.544         c-9.673-3.543-19.461-6.758-29.187-10.148c-9.007-3.139-17.429-6.023-23.133-14.254c-3.033-4.377-4.581-9.6-5.776-14.79         c-1.105-4.801-7.37-58.171-4.989-58.239c-0.097,0.003-11.191,0.318-11.191,0.318l-1.362,0.045l-67.692,1.93         c-0.023,0-0.023,0.091,0,0.295c0,0.046,0.023,0.113,0.046,0.159c0.045,0.363,0.091,0.976,0.182,1.771         c1.627,14.215,2.372,28.6,1.309,42.886c-0.855,11.494-1.616,25.982-9.433,35.148c-6.874,8.06-18.5,11.962-27.574,17.011         c-11.003,6.122-21.838,12.546-32.489,19.261c-7.927,4.998-15.751,10.157-23.467,15.474         c-1.578,1.088-20.497,15.535-20.598,15.455c0.658,0.522,1.294,0.999,1.952,1.498c5.902,4.654,11.986,9.012,18.274,13.098         c22.064,14.346,46.331,25.265,72.186,32.007c9.058,2.361,18.319,4.222,27.74,5.516c0.749,0.113,1.498,0.227,2.27,0.318         c0.863,0.114,1.748,0.227,2.633,0.318c9.398,1.135,18.977,1.702,28.67,1.702c56.841,0,109.346-19.681,151.773-52.959         c2.497-1.952,4.971-3.95,7.4-6.015L435.187,416.557z"/>
						</g>
					</g>
					<g>
						<g>
							<g>
								<path style="fill:#331510;" d="M303.723,304.073c-10.132,9.347-23.492,15.104-36.993,15.519          c-10.834,0.327-29.161-4.035-42.297-12.641c-0.421-13.115-1.516-23.085-1.516-23.085l80.272-2.285          C303.19,281.581,303.05,291.373,303.723,304.073z"/>
							</g>
						</g>
					</g>
				</g>
				<g>
					<g>
						<path style="fill:#7EA8C5;" d="M435.822,417.011c-3.155,3.405-6.401,6.719-9.761,9.92c-0.749-0.045-1.521-0.068-2.27-0.113        c-2.429,2.066-4.903,4.063-7.4,6.015c-42.426,33.278-94.932,52.959-151.773,52.959c-9.693,0-19.272-0.567-28.67-1.702        c-0.885-0.091-1.771-0.204-2.633-0.318c-0.772-0.091-1.521-0.204-2.27-0.318c-9.421-1.294-18.682-3.155-27.74-5.516        c-25.855-6.742-50.122-17.661-72.186-32.007c-6.288-4.086-12.372-8.444-18.274-13.098c-0.658-0.499-1.294-0.976-1.952-1.498        c2.179-1.816,4.404-3.587,6.674-5.357c2.588-2.02,5.244-3.995,7.9-5.97c1.907-1.362,3.791-2.724,5.698-4.063        c7.945,2.792,15.981,5.221,24.085,7.287c0.794,0.227,1.566,0.431,2.361,0.613c25.901,6.469,52.506,9.579,79.314,10.056        c10.601,0.227,21.248,0,31.894-0.59c2.361-0.113,4.722-0.272,7.105-0.454c0.953-0.045,1.929-0.113,2.905-0.204        c22.564-1.703,45.105-4.994,67.328-9.421c0.681-0.136,1.317-0.272,1.975-0.386c5.698-1.158,11.373-2.383,17.002-3.677        c16.98-3.882,34.073-8.467,50.167-15.254c0.113-0.068,0.204-0.091,0.295-0.136c6.424,4.018,13.529,8.558,19.59,12.78        C435.414,416.716,435.618,416.852,435.822,417.011z"/>
					</g>
				</g>
			</g>
			<g>
				<g>
					<g>
						<g>
							<path style="fill:#D3542B;" d="M360.288,146.311c0,4.443-0.303,8.821-0.824,13.09c-0.13,6.632-0.303,14.087-0.542,21.954         c-0.087,2.536-0.173,5.093-0.282,7.672v0.022c-0.325,8.192-0.737,16.558-1.257,24.62c-0.043,0.672-0.087,1.322-0.13,1.972         c-0.368,5.483-0.802,10.836-1.3,15.799c-0.824,8.539-1.842,16.06-3.078,21.716v0.022c-0.13,0.542-0.238,1.062-0.368,1.561         c-2.124,8.777-6.61,15.929-12.462,21.673h-0.022c-0.78,0.78-1.582,1.517-2.406,2.21l-0.022,0.022         c-3.229,2.839-6.784,5.288-10.555,7.434c-10.403,5.917-22.345,9.384-32.964,11.226h-0.022         c-2.124,0.369-4.204,0.694-6.199,0.932c-11.443,1.387-31.75,2.904-52.036,1.452h-0.022         c-12.83-0.932-25.639-3.056-36.172-7.195c-3.706-1.43-7.13-3.121-10.165-5.115c-2.622-1.691-4.963-3.598-6.935-5.743         c-1.842-2.015-3.511-4.53-5.028-7.542c-1.387-2.731-2.623-5.852-3.771-9.254c-1.885-5.7-3.446-12.18-4.725-19.072         c-1.452-7.737-2.536-15.995-3.381-24.187c-0.043-0.455-0.087-0.91-0.13-1.365c-0.78-7.867-1.322-15.626-1.669-22.821         c-0.152-2.514-0.26-4.941-0.347-7.282c-0.672-16.623-0.477-28.651-0.477-28.651s-0.542-10.013-0.542-15.149         c0-56.11,44.299-101.558,98.914-101.558h0.932c2.492,0.022,4.963,0.152,7.369,0.347         c46.618,4.009,84.003,41.135,89.812,88.381l0.26-0.043c0,0,0,0.737,0,2.081C360.093,139.051,360.288,142.67,360.288,146.311z         "/>
						</g>
					</g>
				</g>
				<g>
					<g>
						<g>
							<g>
								<g>
									<g>
										<g>
											<g>
												<g>
													<g>
														<path style="fill:#331510;" d="M222.692,176.599c-0.232,5.534-4.864,9.833-10.345,9.603                c-5.481-0.23-9.736-4.903-9.504-10.437c0.232-5.534,4.864-9.833,10.345-9.603                C218.669,166.393,222.924,171.065,222.692,176.599z"/>
													</g>
												</g>
												<g>
													<g>
														<path style="fill:#331510;" d="M310.977,173.23c-0.232,5.534-4.864,9.833-10.345,9.603                c-5.481-0.23-9.736-4.903-9.504-10.437c0.232-5.534,4.864-9.833,10.345-9.603                C306.954,163.024,311.209,167.697,310.977,173.23z"/>
													</g>
												</g>
											</g>
										</g>
									</g>
									<g style="opacity:0.16;">
										<g>
											<path style="fill:#FF5E5E;" d="M229.104,231.983c0,23.081-18.703,41.807-41.807,41.807c-1.365,0-2.666-0.087-4.009-0.195             c-2.817-1.82-5.353-3.879-7.477-6.198c-0.715-0.78-1.409-1.626-2.081-2.557c-1.885-5.7-3.446-12.18-4.725-19.072             c-1.452-7.737-2.536-15.995-3.381-24.187c-0.043-0.455-0.087-0.91-0.13-1.365c-0.78-7.867-1.322-15.626-1.669-22.821             c6.675-4.551,14.759-7.217,23.471-7.217C210.4,190.176,229.104,208.902,229.104,231.983z"/>
										</g>
									</g>
									<g style="opacity:0.16;">
										<g>
											<path style="fill:#FF5E5E;" d="M358.641,189.028v0.022c-0.325,8.192-0.737,16.558-1.257,24.62             c-0.043,0.672-0.087,1.322-0.13,1.972c-0.368,5.483-0.802,10.836-1.3,15.799c-0.824,8.539-1.842,16.06-3.078,21.716             v0.022c-2.037,3.143-4.421,5.982-7.065,8.582h-0.022c-0.845,0.845-1.712,1.626-2.601,2.384l-0.022,0.022             c-2.774,0.563-5.635,0.867-8.561,0.867c-23.081,0-41.807-18.703-41.807-41.807c0-23.103,18.725-41.807,41.807-41.807             C343.535,181.421,351.836,184.238,358.641,189.028z"/>
										</g>
									</g>
								</g>
							</g>
						</g>
						<g>
							<g>
								<path style="fill:#331510;" d="M262.306,212.709c-1.672,0-3.29-0.548-4.862-1.082c-1.687-0.574-3.307-1.113-4.923-1.031          c-0.924,0.047-1.887,0.299-2.818,0.543c-1.64,0.43-3.334,0.871-5.003,0.301c-2.254-0.767-3.396-3.026-3.713-4.884          c-0.348-2.057,0.058-4.159,0.415-6.01c0.058-0.293,0.35-0.479,0.634-0.43c0.295,0.058,0.488,0.341,0.43,0.634          c-0.339,1.762-0.725,3.76-0.41,5.624c0.333,1.949,1.508,3.533,2.995,4.041c1.363,0.459,2.829,0.082,4.378-0.324          c0.984-0.259,2.002-0.525,3.037-0.579c1.84-0.095,3.616,0.503,5.327,1.086c1.875,0.636,3.649,1.23,5.447,0.956          c1.886-0.297,3.651-1.552,5.358-2.767c2.421-1.722,4.924-3.503,7.785-2.485c0.122,0.042,0.248,0.093,0.372,0.142          c0.37,0.149,0.718,0.295,1.015,0.235c0.907-0.16,0.878-1.931,0.862-2.286c-0.767-17.59-5.292-35.23-13.084-51.015          c-0.133-0.268-0.022-0.592,0.246-0.725c0.264-0.133,0.594-0.022,0.725,0.246c7.859,15.919,12.421,33.709,13.195,51.448          c0.082,1.92-0.574,3.19-1.756,3.401c-0.603,0.097-1.135-0.109-1.605-0.297c-0.113-0.044-0.224-0.089-0.332-0.129          c-2.341-0.82-4.502,0.714-6.795,2.348c-1.811,1.288-3.68,2.618-5.819,2.953C263.038,212.685,262.67,212.709,262.306,212.709          z"/>
							</g>
						</g>
						<g>
							<g style="opacity:0.38;">
								<g>
									<path style="fill:#331510;" d="M300.503,229.664c-6.336-0.055-12.66-1.302-18.543-3.655           c-2.76-1.104-5.424-2.449-8.234-3.422c-6.092-2.109-12.803-2.388-19.049-0.793c-5.657,1.445-10.81,4.345-16.101,6.812           c-5.291,2.467-10.985,4.555-16.812,4.196C247.192,238.995,274.923,235.193,300.503,229.664z"/>
								</g>
							</g>
							<g>
								<g>
									<path style="fill:#331510;" d="M260.98,248.617c-2.554,0-5.105-0.372-7.557-1.12c-0.286-0.089-0.448-0.39-0.361-0.676           c0.086-0.291,0.397-0.446,0.676-0.361c5.187,1.581,10.847,1.41,15.937-0.485c0.281-0.109,0.592,0.038,0.696,0.319           c0.104,0.279-0.038,0.592-0.319,0.696C267.148,248.072,264.064,248.617,260.98,248.617z"/>
								</g>
							</g>
						</g>
						<g>
							<g>
								<path style="fill:#FFC17D;" d="M244.74,217.267c-1.636,0-3.279-0.552-4.524-1.603c-2.031-1.716-2.924-4.693-2.172-7.242          c0.521-1.767,1.756-3.294,3.389-4.185c1.605-0.876,3.553-1.113,5.342-0.636c0.29,0.075,0.463,0.372,0.386,0.661          c-0.078,0.291-0.375,0.465-0.661,0.386c-1.525-0.401-3.181-0.204-4.549,0.541c-1.383,0.756-2.43,2.046-2.871,3.54          c-0.632,2.15,0.122,4.662,1.835,6.107c1.709,1.45,4.316,1.778,6.329,0.789c2.015-0.982,3.363-3.232,3.279-5.471          c-0.011-0.299,0.222-0.55,0.521-0.561c0.295,0,0.55,0.222,0.561,0.521c0.102,2.654-1.496,5.32-3.886,6.486          C246.797,217.05,245.769,217.267,244.74,217.267z"/>
							</g>
						</g>
					</g>
					<g>
						<g>
							<path style="fill:#331510;" d="M225.767,140.327c-5.21-2.751-11.48-2.91-17.232-1.639         c-5.753,1.271-11.114,3.865-16.414,6.438c-4.822,2.34-11,6.528-14.08,10.914c6.035,0.318,8.986,0.296,12.993,0.195         c8.138-0.205,16.275-0.409,24.413-0.614c3.071-0.077,6.2-0.164,9.103-1.17c2.903-1.005,5.598-3.094,6.543-6.017         C232.036,145.512,228.484,141.762,225.767,140.327z"/>
						</g>
					</g>
					<g>
						<g>
							<path style="fill:#331510;" d="M285.214,139.958c5.21-2.751,11.48-2.91,17.232-1.639c5.753,1.271,11.114,3.865,16.414,6.438         c4.822,2.34,11,6.528,14.08,10.914c-6.035,0.318-8.986,0.296-12.993,0.195c-8.138-0.204-16.275-0.409-24.413-0.613         c-3.071-0.077-6.2-0.164-9.103-1.17c-2.903-1.005-5.598-3.094-6.543-6.017C278.945,145.143,282.497,141.393,285.214,139.958z         "/>
						</g>
					</g>
					<g>
						<g>
							<circle style="fill:#FF5E5E;" cx="258.275" cy="131.836" r="8.669"/>
						</g>
					</g>
				</g>
			</g>
			<g>
				<g>
					<g>
						<path style="fill:#331510;" d="M253.184,35.55c0.823,6.37,1.646,12.739,2.469,19.109c0.375,2.899,0.652,6.146-1.275,8.435        c-2.243,2.662-6.38,2.821-9.986,2.984c-26.984,1.218-52.815,16.238-66.041,38.401c-3.285,5.505-5.854,11.48-6.639,17.75        c-1.457,11.629,3.25,23.043,7.11,34.175c3.86,11.132,6.899,23.452,2.287,34.327c-3.439,8.11-10.716,14.299-14.629,22.216        c-6.484,13.119-1.83,30.254,10.55,38.836c6.922,4.799,16.407,7.788,19.242,15.425c1.565,4.214,0.608,8.835,0.677,13.299        c0.069,4.464,1.795,9.582,6.25,11.119c2.75,0.949,5.885,0.269,8.671,1.119c5.582,1.703,7.211,8.587,6.05,13.999        c-1.161,5.413-4.133,10.517-4.149,16.039c-0.017,5.551,3.02,10.782,7.02,14.862c-20.608-12.471-40.923-27.363-50.327-48.651        c-2.027-4.588-3.608-9.348-5.797-13.87c-11.28-23.302-37.781-38.674-45.354-63.267c-6.24-20.267,1.927-41.717,9.985-61.409        c7.61-18.596,12.223-39.014,21.483-56.935c9.26-17.921,22.015-34.646,39.278-46.19        C207.324,35.78,232.497,31.278,253.184,35.55z"/>
					</g>
				</g>
				<g>
					<g>
						<path style="fill:#331510;" d="M252.557,35.738c-0.803,6.37,1.758,12.551,0.955,18.921c-0.366,2.899-0.637,6.146,1.245,8.435        c2.189,2.662,6.226,2.821,9.745,2.984c26.335,1.218,51.545,16.238,64.452,38.401c3.206,5.505,5.712,11.48,6.479,17.75        c1.422,11.629-3.172,23.043-6.939,34.175c-3.767,11.132-6.733,23.452-2.232,34.327c3.356,8.11,10.458,14.299,14.277,22.216        c6.328,13.119,1.786,30.254-10.297,38.836c-6.756,4.799-16.012,7.788-18.78,15.425c-1.527,4.214-0.594,8.835-0.661,13.299        s-1.752,9.582-6.1,11.119c-2.684,0.949-5.743,0.269-8.463,1.119c-5.448,1.703-7.037,8.587-5.905,13.999        c1.133,5.413,4.033,10.517,4.049,16.039c0.016,5.551-2.948,10.782-6.851,14.862c20.113-12.471,39.939-27.363,49.117-48.651        c1.978-4.588,3.521-9.348,5.657-13.87c11.009-23.302,36.872-38.674,44.262-63.267c6.09-20.267-1.88-41.717-9.745-61.409        c-7.427-18.596-11.93-39.014-20.967-56.935c-9.037-17.921-21.485-34.646-38.333-46.19        C300.678,35.78,272.747,31.467,252.557,35.738z"/>
					</g>
				</g>
				<g>
					<g>
						<path style="fill:#331510;" d="M215.995,308.566l-0.893-0.612c1.831-2.669,2.17-6.329,0.907-9.792        c-1.264-3.46-3.881-6.039-7.003-6.897c-0.929-0.257-1.924-0.397-2.888-0.532c-1.561-0.217-3.172-0.443-4.64-1.162        c-4.972-2.436-5.648-8.891-5.708-11.554c-0.031-1.352,0.024-2.729,0.078-4.059c0.12-2.917,0.242-5.932-0.565-8.721        c-1.299-4.493-5.05-8.535-11.146-12.011c-1.583-0.902-3.243-1.749-4.85-2.567c-3.46-1.762-7.039-3.585-10.102-6.105        c-8.2-6.748-11.873-18.588-8.932-28.794c1.946-6.75,6.36-12.37,10.63-17.805c2.6-3.312,5.291-6.737,7.395-10.383        c5.801-10.044,7.349-22.694,4.139-33.84c-0.958-3.33-2.337-6.599-3.671-9.761c-1.652-3.922-3.363-7.976-4.31-12.214        c-2.179-9.761-0.226-20.663,5.358-29.914c5.112-8.47,13.039-15.484,22.926-20.282c8.555-4.152,17.967-6.349,27.069-8.475        c4.879-1.139,9.922-2.316,14.771-3.782c2.855-0.862,6.072-1.98,8.1-4.363c3.543-4.161,2.463-10.37,0.769-16.462l1.042-0.29        c1.776,6.38,2.884,12.908-0.987,17.453c-2.219,2.607-5.608,3.793-8.61,4.7c-4.884,1.474-9.945,2.656-14.837,3.8        c-9.045,2.113-18.397,4.296-26.843,8.395c-9.698,4.706-17.471,11.574-22.474,19.865c-5.44,9.016-7.347,19.628-5.225,29.12        c0.924,4.143,2.614,8.151,4.25,12.029c1.346,3.19,2.736,6.491,3.713,9.88c3.288,11.425,1.702,24.389-4.241,34.682        c-2.144,3.713-4.859,7.169-7.484,10.512c-4.203,5.354-8.55,10.889-10.439,17.437c-2.826,9.801,0.701,21.173,8.577,27.655        c2.973,2.447,6.497,4.241,9.907,5.979c1.618,0.822,3.292,1.676,4.895,2.591c6.349,3.62,10.27,7.876,11.651,12.649        c0.856,2.959,0.729,6.063,0.607,9.067c-0.053,1.312-0.109,2.671-0.08,3.988c0.055,2.465,0.665,8.433,5.103,10.607        c1.312,0.641,2.771,0.847,4.314,1.062c0.998,0.14,2.029,0.286,3.026,0.559c3.458,0.953,6.349,3.782,7.732,7.573        C218.409,301.581,218.023,305.609,215.995,308.566z"/>
					</g>
				</g>
				<g>
					<g>
						<path style="fill:#331510;" d="M316.582,277.815c-4.294-6.307-0.907-14.897,4.059-20.208c2.119-2.264,4.556-4.263,6.91-6.196        c3.121-2.558,6.347-5.205,8.785-8.453c5.44-7.244,6.518-17.63,2.68-25.839c-1.534-3.281-3.789-6.24-5.97-9.102        c-1.831-2.403-3.724-4.888-5.216-7.581c-5.985-10.811-5.881-24.964,0.326-43.259c0.605-1.782,1.239-3.576,1.878-5.374        c3.833-10.805,7.797-21.975,5.593-33.037c-2.011-10.093-9.109-19.57-21.1-28.165c-11.698-8.382-25.316-14.436-39.377-17.51        c-0.831-0.182-1.665-0.355-2.501-0.528c-3.673-0.758-7.47-1.541-10.94-3.154c-4.957-2.308-8.333-6.059-9.266-10.286        l1.059-0.235c0.858,3.897,4.017,7.373,8.663,9.537c3.356,1.561,7.089,2.332,10.703,3.079c0.838,0.173,1.678,0.346,2.512,0.528        c14.205,3.106,27.961,9.224,39.776,17.688c12.223,8.761,19.468,18.462,21.534,28.834c2.261,11.354-1.753,22.669-5.635,33.611        c-0.636,1.795-1.27,3.582-1.875,5.362c-6.101,17.989-6.231,31.853-0.401,42.385c1.452,2.623,3.321,5.077,5.127,7.446        c2.217,2.909,4.509,5.917,6.089,9.302c4.004,8.561,2.88,19.393-2.795,26.95c-2.514,3.35-5.792,6.038-8.962,8.639        c-2.328,1.911-4.735,3.886-6.806,6.099c-4.68,5.005-7.914,13.044-3.955,18.856L316.582,277.815z"/>
					</g>
				</g>
			</g>
			<g>
				<g>
					<g>
						<path style="fill:#FF5E5E;" d="M364.816,103.818c1.725,3.269,3.337,6.583,4.858,9.943c1.385,3.019,2.679,6.061,3.904,9.148        c0.477,1.112,0.908,2.225,1.339,3.337c1.362,3.587,2.656,7.196,3.836,10.873c0.136,0.341,0.25,0.704,0.363,1.067        c6.969,21.474,11.123,44.106,13.416,66.716c1.226,11.6,2.02,23.54,6.787,34.141c0.113,0.295,0.249,0.59,0.386,0.885        c0.091,0.182,0.159,0.363,0.272,0.522c7.4,15.186,22.133,25.265,34.368,37.001c0.431,0.431,0.885,0.84,1.317,1.294        c0.272,0.25,0.545,0.522,0.817,0.794c19.136,19.091,32.234,42.835,40.883,68.577c0.159,0.386,0.272,0.772,0.409,1.158        c0.318,0.976,0.636,1.952,0.953,2.951c-11.627,26.388-28.559,50.502-48.851,70.944c-7.378,7.432-15.232,14.395-23.512,20.807        c-1.65,1.278-3.317,2.535-4.999,3.771c-40.293,29.601-90.187,47.103-144.191,47.103c-9.965,0-19.795-0.59-29.442-1.771        c-0.443-0.045-0.208-1.038-0.645-1.095c-0.437-0.057-1.545,0.823-1.988,0.755c-0.681-0.068-1.339-0.159-2.02-0.249        c-4.124-0.579-3.948-10.496-8-11.275c-5.002-0.962-14.213,7.162-19.104,5.895c-23.449-6.016-45.514-15.459-65.626-27.717        c-18.991-11.575-36.368-25.822-51.533-42.084c-4.372-4.688-8.556-9.551-12.532-14.579        c-8.492-10.739-16.078-22.194-22.649-34.205c4.699-9.443,10.601-18.319,17.547-26.264        c5.902-6.719,12.757-13.234,15.096-21.883c2.565-9.489-0.863-19.409-3.065-28.988c-4.631-20.226-3.541-41.223,1.385-61.449        c0.091-0.409,0.182-0.817,0.318-1.226c3.178-12.803,7.9-25.288,13.665-37.115c6.333-12.939,13.257-24.743,20.793-36.07        c0.794-1.226,1.612-2.452,2.474-3.655c2.225-3.314,4.54-6.583,6.901-9.852c0,0,1.734,91.717,25.747,123.012        s48.767,43.301,63.175,59.003c14.408,15.701,55.651,84.048,55.651,84.048s30.576-33.711,57.24-81.739        c26.664-48.027,44.213-89.128,45.136-125.148C366.621,165.177,364.816,103.818,364.816,103.818z"/>
					</g>
				</g>
				<g>
					<g>
						<path style="fill:#FFC17D;" d="M371.763,164.495c0.295,15.232-0.658,30.418-2.724,45.491        c-1.748,13.053-4.313,25.992-7.559,38.794c-4.744,18.637-10.941,36.933-18.273,54.73c-0.159,0.409-0.318,0.817-0.499,1.226        c-1.748,4.222-3.564,8.399-5.425,12.553c-6.265,13.915-13.189,27.512-20.612,40.837        c-7.491,13.507-15.504,26.741-23.903,39.748c-7.695,11.986-15.731,23.79-23.949,35.435        c-4.404,6.265-8.876,12.508-13.393,18.705c-7.763,10.646-15.777,21.315-24.38,31.44c-2.588,3.065-5.244,6.084-7.968,9.035        c-9.216-1.294-18.251-3.087-27.104-5.38c2.475-3.042,4.926-6.106,7.332-9.171c5.92-7.437,69.054-88.91,66.625-90.891        c0.613,0.499,1.249,0.976,1.884,1.453c0.182,0.136,0.34,0.272,0.499,0.386c0.159,0.113,0.318,0.25,0.477,0.341        c11.468-19.485,22.261-39.373,33.478-59.004c11.089-19.407,21.917-39.081,29.864-60.023        c11.435-30.134,18.033-62.086,19.519-94.281c0.64-13.879,0.332-27.803-0.938-41.639c-1.841-20.047-5.881-39.938-12.619-58.926        c-0.567-1.657-1.158-3.291-1.725-4.903c-0.318-0.862-0.613-1.748-0.908-2.61c0.023,0.023,0.045,0.023,0.045,0.045        c0.567,0.59,1.385,1.249,2.111,1.884c0.272,0.25,0.545,0.477,0.772,0.726c0.159,0.159,0.318,0.318,0.454,0.477        c8.626,10.124,15.913,21.156,21.974,32.847c0.204,0.636,0.363,1.294,0.545,1.975c1.997,8.013,3.36,16.14,4.313,24.335        c0.409,3.36,0.726,6.742,0.976,10.102c0.045,0.408,0.068,0.794,0.091,1.18C371.309,149.082,371.604,156.8,371.763,164.495z"/>
					</g>
				</g>
			</g>
			<g>
				<g>
					<path style="fill:#FFC17D;" d="M256.477,413.015c0.282,0.607-0.325,0.498-0.022-0.043       C256.455,412.993,256.477,412.993,256.477,413.015z"/>
				</g>
			</g>
			<g>
				<g>
					<path style="fill:#FFC17D;" d="M256.477,412.95c0,0,0,0.022-0.022,0.022c-12.57-26.267-28.478-50.931-47.268-73.167       c-7.282-8.626-14.997-16.883-23.146-24.685c-10.49-10.013-21.738-19.267-31.534-29.952       c-19.787-21.586-33.246-48.915-38.339-77.762c-3.814-21.651-2.882-44.104,2.579-65.386       c7.78-10.793,16.125-21.369,24.988-32.314c-20.632,47.767-19.397,107.583,10.706,150.018       c16.515,23.276,40.593,40.138,58.191,62.59c5.83,7.412,10.88,15.388,16.471,22.995c12.028,16.384,26.484,30.992,42.717,43.194       C266.706,396.652,261.591,404.801,256.477,412.95z"/>
				</g>
			</g>
			<g>
				<g>
					<path style="fill:#FFC17D;" d="M372.421,231.733c0,0.046-0.023,0.068-0.023,0.114c-0.318,1.884-0.681,3.814-1.067,5.72v0.068       c-4.04,21.089-9.988,42.313-17.819,63.356c-0.159,0.454-0.341,0.908-0.5,1.362c-3.723,9.897-7.877,19.772-12.44,29.578       c-4.926,10.601-10.306,21.157-16.208,31.689v0.023c-5.97,10.76-12.485,21.52-19.545,32.28c-0.023,0-0.023,0.023-0.023,0.023       c-7.945,12.19-16.594,24.38-25.969,36.706l-0.023,0.023c-12.848,16.866-27.081,33.937-42.858,51.416       c-2.701,2.974-5.425,5.97-8.217,8.989c-0.886-0.091-1.748-0.204-2.633-0.341c2.792-2.996,5.539-5.993,8.217-8.966       c15.663-17.297,29.828-34.209,42.608-50.893v-0.023c9.352-12.19,17.956-24.266,25.901-36.297c0-0.023,0.023-0.023,0.023-0.046       c7.468-11.327,14.324-22.654,20.657-33.959c5.834-10.487,11.191-20.975,16.094-31.53c4.29-9.239,8.217-18.546,11.781-27.876       c0.159-0.431,0.318-0.863,0.499-1.317c7.605-20.203,13.484-40.588,17.57-60.836v-0.068c1.203-5.857,2.247-11.668,3.11-17.502       v-0.023c4.154-27.331,5.017-54.321,2.497-80.313c0,0,0,0,0-0.023c-0.091-0.953-0.182-1.884-0.295-2.837       c-0.045-0.386-0.091-0.772-0.113-1.158c-0.976-8.558-2.293-17.002-3.973-25.311c1.385,3.019,2.679,6.061,3.904,9.148       c0.84,5.062,1.566,10.169,2.134,15.345c0.068,0.386,0.113,0.772,0.113,1.158c0.431,3.7,0.772,7.4,1.044,11.146       C378.732,176.889,377.211,204.152,372.421,231.733z"/>
				</g>
			</g>
			<g>
				<g>
					<path style="fill:#FFC17D;" d="M251.106,424.491l-2.066,0.681c-0.59-1.816-1.203-3.609-1.861-5.38       c-3.201-8.921-7.128-17.547-11.69-25.81c-4.154-7.514-8.853-14.755-14.097-21.679c-2.02-2.656-4.109-5.267-6.265-7.832       c-10.987-13.052-23.563-24.902-35.798-36.388c-5.539-5.198-11.237-10.555-16.73-15.958c-0.204-0.204-0.409-0.409-0.613-0.613       c-17.502-17.32-38.704-40.996-47.262-70.484c-3.11-10.783-4.358-21.792-5.108-30.191c-1.589-18.387-1.68-36.91-0.25-55.32       c0.795-1.226,1.612-2.451,2.474-3.655c-1.748,19.545-1.771,39.248-0.045,58.793c0.726,8.285,1.952,19.159,5.017,29.782       c7.945,27.422,27.104,49.804,43.811,66.647c0.976,0.999,1.93,1.952,2.883,2.883c5.675,5.607,11.577,11.146,17.297,16.526       c12.167,11.441,24.698,23.199,35.685,36.184c2.293,2.701,4.517,5.471,6.651,8.308c5.721,7.605,10.851,15.595,15.3,23.903       c3.95,7.332,7.378,14.936,10.261,22.768C249.562,419.906,250.356,422.199,251.106,424.491z"/>
				</g>
			</g>
		</g>
	</g>
</g>















</svg>
