<svg width="35" height="23" viewBox="0 0 35 23" fill="none" xmlns="http://www.w3.org/2000/svg">
<path d="M34.9996 16.8458H27.674C28.3252 13.9156 26.0461 10.1985 24.8252 8.70625L28.488 5.04346C31.7438 7.97369 34.1857 14.1326 34.9996 16.8458Z" fill="#336A65"/>
<path d="M0.813477 13.183C8.62743 -0.165853 19.2631 4.2295 23.6042 7.89229L27.6739 4.2295C13.6739 -6.51469 3.93363 5.72175 0.813477 13.183Z" fill="#9DBF82"/>
<path d="M0 22.5436C2.57752 18.2025 9.68605 9.43891 17.5 9.11333C13.1589 6.26449 3.5814 4.96216 0 22.5436Z" fill="#F8DA56"/>
<path d="M12.2096 20.9154C13.7019 22.4076 17.9073 22.2177 22.791 9.52002C18.3143 11.4192 9.93057 16.3572 12.2096 20.9154Z" fill="#336A65"/>
</svg>
