<svg xmlns="http://www.w3.org/2000/svg" viewBox="0 0 320 180" fill="none">
  <rect width="320" height="180" rx="16" fill="#F8FAFC"/>
  <ellipse cx="160" cy="150" rx="120" ry="12" fill="#E2E8F0"/>
  <path d="M58 108h204l-20-34c-5-8-14-14-25-14H103c-11 0-20 6-25 14l-20 34z" fill="#7C3AED"/>
  <path d="M98 62h124l12 26H86l12-26z" fill="#8B5CF6"/>
  <rect x="110" y="70" width="34" height="18" rx="3" fill="#DDD6FE"/>
  <rect x="176" y="70" width="34" height="18" rx="3" fill="#DDD6FE"/>
  <circle cx="108" cy="108" r="18" fill="#1E293B"/>
  <circle cx="108" cy="108" r="9" fill="#64748B"/>
  <circle cx="212" cy="108" r="18" fill="#1E293B"/>
  <circle cx="212" cy="108" r="9" fill="#64748B"/>
  <path d="M86 94h24l8 14H78l8-14z" fill="#FBBF24"/>
</svg>
