<svg xmlns="http://www.w3.org/2000/svg" viewBox="0 0 320 180" fill="none">
  <rect width="320" height="180" rx="16" fill="#F8FAFC"/>
  <ellipse cx="160" cy="150" rx="120" ry="12" fill="#E2E8F0"/>
  <path d="M60 110h200l-18-36c-4-8-12-14-22-14H100c-10 0-18 6-22 14l-18 36z" fill="#2563EB"/>
  <path d="M95 60h130l14 28H81l14-28z" fill="#3B82F6"/>
  <rect x="108" y="68" width="36" height="18" rx="3" fill="#BFDBFE"/>
  <rect x="176" y="68" width="36" height="18" rx="3" fill="#BFDBFE"/>
  <circle cx="105" cy="110" r="18" fill="#1E293B"/>
  <circle cx="105" cy="110" r="9" fill="#64748B"/>
  <circle cx="215" cy="110" r="18" fill="#1E293B"/>
  <circle cx="215" cy="110" r="9" fill="#64748B"/>
  <path d="M88 96h24l8 14H80l8-14z" fill="#FBBF24"/>
</svg>
